<?xml version="1.0" standalone="no"?>
<!DOCTYPE svg PUBLIC "-//W3C//DTD SVG 1.1//EN" "http://www.w3.org/Graphics/SVG/1.1/DTD/svg11.dtd" >
<svg xmlns="http://www.w3.org/2000/svg" xmlns:xlink="http://www.w3.org/1999/xlink" version="1.1">
<metadata>
Created by FontForge 20230101 at Wed Apr 19 12:20:11 2023
 By Winky
Copyright (C) 2020 LXGW. Original Font Data Copyright (C) Y.OzVox.
</metadata>
<defs>
<font id="icona" horiz-adv-x="1024" >
  <font-face 
    font-family="icona"
    font-weight="300"
    font-stretch="normal"
    units-per-em="1000"
    panose-1="2 0 6 0 0 0 0 0 0 0"
    ascent="880"
    descent="-120"
    x-height="464"
    cap-height="698"
    bbox="-0.0666667 -182 1123 895.128"
    underline-thickness="50"
    underline-position="-225"
    unicode-range="U+002F-EEAE"
  />
<missing-glyph horiz-adv-x="1000" 
 />
    <glyph glyph-name=".notdef" horiz-adv-x="1000" 
 />
    <glyph glyph-name=".null" horiz-adv-x="0" 
 />
    <glyph glyph-name="nonmarkingreturn" horiz-adv-x="333" 
 />
    <glyph glyph-name="slash" unicode="/" horiz-adv-x="389" 
d="M17 -59q-13 5 -16 22q101 198 192 400.5t194 400.5q6 4 19 4q8 -2 15 -15v-15q-97 -197 -187.5 -398t-196.5 -395q-6 -4 -20 -4z" />
    <glyph glyph-name="zero" unicode="0" horiz-adv-x="569" 
d="M280 55q13 0 49 7q60 9 73 26l20 17q59 77 61 212v105q-9 106 -112 208q-19 12 -43 12q-47 0 -51 -1q-24 -5 -46 -12q-27 -12 -47 -33q-87 -98 -87 -237l1 -25l-3 -11q11 -67 30.5 -131t70.5 -118q25 -6 48 -14q17 -5 36 -5zM244 12q-19 8 -42 13.5t-41 19.5
q-54 59 -77 132.5t-33 149.5l3 14l-2 41q4 122 84 229l42 42q60 33 149 33q57 0 91 -41q95 -96 110 -210v-121q-5 -172 -87 -253q-39 -37 -91.5 -43t-105.5 -6z" />
    <glyph glyph-name="one" unicode="1" horiz-adv-x="569" 
d="M343 24h-12l-18 17q-2 16 -2 555q-41 -44 -73.5 -79t-67.5 -62q-24 0 -26 14v16q48 46 93.5 101t99.5 95h14q4 -1 9.5 -6.5t5.5 -7.5v-12q-9 -8 -9 -21t-2 -23q0 -547 2 -572q-4 -11 -14 -15z" />
    <glyph glyph-name="two" unicode="2" horiz-adv-x="569" 
d="M438 29q-198 1 -316 3l-34 -2q-7 2 -16 3q-16 4 -16 26q13 44 46 82.5t64 75.5q47 47 105.5 78t112.5 77q76 88 76 168l-1 16l-27 51q-35 25 -91 31h-88q-52 0 -105 -47q-28 -50 -50 -136q-6 -4 -19 -4q-11 3 -14 14l-2 23q8 60 35 105q58 89 152 89h96q85 -12 122 -50
q36 -43 36 -104q0 -57 -38 -120q-29 -41 -64 -81q-47 -38 -103 -66.5t-102 -74.5q-21 -26 -42 -49t-44 -60l327 -4l53 4q10 -4 14 -14v-16q-5 -11 -14 -14z" />
    <glyph glyph-name="three" unicode="3" horiz-adv-x="569" 
d="M301 15l-16 1q-137 0 -211 75q-23 31 -23 62l11 19q6 4 19 4q14 -6 14 -13q0 -23 16 -47q43 -41 97 -46q51 -8 104 -10q39 2 71 21t62 43q20 23 20 57q0 52 -21 88q-18 31 -49 59q-65 26 -174 31l-9 -3l-17 8l-7 16l10 16q47 14 102 15.5t98 37.5q42 42 42 89
q-1 26 -17 52q-11 13 -22 29q-43 30 -121 30l-21 -1q-44 0 -103 -32q-27 -21 -28.5 -50t-12.5 -51q-8 -4 -21 -4q-10 4 -14 14v28q0 25 12 49q48 93 198 93q45 0 97 -17q32 -9 54 -36q45 -56 45 -105q0 -45 -22 -76q-18 -25 -37 -49l-43 -28q35 -14 56 -35q69 -64 69 -179
q0 -52 -39 -86t-87 -52q-40 -17 -82 -17z" />
    <glyph glyph-name="four" unicode="4" horiz-adv-x="569" 
d="M433 20h-14q-3 1 -6 6q-14 11 -17 149q-229 0 -323 2l-10 -3l-16 8l-6 14q148 219 332 452q13 10 24 20.5t23 10.5q6 0 12 -6t6 -8v-15q-89 -94 -164.5 -204.5t-166.5 -221.5l60 -5h227l3 110q0 83 2 164q2 5 15 15h13q11 -8 16 -17q0 -133 -5 -271q23 -3 103 -3
q12 -4 15 -15v-12q-3 -11 -15 -15l-84 -2l-17 3q0 -18 7 -141q-4 -11 -14 -15z" />
    <glyph glyph-name="five" unicode="5" horiz-adv-x="569" 
d="M106 -12l-17 9l-6 15l10 18q3 3 8 3l52 -1q70 6 137.5 16.5t122.5 58.5l31 38q21 44 21 105q-6 47 -40 112q-58 40 -114 40l-20 -1q-46 0 -84.5 -23.5t-75.5 -40.5l-7 2q-14 0 -21 7l-8 15q0 238 -5 292l9 17q9 5 20 5l11 -8q170 0 338 -2q11 -5 14 -14v-14
q-5 -13 -24 -16q-158 0 -322 2q0 -159 6 -232q51 38 101 47q41 7 104 7q66 -15 113 -58q50 -67 50 -153q0 -32 -18 -90q-11 -34 -37 -59h-7l-15 -21q-69 -50 -154.5 -62t-172.5 -14z" />
    <glyph glyph-name="six" unicode="6" horiz-adv-x="569" 
d="M307 51l57 16q28 7 55 21q66 30 66 163q-20 85 -52 125q-40 25 -94 25q-73 -5 -153 -76q-26 -28 -32 -64.5t-10 -75.5q26 -53 51 -75q25 -19 51.5 -39t60.5 -20zM301 5q-38 3 -71 24q-118 73 -138 173q-15 68 -15 170q0 138 114 260q56 48 123 55q55 6 137 6
q9 -3 17 -4.5t14 -7.5q3 -7 3 -21q0 -12 -26 -16q-16 4 -87 4q-112 0 -171 -68q-79 -107 -79 -199q0 -22 7 -54l14 18q100 101 199 101q91 0 138 -54q50 -87 50 -157q0 -99 -53 -163q-61 -45 -176 -67z" />
    <glyph glyph-name="seven" unicode="7" horiz-adv-x="569" 
d="M210 14q-11 4 -15 28q63 335 242 594q-110 0 -210 -5l-56 -1q-63 0 -87 4q-5 3 -10 17q0 13 8.5 16.5t16.5 6.5q54 0 130 3l60 -2q73 1 146 4l39 -2l17 2q4 -1 9 -7t5 -7v-15q-191 -245 -275 -632q-7 -4 -20 -4z" />
    <glyph glyph-name="eight" unicode="8" horiz-adv-x="569" 
d="M294 390l5 4q50 26 98.5 63t111.5 71l-35 17l-17 32l-41 37q-37 7 -71 18q-36 8 -76 8q-34 -3 -65 -7t-60 -25q-34 -35 -34 -90q40 -62 96 -88zM322 58l47 9q25 4 47 15q57 53 60 120l-26 62l-16 12q-18 19 -70 44q-59 16 -71 22q-108 -50 -181 -106q-13 -15 -14.5 -33.5
t-6.5 -37.5q6 -20 19.5 -33t25.5 -27q41 -32 89 -38.5t97 -8.5zM289 14q-130 5 -197 69q-45 45 -45 87q0 67 41 106q53 41 149 90q-82 31 -138 91l-19 30q-15 14 -15 40q4 71 54 120q43 26 91.5 31.5t98.5 5.5q38 -9 80.5 -15.5t69.5 -37.5l3 -6q28 -13 36 -30
q16 -12 16 -36q-1 -6 -11 -20q41 -4 41 -21v-13q-7 -14 -21 -21.5t-23 -16.5q-37 -17 -70 -42t-77 -52q96 -42 136 -87q32 -56 32 -106q-12 -73 -73 -129q-53 -37 -159 -37z" />
    <glyph glyph-name="nine" unicode="9" horiz-adv-x="569" 
d="M307 323l45 15q19 12 29 17q49 31 86 135q-8 26 -18 48q-12 37 -43 62t-71 32q-31 4 -61 4q-62 0 -127 -51q-35 -46 -35 -136q4 -50 45 -85q30 -27 70 -35q33 -6 80 -6zM274 -27q-12 4 -16 23l31 63q65 124 124 261q-71 -43 -148 -43q-94 9 -149 64q-24 25 -35.5 54.5
t-11.5 80.5q0 92 49 143q65 62 163 62q165 0 214 -134l26 -83q-91 -252 -226 -487q-7 -4 -21 -4z" />
    <glyph glyph-name="A" unicode="A" horiz-adv-x="718" 
d="M495 316l7 7q-29 72 -63 136t-66 145q-35 -81 -70 -144t-69 -137l175 -3q19 -4 86 -4zM69 10h-5l-3 2q-11 5 -14 20q89 191 166.5 346t146.5 312q7 4 19 4q13 -6 15 -16q65 -154 134.5 -309.5t142.5 -338.5q-2 -9 -15 -14h-14q-6 2 -15 15l-107 244l-103 -2l-12 4h-163
l-24 -5l-135 -258q-3 -2 -7 -2.5t-7 -1.5z" />
    <glyph glyph-name="B" unicode="B" horiz-adv-x="640" 
d="M144 388l5 4q114 12 205 21t156 82q12 13 13 32v34l-25 54q-76 23 -153.5 26.5t-187.5 4.5q-13 -62 -15 -125t-6 -125zM360 56q70 0 138 33q42 36 46 61q1 6 3 13.5t2 28.5q-2 68 -36 97q-49 39 -107.5 53t-118.5 21l-120 -4l-26 4q-7 -14 -7 -50q0 -46 6 -121
q0 -109 3 -132zM318 12h-14l-143 7q-20 0 -38 -2q-8 4 -15 4q-11 3 -11 21l1 27q-1 124 -7 196q-2 24 -2 46l3 117q13 146 13 245q8 14 15 16q51 1 143 1q72 -9 144 -9.5t131 -44.5q29 -45 29 -105q0 -47 -44 -86l-38 -29l-10 -5q-15 -12 -45 -28q69 -20 128 -75
q35 -40 35 -146q-11 -63 -51 -93q-50 -40 -110 -50q-57 -7 -114 -7z" />
    <glyph glyph-name="C" unicode="C" horiz-adv-x="756" 
d="M335 7h-8q-128 16 -203 82q-75 82 -75 210l1 32l-1 20q0 88 49 157q56 78 124 143q26 20 58 26.5t62 13.5h97q35 -9 70.5 -15t63.5 -30q36 -23 46 -36q22 -25 22 -85q0 -20 -10 -36q-4 -2 -14 -4q-9 0 -15 6q-9 10 -11 57q-1 28 -19 48q-44 39 -134 51h-93
q-92 -13 -129 -65q-127 -109 -127 -285l1 -33q11 -40 25.5 -79.5t46.5 -70.5q88 -62 206 -62q154 20 274 126q19 39 36 48h12q14 -8 16 -14v-15q-42 -82 -148 -132q-110 -58 -223 -58z" />
    <glyph glyph-name="D" unicode="D" horiz-adv-x="718" 
d="M217 54q38 6 107 6l25 -2q42 0 80 12t73 29.5t51.5 47.5t31.5 59q11 35 22.5 70t16.5 70l1 90q-13 44 -40 83t-55 76q-57 35 -119 45t-125 11l-133 -9q0 -17 -5.5 -28t-5.5 -22q0 -124 -3 -209l1 -106l-8 -221zM210 10h-28q-19 5 -37 5q-9 0 -17 -1t-15 -1
q-11 0 -17.5 4.5t-6.5 27.5q6 125 8 336l-2 45l4 42q0 124 4 166l-6 35q10 14 14 15q21 0 35 -2l25 4h41q48 10 121 10q91 -14 131 -24q65 -14 113 -63q27 -42 56.5 -83t35.5 -91l-1 -89q-22 -152 -100 -254q-94 -78 -242 -78l-66 2q-32 -5 -37.5 -5t-12.5 -1z" />
    <glyph glyph-name="E" unicode="E" horiz-adv-x="637" 
d="M404 2q-36 6 -76 7.5t-79 4.5h-75q-53 -8 -75 -8l-8 6q-1 1 -1 14t3 38q-1 20 -1 42q0 31 9 177l3 350l-4 39q5 11 18 17h28q31 -8 52 -8q7 0 90 10q183 0 199 -1l39 2l3 -1q4 0 4 3l-5 -9h8q3 -4 4 -7v-13q-1 -8 -15 -15q-25 -1 -51 -1.5t-88 -3.5q-1 2 -98 2l-137 -5
l-3 -15q0 -152 -4 -251l40 7h175l77 7q13 -5 18 -18q-1 -8 -3 -17t-14 -13l-37 2q-6 0 -41 -5h-177l-16 -4l-20 7l-2 -60q-7 -93 -7 -224q126 0 280 -11q115 1 157 3q10 -4 15 -14v-13q-3 -10 -15 -15q-44 -1 -49 -2q-14 -2 -29 -2q-45 0 -92 -2z" />
    <glyph glyph-name="F" unicode="F" horiz-adv-x="612" 
d="M133 14h-13l-15 12l-8 43l-1 322q5 43 5 101q-2 46 -2 80l1 46l-12 53l10 17q7 4 22 4q3 0 5 -18l12 17l42 -2l146 2q61 -3 126 -4q38 -2 79 -7l21 1l9 -7q4 0 4 2l-1 2l-4 -4q6 -6 6 -7q0 -24 -14 -27l-16 1l-2 -2q-191 7 -388 12l-5 -11q3 -19 3 -74q4 -29 4 -57
q0 -90 -8 -108l132 -9l66 2l39 -2l81 3q11 -4 15 -14v-13q-6 -12 -15 -14l-36 -1v-3q-79 0 -101 -1v1q-101 0 -181 8v-105q2 -90 2 -182q6 -12 6 -43q-1 -10 -14 -14z" />
    <glyph glyph-name="G" unicode="G" horiz-adv-x="682" 
d="M383 12q-144 0 -210 66q-124 131 -124 251l-1 42q0 81 22 133q24 60 76 107q43 50 106 62.5t123 17.5h77q33 -9 60 -14.5t61 -29.5q58 -47 60 -130q-10 -10 -14.5 -11t-11.5 -1q-9 1 -13 15q-23 75 -58 102q-33 13 -87 25h-74q-59 -3 -116.5 -18t-95.5 -64
q-46 -44 -60 -103q-11 -46 -11 -115l1 -33q13 -102 123 -218q72 -40 171 -40q90 0 174 87q19 45 19 84q0 10 -3 24h-71l-96 -7l-20 8q-8 8 -8 21q0 6 6 11.5t9 6.5h13l6 -3l90 7h105q3 -1 8.5 -5.5t6.5 -8.5q-5 -85 -11.5 -128t-61.5 -76q-72 -65 -170 -65z" />
    <glyph glyph-name="H" unicode="H" horiz-adv-x="728" 
d="M119 10h-7q-6 2 -14 15l-1 33q4 36 5 232q-3 139 -8 199v126l-6 59l10 17q6 5 20 5q10 -4 14 -15l6 -66v-126l5 -118h32q62 9 125.5 12t127.5 7h107l59 7q0 59 -5 113q0 119 -2 156l3 12q4 13 28 13q3 -1 8.5 -5.5t6.5 -8.5q0 -23 -2 -46l2 -121q3 -34 3.5 -71t3.5 -74
q0 -266 -23 -350q-6 -3 -19 -3q-12 4 -15 15l-2 25q11 67 12.5 145.5t2.5 154.5q-15 0 -61 -6h-107q-68 -2 -285 -20l1 -232q-2 -19 -2 -45q0 -20 -9 -35q-4 -2 -7.5 -2.5t-6.5 -1.5z" />
    <glyph glyph-name="I" unicode="I" horiz-adv-x="386" 
d="M228 11q-51 5 -100.5 5.5t-73.5 9.5l-6 14l10 18q6 4 20 4q1 -1 91 -2q0 120 -2 179l4 51q0 265 -2 361l-65 2q-14 -6 -24 -6q-12 5 -15 15v12l17 20l12 4l168 -3q12 -3 26 -3l21 1q15 0 26 -7q4 -5 4 -20q-1 -3 -6 -8.5t-8 -6.5l-60 -2l-51 2q0 -184 2 -361l-4 -108
q2 -110 5 -124l57 -2l42 2q4 -1 8.5 -6.5t5.5 -8.5v-13q-1 -10 -14 -14z" />
    <glyph glyph-name="J" unicode="J" horiz-adv-x="437" 
d="M168 15q-63 9 -104 54q-16 32 -16 60q0 11 5 22q0 2 9 8q3 4 21 4q11 -4 14 -13v-16l-4 -15q11 -30 27 -42q25 -10 30 -13q17 -6 36 -6q14 4 30 6q16 5 28 16q46 71 46 135q0 14 -2 29l-5 112l2 73q4 68 5 136q0 40 2 80l-2 27l16 19l13 3q14 0 27 -10v-6q0 -12 -3 -33
q-13 -126 -13 -287l-2 -22q6 -102 6 -126q0 -42 -25 -105q-14 -36 -45 -65q-34 -25 -96 -25z" />
    <glyph glyph-name="K" unicode="K" horiz-adv-x="667" 
d="M110 10h-6q-13 4 -14 14l-2 52l9 183q0 132 -3 193l3 29l-1 153l1 15q-7 10 -7 25q4 10 18 17h20q3 -1 7.5 -5.5t5.5 -7.5q0 -197 -3 -250l3 -105q129 91 239.5 192t152 134t65.5 40q16 0 17 -3l5 -15l-2 -11q-246 -209 -282 -244q68 -92 134 -180t123 -178l8 -3
q9 -22 9 -26q0 -17 -16 -17l-11 1q-12 0 -20 9q-100 159 -263 367l-160 -128q-5 -68 -5.5 -128t-11.5 -120q-2 -1 -6 -1.5t-7 -1.5z" />
    <glyph glyph-name="L" unicode="L" horiz-adv-x="614" 
d="M188 10l-65 2l-20 -2l-2 1q-3 1 -7 5.5t-6 7.5v36l4 6l-2 24q7 52 9 108.5t6 109.5v139l-6 91q2 105 4 129t33 24q9 0 13 -14q0 -17 -4 -33q0 -104 -2 -134l6 -63v-139q-4 -61 -6.5 -123.5t-10.5 -128.5q24 0 72 6q15 -1 54 -1q58 0 85 -1l60 2l107 -2l43 2q7 -2 15 -16
v-12q-2 -9 -15 -15q-96 -7 -192 -7l-88 1q-56 0 -85 -3z" />
    <glyph glyph-name="M" unicode="M" horiz-adv-x="867" 
d="M746 7q-13 6 -16 28q2 36 2 73l-7 54q0 390 7 490q-81 -166 -143.5 -308t-134.5 -279l-2 -1q-9 -4 -18.5 -9t-20.5 -5q-11 7 -21 19t-21 23q-35 79 -115 251q-57 120 -118 271l-4 -53l9 -189q0 -233 -3 -292q-2 -38 -15 -67q-7 -4 -19 -4q-13 4 -14 13v31q8 50 8 319
l-10 260l2 9q-4 30 -4 36q1 4 6 9t7 5q44 0 52 -8q67 -142 130 -286.5t141 -302.5q74 155 136 300t136 283q11 12 31 14t39 3q10 -6 13 -15q-2 -41 -8 -85v-109q-3 -63 -3 -324q7 -37 7 -129l-9 -20q-10 -5 -20 -5z" />
    <glyph glyph-name="N" unicode="N" horiz-adv-x="728" 
d="M126 7l-19 11q-3 5 -3 21q1 90 1 257l-4 24v144q-9 176 -13 206l18 20l13 1q14 0 20 -7.5t11 -14.5q14 0 31 -22q138 -150 407 -501q0 241 2 306q0 198 -1 220q0 15 15 22l15 2q14 -4 17 -8.5t3 -16.5l-4 -93v-126q-4 -165 -4 -207q0 -155 6 -214q-4 -12 -22 -16l-12 6
q-12 16 -14 21q-102 176 -213 309.5t-233 274.5l-3 -44l5 -118v-144l4 -24v-273q-1 -3 -5 -6.5t-7.5 -5t-5.5 -2.5t-5 -2z" />
    <glyph glyph-name="O" unicode="O" horiz-adv-x="761" 
d="M392 58q33 3 51 9q131 42 200 189q20 35 20 111q0 129 -116 255q-27 15 -56 18.5t-59 6.5q-22 -2 -54 -2q-9 5 -24 5l-35 -1q-34 -7 -66.5 -19t-56.5 -44q-54 -52 -80.5 -121.5t-26.5 -136.5q14 -50 35 -97.5t57 -85.5q46 -44 103 -65.5t108 -21.5zM391 13
q-141 0 -255 115q-88 123 -88 221q0 169 151 302q66 44 153 44q16 0 75 -6l24 2q38 -5 77 -13t67 -43q111 -109 111 -281q0 -132 -113 -247q-105 -94 -202 -94z" />
    <glyph glyph-name="P" unicode="P" horiz-adv-x="613" 
d="M217 347q61 4 125 10t122 34q35 19 46 54q9 15 9 36l-1 47l-7 19q-14 44 -37 62q-123 42 -237 42l-102 -2q0 -16 9 -148v-153zM115 14h-6q-13 4 -14 14q0 14 6 66v407q-5 33 -6 67q-5 53 -7 105q4 10 15 15l143 9l37 -1q62 -12 125.5 -20.5t111.5 -46.5q43 -59 43 -149
l-1 -23q-16 -52 -54 -89q-71 -49 -156 -55t-208 -10q0 -185 -1 -251q-1 -34 -28 -38z" />
    <glyph glyph-name="Q" unicode="Q" horiz-adv-x="761" 
d="M392 58q92 8 168 78l-56 59q-39 39 -44 57l10 18l20 3q4 0 7 -2q24 -29 39 -42l54 -59q61 78 68 135q0 6 5 46v16q0 129 -116 255q-27 15 -56 18.5t-59 6.5q-22 -2 -55 -2q-10 5 -23 5l-35 -1q-34 -7 -66.5 -19t-55.5 -44q-56 -52 -82 -121.5t-26 -136.5q35 -123 91 -183
q47 -44 104 -65.5t108 -21.5zM691 9q-7 0 -10 2l-93 92q-103 -90 -198 -90q-140 0 -254 115q-88 123 -88 221q0 169 151 302q66 44 153 44q16 0 75 -6l23 2q39 -5 78 -13t67 -43q111 -110 111 -281q0 -115 -86 -215q62 -69 92 -100q1 -1 1 -10t-11 -19q-4 -1 -11 -1z" />
    <glyph glyph-name="R" unicode="R" horiz-adv-x="650" 
d="M346 400q29 4 56.5 6.5t50.5 16.5q58 17 87 94v37q-9 29 -39 53q-61 40 -133 40q-110 0 -186 2l-37 -5l-4 -93l2 -81l-5 -65l52 -5h156zM110 10h-6q-12 4 -16 25l8 79q0 131 -4 261l8 95q0 79 -3 139l3 29l-4 32q8 14 20 19q37 2 80 2q23 0 85 3q76 0 149.5 -9t125.5 -69
q29 -31 29 -83l-1 -22q-10 -45 -60 -97q-59 -50 -156 -54q50 -77 102 -156.5t109 -138.5q23 -20 24 -22v-11l-12 -18l-15 -2q-14 0 -25 13q-97 111 -234 332q-127 0 -181 3q0 -36 4 -115v-130q-5 -26 -5 -54.5t-12 -46.5q-2 -2 -6 -2.5t-7 -1.5z" />
    <glyph glyph-name="S" unicode="S" horiz-adv-x="610" 
d="M342 9q-79 3 -126 17q-47 16 -104 47q-40 34 -54 77q-10 19 -10 30l1 7q8 15 18 19h13q5 -5 14.5 -10.5t11.5 -11.5v-19q68 -79 160 -99q44 -9 111 -9q73 0 131 52q7 12 7 28l-1 42q-2 62 -76 125q-86 34 -171 68.5t-160 86.5q-30 26 -30 73q7 32 18 63.5t36 55.5
q43 26 95 32t108 6q38 -5 79 -14q105 -23 130 -80l6 -40q-5 -23 -10 -27t-9 -6h-13q-14 4 -14 21q0 36 -44 71q-92 32 -145 32q-97 0 -157 -30q-31 -48 -35 -97q6 -18 23 -38q85 -51 180 -82.5t172 -89.5q44 -38 54 -87q9 -37 9 -77l-1 -27q-4 -25 -29 -49q-67 -60 -188 -60
z" />
    <glyph glyph-name="T" unicode="T" horiz-adv-x="693" 
d="M355 10h-12l-15 12l-4 42l2 181l8 72q0 161 -2 328h-196q-68 0 -81 7l-7 19l9 17q7 4 22 4q15 -1 68 -1t71 -1l264 2l107 -2l44 2q7 -1 14 -15v-12q-4 -10 -15 -15q-125 -5 -257 -5q0 -216 3 -328l-8 -72q0 -179 -2 -199l2 -22q-4 -11 -15 -14z" />
    <glyph glyph-name="U" unicode="U" horiz-adv-x="727" 
d="M386 12h-9q-61 6 -123.5 18.5t-109.5 54.5q-42 56 -44.5 127.5t-8.5 143.5q0 98 -2 130l3 169l-4 15l9 17q7 4 21 4q10 -1 14 -14q4 -28 4 -128l-3 -93l1 -100q7 -62 9 -126t38 -118q48 -35 102.5 -42.5t110.5 -13.5q35 1 67 15t70 50h9q55 79 55 162q0 14 -3 68l3 318
l10 19q6 3 20 3q10 -1 14 -14q0 -219 -3 -360l1 -79q-16 -88 -67 -146q-84 -80 -184 -80z" />
    <glyph glyph-name="V" unicode="V" horiz-adv-x="682" 
d="M345 10l-17 9q-149 247 -281 659q1 3 6.5 8t7.5 5h20q13 -7 16 -17q45 -133 104.5 -291t138.5 -289q78 141 140.5 301t121.5 294q6 4 18 4q14 -6 15 -14v-20q-133 -343 -273 -643z" />
    <glyph glyph-name="W" unicode="W" horiz-adv-x="899" 
d="M230 10l-16 12q-42 159 -81 320.5t-86 335.5q4 12 13 13h23q3 -1 7.5 -5.5t5.5 -7.5q0 -14 -2 -22q72 -252 144 -559q31 139 75 269.5t106 320.5q1 1 4 1.5t4 0.5h12q9 -1 13 -15q33 -186 74.5 -311t77.5 -239q64 141 113.5 291.5t100.5 272.5q6 3 21 3q13 -2 13 -29
q-157 -433 -227 -611q5 -7 5 -24q-3 -11 -14 -15h-13q-10 3 -17 20q-29 106 -71.5 235.5t-88.5 282.5q-66 -156 -102 -290t-75 -246q-4 -3 -19 -4z" />
    <glyph glyph-name="X" unicode="X" horiz-adv-x="620" 
d="M540 12h-11q-47 58 -89.5 123.5t-91.5 125.5q-6 14 -14.5 27.5t-16.5 32.5h-14q-60 -70 -115.5 -150.5t-105.5 -153.5q-4 -2 -8 -2.5t-7 -1.5l-6 1q-11 4 -14 14v15q115 175 236 326q-62 92 -111.5 161t-87.5 146q11 19 15.5 19.5t7 1t4.5 0.5l17 -10q34 -71 77 -130.5
t106 -141.5q64 71 122 144t113 132h13q14 -3 14 -26q-51 -69 -115 -145t-120 -148q50 -95 113.5 -177.5t102.5 -168.5q-3 -10 -14 -14z" />
    <glyph glyph-name="Y" unicode="Y" horiz-adv-x="685" 
d="M355 13h-14q-10 5 -14 16q-2 6 -2 116l-2 116q-76 102 -150 206t-126 212q2 5 15 14h14q20 -16 36 -40l29 -53q41 -77 92.5 -143t102.5 -146q70 105 135.5 200t141.5 180h10q11 -2 15 -14v-14q-72 -94 -142.5 -193.5t-128.5 -204.5l3 -237q-4 -10 -15 -15z" />
    <glyph glyph-name="Z" unicode="Z" horiz-adv-x="614" 
d="M403 11l-10 2q-17 -1 -135 -1q-43 4 -86.5 4t-86.5 1l-14 -5l-17 9l-6 16q89 163 198.5 306.5t240.5 301.5q-225 4 -332 4l-43 -2q-9 4 -14 15q0 25 14 28q34 2 144 5l14 -4l99 2l184 -5q12 -11 13 -15.5t1 -9.5q-133 -141 -241.5 -288t-217.5 -314q45 -3 79.5 -3
t70.5 -2h136q2 1 64 1l29 3l12 -4q25 0 47 2q10 -4 15 -15v-12q-3 -11 -15 -15z" />
    <glyph glyph-name="a" unicode="a" horiz-adv-x="539" 
d="M248 50q24 6 31 6q18 3 30 14q17 5 32.5 21.5t31.5 32.5l2 40q0 80 3 100l-33 3q-56 -11 -112 -25q-55 -17 -100 -59q-15 -25 -15 -59l1 -18l21 -37q24 -15 52.5 -17t55.5 -2zM229 5q-43 0 -76 7q-30 9 -55 31q-7 12 -14 24.5t-8 25.5v76q32 87 156 119q68 18 145 31
l2 34q-13 31 -24 45q-23 9 -44 19t-47 10q-69 -7 -139 -68l-13 -24q-4 -5 -15 -5q-23 0 -23 27l21 37q90 78 179 78q14 0 27 -2q62 -21 94 -48l28 -48v-111l-4 -33q0 -80 -2 -129q4 -10 7 -19.5t12 -19.5l19 -6q12 9 33 9q16 -2 16 -26q-13 -29 -59 -29l-10 1q-9 5 -20 10.5
t-17.5 14.5t-14.5 18h-10q-65 -49 -144 -49z" />
    <glyph glyph-name="b" unicode="b" horiz-adv-x="574" 
d="M319 56q27 6 81 29q35 23 60 53q15 40 16.5 77t1.5 80q-12 52 -50 91q-56 37 -111 37q-35 -6 -70 -18t-63 -40q-26 -24 -36 -55.5t-15 -55.5v-30q3 -76 56 -122t130 -46zM297 12q-86 4 -162 82l-2 -40q7 -11 7 -16q-4 -16 -19 -24h-13q-10 3 -20 33v330l4 36q0 106 2 210
q6 18 6 36t9 28q9 4 21 4q4 0 8 -5t5 -8v-28l-5 -25q0 -192 -6 -249q85 92 214 92q14 0 72 -25q31 -13 56 -41q49 -53 49 -132q0 -53 -13 -119q-8 -47 -51 -77q-71 -62 -162 -62z" />
    <glyph glyph-name="c" unicode="c" horiz-adv-x="495" 
d="M242 12q-40 6 -79 23.5t-69 49.5t-38.5 72.5t-8.5 83.5q0 46 15 84q29 69 135 122q36 19 75 19q86 0 155 -70q9 -11 9 -23q-2 -17 -16 -21h-11q-14 10 -26.5 24.5t-33.5 22.5q-30 21 -81 21l-19 -1q-33 -12 -62 -28.5t-54.5 -40t-33.5 -56t-8 -72.5q5 -83 46 -121
q71 -42 119 -45q48 7 92.5 25.5t86.5 32.5q7 -3 14 -15v-13q-10 -22 -120 -59q-41 -13 -87 -15z" />
    <glyph glyph-name="d" unicode="d" horiz-adv-x="582" 
d="M278 56q33 6 62 21q50 21 79 61q15 40 17 77t2 80q-13 52 -51 91q-54 37 -111 37q-35 -6 -70 -18t-63 -40q-25 -24 -36 -56q-16 -49 -16 -72q0 -85 58 -136q54 -45 129 -45zM457 10q-9 0 -14 5.5t-5.5 10.5t-4.5 60l-15 -12q-71 -62 -162 -62q-90 4 -160 80
q-49 62 -49 161q15 103 80 157q76 58 178 58q14 0 72 -24q29 -14 63 -50q0 117 -2 218q5 21 6 42q3 37 37 37q9 -1 13 -14v-18q-8 -14 -11 -46l1 -412l-5 -79l2 -17q-3 -11 -3 -29l1 -26q0 -36 -17 -39z" />
    <glyph glyph-name="e" unicode="e" horiz-adv-x="523" 
d="M122 288q62 6 126 8t133 9q-9 56 -42 89q-56 29 -84 29q-31 0 -112 -52q-19 -26 -37 -83h16zM242 12q-25 0 -80 21q-33 12 -61 37q-52 54 -52 123q0 136 71 217q36 23 75 42q32 16 79 16q81 -20 115 -63q35 -56 42 -120l-11 -17q-74 -14 -155 -16.5t-168 -7.5l-2 -75
q14 -42 42 -73q64 -40 127 -40q94 21 183 102q23 0 27 -14v-13q-24 -35 -61 -58q-96 -61 -171 -61z" />
    <glyph glyph-name="f" unicode="f" horiz-adv-x="412" 
d="M186 6l-16 9q-7 19 -7 43l1 25q0 24 -5 42l8 71q0 108 2 221l-89 4l-17 -2q-13 7 -16 25l11 18q6 5 18 5l93 -5q4 57 10 109t49 100q29 21 70 21q27 0 61 -12q26 -9 44 -45q2 -8 2 -21q-7 -13 -15 -14h-14q-10 1 -15 16l-13 20q-34 12 -51 12q-14 0 -33 -8
q-10 -4 -17 -15q-26 -43 -28 -78.5t-7 -78.5l112 3q4 -1 8.5 -6t5.5 -8v-13q-3 -10 -31 -19q-78 0 -94 -3q0 -116 -1 -226l-9 -71q5 -26 5 -52.5t2 -50.5q-5 -10 -16 -15z" />
    <glyph glyph-name="g" unicode="g" horiz-adv-x="553" 
d="M214 -174q-70 0 -109 42q-12 14 -17 52q2 7 6 13q10 18 32 18q11 -5 14 -14v-15l-8 -17l19 -18q18 -17 40 -18q11 -1 38 -1l73 1l42 8q42 11 55 54l7 29l8 137q-37 -36 -74 -51.5t-110 -15.5q-23 1 -43 5t-44 28q-19 22 -29.5 60t-16.5 148q8 75 20 103t36 50
q27 29 62.5 39t117.5 10q47 -6 88 -44q0 35 3 41q7 9 19 9q4 0 8 -1.5t9 -6.5t6 -8v-15q-2 -26 -2 -60l1 -207q-3 -163 -12 -232q-4 -22 -14 -43q-29 -61 -92 -72q-33 -7 -133 -8zM244 73q49 2 67 8q87 39 102 89l-3 158q0 33 2 44l-13 23l-18 19q-20 12 -42 15l-25 1
q-22 0 -60 -2q-49 -8 -79.5 -43.5t-30.5 -135.5q3 -34 4 -84q9 -35 13 -46t20 -32q20 -14 35 -14h28z" />
    <glyph glyph-name="h" unicode="h" horiz-adv-x="542" 
d="M125 11h-13q-13 7 -14 14l-4 71l3 143l-9 126v83q10 72 10 231q4 10 14 15h13q13 -7 17 -17v-97l-9 -132v-92q54 44 99 78t101 34q51 -12 86 -48q23 -41 23.5 -88t8.5 -94q0 -166 3 -204q-14 -22 -24 -22l-18 8q-5 11 -7 23q0 13 2 29v167q-5 39 -6.5 79.5t-18.5 78.5
q-19 8 -34 17t-35 9q-76 -27 -173 -126q-2 -56 -3 -201l2 -71q-4 -9 -14 -14z" />
    <glyph glyph-name="i" unicode="i" horiz-adv-x="226" 
d="M105 578l-25 12q-6 8 -12.5 17.5t-6.5 18.5q1 14 7.5 25.5t16 20t20 9.5t21.5 1q11 -8 21.5 -13.5t15.5 -16.5l2 -29l-17 -29q-15 -16 -43 -16zM109 3q-9 0 -13 4l-7 18l2 29q0 114 -1 175l3 49q0 124 -5 165l8 19l9 4q16 -1 30 -10q1 -3 1 -37q0 -89 2 -141l-3 -108
q1 -109 3 -119v-33q-2 -15 -29 -15z" />
    <glyph glyph-name="j" unicode="j" horiz-adv-x="390" 
d="M269 579l-25 12q-6 9 -13 18t-7 17q3 15 9 26.5t15.5 20t20 9.5t21.5 1q10 -8 21 -13.5t16 -16.5l2 -29l-17 -29q-17 -16 -43 -16zM135 -173h-11q-35 0 -59 6q-51 13 -59 80q9 31 36 31q3 -2 13 -14q0 -14 -5 -34l18 -17q15 -7 42 -7t44 -1q20 5 41 10.5t38 26.5
q17 30 23 56q0 204 -2 218q2 26 2 235q-9 29 -9 35q1 3 5.5 7.5t6 5.5t19.5 3l14 -2q10 -7 10 -12v-17q-4 -26 -4 -472q-4 -59 -50 -103q-42 -30 -113 -35z" />
    <glyph glyph-name="k" unicode="k" horiz-adv-x="526" 
d="M442 10l-24 14q-121 123 -163 239q-59 -51 -112 -94l-1 -143q-2 -14 -28 -14q-11 4 -16 22q1 272 5 304v310q-14 10 -14 24l1 3l12 16l25 3l16 -17l4 -30q0 -309 -5 -419q81 64 143 129t128 109q11 -1 13 -4.5t4.5 -8t2.5 -19.5q-2 -11 -17 -16q-35 -28 -64 -59l-62 -60
l-4 -11l10 -8q32 -100 144 -213q7 -3 24 -19q12 -7 12 -13q0 -11 -20 -23z" />
    <glyph glyph-name="l" unicode="l" horiz-adv-x="269" 
d="M153 10q-21 0 -52 50q-9 15 -9 33q1 27 1 150l4 51q0 264 -2 356l-7 24l8 17l10 4q18 0 32 -9q2 -3 2 -37q0 -178 2 -355l-5 -204l17 -32l22 -2q16 12 34 12q9 -3 15 -15v-13q-13 -25 -72 -30z" />
    <glyph glyph-name="m" unicode="m" horiz-adv-x="777" 
d="M377 12h-5q-14 5 -15 14v17q2 6 3 127l-4 95l2 96q-2 16 -3 30.5t-13 23t-40 8.5q-74 -30 -161 -113l-6 -24q1 -30 1 -75q-1 -60 -1 -184q-3 -10 -14 -15h-13q-13 4 -14 14l-1 64l1 81q0 65 -2 114v124q-2 15 -2 26q0 34 21 34q22 -6 22 -20q2 -14 2 -78q56 35 101 66
t98 31q51 -15 61 -55q5 -16 10 -42q54 39 105 68t109 29l23 -15q33 -38 41 -96q4 -3 4 -5q0 -126 -4 -252l2 -71q-4 -11 -15 -14q-25 0 -27 14l-4 71q4 111 4 222q-4 48 -10 53q-7 25 -23 46l-19 2q-117 -47 -188 -110l-2 -105l4 -38l-3 -110l2 -20q-3 -7 -4 -13t-8 -11
q-4 -2 -8 -2.5t-7 -1.5z" />
    <glyph glyph-name="n" unicode="n" horiz-adv-x="534" 
d="M124 10h-12l-16 13q-4 12 -4 28q0 60 3 119l-5 68l-2 196q0 20 1.5 25.5t22.5 8.5l19 -8q1 -11 1.5 -20.5t2 -15t1.5 -13.5l-3 -32q61 39 112 66q39 20 84 20q55 0 90 -39q13 -34 18 -71l3 -4q0 -96 2 -126q-3 -7 -3 -15l6 -181q-5 -11 -15 -14h-14q-11 5 -14 14
q-6 141 -6 283l-1 26q0 34 -15 66q-18 13 -38 14t-41 1l-85 -42q-40 -22 -80 -52l-2 -87l4 -153l-2 -29l2 -32q-3 -9 -14 -14z" />
    <glyph glyph-name="o" unicode="o" horiz-adv-x="533" 
d="M278 56q33 6 62 21q50 21 79 61q15 40 17 77t2 80q-13 52 -51 91q-54 37 -111 37q-35 -6 -70 -18t-63 -40q-25 -24 -36 -56q-16 -49 -16 -72q0 -85 58 -136q54 -45 129 -45zM256 12q-90 4 -160 80q-49 62 -49 161q15 103 80 157q76 58 178 58q14 0 72 -25q31 -13 56 -41
q50 -52 50 -135q0 -47 -14 -116q-8 -47 -51 -77q-71 -62 -162 -62z" />
    <glyph glyph-name="p" unicode="p" horiz-adv-x="576" 
d="M321 56q89 17 141 82q16 40 17.5 77t1.5 80q-10 51 -50 91q-54 37 -112 37q-34 -6 -69 -18t-63 -40q-26 -24 -36 -56q-16 -51 -17 -72q0 -84 59 -136q54 -45 128 -45zM123 -174h-15q-9 1 -15 16q-4 38 -5 163l4 220l-1 27q1 4 2 137l1 50q0 36 32 36q9 -3 14 -14v-15
q-3 -14 -3 -20q1 -6 1 -46q88 88 211 88q14 0 72 -25q31 -13 56 -41q49 -52 49 -134q0 -53 -13 -117q-8 -47 -51 -77q-74 -62 -163 -62q-85 4 -166 87v-212l5 -45q-6 -15 -15 -16z" />
    <glyph glyph-name="q" unicode="q" horiz-adv-x="580" 
d="M278 56q33 6 62 21q50 21 79 61q15 40 17 77t2 80q-13 52 -51 91q-54 37 -111 37q-35 -6 -70 -18t-63 -40q-25 -24 -36 -56q-16 -49 -16 -72q0 -85 58 -136q54 -45 129 -45zM452 -174q-10 1 -14 14l-1 20q3 38 3 236q-15 -18 -21 -22q-72 -62 -163 -62q-90 4 -160 80
q-49 62 -49 161q15 103 80 157q76 58 178 58q14 0 72 -25q30 -13 64 -51q3 54 6 68.5t29 14.5q10 -4 16 -15v-16q-8 -7 -8 -37t-1 -58l1 -451q-1 -18 -1 -37t-10 -31q-7 -4 -21 -4z" />
    <glyph glyph-name="r" unicode="r" horiz-adv-x="454" 
d="M107 10q-3 0 -5.5 1t-6.5 5t-5 8l-2 45l13 327l-5 50q0 20 33 20q7 0 12 -5.5t6 -8.5q0 -36 -7 -86q104 88 193 100q41 -7 74 -52v-14q-5 -10 -15 -14h-15q-14 8 -25.5 19t-32.5 14q-92 -24 -154 -98l-24 -47q-5 -53 -7.5 -123t-11.5 -137q-5 -2 -15 -4z" />
    <glyph glyph-name="s" unicode="s" horiz-adv-x="415" 
d="M255 13l-12 1h-15q-93 0 -170 69q-10 12 -10 22q0 7 7 14q4 4 7 5h16q29 -34 106 -63q10 -1 19 -2t58 -1q21 6 35.5 21.5t26.5 30.5q0 20 -4 36q-3 8 -5 17q-5 21 -27 36q-49 26 -104 41.5t-98 49.5q-16 18 -21 33.5t-5 38.5q2 14 8 26q15 26 82 60q32 17 73 17
q34 0 63.5 -16t57.5 -37q19 -21 19 -35q0 -13 -16 -22h-13q-8 3 -12 12q-6 11 -15 20q-24 11 -45 22t-46 11q-37 0 -105 -48l-7 -25q3 -16 7 -20l14 -14q56 -24 112 -45.5t100 -54.5q32 -43 32 -107q-5 -22 -22.5 -39t-34.5 -33q-24 -21 -56 -21z" />
    <glyph glyph-name="t" unicode="t" horiz-adv-x="380" 
d="M211 9q-20 3 -37.5 8.5t-30.5 23.5q-15 28 -16.5 59t-6.5 63q0 93 6 258l-57 6q-10 -7 -21 -7q-17 0 -22 15v16l14 16q11 2 23 2q29 -2 64 -2q5 46 6.5 116t12.5 102q5 4 17 4l17 -14q1 -7 4 -13t3 -14q-12 -27 -12.5 -86t-1.5 -91q32 -4 95 -4q11 -4 15 -15v-14
q-5 -12 -25 -16h-52l-35 6q-7 -172 -7 -266q5 -24 6 -49t11 -49q21 -11 74 -11q30 11 61 59q7 4 20 4q10 -4 13 -14v-21q-21 -27 -33 -39t-40 -30z" />
    <glyph glyph-name="u" unicode="u" horiz-adv-x="562" 
d="M446 11q-12 5 -22 13q-6 8 -6 30.5t-10 43.5q-67 -81 -177 -81q-37 0 -61 17.5t-44 35.5q-26 36 -31 82.5t-7 92.5v143q3 12 3 26l-1 20q0 16 12 27q6 4 8.5 4t6.5 1q14 0 19 -15q0 -31 -3 -62v-144q1 -39 4 -77.5t26 -72.5q28 -34 76 -34q41 0 81 21q79 42 92 124
q8 46 8 95v84q3 21 3 44q2 19 13 34q9 5 20 5q13 -7 14 -15q0 -17 -7 -68q0 -84 -8 -279l6 -44q4 -14 4 -23q0 -22 -19 -28z" />
    <glyph glyph-name="v" unicode="v" horiz-adv-x="517" 
d="M254 11l-17 8q-44 99 -99 213t-90 214q7 15 18 20h13q10 -4 14 -16q25 -85 76 -178.5t86 -189.5q44 93 95 196.5t86 185.5q8 4 19 4q13 -7 15 -15v-17q-53 -135 -201 -420z" />
    <glyph glyph-name="w" unicode="w" horiz-adv-x="749" 
d="M242 10q-13 5 -19 12q-47 93 -90 214.5t-86 215.5q1 3 6 7.5t6.5 5.5t16.5 1q27 -15 93 -197q37 -102 73 -188q40 122 63.5 213t51.5 154q4 4 8 4h13q13 -7 14 -16q80 -230 117 -356q38 100 81.5 198.5t73.5 181.5q10 7 19 7q14 0 19 -16v-19q-23 -57 -146 -352
q-15 -34 -27 -65q-5 -3 -19 -3q-10 6 -17.5 19.5t-18.5 23.5q-25 92 -49 157l-53 156q-32 -103 -55 -179.5t-61 -172.5z" />
    <glyph glyph-name="x" unicode="x" horiz-adv-x="485" 
d="M413 16h-11l-163 190l-160 -187l-9 -2q-8 0 -18 8q-4 9 -4 19l162 195q-47 57 -152 192l-4 15q0 3 3 9q7 9 17 9l10 -1q103 -129 155 -190q50 58 161 180l14 7q3 0 10 -2.5t9 -6t4 -8.5v-11q-123 -137 -170 -193q47 -55 164 -197l1 -7q-4 -13 -10 -18z" />
    <glyph glyph-name="y" unicode="y" horiz-adv-x="490" 
d="M113 -182l-5 1q-5 3 -10.5 6.5t-5.5 10.5t31 72l93 175q-136 217 -169 379q5 11 14 14h12l17 -14q18 -78 62 -167.5t88 -171.5q121 226 169 349q5 4 19 4q8 -3 15 -15v-16q-54 -133 -121 -270q-63 -127 -168 -303l-27 -50q-1 -1 -8 -2q-1 -2 -6 -2z" />
    <glyph glyph-name="z" unicode="z" horiz-adv-x="454" 
d="M250 11q-7 3 -79 5l-32 -2l-68 3l-19 9q-5 7 -5 18q75 83 143 184.5t154 192.5l-106 2l-92 -1l-13 1l-51 -1q-7 2 -15 16v12q5 12 15 15l151 4l115 -1q14 -3 26 -3.5t21 -10.5q4 -4 4 -9v-14q-65 -86 -135.5 -177.5t-137.5 -186.5q13 -10 22 -10l96 3l92 -4q29 0 56 2
q10 -4 15 -15v-12q-3 -11 -15 -15l-26 -1q-8 -2 -16 -2t-19 -1l-38 1z" />
    <glyph glyph-name="uni5206" unicode="&#x5206;" horiz-adv-x="1000" 
d="M921 390h-13q-69 31 -162 110q-56 73 -143 242l-15 3q-28 -4 -51.5 -13.5t-47.5 -11.5q-13 2 -13 27l12 15q66 27 126 27q28 -19 53 -66q59 -125 124 -205q21 -16 140 -94q4 -8 4 -20q-4 -13 -14 -14zM107 390l-18 10q-4 6 -4 17q77 59 140 137q75 95 120 196q6 6 19 6
q16 0 20 -14v-14q-100 -206 -217 -293q-28 -22 -53 -44zM152 -74q-6 0 -11 4.5t-6 8.5v12q118 99 177 200q59 115 88 200q-18 0 -134 -24l-18 10q-4 7 -4 21q2 6 19 16q115 21 470 75q20 -14 20 -18l-1 -96q-10 -250 -97 -396l-8 -4h-11q-34 18 -71.5 36t-70.5 37l-8 21
l9 17q9 5 19 5q41 -27 121 -62q73 166 73 412h-20q-57 -13 -117 -21.5t-124 -19.5q-68 -244 -227 -391q-18 -12 -34 -31q-16 -12 -34 -12z" />
    <glyph glyph-name="uni5B57" unicode="&#x5b57;" horiz-adv-x="1000" 
d="M117 401q-4 1 -8.5 5.5t-5.5 9.5t-3 8q15 40 33.5 81.5t31.5 87.5l-2 19q1 8 15 14l328 27q-18 44 -36 75.5t-29 60.5l2 3q7 9 11 10h14q34 -25 59 -85q3 -12 8 -21.5t5 -17.5l-7 -22q58 0 179 19q81 12 161 17l5 -2l18 2q12 -5 15 -14v-13q-20 -42 -34.5 -85t-37.5 -81
q-11 -6 -20 -6q-15 4 -15 28l48 120l-28 1q-155 -20 -307.5 -32t-308.5 -28q-30 -102 -72 -177q-8 -4 -19 -4zM497 -73l-10 1q-44 19 -92 34.5t-89 40.5l-6 15l10 17q5 3 19 3q38 -18 79 -34q43 -13 86 -29l30 26q43 58 43 171q0 26 -7 56q-122 -14 -239.5 -20.5
t-231.5 -23.5q-7 4 -14 16v12l18 18q109 13 219.5 21t224.5 18l5 13l-18 45q-14 28 -53 54q-10 6 -15 15q0 24 15 28h13l45 -28q29 22 52.5 46t66.5 46l-30 5q-53 -8 -343 -63l-18 11q-4 3 -4 19q2 7 13 11.5t236 45.5q115 23 232 34q3 -1 8 -5.5t6 -7.5v-13
q-43 -40 -92.5 -78.5t-98.5 -86.5q24 -49 36 -86h40q162 22 270 27q9 -4 14 -15v-14q-5 -13 -14 -14q-89 -6 -294 -28l1 -91q-4 -50 -18.5 -101t-57.5 -88q-1 -3 -20 -19q-8 -4 -17 -4z" />
    <glyph glyph-name="uni7EA6" unicode="&#x7ea6;" horiz-adv-x="1000" 
d="M96 -41l-17 9q-4 6 -4 19q5 14 14 15q48 10 106 32q75 17 143.5 43t118.5 39q14 -5 14 -27q-4 -11 -16 -15q-129 -51 -194.5 -66t-164.5 -49zM141 141l-16 11l-5 14q19 36 47 70q55 86 79 126l35 49q-119 -18 -132 -22q-25 -6 -55 -9l-15 10l-5 14q19 36 48 71
q36 71 76 143q60 111 83 167q5 4 20 4l15 -16l2 -22q-26 -52 -95 -180q-27 -48 -38.5 -75.5t-28.5 -53.5q29 0 159 22q32 50 76 142q4 4 8 4h15q12 -5 14 -14v-14l-27 -55q-25 -49 -75 -124q-29 -43 -124 -200q42 0 145 26l53 13q7 -1 10 -4.5t5.5 -8.5t2.5 -11q0 -7 -1 -8
l-11 -11l-80 -20q-95 -17 -132 -28q-24 -7 -53 -10zM713 180h-11q-79 105 -148 154v15q4 12 15 15h12q95 -64 147 -153v-17q-4 -10 -15 -14zM790 -79l-49 19q-72 25 -140 56l-6 14l9 17q9 3 20 3l165 -60q40 129 58 252q11 82 35 316h-17q-70 -13 -137 -23q-89 -13 -187 -35
l-2 -6q-7 -33 -30 -58q-4 -3 -20 -4q-13 4 -17 22q80 170 133 345q8 4 19 4q11 -3 15 -14v-16q-18 -51 -31 -104q-17 -54 -40 -114q75 10 138 21q107 19 204 27q12 -4 15 -14v-49q-18 -149 -35 -303t-78 -291q-4 -3 -22 -5z" />
    <glyph glyph-name="uni8981" unicode="&#x8981;" horiz-adv-x="1000" 
d="M458 579l112 12l6 105q-32 -4 -153 -11v-106h35zM622 432q33 1 62.5 6t68.5 5q0 11 34 119q-53 -1 -174 -15l-4 -115h13zM447 410l124 17q-6 12 -6 21q0 18 3 96h-17q-30 -4 -124 -10q0 -29 6 -124h14zM276 383l53 12q26 6 60 7q0 22 -6 126q-19 0 -165 -18
q12 -37 17.5 -66.5t19.5 -60.5h21zM553 100l4 4q81 59 115 121l-18 4q-60 -13 -118 -14.5t-121 -3.5q-9 -20 -20 -35.5t-26 -41.5q111 -10 184 -34zM170 -86q-8 1 -13 14v13l16 17q193 26 325 110q-90 24 -152 24l-23 -1q-8 -9 -18 -9q-3 0 -6.5 1t-8 5t-5.5 8.5t-2 7.5
q11 24 35 47.5t46 57.5q-45 0 -285 -27q-3 1 -8.5 6t-6.5 8v13l17 18q154 15 317 29l65 113q-63 -5 -111.5 -14.5t-96.5 -17.5l-5 2l-16 -2l-16 13q-38 116 -46 183q11 17 16 18q82 5 190 22v108h-22q-127 -18 -247 -29l-17 10q-4 7 -4 20q4 11 15 15q184 20 368 36
q182 13 363 22q5 0 7 1q10 -3 24 -3l15 1q13 0 25 -7q4 -8 4 -20q-3 -12 -15 -14l-51 -2l-60 2q-40 -5 -79 -7t-80 -9q-8 -44 -8 -106h22q96 15 183 15q3 -1 8.5 -6.5t5.5 -7.5v-31q-14 -45 -30 -91l-9 -29l-22 -61l-14 -6l-17 10l-6 15q-27 0 -249 -29q12 -11 12 -29
l-48 -80l47 -3q144 14 404 30q9 -1 17.5 -2.5t12.5 -6.5t4 -21q-1 -3 -6 -7.5t-11.5 -5.5t-15.5 -3l-21 3q-90 -10 -154 -10q-46 -84 -94 -123l-24 -18v-13q181 -70 251 -102q4 -7 4 -20q-4 -12 -23 -16q-116 44 -140 54q-71 29 -145 54q-87 -63 -187 -92.5t-201 -44.5z" />
    <glyph glyph-name="uni8BA1" unicode="&#x8ba1;" horiz-adv-x="1000" 
d="M324 609l-13 6q-29 34 -90 74q-28 20 -57 42v14q17 14 20 14q47 -16 101 -61q12 -8 65 -61l1 -5q0 -20 -27 -23zM213 -37l-8 1q-11 1 -14 7q-7 11 -7 16t14 20l41 23l-3 27q5 175 9 358q-111 -18 -158 -34q-11 4 -16.5 8t-5.5 22q2 8 20 15q72 21 166 33q5 3 18 3
q17 -14 17 -22t2 -20q0 -117 -8 -367q66 36 139 70l26 13q5 0 11 -3t11 -19q0 -6 -2 -10q-6 -9 -92 -51.5t-160 -89.5zM715 -75h-15q-7 1 -14 15l-4 32q0 289 2 321q4 56 5 100q-50 0 -82 -9q-15 -3 -31 -5q-44 -7 -85 -17q-5 2 -10.5 4.5t-8.5 6.5t-3 19q4 10 16 15l204 31
q0 186 2 305l-2 28q4 11 13 14h13q8 -9 16 -15q1 0 1 -7.5t2 -19.5q0 -147 -2 -300q42 0 76 5l114 12q2 0 7 -5t6 -9v-13q-7 -11 -17 -17q-82 -10 -186 -17l-4 -111q0 -155 -2 -309l2 -40q-5 -13 -13 -14z" />
    <glyph glyph-name="uni949F" unicode="&#x949f;" horiz-adv-x="1000" 
d="M174 -56l-14 4q-7 7 -10 19q0 11 10 18l58 35q0 97 1 131q1 0 2 17.5t5 51.5q-79 -8 -128 -24q-16 9 -18.5 12t-2.5 17l17 18q51 12 131 21q0 42 -10 42l-1 -1q6 0 6 31v56q0 14 3 35l-54 -6q-11 -4 -19 -4q-20 0 -27 24q0 11 15 21q103 10 152.5 19.5t102.5 15.5
q10 -3 14 -13v-14q-4 -11 -15 -14q-60 -12 -126 -24l-2 -61l4 -99q84 18 120 18q12 -5 15 -15v-11l-15 -16l-120 -19q-4 -95 -5 -190q9 10 106 71q4 0 10 -2.5t11 -20.5q0 -11 -10 -19q-85 -54 -206 -124zM91 470q-4 2 -9.5 4.5t-9 5t-3.5 17.5q49 43 138 255q4 3 9 3
q13 0 18 -2.5t10 -13.5q-18 -56 -33 -96q161 26 184 26q15 -5 15 -26l-15 -16l-206 -32q-28 -56 -53 -87l-40 -36zM710 314l60 14q29 5 66 7v22q11 46 20 94.5t19 102.5q-19 0 -180 -24l-5 -67v-149h20zM543 287l105 20q0 171 2 214h-16q-36 -5 -73.5 -8t-75.5 -13
q10 -60 23.5 -108.5t21.5 -104.5h13zM662 -84l-9 4l-5 11v329q-41 -4 -73 -11.5t-60 -13.5l-18 12q-38 138 -64 284l5 9q19 4 24 4l8 -2q45 11 89.5 14.5t93.5 11.5v102l-5 110l5 8q19 6 23 6l10 -5q6 -18 6 -49t3 -54v-112q112 15 221 37q14 -10 14 -20v-22
q-24 -77 -37.5 -156.5t-33.5 -152.5q-17 -7 -22 -7l-10 6q-7 13 -7 18l3 11q-26 0 -133 -20v-338l-4 -10q-8 -4 -24 -4z" />
    <glyph glyph-name="uni9700" unicode="&#x9700;" horiz-adv-x="1000" 
d="M714 515h-14q-24 10 -52 10q-42 0 -65 12q-4 8 -4 19q4 13 14 14h48q55 -2 83 -19q4 -3 4 -22q-1 -3 -6 -7q-5 -7 -8 -7zM400 502h-18q-35 4 -70.5 5.5t-63.5 15.5q-2 4 -2 18q2 12 13 13h34q31 -4 62 -4t55 -14q5 -8 5 -20q-7 -13 -15 -14zM756 405q-39 11 -80 15.5
t-75 18.5q-4 4 -4 19q6 14 13 14h18q95 -7 148 -32q4 -8 4 -19q-1 -4 -5.5 -8.5t-9.5 -5.5t-9 -2zM378 405q-34 5 -70 6t-62 17q-4 7 -4 20q4 11 13 14h16q34 -7 68.5 -7t60.5 -14q5 -9 5 -20q-1 -4 -5 -8.5t-22 -7.5zM487 395q-3 1 -8 7q-5 4 -5 7l-3 48q10 81 10 148
l-48 2q-67 -5 -132 -13t-133 -16q-7 -41 -13.5 -78t-24.5 -65q-9 -4 -19 -5q-14 5 -15 12v19q18 43 23.5 90.5t28.5 88.5q5 4 17 4l17 -15l22 -3l9 1q150 23 270 25l2 87l-45 2q-80 -5 -238 -28l-19 9q-4 7 -4 20q6 22 301 47q146 9 288 22q11 -5 14 -15v-13q-1 -4 -6 -9
q-8 -10 -126 -16q-61 -3 -126 -12l2 -86h40q105 15 337 26l15 -9q4 -7 4 -20q-17 -37 -45 -69.5t-57 -61.5h-12q-3 1 -8 5.5t-6 9.5t-2 8q9 21 28 40t42 49l-41 3q-73 -8 -145.5 -13t-149.5 -16q-4 -59 -6.5 -111t-13.5 -103q-5 -3 -19 -3zM579 -90q-3 1 -7.5 6t-5.5 9t-2 7
l4 14q0 99 2 203q-31 0 -130 -5q0 -17 -6 -23t-6 -18l6 -53v-122q-5 -13 -13 -14h-15q-3 1 -8 6t-6 8q-2 9 -2 122l-6 72l4 17l-148 -17v-18q21 -72 26 -179q-5 -14 -14 -15h-14q-4 1 -8.5 6t-5.5 9q-4 58 -14.5 113.5t-18.5 110.5q5 9 16 16l4 2q12 0 19 -2q10 0 191 19
q7 26 21.5 45t22.5 52q-144 0 -251 -12q-90 -12 -123 -15l-18 11q-4 6 -4 19q0 3 7 8q10 11 265 30h110l18 5h89q88 7 178.5 11t177.5 11l15 -10q4 -7 4 -20q-1 -4 -6.5 -9t-9.5 -5.5t-9 -1.5l-387 -22q-31 -63 -50 -91q37 0 102 5h86l89 6h108q14 -4 15 -17.5t3 -29.5
q-8 -60 -12 -120.5t-27 -113.5q-8 -6 -35 -6q-76 15 -110 35l-5 15l9 18q5 3 20 3q19 -7 43 -13.5t51 -15.5q5 56 16 142l6 60q-82 0 -212 -6l-4 -15q0 -103 -2 -203l-13 -20q-3 -4 -20 -4z" />
    <glyph glyph-name="uni9884" unicode="&#x9884;" horiz-adv-x="1000" 
d="M467 -66l-16 3q-11 5 -12 15l2 10q163 55 235 186l20 186l-4 43q1 10 3 20t13 14q29 0 29 -36q0 -22 3 -41q-10 -235 -75 -284l-37 -35q-83 -59 -161 -81zM823 114q-4 0 -12 6l-7 59v65q-3 45 -4 91q0 19 4 79q0 90 2 138l-40 -4q-67 -3 -171 -32l-4 -133l2 -78l6 -18
l-2 -24l2 -49q-1 -21 -1 -66q-4 -5 -6.5 -9.5t-5 -6t-14.5 -6.5q-3 0 -6.5 2.5t-5.5 4.5l-7 59l3 69l-6 30q0 90 -2 108l2 138l10 20q7 3 21 3q15 3 58 15l8 2l52 126l-29 3l-142 -19l-18 9q-3 3 -3 21q1 3 5 8q11 10 232 31q85 8 168 19q10 -2 14 -14v-16q-4 -10 -15 -14
l-162 -18l-47 -126q36 0 58 5.5t65 5.5l24 -13q4 -3 4 -8v-33q-4 -32 -4 -176l-5 -55l5 -69v-108l-10 -14zM297 501h-13q-30 26 -38 38q-44 48 -99 76q-3 5 -3 18q4 11 14 14h19l48 -30l93 88l-20 5q-42 -9 -199 -33l-15 17q0 23 14 27l80 14q106 19 217 27q9 -3 15 -15v-15
q-35 -36 -77 -75q-34 -31 -72 -69q18 -21 34 -35t16 -37q-4 -11 -14 -15zM231 -42q-39 11 -73 32t-69 43q-2 4 -6 19q1 2 1.5 5t5 8.5t8.5 6.5h13l105 -63l5 36q0 92 2 143l-6 129l4 70q-47 -2 -84.5 -12.5t-74.5 -18.5q-8 3 -14 15v12l6 11q156 49 390 68q3 -1 8.5 -6.5
t5.5 -6.5v-20q-30 -37 -61.5 -75.5t-69.5 -64.5l-8 -2l-17 10q-4 4 -4 18l23 24q28 24 61 68l-42 3l-75 -12l-4 -141l6 -118l-2 -93q-4 -21 -6 -43.5t-14 -37.5zM938 -65h-13q-40 22 -81.5 51.5t-83.5 48.5l-5 18q6 15 8.5 17.5t23.5 2.5q81 -49 162 -104q3 -6 3 -22
q-1 -8 -14 -12z" />
    <glyph glyph-name="i-catalog" unicode="&#xe628;" 
d="M887 631h-567q-23 1 -38 16t-15 38t15 38t38 16h567q23 -1 38.5 -16t15.5 -38t-15.5 -38t-38.5 -16zM887 334h-567q-23 0 -38 15.5t-15 38.5t15 38t38 16h567q23 -1 38.5 -16t15.5 -38t-15.5 -38.5t-38.5 -15.5zM887 37h-567q-23 0 -38 15.5t-15 38.5t15 38.5t38 15.5
h567q23 0 38.5 -15.5t15.5 -38.5t-15.5 -38.5t-38.5 -15.5zM154 638h-48q-10 0 -16.5 7t-6.5 17v47q0 10 6.5 16.5t16.5 7.5h48q10 -1 16.5 -7.5t6.5 -16.5v-47q0 -10 -6.5 -17t-16.5 -7v0zM154 44h-48q-10 0 -16.5 7t-6.5 17v47q0 10 6.5 16.5t16.5 6.5h48q10 0 16.5 -6.5
t6.5 -16.5v-47q0 -10 -6.5 -17t-16.5 -7v0zM154 354h-48q-10 1 -16.5 7.5t-6.5 16.5v47q0 10 6.5 17t16.5 7h48q10 0 16.5 -7t6.5 -17v-47q0 -10 -6.5 -16.5t-16.5 -7.5v0z" />
    <glyph glyph-name="caret-top" unicode="&#xe62d;" 
d="M887 119l-378 391l-383 -396v0q-20 -21 -50.5 -20.5t-50.5 21.5t-20 52t19 52l433 448q20 22 52 23v0q32 -1 52 -23l433 -448q19 -21 19 -52t-20.5 -52t-50.5 -22q-34 1 -55 26z" />
    <glyph glyph-name="tuchong" unicode="&#xe600;" 
d="M80 840h869v-923h-73v49h-722v-49h-74v923zM154 771v-740h722v740h-722zM186 529q143 106 224 229l66 -29q-17 -28 -41 -53h347v-61q-78 -94 -176 -155q111 -45 250 -57q-9 -21 -25 -58q4 9 -8 -16q-172 33 -286 90q-127 -65 -335 -110q-8 28 -33 69q160 25 295 82
q-78 57 -127 110q-49 -53 -102 -90zM259 150l21 65q32 -4 114 -16q282 -41 359 -62l-24 -73q-200 49 -470 86zM361 276l21 70q16 -4 53 -9q188 -32 253 -44l-24 -70q-156 33 -303 53zM688 611h-298q61 -70 147 -115q94 54 151 115z" />
    <glyph glyph-name="zhanku" unicode="&#xe66f;" 
d="M398 -37q-152 4 -252.5 105t-104.5 253q4 151 104.5 252t252.5 105q53 0 104 -15l398 142q12 4 21.5 -4t7.5 -21q-8 -52 -33.5 -100t-65.5 -88l111 -1q13 -1 19 -11.5t1 -21.5q-43 -76 -121 -124l133 -43q12 -4 15 -16.5t-6 -21.5q-46 -42 -104.5 -65.5t-127.5 -25.5
q-24 -131 -120.5 -213.5t-231.5 -85.5zM398 633q-133 -3 -221 -91.5t-91 -220.5q3 -133 91 -221t221 -92q123 3 209 80t102 198q1 9 7 14.5t15 5.5h2q109 0 187 55l-145 47q-14 6 -14.5 21t12.5 21q79 34 127 96l-130 1q-15 1 -20 16t7 24q90 68 119 162l-366 -131
q-7 -2 -15 0q-47 15 -97 15zM423 153v0q-32 0 -61.5 11t-53.5 31q-9 7 -8 18.5t11 17.5l258 150q11 5 21 0t13 -16q8 -57 -15.5 -107.5t-73.5 -79.5q-42 -24 -91 -25zM365 211q28 -13 58 -13q37 0 69 18q29 18 47 46t21 61zM179 168q-35 0 -66 18q-35 21 -52.5 57.5
t-11.5 77.5q3 11 13.5 16t20.5 -1l176 -101q10 -7 11 -18.5t-8 -18.5q-36 -29 -83 -30zM95 277q10 -34 41 -53q20 -11 43 -11q12 0 23 3z" />
    <glyph glyph-name="douban-fill" unicode="&#xeeae;" 
d="M696 79h174q10 0 18 -7.5t8 -18.5v-27q0 -10 -8 -18t-18 -8h-716q-11 0 -18.5 7.5t-7.5 18.5v27q0 11 8 18.5t18 7.5h161l-41 133h93q9 0 15.5 -5t9.5 -13l38 -115h150l53 173h-412q-11 0 -19 7.5t-8 18.5v305q0 11 8 18.5t19 7.5h582q11 0 19 -7.5t8 -18.5v-305
q0 -11 -8 -18.5t-19 -7.5h-55zM168 768h688q11 0 19 -8t8 -18v-27q0 -11 -8 -18.5t-19 -7.5h-688q-11 0 -19 7.5t-8 18.5v27q1 11 8 18.5t19 7.5zM307 530q-3 0 -5 -2t-2 -5v-172q1 -6 7 -7h410q6 1 7 7v172q0 3 -2 5t-5 2h-410z" />
    <glyph glyph-name="coffee" unicode="&#xe618;" 
d="M71 460v-259q0 -52 19.5 -99t56 -83.5t83.5 -56t99 -20.5h188q52 1 99 20.5t83.5 56t56 83.5t20.5 99v258zM608 886q11 -10 12 -24t-8 -26q-24 -29 -31 -49.5t1 -33.5l17 -28q14 -22 20 -34q10 -22 11 -45t-8 -48q-13 -37 -38 -68h198q34 -1 49 -17q8 -9 12 -22h3
q75 -2 124.5 -51.5t51.5 -124.5q-2 -75 -51.5 -125t-124.5 -52l-6 1q-25 -119 -113.5 -192t-209.5 -75h-188q-66 0 -126 25t-106.5 71.5t-71.5 106.5t-25 126v267q-1 33 13 47t41 15h151q3 5 7 9q47 39 62 82q4 12 4 21t-4.5 18t-17.5 29l-17 29q-21 37 -10.5 78t47.5 86
q13 15 33.5 12t27 -22.5t-6.5 -35.5q-24 -29 -31 -49.5t1 -33.5l17 -28q14 -22 20 -34q10 -22 11.5 -45t-8.5 -48q-13 -37 -38 -68h44q3 5 7 9q47 39 62 82q4 12 4 21t-4.5 18t-17.5 29l-17 29q-21 37 -10.5 78t47.5 86q13 16 33.5 12.5t27.5 -23t-7 -35.5
q-24 -29 -31 -49.5t1 -33.5l17 -28q14 -22 20 -34q10 -22 11 -45t-8 -48q-13 -37 -38 -68h44q3 5 7 9q47 39 62 82q4 12 4 21t-4.5 18t-17.5 29l-17 29q-21 37 -10.5 78t47.5 86q10 11 24 12t26 -8zM846 420v-211q45 1 75 31t31 75q-1 45 -31 74.5t-75 30.5z" />
    <glyph glyph-name="rss" unicode="&#xe7ea;" 
d="M329 128q0 -46 -32 -78t-77.5 -32t-77.5 32t-32 78t32 78t77.5 32t77.5 -32t32 -78zM622 58q1 -16 -9.5 -28t-27.5 -12h-77q-14 0 -24.5 9.5t-11.5 23.5q-13 131 -105.5 224t-223.5 106q-14 1 -23.5 11t-9.5 25v77q0 16 12 27q9 9 24 9h3q92 -7 175 -45.5t148 -103.5
t103.5 -148.5t46.5 -174.5zM914 57q1 -16 -9.5 -27.5t-26.5 -11.5h-82q-15 0 -25.5 10t-11.5 25q-6 122 -57 233t-132.5 192t-192 132t-233.5 59q-14 0 -24 10.5t-10 25.5v81q0 16 10.5 26.5t25.5 10.5h2q150 -8 286.5 -69t243.5 -167.5t168 -243.5t68 -286z" />
    <glyph glyph-name="appstore-fill" unicode="&#xe853;" 
d="M864 752h-304q-7 0 -11.5 -4.5t-4.5 -11.5v-304q0 -7 4.5 -11.5t11.5 -4.5h304q7 0 11.5 4.5t4.5 11.5v304q0 7 -4.5 11.5t-11.5 4.5zM864 352h-304q-7 0 -11.5 -4.5t-4.5 -11.5v-304q0 -7 4.5 -11.5t11.5 -4.5h304q7 0 11.5 4.5t4.5 11.5v304q0 7 -4.5 11.5t-11.5 4.5z
M464 752h-304q-7 0 -11.5 -4.5t-4.5 -11.5v-304q0 -7 4.5 -11.5t11.5 -4.5h304q7 0 11.5 4.5t4.5 11.5v304q0 7 -4.5 11.5t-11.5 4.5zM464 352h-304q-7 0 -11.5 -4.5t-4.5 -11.5v-304q0 -7 4.5 -11.5t11.5 -4.5h304q7 0 11.5 4.5t4.5 11.5v304q0 7 -4.5 11.5t-11.5 4.5z" />
    <glyph glyph-name="mail-fill" unicode="&#xe870;" 
d="M928 736h-832q-14 0 -23 -9t-9 -23v-640q0 -14 9 -23t23 -9h832q14 0 23 9t9 23v640q0 14 -9 23t-23 9zM847 627l-315 -245q-6 -5 -13.5 -5t-13.5 5l-315 245q-3 2 -3 6q0 6 7 7h649q3 0 6 -3q3 -5 -2 -10z" />
    <glyph glyph-name="steam" unicode="&#xe722;" 
d="M904 563q-2 -59 -41 -98t-98 -41q-60 1 -99 40.5t-41 98.5q2 60 41 99t99 41q59 -2 98 -41t41 -99zM464 139q0 29 -10.5 55t-31 46.5t-46.5 31t-55 10.5q-15 0 -31 -3l60 -24q44 -19 62 -60.5t1 -87.5q-19 -44 -61 -62t-87 0l-70 28q19 -36 52.5 -56t73.5 -20
q29 0 55 10.5t46.5 31t31 46.5t10.5 54zM938 563q-2 74 -51 123t-123 51q-74 -2 -123.5 -51t-51.5 -123q0 -35 13.5 -67t38 -56.5t56.5 -37.5t67 -13t66.5 13t56.5 37.5t38 56.5t13 67zM1024 563q0 -52 -19.5 -99.5t-56.5 -84.5t-84.5 -56.5t-99.5 -19.5l-250 -182
q-8 -76 -62 -125t-131 -51q-71 2 -122.5 44t-67.5 109l-131 53v245l222 -90q27 17 57.5 23.5t61.5 3.5l162 232q4 110 77.5 182.5t183.5 75.5q110 -3 183.5 -76.5t76.5 -183.5z" />
    <glyph glyph-name="battlenet" unicode="&#xe604;" 
d="M900 444q5 -1 41.5 4.5t41.5 40.5q-7 50 -55.5 85.5t-55.5 36.5l10 22q10 19 18 36q10 20 25.5 61t18.5 58.5t1 24.5t-2 6q-10 -44 -47.5 -115t-47.5 -82q-63 27 -123 37.5t-64 9.5q-4 14 -66 112t-140 112q-71 -12 -86 -96t-12 -96q-1 4 -18.5 27.5t-44.5 27.5
q-38 -3 -53.5 -50t-14.5 -112q-78 -2 -132.5 -12t-62 -13t-17.5 -10.5t-3 -6.5q19 6 82.5 13t134.5 2q7 -64 28 -122t24 -62q-6 -6 -50 -85.5t-50 -163.5q-2 -22 14.5 -48t68.5 -29q48 2 88.5 19t52.5 25q-9 -13 -14 -31t-5.5 -28.5t9.5 -26.5t44 -18q47 3 85.5 23t40.5 23
q2 -5 38 -58t78 -94q12 -10 20 -13l8 -3l-34.5 43t-88.5 141q51 35 91 83t43 53q-2 0 11 0h59q78 -1 153.5 20t81.5 77q-8 62 -62 106t-62 46zM911 492q-2 -20 -13.5 -24t-13.5 -4l-21 -1l-22 12q-20 10 -40 18l20 30q17 27 25 42q8 -4 34.5 -25.5t30.5 -47.5zM504 780
q37 -7 72.5 -54t38.5 -54q-4 2 -61.5 -1.5t-124.5 -38.5q2 60 21 103t54 45zM323 693q11 -1 20.5 -11t13.5 -22q1 -11 3 -38l2 -30l-83 3q1 56 16 77.5t28 20.5zM314 167q-34 1 -45 15.5t-10 32.5q2 42 20.5 82t20.5 43q1 -4 34 -53.5t94 -85.5q-30 -18 -57 -26t-57 -8z
M463 64q-23 1 -30 11t-6 15q1 12 6 22t6 11l27 18q24 17 30 22l40 -74q-2 -2 -24.5 -12.5t-48.5 -12.5zM563 105q-15 27 -24 48l-10 22q4 -2 46 3t78 36q-21 -9 -51.5 -17t-68.5 -5q77 68 128 122t89 105q-5 5 -16.5 13.5t-17.5 11.5q-26 -33 -101.5 -105.5t-162.5 -125.5
q-103 68 -139 187t-35 165l77 -7q-2 -3 -14.5 -31.5t-14.5 -58.5q0 -27 2 -34t1.5 -5t5.5 38.5t35 77.5q24 -123 47 -193.5t42 -107.5l37 16q-4 9 -35 121t-32 225q24 13 58.5 23.5t75.5 11.5q110 -4 182.5 -31t75.5 -31l-45 -62q-1 4 -27.5 37.5t-69.5 47.5q23 -16 45 -39
t36 -55q-93 35 -181 53.5t-126 22.5q-3 -13 -3 -26v-15q7 1 112.5 -27t217.5 -88q-12 -133 -99 -221t-118 -102zM744 235q4 2 30 52t29 129q6 -2 48 -37t48 -80q-10 -47 -77.5 -56.5t-77.5 -7.5z" />
    <glyph glyph-name="youtube" unicode="&#xe733;" horiz-adv-x="1152" 
d="M1099 648q-10 36 -35.5 61.5t-60.5 35.5q-83 17 -245.5 20.5t-181.5 3.5t-181.5 -3.5t-245.5 -20.5q-35 -10 -60.5 -35.5t-35.5 -61.5q-17 -73 -20.5 -164.5t-3.5 -100t3.5 -100.5t20.5 -164q10 -36 35.5 -61t60.5 -35q83 -17 245.5 -20.5t181.5 -3.5t181.5 3.5
t245.5 20.5q35 10 60.5 35t35.5 61q17 72 20.5 164t3.5 100.5t-3.5 100t-20.5 164.5zM464 221v325l286 -163z" />
    <glyph glyph-name="areachart" unicode="&#xe7af;" 
d="M888 104h-688v624q-1 7 -8 8h-56q-7 -1 -8 -8v-688q1 -7 8 -8h752q7 1 8 8v56q-1 7 -8 8zM272 168h536q7 1 8 8v436q0 6 -5 7.5t-9 -1.5l-210 -211l-125 124q-6 5 -12 0l-189 -189q-2 -3 -2 -6v-160q1 -7 8 -8z" />
    <glyph glyph-name="telegram" unicode="&#xe646;" 
d="M389 9l16 239l434 391q13 14 2 18t-32 -7l-535 -338l-232 73q-37 12 -35.5 33t47.5 40l901 348q33 14 54 -5.5t11 -67.5l-153 -723q-9 -39 -31 -48.5t-54 7.5l-234 173l-112 -109q-9 -10 -19.5 -16.5t-27.5 -7.5zM389 9z" />
    <glyph glyph-name="zhihu" unicode="&#xe87c;" 
d="M565 666v-573h60l25 -71l106 71h132v573h-323zM812 169h-59l-76 -51l-17 51h-18v419h170v-419zM526 409h-133q3 69 7 173h131l-1 17q0 9 -1.5 20.5t-6 22.5t-15.5 12h-219q3 17 11 45.5t18 48.5l7 11l-13 1q-1 0 -13 -1.5t-29 -9.5q-26 -15 -39.5 -38.5t-18.5 -45.5
q-15 -55 -31 -92t-25 -54q-5 -9 -6 -13q-3 -7 3 -13q9 -6 22.5 -2t15.5 5l2 1q12 4 34.5 22.5t35.5 62.5h57l1 -86q2 -57 2 -87h-141l-2 -1q-18 -15 -24.5 -38.5t-6.5 -27.5l-2 -9h167q-9 -58 -18.5 -87.5t-15.5 -39.5l-10 -21q-14 -31 -40 -67.5t-87 -86.5q-6 -4 -4 -13.5
t24 -8.5q8 -1 20 1q37 1 72.5 18.5t62.5 68.5q25 53 44 109l136 -160l5 12q2 3 8 30.5t-3 65.5v2l-108 123l-22 -17q9 39 12 71h159v8q-1 30 -9.5 47t-9.5 18z" />
    <glyph glyph-name="QQ" unicode="&#xe882;" 
d="M825 283q-12 37 -27 75l-36 90q4 143 -57 237.5t-193 98.5q-135 -4 -195 -99.5t-56 -236.5l-36 -90q-15 -38 -27 -75q-24 -82 -23 -119t9 -37q16 4 41.5 40.5t28.5 41.5q0 -37 19.5 -80t60.5 -79q-24 -6 -51.5 -20.5t-20.5 -32.5q18 -14 109 -13t141 6q49 -5 140 -6
t109 13q7 18 -21 32.5t-51 20.5q41 36 60.5 79t19.5 80q3 -5 28.5 -41.5t41.5 -40.5q8 0 9 37t-23 119z" />
    <glyph glyph-name="weibo" unicode="&#xe883;" 
d="M457 353q-53 12 -101.5 -9t-72.5 -67q-22 -48 -3.5 -90.5t71.5 -60.5q55 -17 107.5 5t76.5 73q20 50 -2 92t-76 57zM405 197q-11 -17 -29.5 -23t-35.5 1.5t-21 24t6.5 33t28.5 22.5t35 -1.5t21.5 -23.5t-5.5 -33zM451 255q-4 -6 -11 -8.5t-13.5 0t-8.5 8.5t2 12.5t10.5 9
t13 0t8.5 -8.5t-1 -13zM785 453q12 -4 22 1t14 17q9 28 3.5 56.5t-26.5 52t-49 32t-57 2.5q-12 -3 -18 -12.5t-3.5 -21t12 -18t21.5 -3.5q14 2 27.5 -2t24 -15.5t13.5 -25.5t-1 -26.5t1 -22.5t16 -15v1zM885 659q-43 47 -101 64.5t-117 5.5q-13 -3 -20.5 -14t-4.5 -25
t14 -21t25 -5q42 9 83 -3.5t71.5 -46.5t39 -76t-4.5 -83q-4 -13 2 -25t19.5 -16.5t25 1.5t16.5 20v0q18 57 6.5 116t-54.5 108zM729 397q-9 2 -14 6.5t0 15.5q22 53 0 86q-22 30 -73.5 29.5t-119.5 -28.5q-2 -1 -13 -3t-7 13q10 33 8 59t-18 42q-39 35 -119 3.5t-164 -114.5
q-62 -61 -95.5 -123.5t-33.5 -118.5q6 -108 114 -168.5t249 -61.5q178 5 283 81.5t108 163.5q-2 49 -34 78t-71 40zM443 85q-110 -9 -188 32t-88 113q-4 72 64.5 127.5t177.5 67.5q111 9 188.5 -31.5t87.5 -112.5q5 -73 -63.5 -128t-178.5 -68z" />
    <glyph glyph-name="wechat-fill" unicode="&#xe884;" 
d="M690 519q9 0 18 -1q-21 99 -108.5 162t-211.5 65q-138 -3 -229.5 -79t-94.5 -190q1 -62 30.5 -114t81.5 -90q9 -6 9 -17q0 -4 -1 -7l-15 -55q-1 -3 -1 -7q1 -10 10 -11q4 0 7 2l71 41q7 4 17 5q5 0 9 -2q50 -14 106 -15l18 1q-11 31 -11 66q3 104 86.5 173.5t208.5 72.5z
M496 605q18 0 30.5 -12.5t12.5 -30.5t-12.5 -30.5t-31 -12.5t-30.5 12.5t-12 30.5t12 30.5t31 12.5zM280 519q-18 0 -30.5 12.5t-12.5 30.5t12.5 30.5t30.5 12.5t30.5 -12.5t12.5 -30.5t-12.5 -30.5t-30.5 -12.5zM867 103q43 32 67.5 75.5t25.5 94.5q-3 95 -79 158.5
t-191 66.5q-115 -3 -191 -66.5t-79 -158.5q3 -95 79 -158.5t191 -65.5q47 0 88 12q4 1 8 1q8 0 14 -4l59 -34q3 -2 6 -2t6 2.5t2.5 6.5t-1.5 7l-12 45q-1 3 -1 6q1 9 8 14zM600 309q-15 0 -25 10t-10 25.5t10 25.5t25.5 10t25.5 -10t10 -25.5t-10.5 -25.5t-25.5 -10z
M780 309q-15 0 -25.5 10t-10.5 25.5t10.5 25.5t25.5 10t25.5 -10t10.5 -25.5t-10.5 -25.5t-25.5 -10z" />
    <glyph glyph-name="github" unicode="&#xe60b;" 
d="M512 64q-29 1 -58 30q-6 7 -6 14.5t6.5 13.5t14.5 6t13 -6q18 -20 30 -20t30 20q7 6 14.5 6t13.5 -6.5t6 -14.5t-6 -13q-29 -29 -58 -30zM0 371q0 -76 13 -137t36 -104q22 -46 57.5 -79.5t77 -55t96 -35t108.5 -20.5q57 -3 124 -3.5t121.5 6t109 19.5t96 35t76.5 56.5
t59 79t37 104.5t13 136q0 135 -83 231q4 13 8 30t7 47q1 15 1 32t-3 38q-6 39 -22 81h-8q-4 1 -11 1l-15 -3q-9 -2 -19.5 -4t-23 -6t-27.5 -11l-34 -18q-39 -20 -81 -53q-37 13 -87 22.5t-114 9.5t-114 -9t-87 -21q-42 32 -81 52.5t-61.5 28t-42.5 11.5h-26q-6 -1 -8 -2
q-16 -42 -21.5 -81t-2.5 -69.5t7 -47.5t8 -30q-83 -96 -83 -231zM137 256q0 87 64 158q19 22 44.5 31.5t57.5 13.5h62q30 -4 72 -7t75 -3t76 3t72 6.5t61 0.5q32 0 58 -13q12 -5 23.5 -13.5t20.5 -18.5q64 -71 64 -158q0 -51 -10 -92q-5 -19 -12.5 -36t-15.5 -30t-19 -24.5
t-26 -20.5q-29 -18 -57.5 -28t-70.5 -14q-45 -7 -77 -7q-35 -5 -87 -5t-87 3q-36 0 -77 7q-45 5 -71 14q-14 5 -28 13l-29 15q-29 19 -45 45.5t-28 65.5q-10 44 -10 94zM256 288q1 -41 18.5 -68t45.5 -27t45.5 27t17.5 68t-17.5 68t-45.5 27t-45.5 -27t-18.5 -68zM640 288
q1 -41 18.5 -68t45.5 -27t45.5 27t17.5 68t-17.5 68t-45.5 27t-45.5 -27t-18.5 -68zM640 288z" />
    <glyph glyph-name="dribbble" unicode="&#xeaab;" 
d="M512 880q-210 -5 -350.5 -145.5t-145.5 -350.5q5 -210 145.5 -350.5t350.5 -145.5q210 5 350.5 145.5t145.5 350.5q-5 210 -145.5 350.5t-350.5 145.5zM840 651q45 -54 70 -121t26 -143q-15 5 -100.5 15t-194.5 -1q-9 21 -18 41t-20 42q117 51 174 103t63 64zM793 700
q-5 -11 -57.5 -59t-164.5 -94q-55 98 -101 166t-57 82q102 24 201 -0.5t179 -94.5zM332 767q10 -14 56 -81.5t101 -163.5q-153 -38 -263 -46t-129 -6q22 100 83.5 177t151.5 120zM88 383q0 7 1 13q19 -2 145 6.5t290 54.5q18 -36 34 -72q-116 -35 -211.5 -114.5
t-149.5 -170.5q-51 57 -79.5 129t-29.5 154zM252 49q34 71 120 145t215 121q44 -118 65 -205t25 -117q-104 -43 -216.5 -30t-208.5 86zM749 32q-3 22 -22 104t-61 198q103 13 177 0.5t87 -18.5q-15 -89 -62 -162t-119 -122z" />
    <glyph glyph-name="twitter" unicode="&#xe617;" 
d="M923 606q-4 -270 -159 -438.5t-416 -181.5q-107 -8 -187 20t-146 79q78 -8 162 15t137 74q-74 1 -119 37t-69 95h88q-68 24 -111 76t-45 134q16 -9 36 -15t53 -7q-60 38 -83 122t17 155q72 -85 172.5 -147.5t248.5 -73.5q-26 171 111 231.5t244 -43.5q41 9 70.5 24
t61.5 32q-9 -41 -32 -67.5t-57 -42.5q33 0 59.5 8.5t50.5 24.5q-9 -34 -35 -64t-52 -47z" />
    <glyph glyph-name="bilibili" unicode="&#xe60f;" horiz-adv-x="1069" 
d="M869 725h-171l77 77q10 11 10 23.5t-10 22.5t-22.5 10t-22.5 -10l-131 -131h-128l-131 131q-18 20 -43 8q-3 -1 -6 -5q-10 -11 -10 -23.5t10 -22.5l81 -80h-171q-73 -2 -121.5 -50.5t-50.5 -120.5v-425q2 -71 50.5 -119t121.5 -50h26q1 -24 17.5 -39.5t39 -15.5t39 16
t17.5 39h395q3 -24 20 -39.5t42 -13.5q22 2 36.5 16.5t16.5 36.5h22q72 2 120.5 50.5t50.5 120.5v425q-4 72 -53 119.5t-121 49.5zM864 65h-653q-26 0 -43.5 18.5t-20.5 45.5l-3 433q1 27 19.5 45t45.5 19h652q26 -1 44 -19t20 -45l3 -433q-3 -29 -20.5 -46.5t-43.5 -17.5z
M422 479l16 -80l-213 -40l-16 80zM628 399l16 80l214 -40l-16 -80zM671 230q1 -5 -3 -10q-10 -23 -30.5 -36t-46.5 -15q-16 0 -31 7t-25 20q-24 -26 -56 -27q-25 2 -45.5 15t-32.5 36q-1 3 -3 10q2 17 19 22h3q12 0 16 -11q1 -2 13 -15t27 -14q26 1 35.5 18.5t23.5 37.5
q16 -21 25 -38t34 -18q18 1 28.5 14t11.5 15q2 4 6.5 7t9.5 4q8 1 13.5 -3.5t7.5 -12.5v-6z" />
    <glyph glyph-name="time-circle-fill" unicode="&#xe848;" 
d="M512 832q-190 -5 -316.5 -131.5t-131.5 -316.5q5 -190 131.5 -316.5t316.5 -131.5q190 5 316.5 131.5t131.5 316.5q-5 190 -131.5 316.5t-316.5 131.5zM689 246l-29 -39q-5 -5 -11 -1l-166 120q-3 3 -3 7v275q1 7 8 8h48q7 -1 8 -8v-247l143 -104q5 -4 2 -11z" />
    <glyph glyph-name="calendar-fill" unicode="&#xe84d;" 
d="M112 16q0 -14 9 -23t23 -9h736q14 0 23 9t9 23v420h-800v-420zM880 712h-168v64q-1 7 -8 8h-56q-7 -1 -8 -8v-64h-256v64q-1 7 -8 8h-56q-7 -1 -8 -8v-64h-168q-14 0 -23 -9t-9 -23v-176h800v176q0 14 -9 23t-23 9z" />
    <glyph glyph-name="eye-fill" unicode="&#xe869;" 
d="M508 384zM396 384q1 -48 32.5 -79.5t79.5 -32.5q48 1 79.5 32.5t32.5 79.5q-1 48 -32.5 79.5t-79.5 32.5q-48 -1 -79.5 -32.5t-32.5 -79.5zM942 410q-142 300 -430 300t-430 -300q-12 -26 0 -52q142 -300 430 -300t430 300q12 26 0 52zM508 208q-75 2 -124.5 51.5
t-51.5 124.5q2 75 51.5 124.5t124.5 51.5q75 -2 124.5 -51.5t51.5 -124.5q-2 -75 -51.5 -124.5t-124.5 -51.5z" />
    <glyph glyph-name="tag-fill" unicode="&#xe86e;" 
d="M938 437l-30 313q-1 12 -9.5 20.5t-20.5 9.5l-313 30q-5 0 -8 -3l-468 -468q-6 -7 0 -14l364 -364q3 -3 7 -3t7 3l468 468q3 4 3 8zM699 509q-27 1 -45 19t-18 45t18 45t45 18t45 -18t18 -45t-18 -45t-45 -19z" />
    <glyph glyph-name="tags-fill" unicode="&#xe86f;" 
d="M483 106l378 378q3 3 3 6l-26 302q-2 12 -14 14l-302 26q-3 0 -6 -3l-378 -378q-5 -5 0 -11l334 -334q6 -5 11 0zM606 639q15 14 34 14t33.5 -14.5t14.5 -33.5t-14.5 -33.5t-33.5 -14.5t-33.5 14.5t-14.5 33.5t14 34zM890 356l-40 40q-6 4 -11 0l-362 -362l-238 237
q-5 5 -11 0l-40 -39q-4 -6 0 -11l283 -283q6 -4 11 0l408 407q4 6 0 11z" />
    <glyph glyph-name="right" unicode="&#xe7eb;" 
d="M766 409l-451 352q-4 3 -8.5 1t-4.5 -7v-77q0 -8 6 -13l360 -281l-360 -281q-6 -5 -6 -13v-77q0 -5 4.5 -7t8.5 1l451 352q12 10 12 25t-12 25z" />
    <glyph glyph-name="left" unicode="&#xe7ec;" 
d="M724 678v77q0 5 -4.5 7t-8.5 -1l-451 -352q-12 -10 -12 -25t12 -25l451 -352q4 -3 8.5 -1t4.5 7v77q0 8 -6 13l-360 281l360 281q6 5 6 13z" />
    <glyph glyph-name="menu" unicode="&#xe7f5;" 
d="M904 736h-784q-7 -1 -8 -8v-64q1 -7 8 -8h784q7 1 8 8v64q-1 7 -8 8zM904 112h-784q-7 -1 -8 -8v-64q1 -7 8 -8h784q7 1 8 8v64q-1 7 -8 8zM904 424h-784q-7 -1 -8 -8v-64q1 -7 8 -8h784q7 1 8 8v64q-1 7 -8 8z" />
    <glyph glyph-name="unorderedlist" unicode="&#xe7f4;" 
d="M912 704h-584q-7 -1 -8 -8v-56q1 -7 8 -8h584q7 1 8 8v56q-1 7 -8 8zM912 420h-584q-7 -1 -8 -8v-56q1 -7 8 -8h584q7 1 8 8v56q-1 7 -8 8zM912 136h-584q-7 -1 -8 -8v-56q1 -7 8 -8h584q7 1 8 8v56q-1 7 -8 8zM160 668zM104 668q1 -24 16.5 -39.5t39.5 -15.5t39.5 15.5
t15.5 39.5t-15.5 39.5t-39.5 15.5t-39.5 -15.5t-16.5 -39.5zM160 384zM104 384q1 -24 16.5 -39.5t39.5 -15.5t39.5 15.5t15.5 39.5t-15.5 39.5t-39.5 15.5t-39.5 -15.5t-16.5 -39.5zM160 100zM104 100q1 -24 16.5 -39.5t39.5 -15.5t39.5 15.5t15.5 39.5t-15.5 39.5
t-39.5 15.5t-39.5 -15.5t-16.5 -39.5z" />
    <glyph glyph-name="ellipsis" unicode="&#xe7fc;" 
d="M232 385zM176 385q1 -24 16.5 -39.5t39.5 -15.5t39.5 15.5t15.5 39.5t-15.5 39.5t-39.5 15.5t-39.5 -15.5t-16.5 -39.5zM512 385zM456 385q1 -24 16.5 -39.5t39.5 -15.5t39.5 15.5t15.5 39.5t-15.5 39.5t-39.5 15.5t-39.5 -15.5t-16.5 -39.5zM792 385zM736 385
q1 -24 16.5 -39.5t39.5 -15.5t39.5 15.5t15.5 39.5t-15.5 39.5t-39.5 15.5t-39.5 -15.5t-16.5 -39.5z" />
    <glyph glyph-name="info-circle" unicode="&#xe77e;" 
d="M512 832q-190 -5 -316.5 -131.5t-131.5 -316.5q5 -190 131.5 -316.5t316.5 -131.5q190 5 316.5 131.5t131.5 316.5q-5 190 -131.5 316.5t-316.5 131.5zM512 12q-158 4 -263 109t-109 263q4 158 109 263t263 109q158 -4 263 -109t109 -263q-4 -158 -109 -263t-263 -109z
M512 560zM464 560q1 -20 14.5 -33.5t33.5 -13.5t33.5 13.5t13.5 33.5t-13.5 33.5t-33.5 13.5t-33.5 -13.5t-14.5 -33.5zM536 448h-48q-7 -1 -8 -8v-272q1 -7 8 -8h48q7 1 8 8v272q-1 7 -8 8z" />
    <glyph glyph-name="container" unicode="&#xe7b0;" 
d="M832 832h-640q-14 0 -23 -9t-9 -23v-832q0 -14 9 -23t23 -9h640q14 0 23 9t9 23v832q0 14 -9 23t-23 9zM792 8h-560v201h98q18 -50 59 -85q26 -21 57.5 -32.5t65.5 -11.5t65.5 11.5t57.5 32.5q41 35 59 85h98v63h-148l-6 -25q-10 -45 -44.5 -73.5t-81.5 -28.5t-81.5 28.5
t-44.5 73.5l-6 25h-148v488h560v-752zM320 555h384q7 1 8 8v48q-1 7 -8 8h-384q-7 -1 -8 -8v-48q1 -7 8 -8zM320 395h384q7 1 8 8v48q-1 7 -8 8h-384q-7 -1 -8 -8v-48q1 -7 8 -8z" />
    <glyph glyph-name="home" unicode="&#xe7c6;" 
d="M947 391l-387 386l-26 26q-9 9 -22 9t-22 -9l-412 -412q-19 -19 -18.5 -46t18.5 -45t46 -18h42v-326h692v326h43q27 0 45.5 18.5t18.5 45t-18 45.5zM568 28h-112v204h112v-204zM786 354v-326h-154v228q0 17 -11.5 28.5t-28.5 11.5h-160q-17 0 -28.5 -11.5t-11.5 -28.5
v-228h-154v326h-96l370 369l370 -369h-96z" />
  </font>
</defs>
</svg>
