<?xml version="1.0" standalone="no"?><!DOCTYPE svg PUBLIC "-//W3C//DTD SVG 1.1//EN" "http://www.w3.org/Graphics/SVG/1.1/DTD/svg11.dtd" ><svg xmlns="http://www.w3.org/2000/svg"><metadata></metadata><defs><font id="Yozai Light:Version 0.85" horiz-adv-x="1000"><font-face font-family="Yozai Light" font-weight="300" font-stretch="normal" units-per-em="1000" panose-1="2 0 6 0 0 0 0 0 0 0" ascent="928" descent="-256" x-height="0" bbox="-19 -182 1019 847" underline-thickness="50" underline-position="-200" unicode-range="U+0021-ff3e" /><missing-glyph horiz-adv-x="1000"  /><glyph glyph-name="exclam" unicode="!" d="M99 216 q-13 5 -14 14 l-2 34 q11 77 11 162 l0 219 l-6 20 l11 18 q6 3 19 3 q10 -3 15 -15 l6 -28 l0 -217 q-2 -54 -5.5 -106.5 q-3.5 -52.5 -15.5 -100.5 q-5 -3 -19 -3 ZM113 5 l-20 8 q-21 7 -26 31 l-3 20 q8 49 60 49 l13 -1 l26 -18 q8 -15 8 -41 q-3 -24 -20 -39 l-38 -9 Z" /><glyph glyph-name="numbersign" unicode="#" d="M384 219 l15 3 l0 9 q13 76 23 151.5 q10 75.5 24 158.5 q-122 0 -197 -5 q-16 -143 -49 -317 q93 0 159 2 l25 -2 ZM377 -61 q-14 5 -15 14 l-2 40 q5 44 16 87.5 q11 43.5 17 94.5 l-98 2 l-102 -2 q-16 -132 -43 -225 q-5 -3 -19 -3 q-14 4 -14 13 q0 47 17 113 q10 45 15 98 l-60 0 q-23 -7 -45 -7 q-3 1 -6 7 q-7 6 -8 8 l0 13 l16 17 l46 4 q8 3 37 3 l27 -1 q37 209 49 319 q-35 2 -127 2 q-15 -4 -21 -4 q-14 6 -14 27 l16 19 l17 3 q94 0 131 -2 q8 51 13 97 q5 46 23 86 q7 4 19 4 q12 -3 14 -15 l0 -19 q-10 -35 -13 -71 q-6 -38 -7 -80 q99 0 196 6 q14 111 35 166 q8 8 19 8 q2 0 5.5 -1.5 q3.5 -1.5 8.5 -6 q5 -4.5 6 -7.5 l0 -14 q-14 -29 -18.5 -65.5 q-4.5 -36.5 -10.5 -78.5 l15 -2 l63 3 q7 -1 13 -14 l0 -13 q-1 -2 -5 -5 q-3 -7 -9 -9 l-84 -6 q-14 -82 -24 -159 q-10 -77 -24 -162 q99 0 106 -2 l28 2 q17 -9 18 -16 l0 -13 q-4 -14 -25 -17 l-10 2 l-19 -2 l-104 2 q-12 -112 -21 -134 l-20 -101 q-5 -3 -18 -3 Z" /><glyph glyph-name="ampersand" unicode="&amp;" d="M253 -20 l-11 0 q-69 0 -113 31 q-19 22 -39.5 42.5 q-20.5 20.5 -32.5 42.5 l-1 11 q-5 17 -5 39 q0 71 46 138 q32 34 64.5 67.5 q32.5 33.5 73.5 64.5 q-29 34 -58 68 q-29 34 -29 103 q0 62 34 97 q9 17 25 26 q16 9 29 15 l75 12 l52 -5 q60 -14 79 -70 q15 -38 15 -69 q0 -26 -27 -65 l-128 -113 q75 -96 184 -217 l116 166 q2 1 7 1 q8 0 13 -3 l8 -10 l2 -17 q0 -24 -21 -49 l-94 -119 q8 -9 16 -14 q114 -123 133 -147 q0 -14 -7 -18 q-7 -4 -13 -7 q-18 4 -77.5 67 q-59.5 63 -81.5 83 q-108 -129 -219 -148 l-15 -3 ZM271 445 l28 22 q30 30 63.5 56 q33.5 26 51.5 69 l-6 43 q-10 11 -14 24 q-4 13 -21 22 q-25 11 -50 11 q-36 0 -72 -9 q-24 -7 -49 -44 q-7 -22 -7 -44 q0 -30 6 -66 q12 -25 32 -41.5 q20 -16.5 38 -42.5 ZM236 26 q17 0 37 3 q65 11 138 84 l44 53 q-51 55 -95.5 108 q-44.5 53 -95.5 109 q-50 -42 -95 -84.5 q-45 -42.5 -67 -102.5 q-6 -33 -6 -78 q11 -23 32 -40 l37 -38 q35 -14 71 -14 Z" /><glyph glyph-name="parenleft" unicode="(" d="M260 -82 q-8 2 -15 8 q-20 16 -30 41 q-7 16 -20 28 l-14 15 q-104 142 -117 333 q5 300 174 441 q16 13 24 13 q16 -2 20 -15 l0 -14 l-35 -39 q-12 -15 -26.5 -31.5 q-14.5 -16.5 -60.5 -77.5 q-54 -170 -54 -287 q4 -117 72 -228 q51 -90 103 -173 q-3 -9 -21 -14 Z" /><glyph glyph-name="parenright" unicode=")" d="M33 -82 l-17 9 l-5 15 l11 19 q30 33 53 70.5 q23 37.5 48 72.5 q24 44 36.5 91.5 q12.5 47.5 24.5 95.5 l0 100 q-15 94 -46 185 q-31 91 -104 157 l-26 30 l-2 10 l10 18 q7 4 19 4 q92 -93 131 -164 q24 -57 37 -117.5 q13 -60.5 25 -123.5 l0 -102 q-22 -170 -166 -353 l-17 -12 q-5 -5 -12 -5 Z" /><glyph glyph-name="asterisk" unicode="*" d="M298 52 q-5 2 -9.5 6.5 q-4.5 4.5 -5 10 q-0.5 5.5 -1.5 10.5 l1 47 l-4 37 l0 163 q-66 -34 -122.5 -67 q-56.5 -33 -108.5 -61 q-11 3 -12 12 l0 13 q43 52 130 94 q20 8 35.5 17.5 q15.5 9.5 38.5 23.5 q-50 32 -103 70 q-46 33 -97 57 q-4 8 -4 22 q1 3 6 6 q5 6 8 7 l19 0 q53 -24 100 -58.5 q47 -34.5 108 -70.5 l5 215 l-7 40 q4 10 14 14 l13 0 l15 -15 l8 -40 q0 -108 -2 -193 q65 32 116 64 q51 32 106 44 q3 -1 7.5 -6 q4.5 -5 5.5 -8 l0 -13 q-3 -10 -19 -19 q-52 -20 -101 -50 q-49 -33 -109 -62 q162 -78 233 -119 q8 -7 8 -16 q0 -4 -1.5 -8 q-1.5 -4 -6 -9.5 q-4.5 -5.5 -8.5 -6.5 l-12 0 q-129 75 -219 105 l0 -145 l4 -88 l-10 -17 q-11 -6 -19 -6 Z" /><glyph glyph-name="plus" unicode="+" d="M251 86 q-14 8 -15 14 l9 227 l-208 0 q-18 4 -23 11.5 q-5 7.5 -5 20.5 q5 11 14 15 q20 0 40 -2 l182 0 q10 209 11.5 215.5 q1.5 6.5 3 16.5 q1.5 10 14.5 12 l16 1 q10 -2 14 -14 l0 -14 l-5 -9 l-11 -210 l173 -7 l52 7 q12 -7 17 -16 q0 -24 -14 -29 l-66 -5 l-162 5 q-9 -184 -18 -235 q-8 -4 -19 -4 Z" /><glyph glyph-name="comma" unicode="," d="M105 -107 l-18 9 q-3 7 -3 20 q1 6 5 9 l39 23 l23 30 l11 46 q-65 21 -65 60 l16 30 q9 6 22 6 l26 0 q26 -14 44 -45 l2 -61 q-11 -67 -52 -101 q-27 -23 -50 -26 Z" /><glyph glyph-name="hyphen" unicode="-&#x2011;" d="M476 331 q-74 0 -148 2 l-197 0 l-2 -2 q-67 0 -104 3 q-25 2 -25 29 q5 13 13 14 l118 -1 l266 1 l79 -2 l53 4 q10 -4 14 -14 l0 -16 q-5 -11 -14 -14 l-53 -4 Z" /><glyph glyph-name="period" unicode="." d="M143 10 l-26 13 l-12 19 q-7 6 -7 17 q2 14 8.5 25 q6.5 11 16 19.5 q9.5 8.5 20 9.5 q10.5 1 21.5 1 q11 -6 21.5 -12.5 q10.5 -6.5 14.5 -17.5 l2 -28 l-17 -30 l-2 -1 q-16 -15 -40 -15 Z" /><glyph glyph-name="slash" unicode="/" d="M17 -59 q-13 5 -16 22 q101 198 192 400.5 q91 202.5 194 400.5 q6 4 19 4 q8 -2 15 -15 l0 -15 q-97 -197 -187.5 -398 q-90.5 -201 -196.5 -395 q-6 -4 -20 -4 Z" /><glyph glyph-name="zero" unicode="0" d="M280 55 q13 0 49 7 q60 9 73 26 l20 17 q59 77 61 212 l0 105 q-9 106 -112 208 q-19 12 -43 12 q-47 0 -51 -1 q-24 -5 -46 -12 q-27 -12 -47 -33 q-87 -98 -87 -237 l1 -25 l-3 -11 q11 -67 30.5 -131 q19.5 -64 70.5 -118 q25 -6 48 -14 q17 -5 36 -5 ZM244 12 q-19 8 -42 13.5 q-23 5.5 -41 19.5 q-54 59 -77 132.5 q-23 73.5 -33 149.5 l3 14 l-2 41 q4 122 84 229 l42 42 q60 33 149 33 q57 0 91 -41 q95 -96 110 -210 l0 -121 q-5 -172 -87 -253 q-39 -37 -91.5 -43 q-52.5 -6 -105.5 -6 Z" /><glyph glyph-name="one" unicode="1" d="M343 24 l-12 0 l-18 17 q-2 16 -2 555 q-41 -44 -73.5 -79 q-32.5 -35 -67.5 -62 q-24 0 -26 14 l0 16 q48 46 93.5 101 q45.5 55 99.5 95 l14 0 q4 -1 9.5 -6.5 q5.5 -5.5 5.5 -7.5 l0 -12 q-9 -8 -9 -21 q0 -13 -2 -23 q0 -547 2 -572 q-4 -11 -14 -15 Z" /><glyph glyph-name="two" unicode="2" d="M438 29 q-198 1 -316 3 l-34 -2 q-7 2 -16 3 q-16 4 -16 26 q13 44 46 82.5 q33 38.5 64 75.5 q47 47 105.5 78 q58.5 31 112.5 77 q76 88 76 168 l-1 16 l-27 51 q-35 25 -91 31 l-88 0 q-52 0 -105 -47 q-28 -50 -50 -136 q-6 -4 -19 -4 q-11 3 -14 14 l-2 23 q8 60 35 105 q58 89 152 89 l96 0 q85 -12 122 -50 q36 -43 36 -104 q0 -57 -38 -120 q-29 -41 -64 -81 q-47 -38 -103 -66.5 q-56 -28.5 -102 -74.5 q-21 -26 -42 -49 q-21 -23 -44 -60 l327 -4 l53 4 q10 -4 14 -14 l0 -16 q-5 -11 -14 -14 l-53 -4 Z" /><glyph glyph-name="three" unicode="3" d="M301 15 l-16 1 q-137 0 -211 75 q-23 31 -23 62 l11 19 q6 4 19 4 q14 -6 14 -13 q0 -23 16 -47 q43 -41 97 -46 q51 -8 104 -10 q39 2 71 21 q32 19 62 43 q20 23 20 57 q0 52 -21 88 q-18 31 -49 59 q-65 26 -174 31 l-9 -3 l-17 8 l-7 16 l10 16 q47 14 102 15.5 q55 1.5 98 37.5 q42 42 42 89 q-1 26 -17 52 q-11 13 -22 29 q-43 30 -121 30 l-21 -1 q-44 0 -103 -32 q-27 -21 -28.5 -50 q-1.5 -29 -12.5 -51 q-8 -4 -21 -4 q-10 4 -14 14 l0 28 q0 25 12 49 q48 93 198 93 q45 0 97 -17 q32 -9 54 -36 q45 -56 45 -105 q0 -45 -22 -76 q-18 -25 -37 -49 l-43 -28 q35 -14 56 -35 q69 -64 69 -179 q0 -52 -39 -86 q-39 -34 -87 -52 q-40 -17 -82 -17 Z" /><glyph glyph-name="four" unicode="4" d="M433 20 l-14 0 q-3 1 -6 6 q-14 11 -17 149 q-229 0 -323 2 l-10 -3 l-16 8 l-6 14 q148 219 332 452 q13 10 24 20.5 q11 10.5 23 10.5 q6 0 12 -6 q6 -6 6 -8 l0 -15 q-89 -94 -164.5 -204.5 q-75.5 -110.5 -166.5 -221.5 l60 -5 l227 0 l3 110 q0 83 2 164 q2 5 15 15 l13 0 q11 -8 16 -17 q0 -133 -5 -271 q23 -3 103 -3 q12 -4 15 -15 l0 -12 q-3 -11 -15 -15 l-84 -2 l-17 3 q0 -18 7 -141 q-4 -11 -14 -15 Z" /><glyph glyph-name="five" unicode="5" d="M106 -12 l-17 9 l-6 15 l10 18 q3 3 8 3 l52 -1 q70 6 137.5 16.5 q67.5 10.5 122.5 58.5 l31 38 q21 44 21 105 q-6 47 -40 112 q-58 40 -114 40 l-20 -1 q-46 0 -84.5 -23.5 q-38.5 -23.5 -75.5 -40.5 l-7 2 q-14 0 -21 7 l-8 15 q0 238 -5 292 l9 17 q9 5 20 5 l11 -8 q170 0 338 -2 q11 -5 14 -14 l0 -14 q-5 -13 -24 -16 q-158 0 -322 2 q0 -159 6 -232 q51 38 101 47 q41 7 104 7 q66 -15 113 -58 q50 -67 50 -153 q0 -32 -18 -90 q-11 -34 -37 -59 l-7 0 l-15 -21 q-69 -50 -154.5 -62 q-85.5 -12 -172.5 -14 Z" /><glyph glyph-name="six" unicode="6" d="M307 51 l57 16 q28 7 55 21 q66 30 66 163 q-20 85 -52 125 q-40 25 -94 25 q-73 -5 -153 -76 q-26 -28 -32 -64.5 q-6 -36.5 -10 -75.5 q26 -53 51 -75 q25 -19 51.5 -39 q26.5 -20 60.5 -20 ZM301 5 q-38 3 -71 24 q-118 73 -138 173 q-15 68 -15 170 q0 138 114 260 q56 48 123 55 q55 6 137 6 q9 -3 17 -4.5 q8 -1.5 14 -7.5 q3 -7 3 -21 q0 -12 -26 -16 q-16 4 -87 4 q-112 0 -171 -68 q-79 -107 -79 -199 q0 -22 7 -54 l14 18 q100 101 199 101 q91 0 138 -54 q50 -87 50 -157 q0 -99 -53 -163 q-61 -45 -176 -67 Z" /><glyph glyph-name="seven" unicode="7" d="M210 14 q-11 4 -15 28 q63 335 242 594 q-110 0 -210 -5 l-56 -1 q-63 0 -87 4 q-5 3 -10 17 q0 13 8.5 16.5 q8.5 3.5 16.5 6.5 q54 0 130 3 l60 -2 q73 1 146 4 l39 -2 l17 2 q4 -1 9 -7 q5 -6 5 -7 l0 -15 q-191 -245 -275 -632 q-7 -4 -20 -4 Z" /><glyph glyph-name="eight" unicode="8" d="M294 390 l5 4 q50 26 98.5 63 q48.5 37 111.5 71 l-35 17 l-17 32 l-41 37 q-37 7 -71 18 q-36 8 -76 8 q-34 -3 -65 -7 q-31 -4 -60 -25 q-34 -35 -34 -90 q40 -62 96 -88 l88 -40 ZM322 58 l47 9 q25 4 47 15 q57 53 60 120 l-26 62 l-16 12 q-18 19 -70 44 q-59 16 -71 22 q-108 -50 -181 -106 q-13 -15 -14.5 -33.5 q-1.5 -18.5 -6.5 -37.5 q6 -20 19.5 -33 q13.5 -13 25.5 -27 q41 -32 89 -38.5 q48 -6.5 97 -8.5 ZM289 14 q-130 5 -197 69 q-45 45 -45 87 q0 67 41 106 q53 41 149 90 q-82 31 -138 91 l-19 30 q-15 14 -15 40 q4 71 54 120 q43 26 91.5 31.5 q48.5 5.5 98.5 5.5 q38 -9 80.5 -15.5 q42.5 -6.5 69.5 -37.5 l3 -6 q28 -13 36 -30 q16 -12 16 -36 q-1 -6 -11 -20 q41 -4 41 -21 l0 -13 q-7 -14 -21 -21.5 q-14 -7.5 -23 -16.5 q-37 -17 -70 -42 q-33 -25 -77 -52 q96 -42 136 -87 q32 -56 32 -106 q-12 -73 -73 -129 q-53 -37 -159 -37 Z" /><glyph glyph-name="nine" unicode="9" d="M307 323 l45 15 q19 12 29 17 q49 31 86 135 q-8 26 -18 48 q-12 37 -43 62 q-31 25 -71 32 q-31 4 -61 4 q-62 0 -127 -51 q-35 -46 -35 -136 q4 -50 45 -85 q30 -27 70 -35 q33 -6 80 -6 ZM274 -27 q-12 4 -16 23 l31 63 q65 124 124 261 q-71 -43 -148 -43 q-94 9 -149 64 q-24 25 -35.5 54.5 q-11.5 29.5 -11.5 80.5 q0 92 49 143 q65 62 163 62 q165 0 214 -134 l26 -83 q-91 -252 -226 -487 q-7 -4 -21 -4 Z" /><glyph glyph-name="colon" unicode=":" d="M146 485 l-24 14 q-12 12 -12 35 q0 24 12 35 q12 15 37 15 l16 -1 q10 -3 14.5 -13 q4.5 -10 8.5 -18 l2 -39 l-12 -19 q-8 -9 -42 -9 ZM148 119 l-22 12 q-15 18 -15 47 q0 9 5.5 15 q5.5 6 11.5 14 q6 8 19 8 l26 0 q17 -9 25 -27 l0 -39 q-4 -9 -14.5 -15.5 q-10.5 -6.5 -19.5 -12.5 l-16 -2 Z" /><glyph glyph-name="less" unicode="&lt;" d="M639 22 l-14 0 q-157 63 -305.5 148 q-148.5 85 -301.5 153 l-14 33 q3 7 5 15 q2 8 326 172 q164 79 325 154 q7 -2 13 -15 l0 -12 q-16 -26 -306 -164 q-146 -69 -294 -153 q356 -195 578 -296 q2 -2 2 -20 q-4 -11 -14 -15 Z" /><glyph glyph-name="greater" unicode="&gt;" d="M55 32 q-8 3 -13 13 l0 14 q8 16 26 25 q18 9 33 20 q278 148 513 237 l0 13 q-137 84 -280 154 q-143 70 -281 145 q-3 7 -3 20 l12 15 l23 2 q152 -85 309 -162.5 q157 -77.5 305 -168.5 q3 -3 4 -19 q-7 -14 -20 -18 q-237 -93 -628 -290 Z" /><glyph glyph-name="question" unicode="?" d="M219 202 q-3 1 -7.5 6 q-4.5 5 -5.5 8 l-2 34 q6 76 67 130 q24 17 50.5 31 q26.5 14 51.5 36 q15 22 28.5 45 q13.5 23 13.5 52 q-7 49 -36 83 q-46 43 -116 43 q-35 0 -103 -19 q-43 -15 -70 -41 q-18 -26 -26 -51 q-11 -35 -19 -68 q-6 -4 -19 -4 q-11 3 -14 14 l-2 23 q17 131 120 162 q66 24 154 28 q40 -3 75 -18 q33 -18 62 -48 q39 -60 39 -113 q0 -29 -21 -68 q-32 -62 -92 -92 q-29 -15 -57 -38 q-26 -27 -35 -63 q-9 -36 -17 -70 q-2 -2 -19 -2 ZM217 14 l-15 10 q-16 21 -16 36 q4 51 52 51 l14 -2 q21 -14 26 -29 l0 -35 q-4 -14 -28 -27 l-33 -4 Z" /><glyph glyph-name="at" unicode="@" d="M331 217 l30 6 q74 47 106 119 q32 59 42 101 q-3 22 -4 43.5 q-1 21.5 -17 41.5 q-13 10 -31 10 l-33 0 q-65 -28 -111 -75 q-30 -39 -38.5 -86 q-8.5 -47 -14.5 -95 q28 -65 55 -65 l16 0 ZM375 1 q-131 10 -230 104 q-89 114 -95 244 q5 93 55 170 q50 77 109 146 q109 82 267 91 q49 -7 92.5 -34.5 q43.5 -27.5 84.5 -61.5 q100 -102 100 -249 q0 -62 -31 -119 q-23 -43 -61 -77 q-31 -19 -63 -36 q-24 -11 -54 -11 q-36 0 -59 23.5 q-23 23.5 -23 69.5 q-46 -57 -94 -82 l-69 -6 q-21 3 -55 36 q-33 39 -33 91 q9 57 22.5 115.5 q13.5 58.5 61.5 95.5 q37 32 77 56 q32 18 69 18 q56 0 91 -46 l17 30 q6 3 20 3 q11 -4 15 -14 l0 -17 q-17 -43 -29 -89 q-14 -45 -32 -91 l2 -17 q-17 -52 -17 -111 q4 -7 6.5 -9 q2.5 -2 6 -3.5 q3.5 -1.5 10.5 -7.5 l28 0 q25 12 50 22.5 q25 10.5 44 33.5 q57 73 57 155 q0 14 -2 28 q-14 104 -95 184 q-36 29 -74.5 52 q-38.5 23 -86.5 24 q-149 -21 -230 -97 q-49 -64 -91.5 -132.5 q-42.5 -68.5 -42.5 -158.5 q22 -114 93 -196 q84 -78 226 -83 q128 13 244 118 q11 10 21 10 q7 0 12.5 -5.5 q5.5 -5.5 6.5 -10.5 l0 -11 q-28 -35 -65 -61 l-78 -50 q-92 -34 -178 -34 Z" /><glyph glyph-name="A" unicode="A" d="M495 316 l7 7 q-29 72 -63 136 q-34 64 -66 145 q-35 -81 -70 -144 q-35 -63 -69 -137 l175 -3 q19 -4 86 -4 ZM69 10 l-5 0 l-3 2 q-11 5 -14 20 q89 191 166.5 346 q77.5 155 146.5 312 q7 4 19 4 q13 -6 15 -16 q65 -154 134.5 -309.5 q69.5 -155.5 142.5 -338.5 q-2 -9 -15 -14 l-14 0 q-6 2 -15 15 l-107 244 l-103 -2 l-12 4 l-163 0 l-24 -5 l-135 -258 q-3 -2 -7 -2.5 q-4 -0.5 -7 -1.5 Z" /><glyph glyph-name="B" unicode="B" d="M144 388 l5 4 q114 12 205 21 q91 9 156 82 q12 13 13 32 l0 34 l-25 54 q-76 23 -153.5 26.5 q-77.5 3.5 -187.5 4.5 q-13 -62 -15 -125 q-2 -63 -6 -125 l8 -8 ZM360 56 q70 0 138 33 q42 36 46 61 q1 6 3 13.5 q2 7.5 2 28.5 q-2 68 -36 97 q-49 39 -107.5 53 q-58.5 14 -118.5 21 l-120 -4 l-26 4 q-7 -14 -7 -50 q0 -46 6 -121 q0 -109 3 -132 l217 -4 ZM318 12 l-14 0 l-143 7 q-20 0 -38 -2 q-8 4 -15 4 q-11 3 -11 21 l1 27 q-1 124 -7 196 q-2 24 -2 46 l3 117 q13 146 13 245 q8 14 15 16 q51 1 143 1 q72 -9 144 -9.5 q72 -0.5 131 -44.5 q29 -45 29 -105 q0 -47 -44 -86 l-38 -29 l-10 -5 q-15 -12 -45 -28 q69 -20 128 -75 q35 -40 35 -146 q-11 -63 -51 -93 q-50 -40 -110 -50 q-57 -7 -114 -7 Z" /><glyph glyph-name="C" unicode="C" d="M335 7 l-8 0 q-128 16 -203 82 q-75 82 -75 210 l1 32 l-1 20 q0 88 49 157 q56 78 124 143 q26 20 58 26.5 q32 6.5 62 13.5 l97 0 q35 -9 70.5 -15 q35.5 -6 63.5 -30 q36 -23 46 -36 q22 -25 22 -85 q0 -20 -10 -36 q-4 -2 -14 -4 q-9 0 -15 6 q-9 10 -11 57 q-1 28 -19 48 q-44 39 -134 51 l-93 0 q-92 -13 -129 -65 q-127 -109 -127 -285 l1 -33 q11 -40 25.5 -79.5 q14.5 -39.5 46.5 -70.5 q88 -62 206 -62 q154 20 274 126 q19 39 36 48 l12 0 q14 -8 16 -14 l0 -15 q-42 -82 -148 -132 q-110 -58 -223 -58 Z" /><glyph glyph-name="D" unicode="D" d="M217 54 q38 6 107 6 l25 -2 q42 0 80 12 q38 12 73 29.5 q35 17.5 51.5 47.5 q16.5 30 31.5 59 q11 35 22.5 70 q11.5 35 16.5 70 l1 90 q-13 44 -40 83 q-27 39 -55 76 q-57 35 -119 45 q-62 10 -125 11 l-133 -9 q0 -17 -5.5 -28 q-5.5 -11 -5.5 -22 q0 -124 -3 -209 l1 -106 l-8 -221 l85 -2 ZM210 10 l-28 0 q-19 5 -37 5 q-9 0 -17 -1 q-8 -1 -15 -1 q-11 0 -17.5 4.5 q-6.5 4.5 -6.5 27.5 q6 125 8 336 l-2 45 l4 42 q0 124 4 166 l-6 35 q10 14 14 15 q21 0 35 -2 l25 4 l41 0 q48 10 121 10 q91 -14 131 -24 q65 -14 113 -63 q27 -42 56.5 -83 q29.5 -41 35.5 -91 l-1 -89 q-22 -152 -100 -254 q-94 -78 -242 -78 l-66 2 q-32 -5 -37.5 -5 q-5.5 0 -12.5 -1 Z" /><glyph glyph-name="E" unicode="E" d="M404 2 q-36 6 -76 7.5 q-40 1.5 -79 4.5 l-75 0 q-53 -8 -75 -8 l-8 6 q-1 1 -1 14 q0 13 3 38 q-1 20 -1 42 q0 31 9 177 l3 350 l-4 39 q5 11 18 17 l28 0 q31 -8 52 -8 q7 0 90 10 q183 0 199 -1 l39 2 l3 -1 q4 0 4 3 l-5 -9 l8 0 q3 -4 4 -7 l0 -13 q-1 -8 -15 -15 q-25 -1 -51 -1.5 q-26 -0.5 -88 -3.5 q-1 2 -98 2 l-137 -5 l-3 -15 q0 -152 -4 -251 l40 7 l175 0 l77 7 q13 -5 18 -18 q-1 -8 -3 -17 q-2 -9 -14 -13 l-37 2 q-6 0 -41 -5 l-177 0 l-16 -4 l-20 7 l-2 -60 q-7 -93 -7 -224 q126 0 280 -11 q115 1 157 3 q10 -4 15 -14 l0 -13 q-3 -10 -15 -15 q-44 -1 -49 -2 q-14 -2 -29 -2 q-45 0 -92 -2 Z" /><glyph glyph-name="F" unicode="F" d="M133 14 l-13 0 l-15 12 l-8 43 l-1 322 q5 43 5 101 q-2 46 -2 80 l1 46 l-12 53 l10 17 q7 4 22 4 q3 0 5 -18 l12 17 l42 -2 l146 2 q61 -3 126 -4 q38 -2 79 -7 l21 1 l9 -7 q4 0 4 2 l-1 2 l-4 -4 q6 -6 6 -7 q0 -24 -14 -27 l-16 1 l-2 -2 q-191 7 -388 12 l-5 -11 q3 -19 3 -74 q4 -29 4 -57 q0 -90 -8 -108 l132 -9 l66 2 l39 -2 l81 3 q11 -4 15 -14 l0 -13 q-6 -12 -15 -14 l-36 -1 l0 -3 q-79 0 -101 -1 l0 1 q-101 0 -181 8 l0 -105 q2 -90 2 -182 q6 -12 6 -43 q-1 -10 -14 -14 Z" /><glyph glyph-name="G" unicode="G" d="M383 12 q-144 0 -210 66 q-124 131 -124 251 l-1 42 q0 81 22 133 q24 60 76 107 q43 50 106 62.5 q63 12.5 123 17.5 l77 0 q33 -9 60 -14.5 q27 -5.5 61 -29.5 q58 -47 60 -130 q-10 -10 -14.5 -11 q-4.5 -1 -11.5 -1 q-9 1 -13 15 q-23 75 -58 102 q-33 13 -87 25 l-74 0 q-59 -3 -116.5 -18 q-57.5 -15 -95.5 -64 q-46 -44 -60 -103 q-11 -46 -11 -115 l1 -33 q13 -102 123 -218 q72 -40 171 -40 q90 0 174 87 q19 45 19 84 q0 10 -3 24 l-71 0 l-96 -7 l-20 8 q-8 8 -8 21 q0 6 6 11.5 q6 5.5 9 6.5 l13 0 l6 -3 l90 7 l105 0 q3 -1 8.5 -5.5 q5.5 -4.5 6.5 -8.5 q-5 -85 -11.5 -128 q-6.5 -43 -61.5 -76 q-72 -65 -170 -65 Z" /><glyph glyph-name="H" unicode="H" d="M119 10 l-7 0 q-6 2 -14 15 l-1 33 q4 36 5 232 q-3 139 -8 199 l0 126 l-6 59 l10 17 q6 5 20 5 q10 -4 14 -15 l6 -66 l0 -126 l5 -118 l32 0 q62 9 125.5 12 q63.5 3 127.5 7 l107 0 l59 7 q0 59 -5 113 q0 119 -2 156 l3 12 q4 13 28 13 q3 -1 8.5 -5.5 q5.5 -4.5 6.5 -8.5 q0 -23 -2 -46 l2 -121 q3 -34 3.5 -71 q0.5 -37 3.5 -74 q0 -266 -23 -350 q-6 -3 -19 -3 q-12 4 -15 15 l-2 25 q11 67 12.5 145.5 q1.5 78.5 2.5 154.5 q-15 0 -61 -6 l-107 0 q-68 -2 -285 -20 l1 -232 q-2 -19 -2 -45 q0 -20 -9 -35 q-4 -2 -7.5 -2.5 q-3.5 -0.5 -6.5 -1.5 Z" /><glyph glyph-name="I" unicode="I" d="M228 11 q-51 5 -100.5 5.5 q-49.5 0.5 -73.5 9.5 l-6 14 l10 18 q6 4 20 4 q1 -1 91 -2 q0 120 -2 179 l4 51 q0 265 -2 361 l-65 2 q-14 -6 -24 -6 q-12 5 -15 15 l0 12 l17 20 l12 4 l168 -3 q12 -3 26 -3 l21 1 q15 0 26 -7 q4 -5 4 -20 q-1 -3 -6 -8.5 q-5 -5.5 -8 -6.5 l-60 -2 l-51 2 q0 -184 2 -361 l-4 -108 q2 -110 5 -124 l57 -2 l42 2 q4 -1 8.5 -6.5 q4.5 -5.5 5.5 -8.5 l0 -13 q-1 -10 -14 -14 l-88 -5 Z" /><glyph glyph-name="J" unicode="J" d="M168 15 q-63 9 -104 54 q-16 32 -16 60 q0 11 5 22 q0 2 9 8 q3 4 21 4 q11 -4 14 -13 l0 -16 l-4 -15 q11 -30 27 -42 q25 -10 30 -13 q17 -6 36 -6 q14 4 30 6 q16 5 28 16 q46 71 46 135 q0 14 -2 29 l-5 112 l2 73 q4 68 5 136 q0 40 2 80 l-2 27 l16 19 l13 3 q14 0 27 -10 l0 -6 q0 -12 -3 -33 q-13 -126 -13 -287 l-2 -22 q6 -102 6 -126 q0 -42 -25 -105 q-14 -36 -45 -65 q-34 -25 -96 -25 Z" /><glyph glyph-name="K" unicode="K" d="M110 10 l-6 0 q-13 4 -14 14 l-2 52 l9 183 q0 132 -3 193 l3 29 l-1 153 l1 15 q-7 10 -7 25 q4 10 18 17 l20 0 q3 -1 7.5 -5.5 q4.5 -4.5 5.5 -7.5 q0 -197 -3 -250 l3 -105 q129 91 239.5 192 q110.5 101 152 134 q41.5 33 65.5 40 q16 0 17 -3 l5 -15 l-2 -11 q-246 -209 -282 -244 q68 -92 134 -180 q66 -88 123 -178 l8 -3 q9 -22 9 -26 q0 -17 -16 -17 l-11 1 q-12 0 -20 9 q-100 159 -263 367 l-160 -128 q-5 -68 -5.5 -128 q-0.5 -60 -11.5 -120 q-2 -1 -6 -1.5 q-4 -0.5 -7 -1.5 Z" /><glyph glyph-name="L" unicode="L" d="M188 10 l-65 2 l-20 -2 l-2 1 q-3 1 -7 5.5 q-4 4.5 -6 7.5 l0 36 l4 6 l-2 24 q7 52 9 108.5 q2 56.5 6 109.5 l0 139 l-6 91 q2 105 4 129 q2 24 33 24 q9 0 13 -14 q0 -17 -4 -33 q0 -104 -2 -134 l6 -63 l0 -139 q-4 -61 -6.5 -123.5 q-2.5 -62.5 -10.5 -128.5 q24 0 72 6 q15 -1 54 -1 q58 0 85 -1 l60 2 l107 -2 l43 2 q7 -2 15 -16 l0 -12 q-2 -9 -15 -15 q-96 -7 -192 -7 l-88 1 q-56 0 -85 -3 Z" /><glyph glyph-name="M" unicode="M" d="M746 7 q-13 6 -16 28 q2 36 2 73 l-7 54 q0 390 7 490 q-81 -166 -143.5 -308 q-62.5 -142 -134.5 -279 l-2 -1 q-9 -4 -18.5 -9 q-9.5 -5 -20.5 -5 q-11 7 -21 19 q-10 12 -21 23 q-35 79 -115 251 q-57 120 -118 271 l-4 -53 l9 -189 q0 -233 -3 -292 q-2 -38 -15 -67 q-7 -4 -19 -4 q-13 4 -14 13 l0 31 q8 50 8 319 l-10 260 l2 9 q-4 30 -4 36 q1 4 6 9 q5 5 7 5 q44 0 52 -8 q67 -142 130 -286.5 q63 -144.5 141 -302.5 q74 155 136 300 q62 145 136 283 q11 12 31 14 q20 2 39 3 q10 -6 13 -15 q-2 -41 -8 -85 l0 -109 q-3 -63 -3 -324 q7 -37 7 -129 l-9 -20 q-10 -5 -20 -5 Z" /><glyph glyph-name="N" unicode="N" d="M126 7 l-19 11 q-3 5 -3 21 q1 90 1 257 l-4 24 l0 144 q-9 176 -13 206 l18 20 l13 1 q14 0 20 -7.5 q6 -7.5 11 -14.5 q14 0 31 -22 q138 -150 407 -501 q0 241 2 306 q0 198 -1 220 q0 15 15 22 l15 2 q14 -4 17 -8.5 q3 -4.5 3 -16.5 l-4 -93 l0 -126 q-4 -165 -4 -207 q0 -155 6 -214 q-4 -12 -22 -16 l-12 6 q-12 16 -14 21 q-102 176 -213 309.5 q-111 133.5 -233 274.5 l-3 -44 l5 -118 l0 -144 l4 -24 l0 -273 q-1 -3 -5 -6.5 q-4 -3.5 -7.5 -5 q-3.5 -1.5 -5.5 -2.5 q-2 -1 -5 -2 Z" /><glyph glyph-name="O" unicode="O" d="M392 58 q33 3 51 9 q131 42 200 189 q20 35 20 111 q0 129 -116 255 q-27 15 -56 18.5 q-29 3.5 -59 6.5 q-22 -2 -54 -2 q-9 5 -24 5 l-35 -1 q-34 -7 -66.5 -19 q-32.5 -12 -56.5 -44 q-54 -52 -80.5 -121.5 q-26.5 -69.5 -26.5 -136.5 q14 -50 35 -97.5 q21 -47.5 57 -85.5 q46 -44 103 -65.5 q57 -21.5 108 -21.5 ZM391 13 q-141 0 -255 115 q-88 123 -88 221 q0 169 151 302 q66 44 153 44 q16 0 75 -6 l24 2 q38 -5 77 -13 q39 -8 67 -43 q111 -109 111 -281 q0 -132 -113 -247 q-105 -94 -202 -94 Z" /><glyph glyph-name="P" unicode="P" d="M217 347 q61 4 125 10 q64 6 122 34 q35 19 46 54 q9 15 9 36 l-1 47 l-7 19 q-14 44 -37 62 q-123 42 -237 42 l-102 -2 q0 -16 9 -148 l0 -153 l73 -1 ZM115 14 l-6 0 q-13 4 -14 14 q0 14 6 66 l0 407 q-5 33 -6 67 q-5 53 -7 105 q4 10 15 15 l143 9 l37 -1 q62 -12 125.5 -20.5 q63.5 -8.5 111.5 -46.5 q43 -59 43 -149 l-1 -23 q-16 -52 -54 -89 q-71 -49 -156 -55 q-85 -6 -208 -10 q0 -185 -1 -251 q-1 -34 -28 -38 Z" /><glyph glyph-name="Q" unicode="Q" d="M392 58 q92 8 168 78 l-56 59 q-39 39 -44 57 l10 18 l20 3 q4 0 7 -2 q24 -29 39 -42 l54 -59 q61 78 68 135 q0 6 5 46 l0 16 q0 129 -116 255 q-27 15 -56 18.5 q-29 3.5 -59 6.5 q-22 -2 -55 -2 q-10 5 -23 5 l-35 -1 q-34 -7 -66.5 -19 q-32.5 -12 -55.5 -44 q-56 -52 -82 -121.5 q-26 -69.5 -26 -136.5 q35 -123 91 -183 q47 -44 104 -65.5 q57 -21.5 108 -21.5 ZM691 9 q-7 0 -10 2 l-93 92 q-103 -90 -198 -90 q-140 0 -254 115 q-88 123 -88 221 q0 169 151 302 q66 44 153 44 q16 0 75 -6 l23 2 q39 -5 78 -13 q39 -8 67 -43 q111 -110 111 -281 q0 -115 -86 -215 q62 -69 92 -100 q1 -1 1 -10 q0 -9 -11 -19 q-4 -1 -11 -1 Z" /><glyph glyph-name="R" unicode="R" d="M346 400 q29 4 56.5 6.5 q27.5 2.5 50.5 16.5 q58 17 87 94 l0 37 q-9 29 -39 53 q-61 40 -133 40 q-110 0 -186 2 l-37 -5 l-4 -93 l2 -81 l-5 -65 l52 -5 l156 0 ZM110 10 l-6 0 q-12 4 -16 25 l8 79 q0 131 -4 261 l8 95 q0 79 -3 139 l3 29 l-4 32 q8 14 20 19 q37 2 80 2 q23 0 85 3 q76 0 149.5 -9 q73.5 -9 125.5 -69 q29 -31 29 -83 l-1 -22 q-10 -45 -60 -97 q-59 -50 -156 -54 q50 -77 102 -156.5 q52 -79.5 109 -138.5 q23 -20 24 -22 l0 -11 l-12 -18 l-15 -2 q-14 0 -25 13 q-97 111 -234 332 q-127 0 -181 3 q0 -36 4 -115 l0 -130 q-5 -26 -5 -54.5 q0 -28.5 -12 -46.5 q-2 -2 -6 -2.5 q-4 -0.5 -7 -1.5 Z" /><glyph glyph-name="S" unicode="S" d="M342 9 q-79 3 -126 17 q-47 16 -104 47 q-40 34 -54 77 q-10 19 -10 30 l1 7 q8 15 18 19 l13 0 q5 -5 14.5 -10.5 q9.5 -5.5 11.5 -11.5 l0 -19 q68 -79 160 -99 q44 -9 111 -9 q73 0 131 52 q7 12 7 28 l-1 42 q-2 62 -76 125 q-86 34 -171 68.5 q-85 34.5 -160 86.5 q-30 26 -30 73 q7 32 18 63.5 q11 31.5 36 55.5 q43 26 95 32 q52 6 108 6 q38 -5 79 -14 q105 -23 130 -80 l6 -40 q-5 -23 -10 -27 q-5 -4 -9 -6 l-13 0 q-14 4 -14 21 q0 36 -44 71 q-92 32 -145 32 q-97 0 -157 -30 q-31 -48 -35 -97 q6 -18 23 -38 q85 -51 180 -82.5 q95 -31.5 172 -89.5 q44 -38 54 -87 q9 -37 9 -77 l-1 -27 q-4 -25 -29 -49 q-67 -60 -188 -60 Z" /><glyph glyph-name="T" unicode="T" d="M355 10 l-12 0 l-15 12 l-4 42 l2 181 l8 72 q0 161 -2 328 l-196 0 q-68 0 -81 7 l-7 19 l9 17 q7 4 22 4 q15 -1 68 -1 q53 0 71 -1 l264 2 l107 -2 l44 2 q7 -1 14 -15 l0 -12 q-4 -10 -15 -15 q-125 -5 -257 -5 q0 -216 3 -328 l-8 -72 q0 -179 -2 -199 l2 -22 q-4 -11 -15 -14 Z" /><glyph glyph-name="U" unicode="U" d="M386 12 l-9 0 q-61 6 -123.5 18.5 q-62.5 12.5 -109.5 54.5 q-42 56 -44.5 127.5 q-2.5 71.5 -8.5 143.5 q0 98 -2 130 l3 169 l-4 15 l9 17 q7 4 21 4 q10 -1 14 -14 q4 -28 4 -128 l-3 -93 l1 -100 q7 -62 9 -126 q2 -64 38 -118 q48 -35 102.5 -42.5 q54.5 -7.5 110.5 -13.5 q35 1 67 15 q32 14 70 50 l9 0 q55 79 55 162 q0 14 -3 68 l3 318 l10 19 q6 3 20 3 q10 -1 14 -14 q0 -219 -3 -360 l1 -79 q-16 -88 -67 -146 q-84 -80 -184 -80 Z" /><glyph glyph-name="V" unicode="V" d="M345 10 l-17 9 q-149 247 -281 659 q1 3 6.5 8 q5.5 5 7.5 5 l20 0 q13 -7 16 -17 q45 -133 104.5 -291 q59.5 -158 138.5 -289 q78 141 140.5 301 q62.5 160 121.5 294 q6 4 18 4 q14 -6 15 -14 l0 -20 q-133 -343 -273 -643 l-17 -6 Z" /><glyph glyph-name="W" unicode="W" d="M230 10 l-16 12 q-42 159 -81 320.5 q-39 161.5 -86 335.5 q4 12 13 13 l23 0 q3 -1 7.5 -5.5 q4.5 -4.5 5.5 -7.5 q0 -14 -2 -22 q72 -252 144 -559 q31 139 75 269.5 q44 130.5 106 320.5 q1 1 4 1.5 q3 0.5 4 0.5 l12 0 q9 -1 13 -15 q33 -186 74.5 -311 q41.5 -125 77.5 -239 q64 141 113.5 291.5 q49.5 150.5 100.5 272.5 q6 3 21 3 q13 -2 13 -29 q-157 -433 -227 -611 q5 -7 5 -24 q-3 -11 -14 -15 l-13 0 q-10 3 -17 20 q-29 106 -71.5 235.5 q-42.5 129.5 -88.5 282.5 q-66 -156 -102 -290 q-36 -134 -75 -246 q-4 -3 -19 -4 Z" /><glyph glyph-name="X" unicode="X" d="M540 12 l-11 0 q-47 58 -89.5 123.5 q-42.5 65.5 -91.5 125.5 q-6 14 -14.5 27.5 q-8.5 13.5 -16.5 32.5 l-14 0 q-60 -70 -115.5 -150.5 q-55.5 -80.5 -105.5 -153.5 q-4 -2 -8 -2.5 q-4 -0.5 -7 -1.5 l-6 1 q-11 4 -14 14 l0 15 q115 175 236 326 q-62 92 -111.5 161 q-49.5 69 -87.5 146 q11 19 15.5 19.5 q4.5 0.5 7 1 q2.5 0.5 4.5 0.5 l17 -10 q34 -71 77 -130.5 q43 -59.5 106 -141.5 q64 71 122 144 q58 73 113 132 l13 0 q14 -3 14 -26 q-51 -69 -115 -145 q-64 -76 -120 -148 q50 -95 113.5 -177.5 q63.5 -82.5 102.5 -168.5 q-3 -10 -14 -14 Z" /><glyph glyph-name="Y" unicode="Y" d="M355 13 l-14 0 q-10 5 -14 16 q-2 6 -2 116 l-2 116 q-76 102 -150 206 q-74 104 -126 212 q2 5 15 14 l14 0 q20 -16 36 -40 l29 -53 q41 -77 92.5 -143 q51.5 -66 102.5 -146 q70 105 135.5 200 q65.5 95 141.5 180 l10 0 q11 -2 15 -14 l0 -14 q-72 -94 -142.5 -193.5 q-70.5 -99.5 -128.5 -204.5 l3 -237 q-4 -10 -15 -15 Z" /><glyph glyph-name="Z" unicode="Z" d="M403 11 l-10 2 q-17 -1 -135 -1 q-43 4 -86.5 4 q-43.5 0 -86.5 1 l-14 -5 l-17 9 l-6 16 q89 163 198.5 306.5 q109.5 143.5 240.5 301.5 q-225 4 -332 4 l-43 -2 q-9 4 -14 15 q0 25 14 28 q34 2 144 5 l14 -4 l99 2 l184 -5 q12 -11 13 -15.5 q1 -4.5 1 -9.5 q-133 -141 -241.5 -288 q-108.5 -147 -217.5 -314 q45 -3 79.5 -3 q34.5 0 70.5 -2 l136 0 q2 1 64 1 l29 3 l12 -4 q25 0 47 2 q10 -4 15 -15 l0 -12 q-3 -11 -15 -15 l-143 -5 Z" /><glyph glyph-name="bracketleft" unicode="[" d="M233 -78 l-81 5 q-84 0 -96 2 l-17 -2 q-13 4 -16 25 l2 52 l-4 47 l0 166 l5 122 q0 63 -4.5 122 q-4.5 59 -4.5 122 l4 107 l-2 59 q2 10 5 21 q3 11 11 17.5 q8 6.5 18 6.5 q29 -1 95 -7 q27 0 49.5 4 q22.5 4 46.5 4 q10 -4 14 -14 l0 -13 l-6 -10 l-15 -8 q-53 -7 -116 -7 l-59 7 q0 -58 3 -90 l-5 -153 q5 -48 11 -190 q-4 -25 -4 -50.5 q0 -25.5 -2 -50.5 l0 -161 l4 -83 l87 0 q19 -5 39 -5 q7 0 13.5 1 q6.5 1 11.5 1 q38 0 38 -31 q-3 -13 -25 -16 Z" /><glyph glyph-name="bracketright" unicode="]" d="M39 -80 l-18 10 q-4 7 -4 19 q1 5 7 8 q4 5 7 6 l51 4 q106 0 122 -3 q0 244 -2 479 q8 55 9.5 112.5 q1.5 57.5 5.5 113.5 l0 84 l-47 2 l-123 -8 l-19 10 q-3 4 -3 20 q1 3 5.5 8 q4.5 5 8.5 6 l159 7 q18 -1 35 -2.5 q17 -1.5 27 -17.5 l0 -109 q-4 -56 -5 -113 q-1 -57 -9 -113 q0 -479 5 -505 q-7 -13 -26 -16 l-19 2 l-19 -2 l-101 2 l-47 -4 Z" /><glyph glyph-name="underscore" unicode="_&#x332;" d="M465 -86 l-479 0 l0 34 l479 0 l0 -34 Z" /><glyph glyph-name="a" unicode="a" d="M248 50 q24 6 31 6 q18 3 30 14 q17 5 32.5 21.5 q15.5 16.5 31.5 32.5 l2 40 q0 80 3 100 l-33 3 q-56 -11 -112 -25 q-55 -17 -100 -59 q-15 -25 -15 -59 l1 -18 l21 -37 q24 -15 52.5 -17 q28.5 -2 55.5 -2 ZM229 5 q-43 0 -76 7 q-30 9 -55 31 q-7 12 -14 24.5 q-7 12.5 -8 25.5 l0 76 q32 87 156 119 q68 18 145 31 l2 34 q-13 31 -24 45 q-23 9 -44 19 q-21 10 -47 10 q-69 -7 -139 -68 l-13 -24 q-4 -5 -15 -5 q-23 0 -23 27 l21 37 q90 78 179 78 q14 0 27 -2 q62 -21 94 -48 l28 -48 l0 -111 l-4 -33 q0 -80 -2 -129 q4 -10 7 -19.5 q3 -9.5 12 -19.5 l19 -6 q12 9 33 9 q16 -2 16 -26 q-13 -29 -59 -29 l-10 1 q-9 5 -20 10.5 q-11 5.5 -17.5 14.5 q-6.5 9 -14.5 18 l-10 0 q-65 -49 -144 -49 Z" /><glyph glyph-name="b" unicode="b" d="M319 56 q27 6 81 29 q35 23 60 53 q15 40 16.5 77 q1.5 37 1.5 80 q-12 52 -50 91 q-56 37 -111 37 q-35 -6 -70 -18 q-35 -12 -63 -40 q-26 -24 -36 -55.5 q-10 -31.5 -15 -55.5 l0 -30 q3 -76 56 -122 q53 -46 130 -46 ZM297 12 q-86 4 -162 82 l-2 -40 q7 -11 7 -16 q-4 -16 -19 -24 l-13 0 q-10 3 -20 33 l0 330 l4 36 q0 106 2 210 q6 18 6 36 q0 18 9 28 q9 4 21 4 q4 0 8 -5 q4 -5 5 -8 l0 -28 l-5 -25 q0 -192 -6 -249 q85 92 214 92 q14 0 72 -25 q31 -13 56 -41 q49 -53 49 -132 q0 -53 -13 -119 q-8 -47 -51 -77 q-71 -62 -162 -62 Z" /><glyph glyph-name="c" unicode="c" d="M242 12 q-40 6 -79 23.5 q-39 17.5 -69 49.5 q-30 32 -38.5 72.5 q-8.5 40.5 -8.5 83.5 q0 46 15 84 q29 69 135 122 q36 19 75 19 q86 0 155 -70 q9 -11 9 -23 q-2 -17 -16 -21 l-11 0 q-14 10 -26.5 24.5 q-12.5 14.5 -33.5 22.5 q-30 21 -81 21 l-19 -1 q-33 -12 -62 -28.5 q-29 -16.5 -54.5 -40 q-25.5 -23.5 -33.5 -56 q-8 -32.5 -8 -72.5 q5 -83 46 -121 q71 -42 119 -45 q48 7 92.5 25.5 q44.5 18.5 86.5 32.5 q7 -3 14 -15 l0 -13 q-10 -22 -120 -59 q-41 -13 -87 -15 Z" /><glyph glyph-name="d" unicode="d" d="M278 56 q33 6 62 21 q50 21 79 61 q15 40 17 77 q2 37 2 80 q-13 52 -51 91 q-54 37 -111 37 q-35 -6 -70 -18 q-35 -12 -63 -40 q-25 -24 -36 -56 q-16 -49 -16 -72 q0 -85 58 -136 q54 -45 129 -45 ZM457 10 q-9 0 -14 5.5 q-5 5.5 -5.5 10.5 q-0.5 5 -4.5 60 l-15 -12 q-71 -62 -162 -62 q-90 4 -160 80 q-49 62 -49 161 q15 103 80 157 q76 58 178 58 q14 0 72 -24 q29 -14 63 -50 q0 117 -2 218 q5 21 6 42 q3 37 37 37 q9 -1 13 -14 l0 -18 q-8 -14 -11 -46 l1 -412 l-5 -79 l2 -17 q-3 -11 -3 -29 l1 -26 q0 -36 -17 -39 l-5 -1 Z" /><glyph glyph-name="e" unicode="e" d="M122 288 q62 6 126 8 q64 2 133 9 q-9 56 -42 89 q-56 29 -84 29 q-31 0 -112 -52 q-19 -26 -37 -83 l16 0 ZM242 12 q-25 0 -80 21 q-33 12 -61 37 q-52 54 -52 123 q0 136 71 217 q36 23 75 42 q32 16 79 16 q81 -20 115 -63 q35 -56 42 -120 l-11 -17 q-74 -14 -155 -16.5 q-81 -2.5 -168 -7.5 l-2 -75 q14 -42 42 -73 q64 -40 127 -40 q94 21 183 102 q23 0 27 -14 l0 -13 q-24 -35 -61 -58 q-96 -61 -171 -61 Z" /><glyph glyph-name="f" unicode="f" d="M186 6 l-16 9 q-7 19 -7 43 l1 25 q0 24 -5 42 l8 71 q0 108 2 221 l-89 4 l-17 -2 q-13 7 -16 25 l11 18 q6 5 18 5 l93 -5 q4 57 10 109 q6 52 49 100 q29 21 70 21 q27 0 61 -12 q26 -9 44 -45 q2 -8 2 -21 q-7 -13 -15 -14 l-14 0 q-10 1 -15 16 l-13 20 q-34 12 -51 12 q-14 0 -33 -8 q-10 -4 -17 -15 q-26 -43 -28 -78.5 q-2 -35.5 -7 -78.5 l112 3 q4 -1 8.5 -6 q4.5 -5 5.5 -8 l0 -13 q-3 -10 -31 -19 q-78 0 -94 -3 q0 -116 -1 -226 l-9 -71 q5 -26 5 -52.5 q0 -26.5 2 -50.5 q-5 -10 -16 -15 l-8 -1 Z" /><glyph glyph-name="g" unicode="g" d="M214 -174 q-70 0 -109 42 q-12 14 -17 52 q2 7 6 13 q10 18 32 18 q11 -5 14 -14 l0 -15 l-8 -17 l19 -18 q18 -17 40 -18 q11 -1 38 -1 l73 1 l42 8 q42 11 55 54 l7 29 l8 137 q-37 -36 -74 -51.5 q-37 -15.5 -110 -15.5 q-23 1 -43 5 q-20 4 -44 28 q-19 22 -29.5 60 q-10.5 38 -16.5 148 q8 75 20 103 q12 28 36 50 q27 29 62.5 39 q35.5 10 117.5 10 q47 -6 88 -44 q0 35 3 41 q7 9 19 9 q4 0 8 -1.5 q4 -1.5 9 -6.5 q5 -5 6 -8 l0 -15 q-2 -26 -2 -60 l1 -207 q-3 -163 -12 -232 q-4 -22 -14 -43 q-29 -61 -92 -72 q-33 -7 -133 -8 ZM244 73 q49 2 67 8 q87 39 102 89 l-3 158 q0 33 2 44 l-13 23 l-18 19 q-20 12 -42 15 l-25 1 q-22 0 -60 -2 q-49 -8 -79.5 -43.5 q-30.5 -35.5 -30.5 -135.5 q3 -34 4 -84 q9 -35 13 -46 q4 -11 20 -32 q20 -14 35 -14 l28 0 Z" /><glyph glyph-name="h" unicode="h" d="M125 11 l-13 0 q-13 7 -14 14 l-4 71 l3 143 l-9 126 l0 83 q10 72 10 231 q4 10 14 15 l13 0 q13 -7 17 -17 l0 -97 l-9 -132 l0 -92 q54 44 99 78 q45 34 101 34 q51 -12 86 -48 q23 -41 23.5 -88 q0.5 -47 8.5 -94 q0 -166 3 -204 q-14 -22 -24 -22 l-18 8 q-5 11 -7 23 q0 13 2 29 l0 167 q-5 39 -6.5 79.5 q-1.5 40.5 -18.5 78.5 q-19 8 -34 17 q-15 9 -35 9 q-76 -27 -173 -126 q-2 -56 -3 -201 l2 -71 q-4 -9 -14 -14 Z" /><glyph glyph-name="i" unicode="i" d="M105 578 l-25 12 q-6 8 -12.5 17.5 q-6.5 9.5 -6.5 18.5 q1 14 7.5 25.5 q6.5 11.5 16 20 q9.5 8.5 20 9.5 q10.5 1 21.5 1 q11 -8 21.5 -13.5 q10.5 -5.5 15.5 -16.5 l2 -29 l-17 -29 q-15 -16 -43 -16 ZM109 3 q-9 0 -13 4 l-7 18 l2 29 q0 114 -1 175 l3 49 q0 124 -5 165 l8 19 l9 4 q16 -1 30 -10 q1 -3 1 -37 q0 -89 2 -141 l-3 -108 q1 -109 3 -119 l0 -33 q-2 -15 -29 -15 Z" /><glyph glyph-name="j" unicode="j" d="M269 579 l-25 12 q-6 9 -13 18 q-7 9 -7 17 q3 15 9 26.5 q6 11.5 15.5 20 q9.5 8.5 20 9.5 q10.5 1 21.5 1 q10 -8 21 -13.5 q11 -5.5 16 -16.5 l2 -29 l-17 -29 q-17 -16 -43 -16 ZM135 -173 l-11 0 q-35 0 -59 6 q-51 13 -59 80 q9 31 36 31 q3 -2 13 -14 q0 -14 -5 -34 l18 -17 q15 -7 42 -7 q27 0 44 -1 q20 5 41 10.5 q21 5.5 38 26.5 q17 30 23 56 q0 204 -2 218 q2 26 2 235 q-9 29 -9 35 q1 3 5.5 7.5 q4.5 4.5 6 5.5 q1.5 1 19.5 3 l14 -2 q10 -7 10 -12 l0 -17 q-4 -26 -4 -472 q-4 -59 -50 -103 q-42 -30 -113 -35 Z" /><glyph glyph-name="k" unicode="k" d="M442 10 l-24 14 q-121 123 -163 239 q-59 -51 -112 -94 l-1 -143 q-2 -14 -28 -14 q-11 4 -16 22 q1 272 5 304 l0 310 q-14 10 -14 24 l1 3 l12 16 l25 3 l16 -17 l4 -30 q0 -309 -5 -419 q81 64 143 129 q62 65 128 109 q11 -1 13 -4.5 q2 -3.5 4.5 -8 q2.5 -4.5 2.5 -19.5 q-2 -11 -17 -16 q-35 -28 -64 -59 l-62 -60 l-4 -11 l10 -8 q32 -100 144 -213 q7 -3 24 -19 q12 -7 12 -13 q0 -11 -20 -23 l-14 -2 Z" /><glyph glyph-name="l" unicode="l" d="M153 10 q-21 0 -52 50 q-9 15 -9 33 q1 27 1 150 l4 51 q0 264 -2 356 l-7 24 l8 17 l10 4 q18 0 32 -9 q2 -3 2 -37 q0 -178 2 -355 l-5 -204 l17 -32 l22 -2 q16 12 34 12 q9 -3 15 -15 l0 -13 q-13 -25 -72 -30 Z" /><glyph glyph-name="m" unicode="m" d="M377 12 l-5 0 q-14 5 -15 14 l0 17 q2 6 3 127 l-4 95 l2 96 q-2 16 -3 30.5 q-1 14.5 -13 23 q-12 8.5 -40 8.5 q-74 -30 -161 -113 l-6 -24 q1 -30 1 -75 q-1 -60 -1 -184 q-3 -10 -14 -15 l-13 0 q-13 4 -14 14 l-1 64 l1 81 q0 65 -2 114 l0 124 q-2 15 -2 26 q0 34 21 34 q22 -6 22 -20 q2 -14 2 -78 q56 35 101 66 q45 31 98 31 q51 -15 61 -55 q5 -16 10 -42 q54 39 105 68 q51 29 109 29 l23 -15 q33 -38 41 -96 q4 -3 4 -5 q0 -126 -4 -252 l2 -71 q-4 -11 -15 -14 q-25 0 -27 14 l-4 71 q4 111 4 222 q-4 48 -10 53 q-7 25 -23 46 l-19 2 q-117 -47 -188 -110 l-2 -105 l4 -38 l-3 -110 l2 -20 q-3 -7 -4 -13 q-1 -6 -8 -11 q-4 -2 -8 -2.5 q-4 -0.5 -7 -1.5 Z" /><glyph glyph-name="n" unicode="n" d="M124 10 l-12 0 l-16 13 q-4 12 -4 28 q0 60 3 119 l-5 68 l-2 196 q0 20 1.5 25.5 q1.5 5.5 22.5 8.5 l19 -8 q1 -11 1.5 -20.5 q0.5 -9.5 2 -15 q1.5 -5.5 1.5 -13.5 l-3 -32 q61 39 112 66 q39 20 84 20 q55 0 90 -39 q13 -34 18 -71 l3 -4 q0 -96 2 -126 q-3 -7 -3 -15 l6 -181 q-5 -11 -15 -14 l-14 0 q-11 5 -14 14 q-6 141 -6 283 l-1 26 q0 34 -15 66 q-18 13 -38 14 q-20 1 -41 1 l-85 -42 q-40 -22 -80 -52 l-2 -87 l4 -153 l-2 -29 l2 -32 q-3 -9 -14 -14 Z" /><glyph glyph-name="o" unicode="o" d="M278 56 q33 6 62 21 q50 21 79 61 q15 40 17 77 q2 37 2 80 q-13 52 -51 91 q-54 37 -111 37 q-35 -6 -70 -18 q-35 -12 -63 -40 q-25 -24 -36 -56 q-16 -49 -16 -72 q0 -85 58 -136 q54 -45 129 -45 ZM256 12 q-90 4 -160 80 q-49 62 -49 161 q15 103 80 157 q76 58 178 58 q14 0 72 -25 q31 -13 56 -41 q50 -52 50 -135 q0 -47 -14 -116 q-8 -47 -51 -77 q-71 -62 -162 -62 Z" /><glyph glyph-name="p" unicode="p" d="M321 56 q89 17 141 82 q16 40 17.5 77 q1.5 37 1.5 80 q-10 51 -50 91 q-54 37 -112 37 q-34 -6 -69 -18 q-35 -12 -63 -40 q-26 -24 -36 -56 q-16 -51 -17 -72 q0 -84 59 -136 q54 -45 128 -45 ZM123 -174 l-15 0 q-9 1 -15 16 q-4 38 -5 163 l4 220 l-1 27 q1 4 2 137 l1 50 q0 36 32 36 q9 -3 14 -14 l0 -15 q-3 -14 -3 -20 q1 -6 1 -46 q88 88 211 88 q14 0 72 -25 q31 -13 56 -41 q49 -52 49 -134 q0 -53 -13 -117 q-8 -47 -51 -77 q-74 -62 -163 -62 q-85 4 -166 87 l0 -212 l5 -45 q-6 -15 -15 -16 Z" /><glyph glyph-name="q" unicode="q" d="M278 56 q33 6 62 21 q50 21 79 61 q15 40 17 77 q2 37 2 80 q-13 52 -51 91 q-54 37 -111 37 q-35 -6 -70 -18 q-35 -12 -63 -40 q-25 -24 -36 -56 q-16 -49 -16 -72 q0 -85 58 -136 q54 -45 129 -45 ZM452 -174 q-10 1 -14 14 l-1 20 q3 38 3 236 q-15 -18 -21 -22 q-72 -62 -163 -62 q-90 4 -160 80 q-49 62 -49 161 q15 103 80 157 q76 58 178 58 q14 0 72 -25 q30 -13 64 -51 q3 54 6 68.5 q3 14.5 29 14.5 q10 -4 16 -15 l0 -16 q-8 -7 -8 -37 q0 -30 -1 -58 l1 -451 q-1 -18 -1 -37 q0 -19 -10 -31 q-7 -4 -21 -4 Z" /><glyph glyph-name="r" unicode="r" d="M107 10 q-3 0 -5.5 1 q-2.5 1 -6.5 5 q-4 4 -5 8 l-2 45 l13 327 l-5 50 q0 20 33 20 q7 0 12 -5.5 q5 -5.5 6 -8.5 q0 -36 -7 -86 q104 88 193 100 q41 -7 74 -52 l0 -14 q-5 -10 -15 -14 l-15 0 q-14 8 -25.5 19 q-11.5 11 -32.5 14 q-92 -24 -154 -98 l-24 -47 q-5 -53 -7.5 -123 q-2.5 -70 -11.5 -137 q-5 -2 -15 -4 Z" /><glyph glyph-name="s" unicode="s" d="M255 13 l-12 1 l-15 0 q-93 0 -170 69 q-10 12 -10 22 q0 7 7 14 q4 4 7 5 l16 0 q29 -34 106 -63 q10 -1 19 -2 q9 -1 58 -1 q21 6 35.5 21.5 q14.5 15.5 26.5 30.5 q0 20 -4 36 q-3 8 -5 17 q-5 21 -27 36 q-49 26 -104 41.5 q-55 15.5 -98 49.5 q-16 18 -21 33.5 q-5 15.5 -5 38.5 q2 14 8 26 q15 26 82 60 q32 17 73 17 q34 0 63.5 -16 q29.5 -16 57.5 -37 q19 -21 19 -35 q0 -13 -16 -22 l-13 0 q-8 3 -12 12 q-6 11 -15 20 q-24 11 -45 22 q-21 11 -46 11 q-37 0 -105 -48 l-7 -25 q3 -16 7 -20 q4 -4 14 -14 q56 -24 112 -45.5 q56 -21.5 100 -54.5 q32 -43 32 -107 q-5 -22 -22.5 -39 q-17.5 -17 -34.5 -33 q-24 -21 -56 -21 Z" /><glyph glyph-name="t" unicode="t" d="M211 9 q-20 3 -37.5 8.5 q-17.5 5.5 -30.5 23.5 q-15 28 -16.5 59 q-1.5 31 -6.5 63 q0 93 6 258 l-57 6 q-10 -7 -21 -7 q-17 0 -22 15 l0 16 l14 16 q11 2 23 2 q29 -2 64 -2 q5 46 6.5 116 q1.5 70 12.5 102 q5 4 17 4 l17 -14 q1 -7 4 -13 q3 -6 3 -14 q-12 -27 -12.5 -86 q-0.5 -59 -1.5 -91 q32 -4 95 -4 q11 -4 15 -15 l0 -14 q-5 -12 -25 -16 l-52 0 l-35 6 q-7 -172 -7 -266 q5 -24 6 -49 q1 -25 11 -49 q21 -11 74 -11 q30 11 61 59 q7 4 20 4 q10 -4 13 -14 l0 -21 q-21 -27 -33 -39 q-12 -12 -40 -30 l-65 -3 Z" /><glyph glyph-name="u" unicode="u" d="M446 11 q-12 5 -22 13 q-6 8 -6 30.5 q0 22.5 -10 43.5 q-67 -81 -177 -81 q-37 0 -61 17.5 q-24 17.5 -44 35.5 q-26 36 -31 82.5 q-5 46.5 -7 92.5 l0 143 q3 12 3 26 l-1 20 q0 16 12 27 q6 4 8.5 4 q2.5 0 6.5 1 q14 0 19 -15 q0 -31 -3 -62 l0 -144 q1 -39 4 -77.5 q3 -38.5 26 -72.5 q28 -34 76 -34 q41 0 81 21 q79 42 92 124 q8 46 8 95 l0 84 q3 21 3 44 q2 19 13 34 q9 5 20 5 q13 -7 14 -15 q0 -17 -7 -68 q0 -84 -8 -279 l6 -44 q4 -14 4 -23 q0 -22 -19 -28 Z" /><glyph glyph-name="v" unicode="v" d="M254 11 l-17 8 q-44 99 -99 213 q-55 114 -90 214 q7 15 18 20 l13 0 q10 -4 14 -16 q25 -85 76 -178.5 q51 -93.5 86 -189.5 q44 93 95 196.5 q51 103.5 86 185.5 q8 4 19 4 q13 -7 15 -15 l0 -17 q-53 -135 -201 -420 l-15 -5 Z" /><glyph glyph-name="w" unicode="w" d="M242 10 q-13 5 -19 12 q-47 93 -90 214.5 q-43 121.5 -86 215.5 q1 3 6 7.5 q5 4.5 6.5 5.5 q1.5 1 16.5 1 q27 -15 93 -197 q37 -102 73 -188 q40 122 63.5 213 q23.5 91 51.5 154 q4 4 8 4 l13 0 q13 -7 14 -16 q80 -230 117 -356 q38 100 81.5 198.5 q43.5 98.5 73.5 181.5 q10 7 19 7 q14 0 19 -16 l0 -19 q-23 -57 -146 -352 q-15 -34 -27 -65 q-5 -3 -19 -3 q-10 6 -17.5 19.5 q-7.5 13.5 -18.5 23.5 q-25 92 -49 157 l-53 156 q-32 -103 -55 -179.5 q-23 -76.5 -61 -172.5 l-14 -6 Z" /><glyph glyph-name="x" unicode="x" d="M413 16 l-11 0 l-163 190 l-160 -187 l-9 -2 q-8 0 -18 8 q-4 9 -4 19 l162 195 q-47 57 -152 192 l-4 15 q0 3 3 9 q7 9 17 9 l10 -1 q103 -129 155 -190 q50 58 161 180 l14 7 q3 0 10 -2.5 q7 -2.5 9 -6 q2 -3.5 4 -8.5 l0 -11 q-123 -137 -170 -193 q47 -55 164 -197 l1 -7 q-4 -13 -10 -18 l-9 -1 Z" /><glyph glyph-name="y" unicode="y" d="M113 -182 l-5 1 q-5 3 -10.5 6.5 q-5.5 3.5 -5.5 10.5 q0 7 31 72 l93 175 q-136 217 -169 379 q5 11 14 14 l12 0 l17 -14 q18 -78 62 -167.5 q44 -89.5 88 -171.5 q121 226 169 349 q5 4 19 4 q8 -3 15 -15 l0 -16 q-54 -133 -121 -270 q-63 -127 -168 -303 l-27 -50 q-1 -1 -8 -2 q-1 -2 -6 -2 Z" /><glyph glyph-name="z" unicode="z" d="M250 11 q-7 3 -79 5 l-32 -2 l-68 3 l-19 9 q-5 7 -5 18 q75 83 143 184.5 q68 101.5 154 192.5 l-106 2 l-92 -1 l-13 1 l-51 -1 q-7 2 -15 16 l0 12 q5 12 15 15 l151 4 l115 -1 q14 -3 26 -3.5 q12 -0.5 21 -10.5 q4 -4 4 -9 l0 -14 q-65 -86 -135.5 -177.5 q-70.5 -91.5 -137.5 -186.5 q13 -10 22 -10 l96 3 l92 -4 q29 0 56 2 q10 -4 15 -15 l0 -12 q-3 -11 -15 -15 l-26 -1 q-8 -2 -16 -2 q-8 0 -19 -1 l-38 1 l-43 -2 Z" /><glyph glyph-name="asciitilde" unicode="~&#x303;" d="M333 169 q-60 5 -87 32 l-59 79 q-14 8 -26.5 17.5 q-12.5 9.5 -28.5 9.5 q-18 0 -33 -15 q-9 -9 -18 -15 l-30 -52 q-5 -4 -20 -4 q-3 1 -9 7 q-6 6 -6 17 q16 69 84 99 q19 7 40 7 l17 -1 q35 -13 72 -49 q13 -18 25.5 -38.5 q12.5 -20.5 34.5 -38.5 q19 -9 47 -9 q21 9 34 26 q9 15 21 28 l20 35 q3 4 20 4 q11 -4 15 -15 l0 -16 q-21 -47 -61 -85 q-20 -18 -52 -23 Z" /><glyph glyph-name="copyright" unicode="©" d="M262 234 l-18 1 q-18 4 -34.5 7 q-16.5 3 -28.5 22 q-40 47 -40 126 q0 37 21 75 q33 64 86 71 q17 3 37 3 l18 -1 q10 -3 21 -13 q43 -35 43 -55 q0 -25 -29 -25 q-11 6 -19 21.5 q-8 15.5 -27 27.5 l-32 0 l-30 -13 q-45 -39 -45 -103 q0 -47 33 -91 q23 -8 67 -8 q29 11 48 33 q7 8 17 8 q16 -2 21 -14 l0 -14 l-18 -28 q-42 -30 -91 -30 ZM258 187 q15 5 34.5 7.5 q19.5 2.5 30.5 13.5 q76 38 99 98 q9 25 9 70 q-3 104 -77 175 q-42 21 -100 21 l-20 -1 q-58 0 -98 -37 q-21 -32 -37.5 -66.5 q-16.5 -34.5 -16.5 -77.5 q9 -8 9 -24 l-2 -8 q13 -69 73 -131 q23 -11 45 -25.5 q22 -14.5 51 -14.5 ZM249 142 q-36 1 -68 22 q-32 21 -62 45 q-80 85 -80 213 q13 76 66 143 q38 38 90 45 q39 5 81 5 q83 0 124 -48 q74 -76 74 -221 q0 -39 -18 -75 q-18 -36 -51 -61 q-72 -65 -156 -68 Z" /><glyph glyph-name="emdash" unicode="&#x2014;&#x2015;" d="M1019 336 l-1038 0 l0 47 l1038 0 l0 -47 Z" /><glyph glyph-name="quotedblleft" unicode="&#x201c;" d="M845 538 q-11 2 -36 27 q-30 41 -30 94 q15 73 58 115 q44 39 84 39 q15 -4 15 -29 l-15 -17 q-42 -16 -61 -35 q-33 -54 -33 -95 q26 0 44 2 q11 -7 20 -14 q9 -7 9 -18 l0 -25 q-8 -44 -55 -44 ZM646 537 q-8 4 -19 5.5 q-11 1.5 -18 9.5 q-13 26 -25 50.5 q-12 24.5 -12 56.5 q12 67 63 123 q18 13 34.5 24 q16.5 11 33.5 11 q17 0 22 -15 l0 -17 q-4 -10 -17 -14 q-18 -5 -44 -27 q-37 -44 -46 -105 l17 2 q29 0 52 -25 q7 -12 7 -41 l-22 -30 l-26 -8 Z" /><glyph glyph-name="quotedblright" unicode="&#x201d;" d="M91 542 q-9 0 -15.5 6 q-6.5 6 -6.5 9 l0 14 l17 19 q20 0 47 32 q15 18 26.5 33.5 q11.5 15.5 11.5 35.5 l-2 17 l-29 -5 q-47 8 -47 62 l12 22 q20 22 42 22 q28 0 47 -34 q25 -38 25 -90 q0 -38 -35 -75 q-24 -27 -50 -52 q-24 -16 -43 -16 ZM287 538 q-15 5 -15 29 l18 20 q37 23 59 45 q16 30 18 69 q-15 0 -22 -2 q-10 0 -17.5 7 q-7.5 7 -16.5 15 q-9 8 -12 19 q-3 11 -3 23 l1 5 q13 39 46 39 l28 0 q9 -5 19 -14 q23 -29 24 -64 l1 -48 q-4 -28 -16 -56 q-15 -35 -74 -73 q-15 -14 -38 -14 Z" /><glyph glyph-name="ellipsis" unicode="&#x2026;&#x22ef;" d="M480 302 q-6 0 -13 5 q-26 16 -26 62 q0 13 7.5 20.5 q7.5 7.5 14.5 13.5 q10 6 20 6 l31 -1 q14 -4 23.5 -13.5 q9.5 -9.5 9.5 -21.5 l0 -30 q-9 -15 -31 -34 l-36 -7 ZM152 302 q-31 7 -45 27 q-10 14 -10 42 q1 5 4 13 q0 8 8 16 q18 18 46 18 l9 -1 l29 -21 q8 -9 8 -24 l0 -32 q-16 -32 -49 -38 ZM829 300 q-7 2 -14.5 9.5 q-7.5 7.5 -15.5 11.5 q-17 23 -17 38 q4 26 30 46 q17 13 40 13 l10 -1 q23 -11 28 -28 l2 -39 q-1 -8 -7 -18 q-6 -10 -15.5 -15.5 q-9.5 -5.5 -19.5 -8.5 q-10 -3 -21 -8 Z" /><glyph glyph-name="radical" unicode="&#x221a;" d="M275 -74 q-9 3 -16 16 q-34 84 -131 255 q-38 -60 -71 -86 q-25 0 -30 15 l0 14 q28 30 50.5 63 q22.5 33 50.5 59 l16 0 q13 -7 21 -21 q20 -53 51 -103 q29 -51 62 -114 q108 399 223 808 l24 10 q177 0 354 -6 l71 4 q17 -7 21 -18 l0 -14 q-6 -12 -16 -14 l-10 -4 l-10 3 l-134 -5 l-126 7 l-139 0 q-115 -439 -240 -865 q-6 -4 -21 -4 Z" /><glyph glyph-name="uni2266" unicode="&#x2266;" d="M838 227 l-14 0 q-237 88 -660 263 q-4 6 -4 19 q34 33 103 75 q39 24 305 120 q145 52 282 113 q10 -4 14 -15 l0 -18 q-9 -17 -27 -25 q-18 -8 -37 -19 q-135 -53 -269.5 -100 q-134.5 -47 -275.5 -113 q148 -92 301 -147 q300 -106 300 -121 l0 -14 l-6 -11 l-12 -7 ZM808 110 l-192 0 l-45 3 q-94 0 -187 2 l-34 -2 q-172 2 -187 6 q-7 2 -11 10.5 q-4 8.5 -4 18.5 q4 12 15 16 q151 0 219 -4 l96 2 q93 -2 138 -6 l192 0 l47 6 q15 -5 15 -28 l-15 -17 l-47 -7 ZM767 -78 q-100 8 -200 12 l-33 -2 q-50 10 -79 10 l-51 -4 l-29 6 q-164 0 -194 4 l-18 -2 q-15 5 -15 30 q6 13 19 19 q21 0 43 -4 l163 0 q23 -6 48 -6 l62 2 q21 -2 41 -5 q20 -3 41 -3 l59 2 q45 -8 91.5 -9 q46.5 -1 91.5 -3 q11 8 27 8 l22 -12 q4 -7 4 -21 q-6 -11 -18 -18 l-75 -4 Z" /><glyph glyph-name="uni2267" unicode="&#x2267;" d="M152 236 q-11 4 -14 15 l0 13 l6 12 q249 145 580 224 q-155 68 -293 128 q-138 60 -268 128 l-6 18 l10 19 q4 4 22 4 q383 -193 686 -290 q4 -6 4 -21 q-5 -11 -16 -15 q-330 -40 -711 -235 ZM159 105 l-19 11 q-4 6 -4 21 q4 11 15 15 l37 6 l123 0 l43 4 l87 0 l40 4 l141 0 l102 4 q31 -3 64 -3 q57 0 89 -10 q4 -6 4 -19 l-16 -17 l-78 -2 l-120 4 l-45 -4 l-141 0 l-40 -4 l-87 0 l-43 -4 l-124 0 l-28 -6 ZM793 -48 l-51 2 l-53 -2 l-23 6 l-166 0 l-73 7 q-102 0 -203 -2 l-61 -9 l-19 11 q-4 7 -4 21 q1 4 8 9 q4 7 7 7 l69 8 q102 0 203 2 l73 -6 l164 0 q17 -6 36 -6 q46 0 90 2 q14 -3 30 -3 l27 1 q20 0 34 -9 q4 -7 4 -21 q-4 -12 -16 -16 l-76 -2 Z" /><glyph glyph-name="uni2EA0" unicode="&#x2ea0;&#x6c11;" d="M292 503 q103 25 207.5 35 q104.5 10 212.5 26 q12 39 17 76 q5 37 17 78 q-19 0 -238 -28 q-109 -14 -223 -39 l-5 -64 l0 -84 l12 0 ZM297 310 q74 12 233 32 q-7 45 -19 78 q-12 33 -20 73 q-49 0 -208 -37 l0 -146 l14 0 ZM895 -92 q-115 38 -214 146 q-98 115 -131 242 l-30 0 q-61 -8 -118.5 -14.5 q-57.5 -6.5 -118.5 -21.5 q0 -139 2 -178 l-3 -37 l107 33 q47 18 93 31 q13 -4 14 -14 q0 -21 -10 -26.5 q-10 -5.5 -18 -9.5 q-81 -26 -170 -59 q-98 -36 -185 -62 q-14 7 -15 15 l0 13 q5 14 31 25 l115 35 l-7 19 l5 74 q-3 354 -6 468 q3 16 3 36 l-1 22 q0 25 14 42 q196 47 529 77 l9 -6 q1 -1 3 -3.5 q2 -2.5 2 -26.5 q-17 -52 -24.5 -105.5 q-7.5 -53.5 -27.5 -99.5 l-16 -8 l-14 4 q-42 -10 -85 -12.5 q-43 -2.5 -91 -9.5 l0 -20 q13 -31 21 -63 q8 -32 20 -67 q31 0 181 11 q76 5 151 20 q8 -4 13 -15 l0 -14 q-4 -9 -14 -15 q-77 -14 -152.5 -20 q-75.5 -6 -160.5 -12 l0 -13 q50 -143 158 -245 q24 -25 56 -44 q29 -15 66 -39 q10 58 15.5 108.5 q5.5 50.5 20.5 93.5 q2 2 5.5 3.5 q3.5 1.5 5.5 2 q2 0.5 7 0.5 q6 0 14 -6 q4 -5 5 -8 l0 -15 q-12 -57 -20.5 -115 q-8.5 -58 -19.5 -111 l-14 -6 Z" /><glyph glyph-name="uni2EAC" unicode="&#x2eac;&#x2f70;&#x793a;" d="M247 611 l-18 10 q-3 6 -3 20 q1 3 5.5 8.5 q4.5 5.5 9.5 6.5 q134 17 270 29 q136 12 270 33 q12 -6 14 -14 l0 -14 q-4 -11 -14 -14 q-134 -25 -268 -36 q-134 -11 -266 -29 ZM862 48 l-15 0 q-5 2 -10 8.5 q-5 6.5 -9 10.5 q-27 69 -74.5 126.5 q-47.5 57.5 -78.5 115.5 q4 12 26 12 q106 -103 165 -223 q3 -6 4 -10.5 q1 -4.5 3 -9 q2 -4.5 2 -10.5 q0 -2 -1 -6 q-1 -4 -5 -8.5 q-4 -4.5 -7 -5.5 ZM108 31 q-14 7 -16 14 l0 13 q117 115 186 242 q0 21 30 21 q7 -2 14 -14 l0 -16 q-61 -120 -178 -242 q-9 -6 -17 -12 q-8 -6 -19 -6 ZM492 -62 q-79 25 -185 94 q-7 11 -7 18 q0 8 6 14 q6 6 10 7 l16 0 q79 -52 143 -78 q8 27 10 73 l0 341 q-30 0 -144 -10 q-136 -10 -227 -25 l-18 10 q-4 7 -4 20 q1 3 6 8 q5 5 9 6 q199 24 405 40 q201 15 394 34 q8 -3 13 -14 q0 -26 -13 -29 q-112 -7 -371 -37 l-6 -14 l0 -334 q-3 -21 -4.5 -43.5 q-1.5 -22.5 -5.5 -47.5 l2 -16 q-1 -4 -5.5 -8.5 q-4.5 -4.5 -10.5 -5.5 q-6 -1 -13 -3 Z" /><glyph glyph-name="uni2EC4" unicode="&#x2ec4;&#x897f;" d="M423 483 l126 15 l0 131 l-5 39 q-29 0 -68 -6 q-20 -3 -57 -3 l0 -105 l-9 -71 l13 0 ZM213 41 q146 17 290 22.5 q144 5.5 291 17.5 l0 26 q15 90 22.5 183.5 q7.5 93.5 25.5 191.5 l-17 2 l-232 -24 q0 -196 1 -207 q43 -26 124 -37 l10 74 q5 45 19 73 q7 4 19 4 q13 -4 14 -12 l0 -21 q-7 -39 -12 -79 q-5 -40 -19 -75 q-11 -7 -44 -7 q-39 7 -76 17 q-37 8 -66 37 l-14 23 l0 203 q-20 0 -145 -14 q-28 -187 -115 -295 q-6 -4 -20 -4 q-3 1 -8 6 q-5 5 -6 8 l0 13 q73 98 104 267 q-17 0 -104 -8 q-42 -6 -91 -11 l0 -15 q15 -88 25 -176.5 q10 -88.5 24 -182.5 ZM192 -33 q-4 1 -8.5 5 q-4.5 4 -5.5 8 q-18 114 -31.5 227 q-13.5 113 -32.5 227 q2 6 3 11.5 q1 5.5 7.5 9 q6.5 3.5 21.5 3.5 l8 -2 q51 9 103.5 13 q52.5 4 110.5 11 l6 74 l0 102 l-14 0 q-67 -10 -136 -11.5 q-69 -1.5 -131 -20.5 l-19 11 q3 0 3 -3 q-6 9 -6 20 q4 14 15 15 q204 30 411 42.5 q207 12.5 413 23.5 q13 -6 13 -27 q-1 -5 -6.5 -11 q-5.5 -6 -163.5 -14 q-135 -9 -164 -9 q0 -26 4 -44 l0 -123 l11 0 q65 8 184 18 q69 5 75 7 l18 -11 q5 -7 5 -17 l-1 -30 q-21 -123 -31 -245 q-10 -122 -40 -238 q-4 -4 -18 -4 q-14 6 -15 14 q0 20 3 37 l-20 0 q-131 -12 -267 -16 q-136 -4 -274 -22 q-2 -7 -3 -10.5 q-1 -3.5 -2 -8 q-1 -4.5 -6 -8.5 q-5 -4 -20 -4 Z" /><glyph glyph-name="uni2ED1" unicode="&#x2ed1;&#x2fa7;&#x9577;" d="M159 -94 l-18 9 q-4 8 -4 20 l13 16 q107 22 145 34 l0 11 q-3 11 -3 25.5 q0 14.5 -2 26.5 l5 55 q0 120 -4 149 q-92 0 -184 -13 l-18 10 q-4 5 -4 20 q1 3 5 8 q4 5 9 6 q54 7 108.5 8.5 q54.5 1.5 114.5 10.5 q-9 48 -9 91 q0 43 -2 84 l4 26 l0 143 l8 48 l-2 17 q5 13 13 14 q16 0 227 21 q103 7 205 20 q4 -1 9 -6.5 q5 -5.5 5 -7.5 l0 -17 q-1 -10 -14 -14 q-104 -9 -398 -38 q-10 -22 -10 -45 l0 -48 q51 0 177 16 q90 11 179 17 q9 -3 14 -14 l0 -14 q-5 -13 -14 -14 q-128 -11 -356 -38 l-2 -85 l28 0 q88 12 174.5 17.5 q86.5 5.5 172.5 14.5 q11 -4 15 -14 l0 -14 q-1 -8 -20 -17 q-249 -17 -370 -34 q0 -54 7 -108 q45 0 275 21 q124 13 252 17 q11 -5 15 -15 l0 -13 q-1 -3 -6 -8 q-11 -10 -186 -18 q-90 -4 -181 -18 l-3 -17 q29 -67 110 -121 q53 26 95.5 60.5 q42.5 34.5 88.5 52.5 q13 -5 13 -26 q-53 -51 -154 -112 q94 -71 253 -134 q4 -6 4 -19 q-5 -13 -23 -17 q-233 78 -381 225 q-44 51 -53 97 l-30 5 l-116 -5 l0 -23 q3 -13 3 -132 l-5 -63 l4 -44 q46 12 82.5 26.5 q36.5 14.5 75.5 19.5 q13 -3 14 -12 l0 -14 q-6 -11 -18 -18 q-188 -60 -333 -92 Z" /><glyph glyph-name="uni2ED3" unicode="&#x2ed3;&#x957f;" d="M457 471 l-7 1 q-20 3 -20 22 l2 11 q227 154 311 274 q5 -1 20 -7 q5 -5 5 -19 q-42 -83 -147 -166 q-68 -53 -164 -116 ZM238 -74 l-12 8 q-6 7 -6 15 q0 4 6 16 q19 9 42 16 q23 7 47 19 l3 9 l-2 27 l3 25 q0 151 -1 274 l-6 14 q-17 0 -197 -20 q-7 5 -14.5 10.5 q-7.5 5.5 -7.5 13.5 q0 3 8 15 q37 13 168 24 l48 6 l1 259 q3 23 3 48 l-1 23 q0 56 40 56 q13 0 13 -28 q-9 -21 -9 -47.5 q0 -26.5 -1 -51.5 l-3 -254 q230 27 320 42 l210 32 q17 -12 17 -23 l-1 -4 l-7 -10 q-90 -26 -167 -33 q-67 -6 -164 -25 l-86 -12 q30 -56 55.5 -90 q25.5 -34 50.5 -69 q0 -6 5 -6 q1 -2 46 -46 q54 -56 71 -65 q69 -55 223 -107 q6 -10 8 -17 l-1 -6 l-7 -11 q-9 -6 -30 -6 q-100 39 -154 65 q-54 29 -102 64 q-60 56 -108 118 q-50 58 -105 172 q-56 -4 -75 -12 q1 -140 5 -304 l-4 -32 q32 11 99 52 q18 8 33 9 l9 -5 q2 -3 4 -6 q2 -3 3.5 -6 q1.5 -3 1.5 -6 l-1 -5 l-7 -9 q-50 -29 -155 -81 q-57 -20 -109 -35 Z" /><glyph glyph-name="uni2ED4" unicode="&#x2ed4;&#x95e8;" d="M145 -47 q-13 4 -17 28 l4 16 q0 318 3 367 l0 166 l-4 15 q1 6 2 11.5 q1 5.5 6 10.5 q5 5 9 6 q23 0 27 -18 q0 -18 4 -27 q-3 -262 -3 -529 q-4 -11 -4 -25 q0 -21 -27 -21 ZM828 -66 q-105 37 -178 99 l-5 15 l10 19 q6 3 19 3 q28 -28 64 -46 q36 -18 83 -39 q5 33 5 60 q0 49 -2 137 l-5 486 l4 25 l-32 1 q-410 -29 -432 -36 l-13 2 q-10 3 -17 17 l-1 11 q0 14 14 18 q22 1 32 6 q370 27 401 27 l71 -1 q19 -9 25 -29 l0 -17 q-5 -11 -5 -85 l1 -152 l-3 -133 l7 -304 q-4 -20 -6 -42 q-4 -42 -37 -42 ZM252 599 q-13 0 -47 61 q-34 61 -54 85 l-2 12 q0 6 9 15 l5 3 l28 -4 q20 -24 53 -84 q15 -31 31 -56 l1 -12 q0 -5 -3 -8.5 q-3 -3.5 -5.5 -6 q-2.5 -2.5 -5.5 -4 q-3 -1.5 -10 -1.5 Z" /><glyph glyph-name="uni2ED8" unicode="&#x2ed8;&#x9752;" d="M89 424 l-18 11 q-4 6 -4 19 q5 11 15 15 q98 10 197 19 q7 0 12 1 l189 12 q6 23 6 68 q-34 0 -135 -7 q-58 -6 -114 -8 q-5 1 -9.5 5.5 q-4.5 4.5 -5.5 8.5 l0 12 l12 15 q61 4 123 10 q62 6 131 10 l2 73 l-157 -16 l-145 -18 l-18 11 q-4 6 -4 19 q5 12 14 15 q136 16 305 32 q4 19 4 35 l-1 21 q0 35 31 35 q11 -5 14 -15 l2 -75 l64 8 q110 0 154 3 l8 -3 l58 5 q13 -2 13 -30 q0 -1 -5 -6.5 q-5 -5.5 -9 -6.5 l-62 -6 l-45 2 l-112 -2 l-64 -8 l0 -69 l99 0 q33 2 66 9 q23 5 47 5 l16 -1 q15 -2 15 -28 q-4 -10 -15 -13 q-31 0 -62.5 -6 q-31.5 -6 -60.5 -9 q-4 -1 -109 -1 l-6 -72 l24 0 q23 4 48.5 4.5 q25.5 0.5 48.5 4.5 l110 0 l41 -5 l92 0 q10 -2 19 -2 q9 0 15 -6.5 q6 -6.5 6 -20.5 q-1 -4 -6.5 -9.5 q-5.5 -5.5 -7.5 -5.5 l-23 -2 q-95 2 -136 6 l-110 0 q-388 -21 -557 -43 ZM346 233 q168 19 324 27 q0 68 -4 79 l-93 0 q-55 -6 -109.5 -10 q-54.5 -4 -113.5 -15 l-4 -81 ZM361 103 q74 12 149.5 15.5 q75.5 3.5 156.5 7.5 l1 89 l-38 0 q-69 -6 -141 -11 q-72 -5 -145 -15 l-3 -86 l20 0 ZM677 -111 l-64 17 q-4 3 -8 4 q-37 13 -68 29 q-4 7 -4 21 q0 2 5.5 7 q5.5 5 9.5 6 l15 0 l102 -34 l0 144 l-59 0 q-65 -9 -131.5 -11.5 q-66.5 -2.5 -135.5 -13.5 q-1 -42 -2.5 -80 q-1.5 -38 -9.5 -70 q-3 -2 -7 -2 q-2 -2 -12 -2 q-12 3 -15 15 l-2 68 q4 20 4 100 q5 58 5 143 q0 65 24 122 q103 20 249 31 q88 0 121 4 q10 -5 17 -18 l3 -42 q0 -81 -5 -216 l0 -165 q-4 -15 -5 -28.5 q-1 -13.5 -8 -21.5 l-19 -7 Z" /><glyph glyph-name="uni2EDA" unicode="&#x2eda;&#x9875;" d="M132 -56 l-11 0 l-18 3 q-2 0 -6 5.5 q-4 5.5 -5 8.5 l2 11 q289 60 360 190 l16 59 q4 65 4 108 l-4 43 l2 20 q4 10 14 14 q29 0 29 -36 q0 -22 3 -41 l-3 -47 l3 -29 l-11 -46 q-11 -82 -67 -131 l-58 -49 q-49 -31 -105 -47 q-90 -36 -145 -36 ZM669 117 l-11 8 l-2 57 q0 26 9 152 q0 23 3 45 q-5 67 -5 170 q-35 0 -240 -29 l-6 2 l-93 -12 q-2 -159 -5 -210 l5 -68 q0 -55 -16 -111 q-5 -3 -18 -3 l-11 8 l-2 57 q0 30 1 44 q-2 38 -2 86 q3 47 4 217 q0 14 14 22 q7 5 20 5 l12 -4 l82 10 q17 36 43 126 q-94 -4 -175.5 -15 q-81.5 -11 -161.5 -23 q-11 2 -20 12 q-3 4 -3 20 q4 13 14 14 q14 0 20 -1 q184 24 367 48 q183 24 365 31 q13 -9 15 -14 l0 -14 q-3 -10 -14 -15 q-120 -7 -358 -30 q-15 -62 -37 -128 l24 0 q82 13 203 22 q13 -7 21 -23 l0 -12 l-4 -6 q0 -142 4 -207 q-6 -49 -7 -101 q0 -68 -17 -127 q-5 -3 -18 -3 ZM886 -65 l-175 73 q-68 27 -171 59 q-7 8 -7 17 q0 14 14 20 l20 0 q203 -61 337 -134 q4 -6 4 -19 q-3 -13 -22 -16 Z" /><glyph glyph-name="uni2EDB" unicode="&#x2edb;&#x98ce;" d="M270 84 l-13 0 q-4 1 -8 6 q-4 5 -5 10.5 q-1 5.5 -3 10.5 l9 17 q66 33 140 103 q60 70 77 98 q-52 49 -83.5 76.5 q-31.5 27.5 -75.5 71.5 l0 16 q5 14 27 14 l160 -142 q45 58 75.5 117.5 q30.5 59.5 59.5 116.5 q4 3 21 3 q17 -7 20 -16 l0 -14 q-34 -59 -65.5 -120.5 q-31.5 -61.5 -79.5 -115.5 q55 -56 88.5 -99 q33.5 -43 61.5 -103 q-4 -12 -14 -13 l-14 0 l-11 6 q-33 49 -60 85.5 q-27 36.5 -76 85.5 q-81 -117 -231 -214 ZM910 -57 l-13 0 q-51 24 -75 50 q-89 89 -93 233 l10 123 l0 88 l6 75 l0 77 q6 36 9 129 q-65 0 -254 -35 q-118 -21 -241 -30 q-13 -179 -41.5 -351.5 q-28.5 -172.5 -122.5 -319.5 q-3 -2 -21 -3 q-2 1 -8.5 6.5 q-6.5 5.5 -6.5 13.5 q95 159 121 339.5 q26 180.5 49 356.5 q4 3 12 3 q19 0 32 -1 q131 14 258 36 q127 22 254 33 l8 -6 q5 -4 6 -8 l0 -57 q-4 -25 -5.5 -51.5 q-1.5 -26.5 -5.5 -54.5 l0 -77 q-3 -18 -3 -37.5 q0 -19.5 -2 -37.5 l0 -88 q-3 -30 -5 -62 q-2 -32 -5 -66 q4 -121 94 -210 l25 -11 l3 179 l12 19 q5 5 19 5 q3 -1 8 -6.5 q5 -5.5 6 -8.5 l-1 -191 q-7 -14 -8.5 -26.5 q-1.5 -12.5 -9.5 -23.5 q-5 -4 -11 -4 Z" /><glyph glyph-name="uni2EDC" unicode="&#x2edc;&#x98de;" d="M680 437 q-10 4 -14 14 l0 14 q60 72 99 162 q6 3 20 3 q7 -4 16 -17 l0 -17 q-36 -83 -101 -156 q-5 -3 -20 -3 ZM828 217 l-13 0 l-154 143 l0 12 q3 9 15 14 l19 0 q128 -122 146 -141 l0 -13 q-3 -11 -13 -15 ZM843 -47 q-41 7 -77 32 q-49 34 -72 52 q-62 60 -81 142.5 q-19 82.5 -22 167.5 q-2 125 -11 291 l5 70 l-18 0 q-290 -33 -446 -62 l-18 11 q-4 5 -4 19 q1 4 6 8.5 q5 4.5 8 5.5 q279 46 500 66 q3 -1 7.5 -5.5 q4.5 -4.5 5.5 -8.5 l4 -148 q4 -17 4 -130.5 q0 -113.5 1 -150 q1 -36.5 9 -71.5 l17 -62 q15 -62 68 -117 q26 -15 53 -34 q26 -21 61 -29 q10 36 11 70.5 q1 34.5 14 59.5 q5 4 19 4 q11 -5 14 -14 l0 -32 q-6 -34 -9 -68.5 q-3 -34.5 -15 -61.5 q-10 -5 -34 -5 Z" /><glyph glyph-name="uni2EE5" unicode="&#x2ee5;&#x9c7c;" d="M113 -67 q-3 1 -7 6.5 q-4 5.5 -5 6.5 q-1 1 -1 10 l17 25 q117 18 236 34.5 q119 16.5 239 23.5 l112 0 l170 9 l13 -3 l25 3 q4 -1 4 -2 q4 -6 5.5 -8 q1.5 -2 1.5 -19 q-1 0 -4 -5 q-3 -5 -8 -7 l-35 -6 l-31 3 q-68 -10 -253 -10 q-248 -21 -479 -61 ZM566 350 l179 22 q7 25 9 48 q2 23 7 51 q-81 0 -125 -7.5 q-44 -7.5 -95 -7.5 l-2 -30 l4 -76 l23 0 ZM312 314 l187 30 q0 53 -6 106 q-18 0 -206 -33 l-3 -14 l14 -89 l14 0 ZM578 200 l30 3 l91 0 l5 5 q21 62 30 115 q-22 0 -191 -18 l-6 -105 l41 0 ZM332 169 l158 28 l10 101 q-16 0 -191 -28 q10 -29 11 -52 q1 -23 12 -49 ZM326 125 q-7 4 -17.5 5.5 q-10.5 1.5 -13.5 3.5 q-30 120 -61 301 q2 6 3.5 11.5 q1.5 5.5 8.5 10.5 q7 5 21 5 l9 -1 q146 26 204 30 q20 41 49 72.5 q29 31.5 58 72.5 l-27 3 q-87 -6 -211 -30 l-18 11 l-8 10 q-51 -70 -99.5 -132 q-48.5 -62 -117.5 -100 l-15 0 q-10 2 -14 13 l0 12 q87 63 152 152 q65 89 122 180 q13 22 23 22 q21 -4 25 -16 l0 -13 q-19 -42 -55 -83 l21 -10 q120 25 283 34 q4 -1 9.5 -6.5 q5.5 -5.5 5.5 -7.5 l0 -17 q-66 -76 -125 -154 l30 -3 q101 15 192 15 l38 -1 q8 -3 14 -15 l0 -17 q-10 -45 -18 -88 q-8 -43 -17 -85 q-17 -87 -51 -166 q-3 -3 -18 -4 l-18 15 l-82 4 q-114 -2 -282 -34 Z" /><glyph glyph-name="uni2EE6" unicode="&#x2ee6;&#x9e1f;" d="M510 399 l-18 10 q-17 28 -33 44 q-16 16 -39.5 37.5 q-23.5 21.5 -45.5 40.5 l-3 15 q9 16 12 19 q3 3 16 3 l28 -25 q75 -66 105 -113 l0 -15 q-5 -13 -22 -16 ZM118 47 l-17 9 q-4 8 -4 21 q4 9 15 13 q263 42 600 74 q11 -3 15 -14 l0 -14 q-4 -10 -15 -14 q-353 -36 -594 -75 ZM802 -93 q-40 8 -83 13.5 q-43 5.5 -81 22.5 q-3 6 -3 18 q5 14 13 15 q18 0 153 -25 q25 64 37 144 q11 127 20 194 l-13 0 q-140 -14 -282.5 -22 q-142.5 -8 -282.5 -22 q-20 10 -20 36 q0 45 2 90 q-4 247 -6 255 l10 18 q29 11 64 15.5 q35 4.5 74 11.5 q15 65 54 126 q4 5 18 5 q11 -3 15 -15 l0 -15 l-42 -94 l20 -3 q66 2 130 14.5 q64 12.5 128 12.5 q29 0 33 -14 l0 -15 q-13 -73 -16 -106 l-8 -84 q-6 -28 -13 -53.5 q-7 -25.5 -22 -46.5 l-16 -4 l-73 57 q-3 5 -3 19 q6 10 16 13 l14 -2 q18 -17 40 -29 l13 50 q11 111 21 172 l-39 0 q-89 -22 -182.5 -26 q-93.5 -4 -189.5 -22 q0 -117 4 -175 l0 -142 l18 0 q141 11 282 19.5 q141 8.5 281 22.5 q11 -4 15 -15 l0 -43 q-13 -100 -26 -184 q-14 -119 -50 -181 q-4 -2 -10 -3 q-6 -1 -14 -3 Z" /><glyph glyph-name="uni2F00" unicode="&#x2f00;&#x4e00;" d="M113 302 l-19 12 q-3 3 -3 19 q0 5 19 16 q152 28 306 41 q155 10 309 18 q78 0 155 2 q11 -4 15 -14 q0 -25 -15 -28 l-71 -3 q-117 0 -392 -20 q-155 -12 -304 -43 Z" /><glyph glyph-name="uni2F06" unicode="&#x2f06;&#x4e8c;" d="M224 560 l-18 9 q-3 7 -3 21 q1 8 15 14 q323 51 549 71 q10 -4 14 -14 l0 -14 q-1 -4 -6 -8.5 q-5 -4.5 -8 -5.5 q-203 -22 -543 -73 ZM92 28 l-8 6 q-2 4 -5 8 q-3 4 -3 10 q0 5 7 15 q92 19 191.5 23 q99.5 4 198.5 11 l236 10 q95 2 190 2 q9 -3 14 -14 l0 -15 q-7 -13 -24 -16 q-164 0 -329 -5 q-171 -14 -278 -16 q-96 -3 -190 -19 Z" /><glyph glyph-name="uni2F08" unicode="&#x2f08;&#x4eba;" d="M896 -25 l-13 0 l-126 68 q-63 31 -114 83 q-41 57 -83.5 111.5 q-42.5 54.5 -77.5 131.5 q-53 -153 -191 -294 q-33 -25 -68 -49 q-51 -35 -96 -51 q-12 6 -15 23 l11 18 q42 28 87 56 q47 26 84 67 q119 129 158 296 q39 167 75 327 q3 4 17 4 q4 -1 9 -5 l5 -9 q0 -32 -24 -159 q-14 -69 -35 -143 q16 -8 24 -22 q9 -82 59.5 -148 q50.5 -66 99.5 -130 q52 -47 112 -75 q60 -31 113 -65 q4 -7 4 -20 q-5 -10 -15 -15 Z" /><glyph glyph-name="uni2F0A" unicode="&#x2f0a;&#x5165;" d="M102 -28 q-3 1 -7.5 5.5 q-4.5 4.5 -5.5 8.5 l0 13 l5 10 q54 14 97.5 51 q43.5 37 84.5 77 q138 172 194 379 l21 9 q-12 44 -20 85.5 q-8 41.5 -22 84.5 l-13 3 q-38 -9 -75.5 -24 q-37.5 -15 -73.5 -24 q-1 0 -6.5 5.5 q-5.5 5.5 -6.5 9.5 l0 13 q6 15 27 23 q43 12 84 28 q41 16 84 16 q13 -6 21 -28 q31 -150 79 -298.5 q48 -148.5 159 -264.5 q45 -29 89.5 -62 q44.5 -33 90.5 -59 q3 -4 3 -21 q-1 -10 -21 -15 q-129 64 -223 157 q-121 150 -165 334 q-31 -135 -90 -231 q-59 -96 -133 -178 q-38 -39 -81.5 -71 q-43.5 -32 -95.5 -36 Z" /><glyph glyph-name="uni2F0F" unicode="&#x2f0f;&#x51e0;" d="M883 -62 q-62 9 -122.5 29 q-60.5 20 -105.5 65 q-60 62 -60 138 q14 244 49 513 l-14 0 q-145 -27 -300 -74 q-3 -174 -43.5 -340 q-40.5 -166 -155.5 -299 q-5 -3 -20 -3 q-14 3 -17 22 q116 138 154 314 q38 176 50 345 q84 20 172.5 44 q88.5 24 178.5 37 l7 -2 l15 2 l15 -15 l2 -25 q-43 -335 -49 -530 q1 -33 20 -59 q19 -26 41 -49 q39 -30 84 -48 q44 -14 98 -16 q3 70 3 158 q2 11 2 20.5 q0 9.5 6.5 15.5 q6.5 6 10.5 6 l12 0 q13 -7 16 -15 q0 -76 -6 -193 l2 -24 q-3 -8 -15 -14 l-30 -3 Z" /><glyph glyph-name="uni2F12" unicode="&#x2f12;&#x529b;" d="M709 -61 q-47 22 -89 60 q-42 38 -84 75 l-7 16 l11 19 q6 4 18 4 q34 -29 68.5 -61 q34.5 -32 80.5 -63 q80 122 97 260 l39 278 l-16 3 q-84 -15 -169.5 -24 q-85.5 -9 -171.5 -24 q-34 -156 -120.5 -281 q-86.5 -125 -190.5 -234 q-11 -10 -21 -18.5 q-10 -8.5 -21 -8.5 q-3 0 -6.5 1 q-3.5 1 -8.5 5.5 q-5 4.5 -6 9 q-1 4.5 -2 7.5 l10 19 q145 120 274 357 l45 135 q-48 0 -138 -12 q-60 -9 -120 -15 l-17 19 l0 13 q5 13 13 14 q25 0 87 9 l187 18 q35 186 56 257 q3 2 19 2 q3 -1 8.5 -5.5 q5.5 -4.5 6.5 -9.5 q0 -31 -22 -123 q-13 -52 -22 -111 l13 0 q89 14 178.5 23.5 q89.5 9.5 176.5 27.5 l23 -14 q4 -7 4 -21 q-25 -155 -46.5 -314.5 q-21.5 -159.5 -117.5 -285.5 l-19 -7 Z" /><glyph glyph-name="uni2F17" unicode="&#x2f17;&#x5341;" d="M497 -75 l-16 8 l-7 19 q6 11 6 25 q0 116 -6 150 l0 270 l-16 0 q-88 -18 -177.5 -24.5 q-89.5 -6.5 -176.5 -27.5 q-3 1 -7 6 q-6 5 -6 8 l0 17 l16 15 q89 17 180 26 q91 9 187 25 q0 57 3 108.5 q3 51.5 5 102.5 l0 121 q2 13 27 13 q9 -5 16 -17 l0 -117 l-8 -205 q54 7 99 9.5 q45 2.5 90 7.5 l182 0 q13 -7 15 -15 l0 -13 q-1 -4 -6.5 -9 q-5.5 -5 -8.5 -6 q-10 -2 -182 -2 q-45 -4 -91 -7 q-46 -3 -96 -11 l-2 -276 l4 -24 q0 -96 2 -137 q-1 -4 -2 -9 q-1 -5 -2.5 -13 q-1.5 -8 -5.5 -13 l-16 -5 Z" /><glyph glyph-name="uni2F1C" unicode="&#x2f1c;&#x53c8;" d="M889 3 q-97 34 -193 78.5 q-96 44.5 -182 116.5 q-150 -156 -405 -195 q-4 1 -9 5.5 q-5 4.5 -6 9 q-1 4.5 -2 6.5 l10 17 q244 50 383 190 q-57 62 -105 124.5 q-48 62.5 -77 134.5 q2 13 26 13 q42 -56 84.5 -119 q42.5 -63 102.5 -121 q87 79 139.5 178.5 q52.5 99.5 93.5 206.5 l-15 4 q-146 -32 -292.5 -65.5 q-146.5 -33.5 -285.5 -77.5 q-1 1 -7 6.5 q-6 5.5 -7 7.5 l0 13 l17 17 q273 89 619 146 q3 -1 8 -6 q5 -5 5 -8 l2 -31 q-68 -257 -246 -423 q83 -71 176.5 -113 q93.5 -42 184.5 -80 q3 -3 3 -20 q-1 -4 -4 -8 q-11 -5 -18 -7 Z" /><glyph glyph-name="uni2F1D" unicode="&#x2f1d;&#x53e3;" d="M283 115 q60 9 120 13.5 q60 4.5 161 17.5 l87 0 l97 5 l0 15 q27 99 53.5 222.5 q26.5 123.5 49.5 230.5 q-79 0 -347 -29 q-170 -18 -313 -48 q24 -101 40.5 -216.5 q16.5 -115.5 37.5 -210.5 l14 0 ZM263 65 q-21 2 -28 8 q-25 113 -46.5 250.5 q-21.5 137.5 -52.5 247.5 l11 19 q3 2 9 2 q18 0 22 -3.5 q4 -3.5 12 -3.5 q117 29 347 51 q189 18 342 35 l22 -12 q4 -3 4 -8 l0 -14 q-30 -107 -56.5 -239.5 q-26.5 -132.5 -57.5 -243.5 q13 -8 13 -20 q0 -8 -6 -14 q-8 -10 -77 -13 q-36 -2 -70 -6 l-81 0 q-109 -11 -175.5 -15.5 q-66.5 -4.5 -131.5 -20.5 Z" /><glyph glyph-name="uni2F20" unicode="&#x2f20;&#x58eb;" d="M175 -38 l-18 10 q-4 6 -4 20 q1 3 5.5 8 q4.5 5 8.5 6 q49 4 97.5 6.5 q48.5 2.5 97.5 9.5 q94 0 112 3 l4 56 l0 235 l4 118 l-17 0 q-230 -17 -365 -44 l-18 10 q-4 6 -4 19 q1 5 5.5 9.5 q4.5 4.5 7.5 4.5 q175 33 389 44 q0 198 -2 250 l3 22 q2 19 28 19 q8 -2 14 -14 q0 -38 -2 -77 l2 -189 q102 7 194.5 16 q92.5 9 188.5 12 q10 -3 13 -14 l0 -14 q-1 -8 -14 -14 q-95 -6 -187.5 -14.5 q-92.5 -8.5 -192.5 -15.5 l-4 -128 q0 -235 -2 -292 l61 0 l21 4 l94 0 l136 9 q2 0 7 -5 q5 -5 6 -9 l0 -14 q-2 -8 -15 -14 l-134 -12 l-96 0 l-21 -4 q-120 0 -216 -2 q-47 -6 -95 -7 q-48 -1 -92 -8 Z" /><glyph glyph-name="uni2F24" unicode="&#x2f24;&#x5927;" d="M908 -40 l-15 0 q-56 24 -103.5 65.5 q-47.5 41.5 -96.5 81.5 q-55 69 -110 137.5 q-55 68.5 -88 174.5 q-42 -209 -210 -362 q-54 -53 -163 -94 l-18 9 q-5 8 -5 19 l19 20 q116 41 199 141 q118 124 147 350 q-18 0 -184 -18 q-85 -12 -167 -19 q-6 1 -14 15 l0 12 l14 15 l185 24 l173 18 l0 84 l7 42 q0 79 -4 98 l10 18 q3 4 19 4 q13 -6 14 -17 q4 -23 4 -103 q-6 -38 -6 -123 l30 0 q83 7 165.5 12 q82.5 5 161.5 21 l10 -7 l6 -11 l0 -13 q-1 -3 -6 -8 q-5 -5 -8 -6 q-86 -16 -171 -19 l-186 -15 q12 -14 12 -27 l-5 -6 q22 -107 83.5 -189 q61.5 -82 129.5 -158 l88 -71 q43 -36 92 -61 q4 -6 4 -20 q-1 -3 -5.5 -8 q-4.5 -5 -7.5 -6 Z" /><glyph glyph-name="uni2F25" unicode="&#x2f25;&#x5973;" d="M486 227 l6 2 q109 115 178 262 l-53 0 q-61 -6 -227 -17 q-28 -73 -55 -132 l-22 -50 q117 -38 173 -65 ZM846 -28 l-16 0 q-70 64 -153 112 q-84 45 -178 84 q-73 -79 -167 -124.5 q-94 -45.5 -195 -58.5 q-23 6 -23 34 q4 10 15 15 q185 12 328 153 q-55 32 -168 66 l-20 -34 q-7 -4 -21 -4 q-2 0 -7 6 q-7 5 -7.5 9.5 q-0.5 4.5 -1.5 7.5 q51 92 108 228 l-16 2 q-62 -6 -124 -13.5 q-62 -7.5 -120 -14.5 l-14 9 q-4 7 -4 21 q1 3 6 8 q15 14 294 36 q53 131 105 256 q7 4 18 4 q5 -1 9.5 -6.5 q4.5 -5.5 5.5 -8.5 l0 -21 q-19 -53 -41 -104.5 q-22 -51.5 -46 -113.5 l24 0 q285 25 456 28 l23 -3 q20 -2 20 -29 q-1 -4 -6.5 -8.5 q-5.5 -4.5 -9.5 -5.5 q-4 -1 -7 -2 q-18 4 -36 4 q-36 0 -156 -6 q-64 -155 -193 -293 q199 -82 328 -199 q4 -7 4 -20 q-1 -4 -6 -8.5 q-5 -4.5 -8 -5.5 Z" /><glyph glyph-name="uni2F26" unicode="&#x2f26;&#x5b50;" d="M454 -69 q-140 60 -212 116 q-4 2 -4 20 l17 16 l12 0 q52 -40 187 -103 q87 115 101 215 q0 103 -3 123 q-104 0 -239 -17 l-204 -24 q-2 1 -8 6.5 q-6 5.5 -7 7.5 l0 14 l17 16 q105 14 211 26.5 q106 12.5 217 13.5 q0 29 -14 83 q-11 33 -36 58 l-38 43 l-2 22 q1 2 5.5 7.5 q4.5 5.5 8.5 6.5 l13 0 q11 -7 19 -20 q8 -13 25 -28 q54 29 97.5 65 q43.5 36 104.5 78 l-61 3 q-112 -6 -225 -16.5 q-113 -10.5 -222 -20.5 l-18 11 q-5 5 -5 19 q1 4 6.5 9 q5.5 5 7.5 5 l229 22 q189 15 319 15 q30 -13 30 -26 l0 -14 l-28 -37 q-51 -33 -99 -73 q-48 -40 -105 -72 q16 -37 22 -67 q6 -30 14 -67 l23 0 q28 7 59 7 q31 0 60 4 l147 0 q10 -5 15 -15 l0 -14 q-2 -8 -16 -15 q-7 -1 -146 -1 l-137 -12 l6 -20 l0 -111 q-7 -69 -40.5 -134.5 q-33.5 -65.5 -80.5 -115.5 l-23 -9 Z" /><glyph glyph-name="uni2F29" unicode="&#x2f29;&#x5c0f;" d="M884 181 l-13 0 q-14 7 -19 19 q-29 96 -76.5 184.5 q-47.5 88.5 -90.5 173.5 q0 3 4.5 7 q4.5 4 7.5 5 l14 0 l21 -20 q114 -176 166 -355 q-4 -12 -14 -14 ZM125 156 q-14 5 -15 13 l0 17 q53 88 85.5 187.5 q32.5 99.5 61.5 193.5 q6 3 21 3 l2 -1 q9 -7 11 -13 l0 -19 q-26 -98 -58 -194.5 q-32 -96.5 -89 -182.5 q-6 -4 -19 -4 ZM466 -36 q-46 17 -92 29.5 q-46 12.5 -86 34.5 l-5 16 l9 18 q6 4 19 4 q37 -22 79 -30 q38 -10 86 -26 l5 146 l0 568 l10 18 q7 5 19 5 q12 -4 14 -15 l0 -576 q-3 -33 -3 -66 l1 -37 q0 -45 -24 -83 q-9 -6 -32 -6 Z" /><glyph glyph-name="uni2F2D" unicode="&#x2f2d;&#x5c71;" d="M810 -30 q-13 2 -16 29 l12 43 l-29 0 q-145 -13 -291.5 -21 q-146.5 -8 -291.5 -31 l-18 -5 l-16 10 q-18 133 -30 271 q-12 138 -36 271 l9 17 q8 8 20 8 q13 -3 18 -15 q0 -14 -2 -23 q39 -224 54 -487 l11 0 q100 15 198 21 l72 7 q0 637 7 684 q1 11 7 18 q9 5 21 5 q9 -3 14 -15 q0 -62 -2 -124 l-4 -564 q229 11 300 19 q18 193 25 257 q10 125 33 244 q3 2 19 2 q3 -1 8 -5 q5 -4 6 -8 l0 -22 q-20 -147 -30.5 -295.5 q-10.5 -148.5 -47.5 -287.5 q-6 -3 -20 -3 Z" /><glyph glyph-name="uni2F2F" unicode="&#x2f2f;&#x5de5;" d="M121 18 l-19 10 q-4 8 -4 20 q1 4 6 9 q11 9 180 27 q69 8 190 13 l4 99 l-2 245 l2 117 l-51 0 q-61 -8 -122 -14.5 q-61 -6.5 -119 -13.5 l-17 10 q-5 9 -5 19 q4 13 14 15 l317 33 q31 4 313 35 q13 -4 15 -14 l0 -14 q-4 -11 -15 -14 q-64 -7 -282 -35 l-5 -18 q0 -175 -2 -349 l2 -59 l-5 -36 l13 0 q156 21 368 25 q13 -4 14 -13 l0 -15 q-1 -11 -14 -13 q-397 -21 -776 -69 Z" /><glyph glyph-name="uni2F30" unicode="&#x2f30;&#x5df1;" d="M616 -31 l-100 1 q-69 7 -140 20.5 q-71 13.5 -128 55.5 q-22 51 -23.5 110.5 q-1.5 59.5 -2.5 116.5 q2 101 5 121 q1 12 7 19 q62 14 418 86 l16 -11 l55 217 l-271 -29 q-130 -17 -254 -43 l-19 10 q-4 5 -4 20 q4 11 15 14 q234 48 567 72 q14 -5 15 -14 l0 -19 q-21 -66 -35.5 -136 q-14.5 -70 -38.5 -134 q-4 -2 -17 -2 l-23 13 l-192 -40 q-97 -18 -195 -39 l-3 -10 q0 -93 -2 -167 q4 -30 5 -62 q1 -32 11 -64 q56 -33 114.5 -43 q58.5 -10 119.5 -18 q98 0 122 -2 q60 2 172 23 q10 42 18.5 80.5 q8.5 38.5 10.5 80.5 l-4 21 q1 3 5.5 7.5 q4.5 4.5 7.5 5.5 l22 0 q3 -1 8 -5.5 q5 -4.5 6 -7.5 q0 -32 -15 -121 q-11 -53 -29 -98 q-107 -29 -224 -29 Z" /><glyph glyph-name="uni2F32" unicode="&#x2f32;&#x5e72;" d="M514 -69 l-15 0 q-3 1 -8 6 q-5 5 -6.5 12 q-1.5 7 -3.5 16 l0 244 q-3 25 -3 124 l-36 0 q-83 -6 -165 -9.5 q-82 -3.5 -164 -13.5 l-19 11 q-3 5 -3 20 q0 3 6 7 q12 12 189 20 q92 4 192 10 q0 132 2 265 q-143 -13 -297 -40 q-8 2 -15.5 9.5 q-7.5 7.5 -7.5 14.5 q0 21 14 25 q407 50 651 71 q3 -1 7.5 -6 q4.5 -5 5.5 -8 l0 -14 q-1 -3 -5.5 -8 q-4.5 -5 -8.5 -6 q-71 -11 -144.5 -16 q-73.5 -5 -148.5 -16 l-8 -21 q0 -134 -2 -245 l18 0 q43 5 87 6.5 q44 1.5 87 7.5 q160 0 184 1 l10 -5 q4 -5 4 -23 q-1 -7 -15 -14 q-20 -3 -183 -3 q-48 -6 -93.5 -8 q-45.5 -2 -98.5 -6 l0 -105 l4 -25 q0 -238 1 -264 q-1 -3 -5 -8 q-4 -5 -7 -6 Z" /><glyph glyph-name="uni2F34" unicode="&#x2f34;&#x5e7f;" d="M584 631 q-13 3 -23 14 q-15 39 -43 69.5 q-28 30.5 -37 69.5 q5 13 26 13 q62 -66 99 -136 l0 -14 q-2 -12 -22 -16 ZM114 -34 q-9 0 -15 5 q-6 5 -6.5 9.5 q-0.5 4.5 -1.5 7.5 q93 124 119.5 278 q26.5 154 42.5 302 q283 44 641 79 q3 -1 8 -5.5 q5 -4.5 6 -7.5 l0 -15 q-1 -3 -6 -8 q-5 -5 -9 -6 q-151 -19 -301.5 -36 q-150.5 -17 -304.5 -38 q-9 -150 -38 -295.5 q-29 -145.5 -119 -264.5 q-8 -5 -16 -5 Z" /><glyph glyph-name="uni2F3C" unicode="&#x2f3c;&#x5fc3;" d="M622 639 l-114 61 q-73 39 -125 50 q-25 2 -54 14 q-7 13 -9 20 q0 15 24 20 q42 -9 87 -22 q44 -15 138 -59 q20 -17 44 -29 q24 -12 29 -35 q0 -4 -10 -18 l-10 -2 ZM892 184 l-14 0 l-11 8 q-31 81 -66 162 q-37 80 -82 152 q4 12 27 12 q33 -30 58 -72 q25 -42 46 -86 q14 -40 30 -82 q16 -42 27 -80 q-5 -9 -15 -14 ZM114 114 l-18 10 q-4 5 -4 18 q26 89 41 179 q12 67 36 174 q6 4 20 4 q9 -3 13 -15 q0 -29 -30 -200 q-16 -86 -44 -164 l-14 -6 ZM742 -40 l-28 4 l-51 5 q-59 3 -137 13.5 q-78 10.5 -140 63.5 q-47 51 -57 131 q-10 80 -10 151 q0 130 2 258 l9 17 q8 4 21 4 q8 -1 13 -14 q0 -163 -2 -260 q0 -64 8 -142 q8 -78 59 -126 q67 -42 142.5 -49 q75.5 -7 160.5 -8 q0 36 -13 109 q-11 48 -45 134 l10 17 q5 4 19 4 l10 -6 l6 -12 q34 -97 45.5 -154.5 q11.5 -57.5 11.5 -114.5 l-10 -18 q-10 -7 -24 -7 Z" /><glyph glyph-name="uni2F3D" unicode="&#x2f3d;&#x6208;" d="M733 631 l-12 0 q-58 61 -144 93 q-3 6 -3 19 l16 16 l16 0 q85 -33 137 -93 q5 -7 5 -21 q-1 -4 -6.5 -8.5 q-5.5 -4.5 -8.5 -5.5 ZM800 -55 q-93 40 -173 125 q-47 58 -76 115 q-166 -154 -414 -195 l-17 9 l-3 6 l-1 14 l6 10 q248 45 405 195 q-51 95 -78 281 l-12 0 q-83 -10 -163 -18 q-80 -8 -159 -22 l-19 11 q-4 5 -4 19 q1 3 6 8 q5 5 9 6 q212 28 336 40 l0 14 q-8 51 -10 102.5 q-2 51.5 -12 98.5 l11 19 q5 4 19 4 q3 -1 8.5 -5.5 q5.5 -4.5 6.5 -8.5 q7 -53 9.5 -106 q2.5 -53 12.5 -109 l18 -4 q97 13 196 23.5 q99 10.5 193 21.5 q14 -5 15 -12 l0 -14 q-5 -11 -18 -17 q-104 -15 -247 -29 q-73 -7 -151 -17 l0 -14 q18 -143 70 -246 q26 23 45 42 l30 27 q45 43 70 107 q5 17 17 28 q3 2 21 2 q8 -1 14 -15 l0 -12 q-31 -84 -108 -159 l-67 -60 q63 -132 188 -203 l18 -7 q22 61 36 118.5 q14 57.5 39 110.5 q6 4 19 4 q10 -5 15 -15 l0 -17 q-22 -63 -39 -127.5 q-17 -64.5 -42 -124.5 q-5 -4 -20 -4 Z" /><glyph glyph-name="uni2F3F" unicode="&#x2f3f;&#x624b;" d="M474 -89 l-5 1 q-23 17 -87 56 q-45 26 -85 58 q-9 11 -9 19 q0 9 5.5 14.5 q5.5 5.5 10.5 6.5 l12 0 q36 -28 76.5 -52 q40.5 -24 86.5 -51 q56 103 74 272 q-21 0 -247 -21 q-108 -10 -215 -24 q-1 0 -6 6.5 q-5 6.5 -6 7.5 l0 13 l15 17 q112 13 226.5 24 q114.5 11 232.5 24 l5 38 q-4 27 -4 56.5 q0 29.5 -2 56.5 l0 9 l-26 0 q-88 -11 -175 -18.5 q-87 -7.5 -174 -26.5 q-12 4 -13 13 l0 15 q6 12 19 18 q88 17 176 25 q90 5 184 19 q0 28 -19 96 q-15 39 -36 75 l-11 4 q-156 -41 -271 -60 l-17 9 q-4 9 -4 21 q1 3 6 7.5 q5 4.5 9 5.5 q247 40 526 148 q7 -3 14 -15 l0 -13 q-7 -13 -28 -22 q-52 -22 -181 -67 q44 -89 57 -184 q54 0 135 14 q53 6 104 10 q13 -4 14 -13 l0 -15 q-1 -7 -15 -14 q-174 -24 -231 -27 q0 -25 7 -152 l-5 -12 l156 6 q42 0 146 9 q12 -4 14 -14 l0 -14 q-1 -7 -19 -16 q-31 -3 -299 -15 q-6 -87 -25 -167 q-19 -80 -65 -146 l-6 -3 q-13 -12 -25 -12 Z" /><glyph glyph-name="uni2F40" unicode="&#x2f40;&#x652f;" d="M505 175 l6 7 q123 103 192 232 q-18 0 -126 -16 q-115 -16 -211 -45 q84 -113 139 -178 ZM865 -64 q-105 11 -193 64.5 q-88 53.5 -174 115.5 q-189 -120 -373 -169 l-18 9 l-7 15 l9 17 q167 41 359 162 q-38 52 -75.5 96.5 q-37.5 44.5 -65.5 98.5 l-12 0 q-56 -16 -112 -23 l-18 10 q-4 7 -4 20 q1 3 6 7.5 q5 4.5 9 5.5 q71 11 142 29.5 q71 18.5 148 34.5 l-5 26 l7 25 q0 93 2 131 q-40 0 -195 -17 q-88 -11 -173 -30 q-4 1 -8.5 6.5 q-4.5 5.5 -5.5 8.5 l0 14 q5 10 18 18 q89 18 177.5 27 q88.5 9 184.5 19 q0 39 -5 137 l10 19 q6 3 20 3 q8 -1 13 -14 l7 -140 l25 0 q91 14 298 22 q7 -1 13 -10 q1 -1 1 -18 q0 -10 -14 -14 q-211 -12 -321 -25 q-2 -44 -2 -135 l-11 -47 q67 10 190 25 l23 -7 q23 -7 23 -34 q-77 -151 -222 -276 q85 -62 173.5 -110 q88.5 -48 182.5 -62 q4 -5 4 -18 q-5 -10 -16 -15 l-15 -2 Z" /><glyph glyph-name="uni2F42" unicode="&#x2f42;&#x6587;" d="M511 273 l5 2 q99 106 151 300 l-29 0 q-55 -10 -129 -18 q-93 -13 -173 -17 l0 -20 q86 -155 165 -246 l10 -1 ZM126 -43 l-18 11 q-4 3 -4 18 q3 7 12 11 q9 4 14 10 q183 58 329 204 l19 25 q-130 143 -190 296 l-18 0 q-42 -6 -82 -10.5 q-40 -4.5 -77 -14.5 l-19 10 q-2 4 -3 21 q1 7 19 14 q110 19 247 33 q65 6 146 16 q-18 12 -21 17.5 q-3 5.5 -6 10.5 q-7 37 -19 71.5 q-12 34.5 -20 66.5 q1 4 6 8.5 q5 4.5 8 5.5 l13 0 q10 -5 14.5 -14.5 q4.5 -9.5 11.5 -18.5 q9 -30 18.5 -61.5 q9.5 -31.5 10.5 -61.5 l-13 -19 l27 -5 q88 18 175.5 23 q87.5 5 173.5 12 q11 -3 14 -14 l0 -13 q-5 -10 -18 -16 l-166 -14 q-41 -210 -173 -345 q148 -152 366 -223 q3 -5 3 -19 q-2 -13 -24 -17 q-210 58 -374 227 q-76 -90 -173 -147 q-80 -57 -209 -98 Z" /><glyph glyph-name="uni2F45" unicode="&#x2f45;&#x65b9;" d="M608 -76 q-42 15 -85 38 q-38 23 -78 50 l-2 7 l-12 4 q-19 19 -19 35 q0 6 6 11.5 q6 5.5 9 6.5 l15 0 l37 -37 l16 -8 q58 -34 106 -57 q58 99 83 201.5 q25 102.5 45 214.5 q-121 8 -237 29 q-35 -112 -97 -201 q-108 -146 -167 -203 q-18 -16 -35 -33 q-35 -29 -75 -35 q-4 1 -8.5 5.5 q-4.5 4.5 -5.5 9 q-1 4.5 -2 6.5 l9 18 q34 13 64 42 q15 13 29 26.5 q14 13.5 29 26.5 q203 224 249 473 l-27 0 q-262 -29 -361 -45 q-3 1 -6 7 q-6 5 -7 7 l0 13 l11 15 q109 19 220 32 q97 8 229 24 q-24 50 -52 90 q-26 41 -43 82 q1 1 5.5 6 q4.5 5 7.5 6 l16 0 q35 -31 76 -105 q7 -16 15.5 -30.5 q8.5 -14.5 8.5 -30.5 l-8 -13 l29 -3 q105 10 301 27 l21 -9 q4 -7 4 -21 q-4 -10 -14 -12 q-20 -5 -188 -17 l-195 -17 l-18 -107 q97 0 262 -34 q4 -6 4 -15 l-1 -28 q-23 -118 -52 -233.5 q-29 -115.5 -96 -212.5 l-16 -6 Z" /><glyph glyph-name="uni2F46" unicode="&#x2f46;&#x65e0;" d="M123 -36 q-12 5 -14 14 l0 13 l5 10 q103 49 220 166 q62 82 103 236 q-53 0 -329 -35 l-13 4 q-13 3 -13 28 q5 11 13 14 l17 0 q260 31 330 37 q10 71 10 199 l-11 0 q-63 -7 -126 -13 q-63 -6 -123 -18 q-3 1 -6.5 2.5 q-3.5 1.5 -8 2 q-4.5 0.5 -8.5 6.5 q0 2 -2 5.5 q-2 3.5 -2 15.5 q1 4 5.5 8.5 q4.5 4.5 8.5 5.5 q301 29 622 74 q11 -5 15 -14 l0 -14 q-5 -10 -15 -15 q-75 -7 -149.5 -18.5 q-74.5 -11.5 -154.5 -21.5 q0 -113 -9 -201 q207 19 392 33 q10 -3 15 -14 q0 -27 -15 -29 q-124 -8 -396 -35 q-18 -79 -46.5 -152 q-28.5 -73 -81.5 -132 q-53 -50 -110.5 -96 q-57.5 -46 -122.5 -66 ZM831 -44 q-81 4 -161.5 13.5 q-80.5 9.5 -144.5 57.5 q-18 16 -18 43 l2 134 q4 21 4 44 l-1 22 q0 25 13 46 q5 3 18 3 l11 -6 l4 -7 q0 -17 -5 -101 l0 -138 l4 -10 q63 -37 131.5 -46 q68.5 -9 141.5 -9 q19 45 31.5 87 q12.5 42 26.5 80 q6 3 20 3 q8 -1 13 -14 l0 -18 q-19 -94 -60 -178 q-8 -6 -30 -6 Z" /><glyph glyph-name="uni2F47" unicode="&#x2f47;&#x65e5;" d="M304 374 q51 4 95 9 q95 9 305 25 q12 67 35 248 l-15 2 l-221 -22 q-123 -16 -232 -33 q3 -60 10 -110 q7 -50 11 -119 l12 0 ZM322 77 l349 24 q7 61 14.5 118 q7.5 57 13.5 143 l-22 3 q-63 -7 -124 -12 q-113 -10 -156.5 -15 q-43.5 -5 -99.5 -10 q20 -222 25 -251 ZM315 -25 l-15 0 q-8 3 -13 16 q-21 156 -34.5 327.5 q-13.5 171.5 -29.5 327.5 l9 18 q8 4 19 4 q17 -14 27 -19 q114 17 246.5 30.5 q132.5 13.5 236.5 27.5 l19 -10 q4 -6 4 -36 q-23 -152 -41 -317.5 q-18 -165.5 -42 -311.5 q-5 -4 -18 -4 l-11 6 l-9 18 l-29 2 l-307 -18 q0 -26 2 -46 q-4 -10 -14 -15 Z" /><glyph glyph-name="uni2F49" unicode="&#x2f49;&#x6708;" d="M347 511 q46 2 334 30 l3 42 q0 31 3.5 58.5 q3.5 27.5 3.5 69.5 l-31 0 q-83 -10 -165 -16 q-41 -6 -80.5 -10.5 q-39.5 -4.5 -85.5 -11.5 l0 -162 l18 0 ZM311 275 q191 16 365 34 l1 188 q-121 -13 -347 -32 l-19 -190 ZM694 -90 q-51 14 -100.5 38.5 q-49.5 24.5 -97.5 51.5 q-5 8 -5 19 q5 10 15 15 l18 0 q84 -46 161 -76 l0 76 q-6 51 -7.5 106.5 q-1.5 55.5 -4.5 104.5 l2 18 q-66 -4 -375 -34 q-30 -173 -135 -290 q-5 -4 -21 -4 q-3 1 -8.5 6.5 q-5.5 5.5 -5.5 16.5 q0 4 1 9 q1 5 1.5 10.5 q0.5 5.5 8.5 10.5 q28 20 44.5 50 q16.5 30 30.5 60 q65 173 69 397 l0 217 l11 19 q3 4 20 4 l24 -17 q39 9 77.5 12 q38.5 3 79.5 10 q112 9 224 16 q11 -4 15 -14 l-1 -63 q-10 -121 -12.5 -232.5 q-2.5 -111.5 -7.5 -219.5 q5 -49 6.5 -97 q1.5 -48 7.5 -96 l0 -90 l-15 -29 q-4 -5 -20 -5 Z" /><glyph glyph-name="uni2F4C" unicode="&#x2f4c;&#x6b62;" d="M88 -46 l-18 12 q-4 4 -4 20 q1 7 15 12 l183 17 q0 67 -9 214 q-13 191 -27 318 l10 17 q9 4 20 5 q4 -1 9 -7 q11 -12 46 -544 l208 14 l0 441 l-5 32 q0 190 -4 239 q6 10 11 17 q5 7 20 7 q10 -4 14 -14 q1 -33 2 -141 q1 -108 4 -136 q41 0 142 16 q64 8 127 12 q13 -4 14 -13 l0 -15 q-1 -3 -5.5 -8 q-4.5 -5 -8.5 -6 q-65 -7 -130 -13.5 q-65 -6.5 -136 -18.5 l-2 -395 l30 0 q49 8 98 9.5 q49 1.5 101 7.5 q83 0 130 2 q10 -4 14 -14 l0 -16 q-1 -8 -14 -13 q-42 -3 -130 -3 q-601 -46 -705 -55 Z" /><glyph glyph-name="uni2F50" unicode="&#x2f50;&#x6bd4;" d="M93 3 q-12 4 -12 27 l16 20 q22 8 46 14.5 q24 6.5 52 16.5 l0 54 l-5 14 q0 135 5 271 l-3 51 l5 61 l0 93 l-5 61 l5 19 q4 16 27 16 q3 -1 8 -6 q5 -5 6 -8 q0 -23 -2 -29 l4 -53 q0 -93 -2 -143 q64 11 118.5 16 q54.5 5 109.5 14 q10 -5 13 -15 l0 -14 q-8 -13 -16 -16 q-55 -8 -111 -13 q-56 -5 -116 -19 l2 -98 l-3 -184 q3 -12 3 -58 q65 15 116.5 33 q51.5 18 100.5 30 q2 -1 7.5 -5 q5.5 -4 6.5 -8 l0 -13 q-6 -11 -19 -18 q-88 -32 -179 -55.5 q-91 -23.5 -178 -55.5 ZM876 -21 q-81 13 -161.5 36 q-80.5 23 -149.5 68 l-17 22 l-5 34 l1 47 l-1 50 l3 51 q0 220 2 321 l-2 9 l10 109 l-2 23 q1 3 5.5 7 q4.5 4 7.5 5 l15 0 q10 -5 15 -16 l3 -45 l-8 -52 q0 -139 -2 -202 l141 86 q66 37 133 61 q11 -2 11 -26 q-6 -12 -21.5 -20 q-15.5 -8 -28.5 -18 q-59 -29 -116 -64 q-57 -35 -119 -68 q0 -107 -3 -209 l1 -46 l-1 -7 l11 -24 q116 -65 280 -86 l3 23 q0 127 -2 145 q2 12 32 12 q2 -1 7 -5.5 q5 -4.5 7 -7.5 l0 -143 q-3 -10 -3 -22 l1 -19 q0 -29 -47 -29 Z" /><glyph glyph-name="uni2F53" unicode="&#x2f53;&#x6c14;" d="M188 541 l-17 9 l-7 21 l2 9 l-2 7 q13 53 31 108 q18 55 32 107 q5 4 19 4 q12 -5 15 -14 l0 -26 q-10 -40 -23.5 -81.5 q-13.5 -41.5 -25.5 -93.5 q13 0 613 115 q3 -1 7.5 -6 q4.5 -5 5.5 -8 l0 -15 q-1 -4 -4.5 -6.5 q-3.5 -2.5 -7.5 -5 q-4 -2.5 -6 -3.5 q-153 -31 -305.5 -59 q-152.5 -28 -303.5 -59 l-8 2 l-15 -5 ZM274 442 l-15 17 l0 13 q1 6 15 14 q106 13 210.5 31.5 q104.5 18.5 208.5 33.5 q4 -1 8.5 -5.5 q4.5 -4.5 5.5 -7.5 l0 -15 q-2 -10 -15 -14 q-290 -51 -418 -67 ZM875 -49 q-32 11 -62 24.5 q-30 13.5 -55 40.5 q-81 90 -85 248 l4 91 q-139 -23 -267.5 -32.5 q-128.5 -9.5 -253.5 -29.5 l-19 10 q-4 5 -4 19 q1 3 5.5 8.5 q4.5 5.5 9.5 6.5 q141 19 283 32 q142 13 282 31 q2 -1 7 -5.5 q5 -4.5 6 -7.5 l0 -15 q-5 -28 -5 -60.5 q0 -32.5 -4 -63.5 q13 -131 77 -206 q38 -36 72 -38 q14 55 19.5 106.5 q5.5 51.5 19.5 96.5 q8 4 19 4 q11 -2 15 -14 l0 -22 q-9 -56 -16 -113.5 q-7 -57.5 -29 -107.5 q-6 -3 -19 -3 Z" /><glyph glyph-name="uni2F54" unicode="&#x2f54;&#x6c34;" d="M103 12 l-18 11 q-4 3 -4 20 q174 127 245 378 q9 33 22 74 l-233 -44 q-8 3 -13 14 l0 13 l12 15 q67 12 135 27.5 q68 15.5 136 21.5 q7 -3 14 -16 l0 -12 q-63 -301 -241 -465 q-14 -10 -28 -21.5 q-14 -11.5 -27 -15.5 ZM483 -51 q-118 59 -170 99 q-4 7 -4 21 q3 10 14 14 l14 0 q31 -22 65.5 -39.5 q34.5 -17.5 78.5 -41.5 l-1 31 q0 16 2 31 q4 27 4 55 q0 178 -3 224 q2 102 3 205 l-3 32 q0 107 -2 171 q1 9 2.5 20.5 q1.5 11.5 7 16.5 q5.5 5 10.5 5 l13 0 q9 -5 15 -15 l0 -15 q-5 -17 -5 -36 q0 -138 6 -166 l13 -8 q9 -34 24.5 -69.5 q15.5 -35.5 33.5 -80.5 q81 84 119 126 q55 59 111 111 l23 2 q13 -4 15 -14 l0 -13 l-16 -16 l-19 -9 q-51 -61 -105 -116.5 q-54 -55.5 -109 -115.5 q65 -96 133 -181 q71 -85 162 -142 l0 -12 q-6 -14 -13 -14 l-14 0 q-36 25 -73 51 q-37 26 -72 57 q-54 74 -114 148 q-60 74 -97 199 q-3 -119 -6 -150 q3 -97 5 -195 q-6 -38 -6 -77 q0 -55 -22 -90 q-6 -3 -20 -3 Z" /><glyph glyph-name="uni2F55" unicode="&#x2f55;&#x706b;" d="M656 366 l-12 0 q-3 1 -8 5.5 q-5 4.5 -6 8.5 l0 13 q111 144 156 236 q3 2 16 6 q17 -2 21 -15 l0 -18 q-60 -118 -167 -236 ZM204 318 q-3 1 -8 7 q-7 3 -7.5 7.5 q-0.5 4.5 -1.5 8.5 q28 85 52 234 q6 4 19 4 q11 -5 14 -15 l0 -51 q-20 -127 -49 -191 q-6 -4 -19 -4 ZM903 -84 q-74 26 -138.5 72.5 q-64.5 46.5 -121.5 102.5 q-47 51 -81.5 110.5 q-34.5 59.5 -77.5 132.5 q-34 -138 -152 -262 q-70 -80 -147 -118 l-49 -13 l-18 11 q-4 5 -4 19 q1 3 6 8 q5 5 8 6 q81 17 154 100 q76 68 139 192 q35 104 45 212.5 q10 108.5 10 217.5 q0 23 -11 68 l12 18 q5 4 18 4 q4 -1 10 -6 q14 -14 14 -133 q-5 -159 -20 -245 l16 -9 q45 -163 188 -308 q94 -90 220 -145 q4 -6 4 -20 q-1 -5 -15 -14 l-9 -1 Z" /><glyph glyph-name="uni2F5A" unicode="&#x2f5a;&#x7247;" d="M629 -104 q-5 1 -8 8 q-5 3 -5 6 l-2 41 l2 388 l-3 24 q-57 -9 -176 -18 q-77 -9 -150 -23 q-22 -145 -56 -220.5 q-34 -75.5 -90 -133.5 l-16 -6 l-17 10 q-4 6 -4 18 q86 115 124 246 q21 107 28 294 q4 107 11 241 q2 3 31 3 q2 -1 4.5 -3 q2.5 -2 5.5 -3 l4 -8 q0 -63 -2 -106 q-2 -10 -4 -78 l16 -6 q62 8 123 14 q10 0 127 12 q5 19 5 37 q0 79 -11 166 l9 17 q7 4 20 4 q10 -2 15 -14 q1 -23 3 -44 q4 -54 5 -79.5 q1 -25.5 3 -63.5 l-5 -17 l30 0 q60 9 119 14 q90 6 119 9 q7 -2 13 -14 l0 -15 q-5 -11 -13 -14 q-291 -25 -568 -56 l-16 3 q-7 -135 -10 -160 q178 30 377 42 q10 -5 15 -15 l0 -17 q-1 -3 -25 -13 q0 -209 2 -412 q-3 -9 -3 -21 l1 -15 q0 -10 -6 -18 q-7 -4 -22 -4 Z" /><glyph glyph-name="uni2F60" unicode="&#x2f60;&#x74dc;" d="M251 635 q-11 6 -14 14 l0 13 l6 10 q266 44 545 136 q13 -4 13 -26 l-16 -19 q-292 -102 -534 -128 ZM944 -28 l-19 8 q-210 280 -273 692 q1 4 6.5 8.5 q5.5 4.5 8.5 5.5 l13 0 l16 -14 q26 -185 95 -360.5 q69 -175.5 174 -325.5 q-2 -10 -21 -14 ZM137 -31 l-13 0 q-4 0 -8.5 4.5 q-4.5 4.5 -5.5 9 q-1 4.5 -2 6.5 q82 101 105.5 229.5 q23.5 128.5 30.5 258.5 l0 104 q3 11 14 14 l12 0 l16 -13 q1 -5 1 -105 q-7 -133 -31.5 -266 q-24.5 -133 -110.5 -239 l-8 -3 ZM701 -46 l-17 11 q-16 39 -40 107 l-12 29 l-11 0 l-164 -67 q-82 -36 -167 -49 l-3 2 q-21 6 -22 17 q-1 1 -2 13 q5 12 14 15 q16 0 33 -2 l133 47 q5 24 5 45 q0 55 -4 109 q0 252 -2 287 l2 90 l-2 8 l11 18 q3 4 20 4 l12 -7 l7 -12 l0 -12 l-4 -6 q0 -81 -1 -116 q1 -254 5 -384 l13 0 q25 10 50.5 20 q25.5 10 52.5 23 l0 11 q-9 24 -20 48.5 q-11 24.5 -13 48.5 q1 5 6.5 9.5 q5.5 4.5 8.5 5.5 l13 0 q10 -4 20 -21 q24 -70 53 -138.5 q29 -68.5 46 -138.5 q-3 -10 -21 -15 Z" /><glyph glyph-name="uni2F63" unicode="&#x2f63;&#x751f;" d="M117 -57 l-19 10 q-4 6 -4 19 q6 11 20 19 q93 9 189.5 15 q96.5 6 195.5 17 l0 238 l-18 0 q-57 -6 -113 -10 q-56 -4 -108 -16 l-17 10 q-5 5 -5 20 q5 25 265 41 q0 102 -2 203 q-106 0 -233 -23 l-18 6 q-23 -46 -45.5 -87 q-22.5 -41 -53.5 -75 q-5 -4 -22 -4 q-2 0 -6 6 q-6 5 -7 8 l0 13 q65 83 100.5 183.5 q35.5 100.5 59.5 200.5 q5 3 18 3 l15 -14 l2 -26 q-19 -81 -48 -168 l15 0 q91 17 225 20 q2 37 2 200 l-4 19 l10 18 q7 4 19 4 q12 -4 14.5 -16 q2.5 -12 4.5 -26 q0 -162 -3 -190 l22 0 q127 16 303 29 l9 -6 q4 -5 5 -9 l0 -13 q-6 -12 -14 -14 q-83 -8 -162.5 -15 q-79.5 -7 -163.5 -17 l0 -150 l5 -55 l257 30 q11 -4 15 -15 l0 -13 q-1 -5 -20 -17 l-259 -29 l0 -241 l18 0 q219 12 355 14 l8 -5 q5 -4 6 -8 l0 -14 q-3 -8 -15 -14 q-400 -14 -798 -56 Z" /><glyph glyph-name="uni2F64" unicode="&#x2f64;&#x7528;" d="M564 499 q113 3 221 18 q0 83 -2 166 q-80 0 -145 -8 l-108 -14 l-3 -67 l4 -95 l33 0 ZM286 471 q70 13 200 25 q0 74 -2 141 l3 17 q-41 0 -104 -12 q-40 -7 -84 -11 q-8 -40 -8 -78.5 q0 -38.5 -5 -81.5 ZM574 279 q50 6 102 10.5 q52 4.5 107 15.5 q0 16 4 73 l0 94 l-13 0 q-58 -10 -116.5 -12.5 q-58.5 -2.5 -124.5 -4.5 q0 -120 -2 -176 l43 0 ZM257 253 q95 14 229 21 l2 177 q-17 0 -67 -5 q-79 -8 -141 -23 q-10 -105 -23 -170 ZM115 -64 q-7 2 -15 16 l-2 8 q98 163 124.5 349 q26.5 186 42.5 367 q5 3 18 3 l16 -4 l217 29 q166 18 271 23 l8 -2 l21 4 q9 -4 13 -15 q0 -60 -2 -121 l4 -75 l0 -140 q-2 -54 -7 -108.5 q-5 -54.5 -5 -108.5 q0 -95 -2 -188 q-5 -9 -17 -17 l-11 -2 q-29 12 -58 22 q-69 22 -112 52 q-4 7 -4 20 q2 14 29 14 q28 -15 60 -26 q30 -14 69 -24 l2 54 q0 93 4 192 l-16 0 q-141 -20 -232 -23 q0 -109 2 -211 q-2 -13 -2 -40.5 q0 -27.5 -29 -27.5 l-12 6 q-5 9 -5 17 l3 45 q0 149 -2 207 q-23 0 -34 -1 q-49 -6 -96 -10 q-53 -5 -110 -15 q-28 -137 -112 -264 q-7 -5 -19 -5 Z" /><glyph glyph-name="uni2F69" unicode="&#x2f69;&#x767d;" d="M260 283 l254 25 q127 10 250 25 l5 -4 l7 8 q0 34 29 229 q-86 0 -311 -36 l-271 -42 l-3 -24 l15 -87 q4 -44 11 -94 l14 0 ZM304 26 l66 5 q152 11 368 22 q8 64 17 119 q9 55 15 119 l-12 0 q-124 -18 -250 -28.5 q-126 -10.5 -254 -24.5 q0 -38 15 -114 l16 -98 l19 0 ZM266 -59 q-29 11 -92 565 l11 18 q10 11 22 11 l8 -1 l72 12 q35 3 74 12 q37 59 64 124 q27 65 54 122 q6 4 19 4 q12 -5 15 -14 l0 -15 q-53 -139 -97 -216 l17 0 q215 44 396 48 q6 -3 11.5 -11.5 q5.5 -8.5 9.5 -14.5 l0 -26 q-25 -148 -39.5 -297.5 q-14.5 -149.5 -52.5 -292.5 q-2 -2 -19 -2 q-5 3 -11.5 7 q-6.5 4 -6.5 19 l2 16 l-23 0 q-101 -10 -201 -13.5 q-100 -3.5 -205 -17.5 q0 -25 -7 -32 q-10 -4 -21 -5 Z" /><glyph glyph-name="uni2F6A" unicode="&#x2f6a;&#x76ae;" d="M300 335 q47 14 98 23 q51 9 104 22 q0 23 4 79 q3 14 3 51 l-3 83 l-16 0 q-46 -10 -94 -14 q-48 -4 -98 -14 q-10 -67 -29 -230 l31 0 ZM570 164 l7 7 q91 80 128 147 l26 66 l-39 0 q-71 -19 -245 -62 q32 -46 69 -88 q29 -36 54 -70 ZM275 -49 l-18 9 l-6 15 l10 17 q145 37 274 143 q-34 49 -69.5 89.5 q-35.5 40.5 -62.5 91.5 q-90 -23 -121 -28 l-19 4 q-36 -207 -137 -324 l-15 -7 l-17 10 q-3 3 -3 18 q96 125 121 281 q28 153 40 308 l-2 17 q1 3 6.5 8 q5.5 5 8.5 6 q58 8 115.5 13 q57.5 5 119.5 15 q0 37 -3 68 l0 76 l10 18 q5 3 19 3 q3 -1 8.5 -6 q5.5 -5 6.5 -8 q0 -83 3 -143 l32 0 q63 11 124 15.5 q61 4.5 122 13.5 l2 1 l30 -16 q4 -4 4 -8 l0 -14 q-29 -37 -50 -80.5 q-21 -43.5 -50 -76.5 l-15 -7 l-17 10 q-3 3 -3 18 q34 51 50 86 l22 39 l-245 -25 q0 -69 2 -133 l-5 -75 q116 36 186 36 q16 0 30 -1 q10 -3 15 -15 l2 -28 q-20 -70 -64 -130 q-44 -60 -116 -126 q81 -42 156.5 -80.5 q75.5 -38.5 156.5 -58.5 q2 -3 2 -22 q-4 -11 -14 -14 l-18 0 q-154 42 -317 148 q-135 -113 -291 -151 Z" /><glyph glyph-name="uni2F6C" unicode="&#x2f6c;&#x76ee;" d="M291 448 q95 8 201 26 q95 16 194 16 q0 88 4 119 q4 31 6 68 q-231 -13 -401 -49 l0 -106 l-4 -74 ZM295 233 l199 30 q108 13 196 20 l-2 164 q-88 0 -204 -18 q-105 -17 -193 -24 q0 -33 4 -53 l0 -119 ZM330 10 q35 7 72 9.5 q37 2.5 120 10.5 l33 -2 l101 2 l27 -2 l3 7 q1 65 4 129 l-2 24 l2 51 q-42 0 -193 -20 q-108 -13 -195 -36 l-2 -49 l8 -124 l22 0 ZM287 -65 l-10 0 l-12 6 l-6 11 l0 110 l-8 177 l0 114 q-3 20 -3 113 q3 56 3 183 l12 20 q5 4 20 4 l13 -2 q151 37 429 52 q3 -1 7.5 -6 q4.5 -5 5.5 -8 l3 -73 q-9 -35 -10 -72.5 q-1 -37.5 -1 -76.5 l4 -297 l-2 -23 l2 -39 q-2 -103 -6 -131 q-1 -12 -11 -23 q-7 -4 -20 -4 q-15 15 -41 15 l-99 0 q-193 -12 -249 -19 q0 -24 -21 -31 Z" /><glyph glyph-name="uni2F6F" unicode="&#x2f6f;&#x77f3;" d="M404 47 l86 10 q156 18 256 24 l0 11 q23 109 47 274 l-13 0 q-104 -19 -208.5 -32.5 q-104.5 -13.5 -214.5 -28.5 l0 -14 q14 -58 21 -117.5 q7 -59.5 18 -122.5 l8 -4 ZM372 -28 q-3 1 -7 5.5 q-4 4.5 -5 9.5 q-14 78 -24 159.5 q-10 81.5 -28 172.5 q-114 -106 -194 -143 l-18 9 q-4 6 -4 19 q4 8 21 20 q81 44 162 125 q83 116 143 278 q-41 0 -170 -18 l-143 -21 l-18 11 q-3 3 -3 19 q2 13 14 14 q207 27 412 54 q205 27 410 41 q10 -3 15 -14 l0 -14 q-4 -10 -15 -14 q-146 -9 -453 -48 q-25 -78 -57 -147 q-35 -69 -81 -143 q54 0 498 69 q8 -3 13 -14 q0 -29 -26 -176 q-16 -107 -44 -206 q-6 -4 -19 -4 q-6 1 -10 8.5 q-4 7.5 -13 13.5 q-82 -6 -162 -16 q-80 -10 -166 -18 l2 -11 q0 -7 -7 -17 q-7 -4 -23 -4 Z" /><glyph glyph-name="uni2F74" unicode="&#x2f74;&#x7acb;" d="M139 498 l-17 10 q-5 6 -5 19 q1 3 6 8.5 q5 5.5 9 6.5 q93 12 183.5 27.5 q90.5 15.5 191.5 22.5 q-22 54 -43.5 96 q-21.5 42 -31.5 84 q1 3 6 7.5 q5 4.5 8 5.5 l13 0 l16 -15 q16 -39 36.5 -79 q20.5 -40 28.5 -78 l-8 -13 l26 -3 l284 30 q2 -1 7.5 -6 q5.5 -5 6.5 -9 l0 -14 q-5 -10 -15 -14 q-176 -18 -353 -36.5 q-177 -18.5 -349 -49.5 ZM370 156 l-11 0 q-14 8 -22 22 q-14 72 -43.5 138.5 q-29.5 66.5 -41.5 136.5 q1 2 6 7.5 q5 5.5 9 6.5 l13 0 q13 -9 19 -20 q17 -71 46 -139 q29 -68 40 -139 l0 -2 q-8 -10 -15 -11 ZM103 -69 l-18 11 q-4 6 -4 19 q5 11 14 15 q269 46 442 59 q-13 13 -13 33 q70 96 100 209.5 q30 113.5 60 223.5 q6 4 20 4 q10 -3 14 -14 q0 -42 -55 -241 q-33 -112 -109 -213 l27 -3 l33 3 l297 0 q10 -8 11 -14 l0 -14 q-5 -11 -14 -13.5 q-9 -2.5 -294 -2.5 q-242 -7 -511 -62 Z" /><glyph glyph-name="uni2F79" unicode="&#x2f79;&#x7f51;" d="M214 67 q-3 1 -8 6.5 q-5 5.5 -7 14.5 q36 62 74 127 q38 65 64 141 q-93 112 -119 138 l0 12 q3 9 14 14 l15 0 q28 -18 51 -47.5 q23 -29.5 55 -64.5 q16 56 24 105.5 q8 49.5 20 89.5 q8 4 19 4 q11 -2 15 -14 q0 -77 -45 -235 q24 -40 48 -75.5 q24 -35.5 37 -74.5 q-1 -2 -7.5 -7 q-6.5 -5 -14.5 -7 l-18 9 q-15 19 -28.5 43.5 q-13.5 24.5 -35.5 53.5 q-34 -67 -63 -124 q-29 -57 -68 -105 q-7 -4 -22 -4 ZM504 51 l-17 10 l-4 15 q99 146 128 253 q-28 41 -54.5 81 q-26.5 40 -61.5 70 l-3 20 q7 13 15 14 l12 0 q58 -50 108 -131 q24 65 37.5 119 q13.5 54 31.5 104 q3 3 21 3 q11 -2 15 -14 q0 -16 -35 -138 q-19 -64 -35 -131 q20 -46 53 -83.5 q33 -37.5 40 -82.5 q-5 -12 -14 -15 l-14 0 q-13 6 -22 28 q-13 25 -29 45.5 q-16 20.5 -36 55.5 q-37 -109 -121 -216 l-15 -7 ZM815 -59 q-45 8 -89.5 32.5 q-44.5 24.5 -86.5 46.5 l-8 20 l10 17 q4 3 18 3 q19 -11 143 -72 l37 353 q14 173 27 352 l-26 0 q-173 -21 -347 -33.5 q-174 -12.5 -350 -37.5 q0 -153 24 -383 l0 -98 l6 -40 q0 -77 4 -119 q-4 -13 -13 -13 l-14 0 l-11 5 q-9 11 -9 44 l0 83 l-6 40 l0 98 q-22 220 -26 399 q1 6 5 13 q2 14 28 14 q190 25 378.5 40 q188.5 15 374.5 32 l23 -14 q3 -5 3 -42 q-16 -185 -30 -370 q-14 -185 -50 -364 l-15 -6 Z" /><glyph glyph-name="uni2F7B" unicode="&#x2f7b;&#x7fbd;" d="M694 412 l-11 0 q-31 32 -69 58.5 q-38 26.5 -67 59.5 l0 13 q2 7 15 14 l13 0 q33 -30 70 -54.5 q37 -24.5 64 -59.5 l0 -16 q-3 -12 -15 -15 ZM287 386 l-13 0 l-11 5 q-27 51 -132 122 q-1 2 -1 7 q-2 2 -2 14 q1 10 13 14 l15 0 q146 -103 146 -142 q0 -8 -6 -13.5 q-6 -5.5 -9 -6.5 ZM402 -31 q-39 12 -83 22.5 q-44 10.5 -79 29.5 q-4 5 -4 20 q0 2 5 7.5 q5 5.5 9 6.5 l17 0 q30 -11 63 -18 l70 -20 q0 73 -2 137 q2 92 6 126 q-91 -45 -168 -83.5 q-77 -38.5 -151 -68.5 q-10 4 -14 14 l0 13 l14 16 q253 126 320 156 l2 42 q0 289 3 312 l-21 0 q-68 -19 -137.5 -32.5 q-69.5 -13.5 -132.5 -32.5 l-18 10 q-5 6 -5 19 q1 3 6 8.5 q5 5.5 10 6.5 q82 18 164.5 38 q82.5 20 162.5 33 q7 -4 18 -21 q0 -16 -5 -52 l-2 -289 l-6 -123 q0 -90 -2 -180 l2 -81 q-4 -13 -16 -14 q-12 -1 -26 -2 ZM835 -48 l-4 1 q-49 23 -100.5 35.5 q-51.5 12.5 -97.5 30.5 l-6 15 l10 17 q6 4 19 4 q37 -14 79 -22 q39 -10 87 -25 l3 81 q0 140 2 220 q-81 -52 -155.5 -86 q-74.5 -34 -142.5 -67 q-12 4 -13 13 l0 13 l13 16 q73 46 150 80.5 q77 34.5 150 85.5 l4 42 l0 95 l8 176 q-54 0 -165 -20 q-30 -6 -145 -26 q-6 1 -13 14 l0 13 l16 17 q83 13 168 28 q85 15 170 22 q9 -2 13 -14 q0 -49 -9 -210 l0 -95 l-6 -73 q0 -232 -3 -312 q-2 -34 -15 -63 q-7 -6 -17 -6 Z" /><glyph glyph-name="uni2F7D" unicode="&#x2f7d;&#x800c;" d="M786 -51 l-56 20 q-28 9 -51 26 q-3 4 -3 20 q5 12 14 15 l14 0 l70 -29 q28 269 39 464 q-17 0 -42 -4 l-78 0 l-84 -9 q-7 -65 -9 -125.5 q-2 -60.5 -6 -123.5 l0 -92 q-3 -40 -3 -78 q0 -38 -10 -68 q-9 -5 -19 -5 l-15 12 l-2 36 l6 103 l0 92 l11 244 l-18 4 l-126 -6 l-6 -42 l3 -418 q-6 -14 -14 -15 l-14 0 q-12 2 -17 22 q0 409 2 450 q-75 0 -177 -29 l-2 -29 q16 -144 32 -416 q0 -2 -5 -7.5 q-5 -5.5 -9 -6.5 l-13 0 q-11 4 -15 14 l-15 224 l-19 222 l3 25 q3 26 30 26 l10 -5 q39 7 78.5 15 q39.5 8 79.5 11 q30 41 51 83.5 q21 42.5 46 93.5 l-29 3 q-81 -9 -162 -16 q-81 -7 -161 -19 l-14 17 q0 23 13 27 q339 44 794 58 q12 -5 15 -15 l0 -12 q-1 -5 -6.5 -9.5 q-5.5 -4.5 -8.5 -5.5 q-288 -12 -383 -19 q-27 -43 -45.5 -88.5 q-18.5 -45.5 -55.5 -90.5 l31 -3 q63 4 129 5.5 q66 1.5 129 9.5 l78 0 l64 7 q12 -6 25 -31 l0 -17 q-13 -129 -21.5 -257.5 q-8.5 -128.5 -36.5 -251.5 l-16 -6 Z" /><glyph glyph-name="uni2F83" unicode="&#x2f83;&#x81ea;" d="M313 410 q57 14 116 18 q59 4 118 8 q94 0 164 3 l13 -7 l0 175 q-115 -2 -219 -9 q-107 -10 -215 -36 l0 -152 l23 0 ZM308 225 q117 16 412 39 q0 73 3 131 q-91 0 -176 -2 q-144 -11 -257 -28 l-2 -45 l5 -95 l15 0 ZM315 24 q44 8 93 12 l170 0 l132 6 q0 15 4 25 q0 111 2 153 l-38 0 q-95 -11 -190 -17.5 q-95 -6.5 -193 -22.5 l0 -75 l8 -81 l12 0 ZM276 -49 q-8 1 -15 15 q-8 87 -9.5 175.5 q-1.5 88.5 -6.5 178.5 l2 238 q1 12 1 22.5 q0 10.5 6 15.5 q35 15 72 20.5 q37 5.5 79 13.5 q24 46 45 94 q21 48 42 91 q3 3 22 3 q3 -1 7.5 -6 q4.5 -5 5.5 -8 l0 -19 q-17 -34 -30 -68.5 q-13 -34.5 -37 -78.5 l21 0 q81 8 272 14 q0 -1 5 -3 q6 -6 11 -15 l0 -220 l-5 -77 l0 -82 l-7 -77 l0 -109 q-5 -25 -6 -53 q-1 -28 -12 -49 q-5 -5 -19 -5 l-14 12 l-3 25 q-30 0 -125 -7 l-170 0 q-67 -5 -100 -16 l-13 -22 q-6 -3 -19 -3 Z" /><glyph glyph-name="uni2F84" unicode="&#x2f84;&#x81f3;" d="M110 -65 l-18 10 q-3 5 -3 20 q1 3 5.5 8.5 q4.5 5.5 8.5 6.5 q92 13 186.5 15 q94.5 2 195.5 9 q-1 96 -4 192 l-12 0 q-65 -6 -134 -10 q-69 -4 -131 -19 l-18 10 q-3 6 -3 20 q1 3 6 8 q5 5 9 6 q67 16 136 20 l46 3 q48 2 101 6 l5 170 l-15 0 q-84 -11 -166 -20 q-82 -9 -165 -20 q-3 1 -7 6 q-4 5 -5 8 l0 13 l18 20 q29 6 60.5 7.5 q31.5 1.5 65.5 5.5 q25 59 62 113 q37 54 74 119 l-30 0 q-65 -9 -131 -13 q-66 -4 -127 -16 q-4 1 -8.5 5.5 q-4.5 4.5 -5.5 7.5 l0 14 l17 17 q182 24 368.5 36 q186.5 12 372.5 27 q12 -3 12 -27 q-1 -3 -6 -8 q-10 -14 -207 -23 q-99 -7 -204 -16 q-28 -62 -62.5 -113.5 q-34.5 -51.5 -76.5 -110.5 l18 -6 q98 14 195.5 26 q97.5 12 204.5 30 q-38 43 -77 66 q-39 23 -76 43 q-4 4 -4 18 l13 15 l23 2 q128 -64 253 -222 l0 -13 q0 -4 -4.5 -8 q-4.5 -4 -8.5 -5 l-17 0 q-15 10 -26.5 29 q-11.5 19 -33.5 36 l-12 0 q-59 -13 -118 -19 q-59 -6 -122 -17 l3 -24 l-7 -144 l36 0 q58 7 236 24 q11 -4 15 -14 l0 -13 q-5 -9 -17 -17 l-270 -23 q0 -65 5 -200 q48 0 204 10 q88 6 176 10 q12 -4 13 -14 l0 -15 q-1 -3 -5 -8 q-10 -9 -213 -17 q-102 -4 -204 -12 l-88 0 q-74 -7 -151 -9 q-77 -2 -151 -16 Z" /><glyph glyph-name="uni2F87" unicode="&#x2f87;&#x821b;" d="M335 314 l7 8 q23 69 41 136 q27 96 36 140 l-19 2 q-82 -8 -146 -39 q-15 -32 -20 -62 q-9 -31 -31 -67 q31 0 41 -12 q8 -7 91 -106 ZM618 244 q58 10 127 14 l0 203 l-4 79 q-35 -10 -64.5 -14.5 q-29.5 -4.5 -69.5 -16.5 q20 -15 20 -25 q-13 -90 -15 -119 q-4 -56 -11 -118 l17 -3 ZM151 -51 q-10 0 -14.5 5 q-4.5 5 -5 9.5 q-0.5 4.5 -1.5 6.5 l9 19 q99 72 152 204 q14 36 31 70 q-60 77 -104 121 l-20 23 q-23 -38 -36 -71 q-13 -33 -34 -60 q-8 -4 -20 -4 q-3 1 -8 5 q-5 4 -6 9 q-1 5 -2 7 q126 238 165 483 q11 6 18 6 q11 0 22 -19 l0 -11 q-12 -28 -16 -60.5 q-4 -32.5 -13 -70.5 l15 0 q77 23 157 23 q24 0 27 -13 l0 -18 q-38 -174 -96 -345.5 q-58 -171.5 -184 -298.5 q-8 -6 -16 -13 q-8 -7 -20 -7 ZM764 -74 l-16 8 l-7 18 l6 22 l0 239 q-64 0 -162 -17 l-134 -26 q-16 15 -16 16 l0 13 l14 17 q27 6 57 9.5 q30 3.5 64 12.5 l-12 27 q8 58 11 117.5 q3 59.5 21 123.5 l-33 3 l-33 -9 l-18 10 q-4 5 -4 18 l15 16 q37 7 93 15 q73 9 131 25 l-1 160 q2 10 4 19.5 q2 9.5 9 14.5 q7 5 21 5 q3 -1 8 -5.5 q5 -4.5 6 -7.5 l0 -20 l-4 -8 q0 -119 3 -148 l65 7 q14 -4 15 -12 l0 -16 q-1 -3 -5.5 -7.5 q-4.5 -4.5 -9.5 -5.5 l-64 -9 l2 -291 q38 -2 70 -2 q32 0 59 -11 q3 -6 3 -20 q-1 -3 -5.5 -8 q-4.5 -5 -7.5 -6 l-42 -2 l-76 4 l0 -239 q-3 -10 -3 -23 q0 -13 -7 -21 l-17 -6 Z" /><glyph glyph-name="uni2F8A" unicode="&#x2f8a;&#x8272;" d="M545 276 q46 3 92 8.5 q46 5.5 96 7.5 q13 54 26.5 100.5 q13.5 46.5 27.5 105.5 l-252 -31 q0 -101 -3 -191 l13 0 ZM270 246 q62 12 112 16.5 q50 4.5 105 8.5 l0 47 q3 48 3 148 q-170 -19 -222 -27 l2 -193 ZM838 -55 l-141 0 q-118 7 -235.5 13 q-117.5 6 -221.5 58 l-14 28 l0 349 q-2 14 -2 30 q0 16 -4 28 l8 17 q57 13 122 19 q65 6 131 16 q86 89 127 168 l-13 5 q-74 -19 -147.5 -32 q-73.5 -13 -147.5 -34 q-53 -79 -164 -172 l-14 -14 q-11 -16 -27 -16 q-7 0 -13.5 6.5 q-6.5 6.5 -8.5 16.5 q8 18 16 25 q166 127 210 250 l32 77 q8 4 20 4 q12 -4 13 -13 l0 -18 l-30 -89 q15 0 181 35 q81 17 163 27 q13 -5 13 -27 q-37 -41 -68 -90 q-31 -49 -93 -103 l289 35 q4 -1 16 -20 l0 -22 q-15 -63 -34 -125 q-17 -63 -36 -120 q-119 -18 -243 -26 q-124 -8 -252 -28 l0 -152 q104 -46 213 -51 q109 -2 214 -11 l129 0 q21 42 29.5 82.5 q8.5 40.5 23.5 81.5 q4 4 16 4 q12 0 17 -5 q5 -7 5 -23 q-14 -45 -25 -92.5 q-11 -47.5 -38 -84.5 l-16 -7 Z" /><glyph glyph-name="uni2F8D" unicode="&#x2f8d;&#x866b;" d="M516 332 q57 7 104 11 q47 4 98 11 q24 94 66 215 q-38 0 -140 -15 q-60 -10 -125 -19 q0 -180 -3 -203 ZM292 296 q43 9 88.5 13 q45.5 4 93.5 17 l1 204 l-16 0 q-53 -7 -108 -10 q-55 -3 -113 -14 l0 -11 q15 -46 22 -96 q5 -34 12 -68 l6 -35 l14 0 ZM880 -57 q-5 2 -20 13 q-21 55 -89 144 q-155 -64 -317 -84.5 q-162 -20.5 -321 -40.5 l-18 11 q-3 6 -3 20 q1 3 6 7.5 q5 4.5 8 5.5 q144 23 341 39 q0 111 4 221 q-4 0 -217 -31 q-4 1 -6.5 5 q-2.5 4 -5 7 q-2.5 3 -3.5 6 q-30 188 -54 274 q1 3 6 7 q5 4 8 5 l51 -1 q55 9 110.5 12.5 q55.5 3.5 114.5 11.5 l0 83 l-6 94 q2 8 3.5 17 q1.5 9 8.5 11.5 q7 2.5 17 2.5 q14 -8 17 -17 l-1 -56 q5 -52 5 -129 q39 0 151 20 q66 10 131 14 l25 -17 q4 -3 4 -26 q-41 -148 -85 -261 l-15 -7 l-13 4 l-202 -23 q-3 -107 -3 -215 q65 11 117 29.5 q52 18.5 114 32.5 q-20 35 -40 56 q-19 19 -19 46 q0 2 1 3 q6 9 12 10 l13 0 q116 -135 167 -225 q9 -17 18 -32.5 q9 -15.5 9 -30.5 q-2 -12 -24 -16 Z" /><glyph glyph-name="uni2F8E" unicode="&#x2f8e;&#x8840;" d="M600 124 l143 6 q24 98 39 188.5 q15 90.5 34 188.5 l-46 0 q-81 -12 -139 -16 q-14 -248 -31 -367 ZM454 113 q25 2 50.5 3.5 q25.5 1.5 55.5 9.5 l-3 15 q19 111 29 342 q-15 0 -95 -12 q-40 -7 -86 -13 l0 -24 q8 -55 10.5 -111 q2.5 -56 7.5 -109 q0 -78 3 -101 l28 0 ZM281 99 q42 8 100 8 q0 27 -3 107 q-5 55 -7 114 q-2 59 -9 118 l-15 7 q-38 -7 -75.5 -11 q-37.5 -4 -76.5 -11 q0 -42 32 -170 l33 -162 l21 0 ZM85 28 l-19 11 q-2 2 -2 4 q0 2 -1 4 l-1 11 q5 12 15 15 l141 19 q-20 96 -39.5 183.5 q-19.5 87.5 -31.5 174.5 l10 18 q137 22 194 27 q43 138 126 277 q4 4 21 4 q10 -5 15 -15 l0 -14 q-54 -89 -116 -244 l22 0 q107 17 215 32 q108 15 216 17 q3 -1 8 -5 q5 -4 6 -7 l0 -21 q-18 -97 -35 -191 q-17 -94 -38 -196 l127 3 q12 -6 14.5 -11 q2.5 -5 3.5 -5 l0 -13 q-5 -13 -26 -17 l-58 2 q-475 -15 -767 -63 Z" /><glyph glyph-name="uni2F8F" unicode="&#x2f8f;&#x884c;" d="M480 611 l-19 9 q-6 10 -6 19 q0 5 7 13 q3 5 8 6 q97 14 194.5 29.5 q97.5 15.5 192.5 25.5 q13 -4 13 -13 l0 -15 q0 -3 -5 -7 q-4 -5 -9 -6 q-267 -40 -376 -61 ZM137 524 l-18 11 q-4 5 -4 19 l7 11 q101 75 178 180 l9 12 q7 4 21 4 q8 -1 14 -13 l0 -15 q-27 -42 -63 -82 q-111 -118 -144 -127 ZM740 -65 q-48 18 -99.5 35 q-51.5 17 -93.5 44 q-4 7 -4 21 q2 10 14 14 l15 0 q35 -15 71.5 -31.5 q36.5 -16.5 82.5 -25.5 l0 322 l-4 87 l-21 0 q-69 -11 -138 -21 q-69 -10 -135 -21 l-19 10 q-3 3 -3 20 q1 3 5 7.5 q4 4.5 8 5.5 q130 22 259.5 38.5 q129.5 16.5 258.5 36.5 q12 -3 13 -13 l0 -14 q-3 -8 -17 -16 q-39 -1 -79.5 -10.5 q-40.5 -9.5 -85.5 -17.5 l-2 -26 l4 -66 l0 -358 q-11 -19 -17.5 -20 q-6.5 -1 -12.5 -1 ZM276 -69 l-14 0 l-16 14 l-1 3 q0 235 6 411 q-70 -78 -144 -119 l-13 0 q-11 4 -15 23 l11 18 q6 5 15 10 q92 59 165 169 q41 62 83 116 l10 0 q12 -5 15 -14 l0 -18 q-20 -35 -94 -143 q11 -15 11 -31 q-2 -69 -5 -126 q0 -150 -1 -298 q-1 -4 -6.5 -9.5 q-5.5 -5.5 -6.5 -5.5 Z" /><glyph glyph-name="uni2F92" unicode="&#x2f92;&#x898b;" d="M345 576 l79 11 q139 19 233 26 l19 -15 l7 10 l0 115 q-86 0 -193 -15 l-147 -24 q-8 -18 -9 -36 q-1 -18 -3 -36 l2 -36 l12 0 ZM358 445 q79 17 159 21.5 q80 4.5 166 8.5 l1 114 l-27 -18 q-178 -20 -322 -42 l-2 -84 l25 0 ZM355 273 q177 25 318 35 l10 -6 l8 4 q0 13 -4 32 q0 76 -3 97 q-92 -10 -176 -14.5 q-84 -4.5 -173 -20.5 q0 -34 10 -127 l10 0 ZM855 -98 q-78 6 -157.5 16 q-79.5 10 -143.5 53 q-20 25 -20 64 q0 5 4 21 q0 115 -2 151 l8 44 l-98 -9 q-18 -74 -64.5 -129.5 q-46.5 -55.5 -96.5 -107.5 q-37 -30 -77 -56 q-40 -26 -86 -35 q-4 1 -8.5 6 q-4.5 5 -5.5 8 l0 14 q3 10 13 15 q10 5 22 11 q41 18 79 44 q38 26 69.5 61.5 q31.5 35.5 61 70.5 q29.5 35 45.5 89 q-50 0 -88 -9 l-66 -13 l-6 7 q-6 5 -7 8 l0 12 l13 17 l52 13 l3 12 q-4 21 -4 43.5 q0 22.5 -4 43.5 q0 121 -2 243 q0 77 24 111 q157 33 325 47 l76 0 q9 -4 14 -14 q0 -80 -2 -160 l2 -96 l-2 -23 l5 -61 l0 -77 q2 -26 5.5 -51 q3.5 -25 5.5 -49 q-5 -13 -24 -16 l-16 10 l-7 16 l2 8 l-7 26 q-23 -22 -45.5 -22 q-22.5 0 -50.5 -4 q-5 -22 -11 -40 q-4 -12 -4 -25 q0 -9 2 -18 l2 -115 l-4 -41 l12 -18 q67 -35 142 -41 q70 -7 136 -10 l15 -2 q1 58 2.5 109 q1.5 51 14.5 98 q5 3 18 3 q6 -3 10 -6.5 q4 -3.5 8 -11.5 q0 -15 -8 -185 l2 -23 q-7 -11 -15 -17 q-3 -1 -5 -3 q-26 -7 -56 -7 Z" /><glyph glyph-name="uni2F93" unicode="&#x2f93;&#x89d2;" d="M764 -90 q-32 19 -63.5 40 q-31.5 21 -61.5 38 l-1 5 l-18 11 q-3 4 -3 20 q1 3 5.5 8 q4.5 5 8.5 5 l14 0 q20 -14 43.5 -26.5 q23.5 -12.5 53.5 -35.5 q0 50 -6 143 l2 77 l-18 0 q-102 -27 -187 -32 q-1 -20 -1 -113 l-5 -36 l0 -88 q-5 -13 -13 -14 l-15 0 q-3 1 -8 6 q-5 5 -6 9.5 q-1 4.5 -1 86.5 l3 36 q0 90 2 106 q-70 -10 -131.5 -18 q-61.5 -8 -116.5 -39 q-43 -91 -101 -170 q-4 -3 -9 -3 q-24 0 -27 14 l0 13 l7 17 q6 12 17 16 q79 112 111.5 241.5 q32.5 129.5 47.5 252.5 q46 20 100 30 l112 16 q16 46 48.5 83 q32.5 37 65.5 91 q-174 -47 -267 -80 q-42 -62 -94.5 -117 q-52.5 -55 -102.5 -105 l-16 0 q-3 1 -8 5.5 q-5 4.5 -6 7.5 l0 13 q141 138 293 363 l12 0 q11 -3 14 -14 l0 -13 l-43 -72 q19 0 159 42 q67 21 136 28 q14 -4 15 -13 l0 -14 q-35 -41 -75 -87 q-40 -46 -75 -105 l19 0 q105 16 196 47 q3 -1 7.5 -6.5 q4.5 -5.5 5.5 -8.5 q0 -102 3 -205 l-5 -121 l2 -126 l-2 -24 q5 -39 6.5 -82 q1.5 -43 5.5 -83 l-10 -16 q-6 -4 -19 -4 ZM569 206 q67 16 167 34 q0 56 2 113 l-14 0 q-48 -10 -181 -29 l-6 -118 l32 0 ZM323 332 q41 12 84 19 l90 10 l0 121 l-14 0 q-39 -9 -79 -16 q-40 -7 -83 -18 q0 -27 -15 -116 l17 0 ZM559 371 l11 1 q113 15 170 30 q0 76 -2 123 l-12 0 q-93 -24 -179 -38 l-6 -14 l0 -102 l18 0 ZM270 166 q137 25 220 32 l7 119 q-26 0 -109 -15 q-46 -8 -92 -27 l-26 -109 Z" /><glyph glyph-name="uni2F94" unicode="&#x2f94;&#x8a00;" d="M675 676 q-91 26 -186 39.5 q-95 13.5 -186 30.5 q-3 5 -3 18 q1 5 6.5 9.5 q5.5 4.5 8.5 5.5 q69 0 211 -24 q87 -15 167 -45 q4 -4 4 -19 q-1 -3 -8 -9 q-7 -6 -14 -6 ZM145 511 l-18 12 q-3 3 -3 18 q8 25 364 51 q175 12 351 27 q10 -5 15 -15 l0 -12 l-7 -9 q-11 -12 -355 -36 q-175 -13 -347 -36 ZM290 388 l-18 10 q-4 7 -4 19 q1 5 5.5 9.5 q4.5 4.5 9.5 5.5 q106 14 213 21 q107 7 212 19 q3 0 7.5 -5.5 q4.5 -5.5 5.5 -8.5 l0 -15 q0 -3 -5 -7.5 q-5 -4.5 -9 -5.5 q-105 -14 -209.5 -20.5 q-104.5 -6.5 -207.5 -21.5 ZM297 263 q-11 5 -14 15 l0 12 l12 16 q72 9 415 38 q2 -1 7 -5.5 q5 -4.5 6 -7.5 l0 -15 q-1 -3 -5 -7 q-11 -11 -215 -26 l-206 -20 ZM331 -13 q93 10 179 16 l176 20 l33 154 l-14 0 q-102 -15 -203.5 -23.5 q-101.5 -8.5 -207.5 -22.5 l0 -13 q13 -32 18 -64 q5 -32 19 -67 ZM308 -64 l-11 7 q-26 70 -52 209 q2 9 15 13 q120 25 246 33.5 q126 8.5 248 24.5 q12 -4 14 -15 l0 -12 q-13 -59 -25 -118 q-12 -59 -28 -112 q-5 -4 -19 -4 l-16 15 q-96 -8 -189 -16 q-93 -8 -183 -25 Z" /><glyph glyph-name="uni2F9B" unicode="&#x2f9b;&#x8d70;" d="M848 -59 l-13 0 q-321 0 -550 198 q-39 -55 -77 -102.5 q-38 -47.5 -86 -80.5 l-9 -2 l-19 12 q-3 2 -3 17 q84 68 147 168 q20 51 28.5 106 q8.5 55 33.5 99 q5 4 19 4 q13 -8 15 -14 l0 -17 q-15 -29 -21 -64 q-6 -35 -15 -68 q35 -49 84.5 -75.5 q49.5 -26.5 94.5 -58.5 l27 -9 q0 100 -3 119 q0 184 -14 248 q-39 -5 -73 -6.5 q-34 -1.5 -69 -5.5 l-78 0 l-159 -19 q-3 0 -6.5 1.5 q-3.5 1.5 -6.5 1.5 q-12 3 -12 28 q4 11 14 14 q16 0 27 -2 q35 8 71.5 11 q36.5 3 71.5 9 l76 0 q39 5 76 6.5 q37 1.5 81 6.5 q-10 46 -10 125 l2 38 l-42 0 q-86 -9 -118 -11 q-60 -8 -114 -19 q-10 2 -20 12 q-2 3 -2 21 q1 3 5 7.5 q4 4.5 8 5.5 q168 26 281 28 l0 114 l11 19 q4 5 20 5 q14 -9 18 -17 l0 -12 l-4 -6 l0 -97 q22 0 140 13 q62 7 123 9 q4 -1 9 -6.5 q5 -5.5 6 -8.5 l0 -14 q-1 -3 -6 -8.5 q-5 -5.5 -9 -6.5 l-261 -22 l-2 -89 l7 -77 q99 6 192.5 10 q93.5 4 181.5 13 q4 -1 9 -6.5 q5 -5.5 6 -8.5 l0 -14 q-1 -8 -16 -15 q-92 -8 -185.5 -12 q-93.5 -4 -195.5 -13 q9 -58 9 -169 l15 0 q163 15 261 15 q13 -2 13 -28 q-4 -10 -14 -14 q-67 -2 -133.5 -8 q-66.5 -6 -139.5 -10 l0 -36 q3 -19 3 -141 q101 -35 273 -45 q83 0 99 2 q12 -7 17 -17 l0 -13 q-3 -9 -15 -14 l-74 -4 Z" /><glyph glyph-name="uni2F9C" unicode="&#x2f9c;&#x8db3;" d="M308 471 q99 11 199.5 20.5 q100.5 9.5 205.5 21.5 q18 104 32 212 q-118 0 -262 -19 l-211 -33 l0 -18 q4 -22 6.5 -44.5 q2.5 -22.5 6.5 -44.5 q6 -45 11 -95 l12 0 ZM912 -49 l-119 0 q-297 23 -519 213 q-46 -113 -135 -202 q-4 -3 -8 -5 q-4 -2 -7 -3.5 q-3 -1.5 -7 -1.5 q-17 0 -23 15 l0 12 q85 83 134 183 q13 38 28 90 q19 65 42 111 q6 4 20 4 q10 -2 14 -13 l0 -18 q-20 -47 -42 -118 q32 -40 92 -80 q26 -13 52.5 -29.5 q26.5 -16.5 61.5 -36.5 l5 47 q0 138 -2 248 l7 78 q-87 0 -237 -25 q-3 1 -8 7 q-5 4 -6 8 q-5 67 -14.5 133 q-9.5 66 -14.5 131 q1 5 5.5 9 q4.5 4 9.5 5 q134 22 268 39.5 q134 17.5 271 19.5 q3 -1 8 -6.5 q5 -5.5 6 -8.5 l0 -27 q-13 -69 -23 -139.5 q-10 -70.5 -34 -133.5 q-6 -4 -18 -4 q-17 14 -36 14 l-134 -15 l-6 -85 l0 -93 l28 0 q64 19 130 26 q66 7 130 12 q13 -3 13 -30 q-1 -4 -19 -14 q-117 -7 -280 -38 l0 -117 l-6 -60 q67 -22 128 -38.5 q61 -16.5 126 -19.5 l127 0 q4 -1 9 -6 q5 -5 6 -8 l0 -14 q-1 -3 -6 -8 q-5 -5 -9 -6 q-4 -1 -8 -2 Z" /><glyph glyph-name="uni2F9D" unicode="&#x2f9d;&#x8eab;" d="M378 550 q45 5 111 16 q86 13 157 15 l0 67 l-148 -7 q-67 -4 -136 -21 l-2 -61 l4 -9 l14 0 ZM364 425 q77 14 143.5 19.5 q66.5 5.5 137.5 10.5 l1 81 q-103 -3 -282 -32 l0 -79 ZM376 269 q66 4 175 19 q64 8 84 14 l5 4 l4 106 l-14 0 q-67 -7 -132 -12 q-65 -5 -134 -24 l-4 -107 l16 0 ZM628 -90 q-38 6 -72.5 25 q-34.5 19 -70.5 38 l-6 21 l10 18 q7 4 18 4 q64 -49 128 -60 q3 30 3 112 l-2 159 q-216 -157 -495 -237 l-17 10 q-5 8 -5 18 l7 11 q109 36 220.5 81.5 q111.5 45.5 217.5 126.5 l-23 5 q-103 -9 -203 -20.5 q-100 -11.5 -197 -35.5 l-17 11 q-5 9 -5 19 q1 4 6 9 q5 5 8 5 q47 4 90 16 q43 12 94 16 l4 91 l0 175 l-4 73 q2 35 19 56 q15 6 35.5 8.5 q20.5 2.5 39.5 10.5 q31 37 52 79.5 q21 42.5 50 72.5 l18 0 q12 -3 15 -15 l0 -14 q-20 -22 -35.5 -51 q-15.5 -29 -37.5 -66 l202 12 l1 -2 q12 -6 17 -17 q0 -124 -8 -355 q66 39 113 83.5 q47 44.5 99 71.5 q13 -4 13 -26 q-49 -54 -107 -99 q-58 -45 -120 -92 l-4 -39 q0 -149 2 -233 q-3 -49 -15 -70 q-11 -6 -38 -6 Z" /><glyph glyph-name="uni2FA5" unicode="&#x2fa5;&#x91cc;" d="M537 542 q41 4 82.5 9.5 q41.5 5.5 81.5 7.5 l16 -11 l5 6 l31 141 l-19 3 q-50 -5 -104 -8 q-54 -3 -110 -10 q0 -124 3 -138 l14 0 ZM283 503 q48 10 96 15.5 q48 5.5 104 16.5 l-6 20 l0 121 q-23 0 -79 -11 q-130 -22 -160 -24 l0 -17 q7 -29 11 -58 q4 -29 10 -63 l24 0 ZM539 349 l41 6 q54 7 109 18 l0 11 q14 38 21 82 l10 56 q-55 -9 -99.5 -13.5 q-44.5 -4.5 -94.5 -11.5 q-2 -38 -2 -148 l15 0 ZM317 315 l164 27 q0 117 3 146 q-144 -17 -212 -30 q0 -25 19 -106 l7 -37 l19 0 ZM109 -86 l-19 10 q-3 7 -3 20 q5 13 14 14 q95 11 188.5 23 q93.5 12 192.5 17 q4 30 4 152 q-75 -11 -143.5 -18 q-68.5 -7 -130.5 -17 q-5 4 -11 10 q-6 6 -6 20 q4 11 13 13 l275 37 l2 28 l-4 73 l-19 0 q-45 -8 -90 -14 q-45 -6 -88 -16 l-18 9 q-3 7 -3 20 l2 7 q-44 139 -75 365 l11 18 q5 3 19 3 q5 -4 33 -4 q203 41 531 61 l7 -5 q6 -12 8 -32 q-20 -104 -38 -208 q-18 -104 -50 -202 q-5 -3 -20 -3 q-9 1 -16 26 l-16 3 q-32 -7 -65 -10.5 q-33 -3.5 -70 -10.5 q0 -18 8 -105 q67 10 129.5 14.5 q62.5 4.5 121.5 10.5 q10 -5 16 -17 l0 -12 q-1 -5 -6 -10.5 q-5 -5.5 -132 -14.5 q-64 -5 -130 -12 q0 -135 -3 -155 l17 0 q53 5 106 6 q53 1 107 6 l99 0 l44 5 q8 -5 16 -17 l0 -11 q-8 -14 -14 -16 l-46 -5 q-198 0 -426 -20 q-163 -13 -322 -36 Z" /><glyph glyph-name="uni2FA6" unicode="&#x2fa6;&#x91d1;" d="M86 395 l-6 8 q-7 3 -7.5 7 q-0.5 4 -1.5 8 q2 8 14 19 q69 34 138 73 q69 36 124 93 q73 82 137 196 q7 6 18 6 l3 -1 q121 -151 352 -291 q16 -8 34.5 -12.5 q18.5 -4.5 31.5 -12.5 q4 -8 4 -21 q-2 -11 -25 -16 q-103 36 -193 107 q-130 99 -208 183 q-46 -86 -135 -181 q-108 -101 -280 -165 ZM645 48 q-6 0 -13 14 l0 13 q30 40 45.5 89 q15.5 49 42.5 90 q3 4 7 4 q24 0 27 -15 l0 -13 q-23 -44 -38.5 -92 q-15.5 -48 -49.5 -87 q-5 -3 -21 -3 ZM342 31 l-12 0 l-10 7 q-53 98 -74 158 l9 17 q8 4 20 4 q8 -3 13.5 -12.5 q5.5 -9.5 11.5 -19.5 q13 -35 31.5 -68 q18.5 -33 26.5 -68 q-8 -16 -16 -18 ZM152 -76 l-19 10 q-3 5 -3 20 q0 9 14 13 q192 25 336 28 l0 86 q-3 92 -4 191 q-87 -5 -163 -14 l-150 -23 l-19 10 q-4 6 -4 20 q2 6 16 14 q75 9 154 21 q79 12 164 15 l0 127 l-31 0 q-32 -8 -102 -14 l-33 -4 l-18 10 l-4 20 q5 12 14 15 q94 6 189.5 19.5 q95.5 13.5 188.5 20.5 q9 -4 13 -14 l0 -14 q-1 -3 -6 -8.5 q-5 -5.5 -7 -5.5 q-112 -13 -161 -21 l0 -124 q24 0 176 19 q81 10 161 15 q9 -1 14 -14 l0 -14 q-4 -12 -15 -13 l-334 -37 q0 -140 4 -281 q104 0 215 13 l78 0 l57 6 q10 -5 14 -14 l0 -15 q-3 -11 -14 -15 l-57 -5 l-78 0 q-53 -7 -106.5 -9.5 q-53.5 -2.5 -108.5 -6.5 l-88 0 q-176 -14 -283 -27 Z" /><glyph glyph-name="uni2FAE" unicode="&#x2fae;&#x975e;" d="M615 -64 l-13 0 l-14 15 l-3 81 l5 47 l0 154 l-9 145 q0 189 -1 272 l-6 65 q0 17 1.5 33 q1.5 16 12.5 29 q7 4 21 4 q9 -1 14 -15 l0 -20 q-5 -12 -5 -26 q0 -28 8 -101 q19 0 138 21 q62 10 124 14 q11 -5 15 -15 l0 -13 q-1 -4 -6.5 -9 q-5.5 -5 -8.5 -6 q-76 -7 -262 -39 l0 -155 q63 9 115.5 17.5 q52.5 8.5 101.5 14.5 q11 -4 15 -14 l0 -15 q-1 -4 -6.5 -8 q-5.5 -4 -12.5 -7 q-52 -9 -104 -15 q-52 -6 -107 -21 q0 -41 5 -152 l281 13 q16 -10 17 -15 l0 -14 q-2 -13 -25 -17 l-146 -5 q-80 -4 -127 -12 l0 -88 q-3 -51 -3 -128 q-1 -3 -6 -8.5 q-5 -5.5 -9 -6.5 ZM402 -61 l-12 0 l-14 15 l-1 82 l7 46 l3 117 l-82 -25 q-42 -8 -82 -19 l-138 -31 l-16 13 q-1 3 -1 7 q0 9 6 21 q7 4 141 35 q67 14 129 35 l44 5 l-4 145 q-145 -28 -199 -44 l-18 10 q-4 8 -4 19 q1 5 6 10 q11 10 216 52 l4 131 q-185 -30 -252 -44 q-4 1 -11 5 q-14 0 -14 27 q6 6 7 8 q5 6 139 27 q63 9 132 25 l1 43 l-4 65 q0 17 2 33 q4 32 34 32 q9 -2 14 -16 l-1 -20 q-5 -12 -5 -36 q0 -29 4 -85 l-1 -58 q-4 -155 -4 -235 l1 -109 l-4 -144 q-5 -51 -7 -128 q0 -3 -6 -8 q-6 -5 -10 -6 Z" /><glyph glyph-name="uni2FAF" unicode="&#x2faf;&#x9762;" d="M411 331 l178 13 l6 -4 l8 4 l7 145 l-20 0 q-44 -5 -88 -7 q-50 -3 -105 -11 q0 -26 4 -46 l0 -87 l10 -7 ZM408 179 l189 27 q0 30 4 99 q-59 -7 -198 -20 q0 -52 5 -106 ZM730 19 l66 10 q16 237 31 476 l-52 0 q-27 -3 -57.5 -4.5 q-30.5 -1.5 -62.5 -6.5 l-14 -258 l0 -112 l-9 -105 l98 0 ZM432 8 l39 8 q105 0 119 3 q0 15 7 143 l-12 0 q-43 -10 -86.5 -14 q-43.5 -4 -91.5 -11 q0 -16 6 -129 l19 0 ZM233 -12 q60 14 136 18 l0 56 q-3 22 -3 44 q0 22 -4 43 q0 248 -10 319 q-18 0 -175 -22 l0 -16 q15 -110 24.5 -219 q9.5 -109 31.5 -223 ZM208 -61 l-17 16 q-21 126 -33.5 254.5 q-12.5 128.5 -27.5 253.5 l10 19 q167 33 269 34 q26 65 72 144 q-104 -6 -197 -10.5 q-93 -4.5 -181 -28.5 l-17 10 q-4 7 -4 19 l5 11 q191 38 394 45 q203 7 401 29 q11 -3 14 -15 q0 -25 -15 -27 q-84 -5 -168.5 -16 q-84.5 -11 -175.5 -13 l-13 -25 q-17 -23 -30 -50 q-13 -27 -31 -62 l35 -3 q205 23 349 26 q18 -8 23 -25 l0 -52 q-12 -132 -17.5 -263.5 q-5.5 -131.5 -30.5 -256.5 l-15 -5 l-16 8 l-8 23 l-38 0 l-16 -4 l-117 0 q-37 -3 -142 -3 q-67 -8 -134 -13 q-67 -5 -128 -20 Z" /><glyph glyph-name="uni2FB3" unicode="&#x2fb3;&#x97f3;" d="M395 477 l89 16 q20 3 51 11 q36 36 54.5 82.5 q18.5 46.5 32.5 98.5 q-90 0 -242 -27 l0 -42 q5 -29 7.5 -65 q2.5 -36 7.5 -74 ZM108 375 l-18 10 q-3 7 -3 19 q3 14 14 15 q60 21 121 31.5 q61 10.5 130 23.5 q-13 98 -16 180 q-39 0 -112 -16 l-18 9 q-3 5 -3 20 q1 3 5.5 8 q4.5 5 9.5 6 q61 13 126.5 18 q65.5 5 136.5 23 l-38 92 l9 17 q4 4 21 4 q7 -5 11.5 -9 q4.5 -4 41.5 -98 l18 -3 q56 2 111 8 q55 6 111 7 q3 -1 8 -5.5 q5 -4.5 6 -8.5 l0 -13 q-5 -11 -14 -15 l-102 -7 q-4 -51 -22 -93 q-11 -30 -43 -92 l31 -3 l30 4 q107 0 212 5 q10 -3 14 -14 l0 -14 q-4 -9 -15 -14 q-31 -3 -63.5 -3 q-32.5 0 -66.5 -4 l-81 0 l-30 -4 l-80 0 q-98 -15 -217.5 -31 q-119.5 -16 -224.5 -53 ZM371 160 q199 32 303 35 q0 19 11 120 l-27 3 q-74 0 -145.5 -11.5 q-71.5 -11.5 -148.5 -19.5 l-2 -51 l9 -76 ZM386 -22 l149 17 q112 0 129 -3 q0 51 8 160 q-54 0 -164 -16 l-134 -20 l0 -138 l12 0 ZM347 -70 l-18 19 q0 16 2 33 l-2 137 l-10 117 q2 16 2 32 l-1 25 q0 44 34 44 l13 -6 q82 10 159 21 q78 9 159 9 q44 -4 44 -29 l0 -18 q-11 -95 -15 -192 q-4 -97 -18 -188 q-8 -3 -20 -3 q-9 1 -16 21 l-16 -3 l-109 2 q-121 -17 -188 -21 Z" /><glyph glyph-name="uni2FB7" unicode="&#x2fb7;&#x98df;" d="M92 474 l-17 11 q-4 3 -4 21 l18 17 q182 68 301 183 q33 32 63 81 q16 26 24 28 l15 0 q26 -18 30 -27 q0 -23 18 -38 q73 -79 193 -154 q86 -56 187 -75 q2 -3 2 -21 q-1 -3 -5 -8 q-4 -5 -8.5 -6 q-4.5 -1 -8.5 -2 q-117 19 -212 88.5 q-95 69.5 -182 146.5 l-24 32 q-56 -83 -128.5 -136 q-72.5 -53 -191.5 -113 q-35 -19 -70 -28 ZM356 376 q73 11 146 16.5 q73 5.5 149 18.5 l13 72 l-39 0 q-71 -10 -139.5 -17 q-68.5 -7 -141.5 -20 l-3 -54 l4 -16 l11 0 ZM350 245 q75 16 143 23 q68 7 139 23 q8 19 9 34 q1 15 5 39 q-75 -9 -140 -15 q-77 -7 -158 -21 l-2 -69 l4 -14 ZM920 -90 l-17 0 q-97 25 -182 78 q-85 53 -163 117 q-51 46 -70 119 l-139 -23 q-3 -23 -3 -100 l-8 -78 q49 8 83 23.5 q34 15.5 69 28.5 q3 -1 7.5 -6.5 q4.5 -5.5 5.5 -8.5 l0 -15 q-7 -11 -21.5 -18.5 q-14.5 -7.5 -30.5 -17.5 q-75 -24 -149 -47.5 q-74 -23.5 -149 -33.5 l-12 8 q-5 9 -5 21 q4 10 16 14 q36 8 72 15.5 q36 7.5 76 24.5 q-5 16 -5 53 l6 37 q0 78 2 156 q-2 90 -6 179 q3 28 10 38 q38 23 87 26 q49 3 104 14 q-39 78 -50 119 q4 11 13 12 l14 0 q11 -6 18 -16 q7 -15 16 -29 q5 -16 11 -33 q6 -17 6 -36 l-7 -17 l16 0 q98 12 165 12 q10 -4 14 -14 l0 -24 q-19 -57 -23 -121 q-7 -61 -31 -114 q-27 -11 -58.5 -15.5 q-31.5 -4.5 -68.5 -12.5 q13 -33 29 -58 l40 -46 l47 -28 l14 18 q53 35 107.5 74 q54.5 39 108.5 64 q13 -2 13 -25 q-44 -42 -99 -77 q-55 -35 -112 -79 q63 -50 127 -74 l123 -51 q4 -4 4 -18 q-1 -4 -6.5 -9 q-5.5 -5 -8.5 -6 Z" /><glyph glyph-name="uni2FB8" unicode="&#x2fb8;&#x9996;" d="M323 290 l74 4 q149 19 274 21 q0 42 -4 78 l2 41 l-109 2 q-126 -12 -235 -42 l-2 -104 ZM323 127 q158 21 342 30 q6 38 6 115 q-67 0 -194 -14 q-71 -8 -154 -12 l0 -119 ZM344 -37 l65 10 l101 0 l151 8 l0 83 l7 52 l-348 -29 l0 -124 l24 0 ZM674 -102 q-4 1 -8.5 6 q-4.5 5 -5.5 8 l-4 24 q-27 0 -146 -6 l-101 0 l-104 -13 l-26 17 l-6 16 l4 13 q0 404 4 455 q4 25 56 30 q27 2 55 8 q13 35 34 65 q19 31 37 74 q-87 0 -203 -17 q-82 -13 -160 -22 l-18 9 q-4 8 -4 21 q1 3 6 6 q7 9 135 23 q46 5 91 12 q17 3 43 6 q-19 44 -33.5 77 q-14.5 33 -25.5 65 l9 18 q9 4 20 4 q12 -4 33 -56 q27 -65 46 -103 l22 -2 l161 11 q56 88 95 179 q3 3 20 3 q3 -1 7.5 -5 q4.5 -4 4.5 -7 l0 -21 q-29 -84 -74 -135 l18 -5 q64 4 126.5 10.5 q62.5 6.5 123.5 10.5 q11 -4 13 -14 l0 -14 q-1 -8 -14 -14 q-96 -12 -191 -19 q-95 -7 -195 -16 q-33 -69 -74 -133 l20 0 q61 11 95 12 q97 0 127 2 l18 -8 q6 -16 7 -35 q0 -43 -1 -72 l4 -17 l0 -149 q-4 -33 -4 -67 q0 -34 -6 -68 l0 -93 q-4 -12 -4 -27 l1 -17 q0 -30 -28 -30 Z" /><glyph glyph-name="uni2FBA" unicode="&#x2fba;&#x99ac;" d="M336 565 q84 4 170 19 q0 48 5 97 l-19 0 q-46 -7 -94 -11 q-48 -4 -99 -12 l-2 -93 l39 0 ZM315 420 l46 6 q70 11 143 20 l0 91 q-156 -16 -207 -16 l2 -101 l16 0 ZM315 244 l193 21 q0 40 2 74 l-4 62 q-12 0 -205 -27 q-4 -88 -9 -127 l23 -3 ZM702 38 l-13 0 l-10 6 q-17 29 -28.5 59.5 q-11.5 30.5 -23.5 60.5 l10 18 q6 5 18 5 q11 -5 17 -16 q16 -47 28 -71 q12 -24 16 -50 q-3 -8 -14 -12 ZM528 7 l-13 0 q-9 2 -19 19 q-7 33 -18 62.5 q-11 29.5 -19 59.5 q2 5 16 13 l13 0 q14 -6 24 -29 q25 -74 30 -112 q-1 -3 -5.5 -7.5 q-4.5 -4.5 -8.5 -5.5 ZM342 -5 l-12 0 l-10 6 q-9 30 -12.5 63.5 q-3.5 33.5 -10.5 65.5 q1 2 6 7.5 q5 5.5 9 6.5 l12 0 q9 -4 20 -20 q10 -48 12 -116 l-1 -3 q-5 -8 -13 -10 ZM131 -65 l-11 0 q-9 1 -14 14 l0 14 q57 110 82 194 q8 4 18 4 q12 -6 17 -16 l0 -23 q-41 -120 -82 -183 l-10 -4 ZM787 -86 q-34 12 -70.5 21.5 q-36.5 9.5 -68.5 26.5 q-3 6 -3 21 q1 3 6 8 q5 5 9 6 l18 0 q31 -16 105 -35 q37 80 44 151 q10 66 18 137 q-15 0 -292 -25 q-133 -12 -263 -29 l-17 9 q-4 10 -12 16 q-8 6 -11 13 l-1 23 l3 32 q0 135 2 220 l-2 131 l2 26 l-4 20 q5 10 15 15 q138 10 275 31 q137 21 274 26 q13 -4 14 -13 l0 -15 q-1 -3 -7 -9 q-6 -6 -134 -14 q-63 -3 -128 -17 q-9 -44 -9 -99 l12 0 q54 8 104 11 q52 1 105 5 q8 -1 13 -14 l0 -16 q-1 -3 -6.5 -9 q-5.5 -6 -115.5 -12 q-54 -2 -114 -9 l0 -100 l72 0 q98 15 154 15 q13 -5 14 -13 l0 -15 q-1 -3 -6 -8 q-5 -5 -8 -6 q-54 -4 -108 -11 q-42 -6 -116 -6 q0 -28 4 -109 l-3 -26 l299 28 l13 -6 l17 2 q10 -3 14 -14 q0 -12 -25 -192 q-13 -88 -56 -161 q-8 -4 -14.5 -7.5 q-6.5 -3.5 -11.5 -3.5 Z" /><glyph glyph-name="uni2FBC" unicode="&#x2fbc;&#x9ad8;" d="M88 609 q-6 1 -13 15 l0 12 l18 20 q244 27 408 39 l-32 63 q-16 26 -25 53 q1 8 14 13 l15 0 q25 -17 45 -62 q9 -22 17.5 -34 q8.5 -12 8.5 -34 l20 0 q132 12 268 16 q45 1 88 3 q12 -3 15 -14 l0 -13 q-1 -4 -6 -9 q-9 -7 -425 -28 q-210 -11 -416 -40 ZM329 410 q87 16 176 20 q89 4 182 20 q8 27 11 46.5 q3 19.5 11 45.5 q-209 -11 -419 -39 q23 -46 26 -93 l13 0 ZM301 361 q-8 3 -12 11.5 q-4 8.5 -9 15.5 q-6 36 -19.5 71 q-13.5 35 -18.5 68 q3 8 23 19 q329 35 483 44 q6 -1 13 -15 l0 -16 q-15 -40 -23 -85 q-8 -45 -24 -82 l-14 -5 q-14 6 -30 18 q-94 -13 -186.5 -20 q-92.5 -7 -182.5 -24 ZM372 32 q146 16 242 33 q0 15 22 91 q-55 0 -157 -12 q-67 -11 -141 -18 l19 -94 l15 0 ZM358 -33 l-15 0 l-17 15 q-25 92 -37 173 q5 11 15 14 q93 7 186 20 q92 9 183 14 q3 -2 7.5 -4.5 q4.5 -2.5 8.5 -11.5 l0 -17 q-15 -38 -24.5 -78.5 q-9.5 -40.5 -25.5 -76.5 q-3 -3 -17 -3 q-13 9 -23 9 l-7 -1 q-54 -12 -108 -17.5 q-54 -5.5 -112 -18.5 q-2 -8 -6 -11 q-4 -3 -6 -4 l-2 -2 ZM807 -86 q-58 15 -118 48 q-3 6 -3 21 q2 10 15 14 l18 0 q18 -7 37 -18 q19 -11 45 -17 q34 80 43.5 159.5 q9.5 79.5 24.5 163.5 q-128 0 -373 -24 q-164 -17 -335 -33 q14 -80 27.5 -149.5 q13.5 -69.5 25.5 -139.5 q-3 -9 -14 -13 q-25 0 -28 14 q-9 40 -62 310 l13 15 q302 37 764 68 l26 -24 l2 -22 q-19 -93 -31 -188.5 q-12 -95.5 -57 -177.5 l-20 -7 Z" /><glyph glyph-name="uni2FC6" unicode="&#x2fc6;&#x9ea5;" d="M600 482 l11 7 q48 53 89 153 q-30 0 -76 -4 q-81 0 -112 -4 l-2 -81 q25 -16 45 -34.5 q20 -18.5 45 -36.5 ZM382 458 q38 38 65 79 q21 31 21 70 l-1 27 l-127 -12 q14 -17 14 -31 l-43 -70 l71 -63 ZM112 204 q-8 0 -13 6 q-6 4 -7 7 l0 14 q6 12 23 21 q96 42 169 106 l67 68 q-17 20 -35 33 q-18 13 -36 29 q-30 -27 -53 -52.5 q-23 -25.5 -50 -44.5 l-21 -1 q-2 1 -7.5 5.5 q-5.5 4.5 -6.5 8.5 l0 12 l14 16 q9 1 17 10 q8 9 16 16 q35 35 68.5 71.5 q33.5 36.5 58.5 87.5 l-17 2 q-102 -17 -171 -17 l-18 9 q-4 9 -4 21 q4 12 15 13 q86 5 172 18 q86 10 178 14 q0 91 -4 107 q12 19 14 19 q8 3 16 3 q13 -5 15.5 -14 q2.5 -9 2.5 -113 q58 0 109 2 q64 5 129.5 9 q65.5 4 125.5 11 q10 -3 15 -15 l0 -14 q-5 -12 -15 -15 q-19 -2 -38.5 -3.5 q-19.5 -1.5 -122.5 -13.5 q18 -13 18 -29 l-26 -56 q44 -24 81 -48 q47 -31 77 -68 l0 -12 q-4 -13 -22 -17 q-84 68 -162 107 q-18 -39 -54 -69 q45 -55 125 -105 q123 -65 150 -78 q3 -4 3 -20 q-2 -12 -25 -16 q-49 23 -100 50 q-84 42 -147 96 q-29 30 -57 60.5 q-28 30.5 -68 61.5 q-10 -32 -10 -64 q0 -32 -10 -54 q-4 -4 -18 -4 q-5 1 -9.5 6.5 q-4.5 5.5 -5.5 8.5 l-2 54 l11 39 q-168 -193 -316 -267 q-20 -12 -39 -12 ZM515 121 l8 6 q75 54 104 111 l-20 4 q-52 -7 -102 -19.5 q-50 -12.5 -99 -21.5 l-13 7 l-39 -30 q48 -19 84 -30 q36 -11 77 -27 ZM249 -80 l-17 10 q-4 5 -4 20 q1 3 6 7.5 q5 4.5 9 5.5 q149 50 221 115 l5 13 q-105 35 -126 45 l-11 23 q-30 -23 -55 -38.5 q-25 -15.5 -53 -19.5 q-3 1 -8 6 q-5 5 -6 8 l0 14 q6 12 21 20 q57 25 139 100 l73 74 l9 18 q7 3 21 3 q10 -2 14 -14 l0 -20 q-6 -16 -41 -45 l22 -5 q128 27 197 32 q11 -3 14 -14 l0 -27 q-16 -57 -74 -115 l-44 -37 q69 -24 122 -54 q53 -30 109 -53 q3 -7 3 -20 q-4 -10 -14 -14 l-18 0 q-59 24 -118 55 q-59 31 -126 58 q-108 -113 -270 -151 Z" /><glyph glyph-name="uni2FC7" unicode="&#x2fc7;&#x9ebb;" d="M91 -47 q-9 2 -15 19 q75 140 89 299.5 q14 159.5 34 316.5 q-7 14 -7 22 q5 9 15 16 q83 10 168.5 11.5 q85.5 1.5 180.5 16.5 q-26 33 -82 128 l0 16 q1 3 5 8.5 q4 5.5 8 6.5 l12 0 q34 -37 80 -124 l0 -12 l-17 -21 l20 -4 q79 7 158 17 q109 12 156 15 q3 -1 8 -5.5 q5 -4.5 6 -7.5 l0 -15 q-1 -9 -19 -15 q-315 -36 -648 -57 q-21 -165 -36.5 -327.5 q-15.5 -162.5 -95.5 -300.5 q-6 -3 -20 -3 ZM718 -67 q-2 0 -7 5.5 q-5 5.5 -6 9.5 l-2 51 l4 51 q0 130 -3 249 q-57 -164 -143 -241 l-18 -7 l-18 10 q-3 6 -3 19 q81 89 104 141 q36 87 50 152 l-72 -12 l-16 10 q-5 4 -5 18 l15 16 q23 5 47 8 q24 3 54 8 l4 86 l-4 63 l10 19 q5 2 20 2 q11 -2 15 -14 l4 -115 l-2 -32 q40 0 82 11 q29 8 59 8 q4 -1 9.5 -6.5 q5.5 -5.5 5.5 -7.5 l0 -15 q-1 -3 -6 -7.5 q-5 -4.5 -131 -27.5 q53 -136 123 -228 l49 -38 q3 -2 3 -22 q-1 -10 -22 -14 q-20 8 -35 24 l-31 23 q-49 63 -100 168 l-3 -116 l2 -132 q-3 -19 -3 -39 l1 -24 q0 -28 -11 -51 q-6 -3 -20 -3 ZM415 -76 l-12 0 l-15 14 l-4 53 q10 140 10 224 l-8 27 q-47 -78 -68 -109 q-30 -45 -78 -79 l-14 0 q-2 1 -8 6.5 q-6 5.5 -7 8.5 l0 11 q82 75 145 203 l28 73 l-37 0 q-32 -5 -75 -5 l-20 11 q-4 3 -4 19 q4 9 15 14 l20 -1 q20 0 41 3 q29 4 66 5 q0 77 -2 146 l10 19 q6 3 20 3 q10 -1 14 -14 l2 -146 l20 0 q20 6 81 12 q13 -2 13 -29 q-1 -8 -19 -16 q-22 -1 -44.5 -5.5 q-22.5 -4.5 -50.5 -5.5 l0 -28 q36 -28 66 -56 q27 -31 50 -61 l0 -13 q-5 -13 -13 -14 l-14 0 q-21 13 -37.5 36 q-16.5 23 -46.5 48 l-5 -15 l4 -124 l-10 -181 l2 -21 q-1 -9 -15 -13 Z" /><glyph glyph-name="uni3001" unicode="&#x3001;" d="M343 -48 l-14 0 q-40 43 -80 92 q-40 49 -116 88 q-5 11 -5 22 q6 12 16 15 l20 0 q34 -12 61.5 -36.5 q27.5 -24.5 52.5 -52.5 q23 -28 48 -56 q25 -28 31 -58 q-1 -3 -6 -8.5 q-5 -5.5 -8 -5.5 Z" /><glyph glyph-name="uni3002" unicode="&#x3002;" d="M198 -29 l18 1 q18 8 26 14 q29 16 31 52 l1 32 l-5 29 q-9 38 -55 38 l-43 0 q-13 -8 -26 -14 q-13 -6 -24 -17 q-12 -21 -13 -48 l1 -14 l22 -54 q25 -19 67 -19 ZM176 -77 l-17 0 q-20 6 -62 34 q-34 47 -34 108 q0 17 10 47 q4 19 18 31 q41 43 104 43 q118 0 124 -89 q2 -36 2 -71 q-6 -15 -10 -32 q-5 -15 -18 -28 q-25 -32 -59 -38 q-29 -5 -58 -5 Z" /><glyph glyph-name="uni300C" unicode="&#x300c;" d="M727 99 l-13 0 l-17 15 q-3 16 -3 288 l5 94 l0 250 l-5 62 l11 22 q97 13 142 13 l28 -1 q13 -3 26 -3 l19 1 q28 0 28 -30 q-6 -12 -15 -15 l-54 -2 l-82 2 l-56 -10 l5 -39 l0 -250 l-6 -94 q0 -266 2 -288 q-4 -11 -15 -15 Z" /><glyph glyph-name="uni300D" unicode="&#x300d;" d="M277 -123 l-103 4 q-19 -4 -52 -4 q-25 0 -49.5 3 q-24.5 3 -24.5 31 q4 11 16 15 q48 0 97 -2 q17 5 34 5 q36 0 65 -4 q0 39 -2 70 l2 110 l-4 21 l0 450 q5 25 15 35 q7 5 21 5 q10 -4 15 -15 l0 -19 l-4 -10 q0 -448 4 -469 q0 -106 -2 -149 l2 -41 q-4 -7 -5 -15 q-1 -8 -6 -14 l-19 -7 Z" /><glyph glyph-name="uni304C" unicode="&#x304c;" d="M484 -41 q-147 72 -147 108 q0 20 29 20 q65 -55 130 -78 q139 180 139 402 q0 15 -3 29 q-11 31 -23.5 41.5 q-12.5 10.5 -24.5 21.5 q-16 3 -33 3 q-48 0 -109 -14 q-48 -11 -81 -14 q-96 -271 -191 -460 q-5 -4 -19 -4 q-10 4 -14 15 l0 14 q99 227 168 409 q-16 0 -68 -16 q-52 -19 -102 -32 l-18 9 q-3 7 -3 21 q7 16 111 46 q81 23 101 33 q21 65 37 123 q16 58 38 110 q12 4 20 4 q2 -1 8 -5.5 q6 -4.5 6 -7.5 q0 -26 -26 -105 q-16 -46 -30 -104 l15 0 q93 21 177 21 q29 0 48.5 -18 q19.5 -18 37.5 -38 q18 -22 21 -51 q3 -29 3 -59 q-13 -248 -159 -411 l-38 -13 ZM952 295 l-13 0 q-25 25 -45.5 60 q-20.5 35 -46.5 68 q-17 36 -57 72 q-30 29 -97 84 q-5 9 -5 20 q4 12 15 16 l14 0 q106 -71 190 -195 q15 -29 34 -54.5 q19 -25.5 24 -55.5 q-5 -11 -13 -15 ZM961 666 l-13 0 q-7 3 -27 25 q-20 36 -43.5 68 q-23.5 32 -37.5 67 q4 9 14 13 l15 0 q23 -16 39 -40.5 q16 -24.5 32 -49.5 q9 -19 22.5 -34.5 q13.5 -15.5 13.5 -34.5 q-4 -9 -15 -14 ZM845 592 l-17 8 q-18 48 -56 87 q-38 39 -56 81 q4 9 14 13 l15 0 q77 -69 114 -137 q3 -11 6 -17 q3 -6 3 -13 q0 -17 -23 -22 Z" /><glyph glyph-name="uni304F" unicode="&#x304f;" d="M764 -78 l-19 10 q-36 42 -93 86 q-65 86 -424 291 q-5 7 -11.5 16 q-6.5 9 -6.5 19 q2 22 16.5 39 q14.5 17 35.5 35 q187 111 458 350 q26 0 28 -14 l0 -15 q-7 -12 -30 -30 q-49 -48 -228 -189 q-100 -79 -209 -145 l-20 -24 l12 -24 q92 -40 175 -98.5 q83 -58.5 166 -111.5 l2 -5 l63 -54 q26 -26 56 -49.5 q30 -23.5 49 -51.5 l3 -19 q-2 -4 -6.5 -8.5 q-4.5 -4.5 -9 -5.5 q-4.5 -1 -7.5 -2 Z" /><glyph glyph-name="uni3063" unicode="&#x3063;" d="M437 8 q-15 6 -16 22 l8 14 q65 20 130 46 q65 26 117 77 q70 69 88 104 q6 23 12 44.5 q6 21.5 6 41.5 q0 46 -22 69 q-38 26 -97 35 l-87 0 q-99 -22 -200 -54 q-101 -32 -198 -58 q-3 1 -7.5 6 q-4.5 5 -5.5 8 l0 11 l14 18 q99 27 198.5 59 q99.5 32 200.5 50 l91 0 q87 -12 130 -60 q25 -34 25 -96 q0 -51 -31 -106 q-59 -94 -158 -159 q-92 -49 -198 -72 Z" /><glyph glyph-name="uni306B" unicode="&#x306b;" d="M470 560 l-19 11 q-4 5 -4 20 q8 14 13 14 q103 12 203 22.5 q100 10.5 200 26.5 q3 -1 7.5 -7 q4.5 -6 5.5 -8 l0 -15 q-4 -11 -14 -16 q-99 -14 -197.5 -25 q-98.5 -11 -194.5 -23 ZM223 5 l-12 0 q-10 3 -26 29 q-25 85 -34 158 l0 200 q7 84 16.5 168.5 q9.5 84.5 46.5 157.5 q7 3 21 3 q10 -2 14 -14 l0 -23 q-31 -65 -39.5 -141.5 q-8.5 -76.5 -14.5 -150.5 l0 -198 l4 -21 q4 -37 16 -87 q33 49 49 89 q31 78 43 78 q25 0 27 -14 l0 -14 q-24 -54 -47.5 -109.5 q-23.5 -55.5 -54.5 -106.5 l-9 -4 ZM741 30 q-64 0 -193 29 q-67 15 -111 77 q-24 34 -24 64 q0 10 2 20 q19 91 64 143 q5 3 12 3 l7 -1 q11 -7 16 -17 l-2 -15 q-42 -49 -55 -132 q5 -11 9.5 -23.5 q4.5 -12.5 10.5 -22.5 q56 -52 124 -63 l120 -19 q58 0 95 9 q19 5 71 15 q2 0 6 -6 q4 -6 5 -10 l-1 -15 q-6 -9 -17 -13 q-11 -4 -22 -9 q-50 -14 -117 -14 Z" /><glyph glyph-name="uni4E03" unicode="&#x4e03;" d="M776 -15 q-100 2 -202.5 9 q-102.5 7 -182.5 69 q-10 31 -10 71 q0 40 -5 77 l0 89 l5 107 q-16 0 -156 -35 q-71 -15 -136 -38 l-17 9 l-6 16 l9 16 q125 42 306 77 l0 214 l-7 78 l11 17 q5 5 19 5 q10 -4 15 -15 l6 -85 l0 -204 q4 0 234 46 q111 20 219 42 q10 -3 14 -15 l0 -15 q-1 -3 -7 -7 q-6 -4 -12 -8 q-93 -21 -448 -88 q-4 -105 -4 -206 q4 -33 4 -67.5 q0 -34.5 14 -66.5 q81 -38 166 -41.5 q85 -3.5 172 -3.5 q28 69 62 171 q14 7 18 7 q8 0 13 -6 q2 -3 4 -5 q2 -2 2 -18 q-28 -116 -76 -190 q-5 -6 -24 -6 Z" /><glyph glyph-name="uni4E07" unicode="&#x4e07;" d="M582 -78 l-6 0 q-90 60 -148 133 l0 13 q2 13 28 13 q30 -26 60 -56.5 q30 -30.5 71 -57.5 q78 93 119.5 199 q41.5 106 72.5 223 q-77 11 -144.5 29.5 q-67.5 18.5 -141.5 30.5 q-49 -164 -214 -344 l-22 -16 q-91 -76 -149 -100 l-17 8 l-3 10 l-1 10 q1 4 8 9 q7 5 13 11 q82 45 176 137 q166 192 214 458 q-170 -24 -375 -46 q-20 12 -20 14 q-3 6 -3 16 q8 14 14 14 q194 20 386.5 46.5 q192.5 26.5 384.5 32.5 q13 0 13 -27 q-2 -10 -14 -14 q-10 0 -169 -12 q-87 -9 -177 -15 l3 -29 q-4 -28 -11 -56 q-5 -15 -9 -29.5 q-4 -14.5 -11 -34.5 q87 -21 167 -38 q80 -17 152 -45 q4 -6 4 -19 q-41 -117 -84.5 -235 q-43.5 -118 -126.5 -214 q-19 -19 -40 -19 Z" /><glyph glyph-name="uni4E09" unicode="&#x4e09;" d="M113 -10 l-10 6 q-7 8 -7 22 l7 11 q94 19 192.5 22.5 q98.5 3.5 197.5 10.5 l236 11 q95 2 190 2 q10 -5 15 -15 l0 -15 q-4 -7 -16 -14 q-7 -1 -87 -1 q-252 -6 -338 -12 q-94 -9 -190.5 -11 q-96.5 -2 -189.5 -17 ZM209 602 l-18 10 q-4 7 -4 20 q1 3 6.5 7.5 q5.5 4.5 8.5 5.5 q271 44 601 75 q11 -5 15 -14 l0 -15 q-4 -9 -15 -14 q-361 -38 -594 -75 ZM259 322 q-11 4 -13 14 l0 13 q6 12 19 18 q267 37 472 47 q11 -4 15 -14 l0 -13 l-15 -15 q-226 -13 -478 -50 Z" /><glyph glyph-name="uni4E0A" unicode="&#x4e0a;" d="M102 -30 q-3 1 -7.5 5.5 q-4.5 4.5 -5.5 8.5 l0 13 l16 17 q82 5 165 14 q83 9 174 10 l0 224 q-7 92 -7 213 l4 55 q0 102 -2 202 l9 19 q7 3 21 3 q8 -3 14 -14 q0 -117 2 -210 l-5 -77 l14 0 q77 17 155.5 28.5 q78.5 11.5 152.5 23.5 q14 -5 15 -13 l0 -15 q-1 -3 -5 -8 q-12 -11 -167 -31 q-80 -13 -162 -36 q0 -73 5 -140 l0 -220 l55 0 q87 10 175 13 q88 3 174 9 q13 -5 14 -14 l0 -16 q-1 -9 -14 -14 q-547 -28 -790 -50 Z" /><glyph glyph-name="uni4E0B" unicode="&#x4e0b;" d="M474 -76 l-18 16 l0 14 q4 7 5 14 q1 7 3 15 l-4 625 l-7 40 q-73 0 -180 -24 q-81 -18 -160 -29 l-19 9 q-3 5 -3 21 q0 3 6 6 q5 6 9 7 q189 44 383 59 q194 15 387 23 q12 -6 17 -17 q0 -25 -15 -27 l-378 -22 q0 -27 4 -85 q92 -49 171 -117.5 q79 -68.5 160 -133.5 q4 -3 4 -21 q-1 -4 -6 -8.5 q-5 -4.5 -8 -5.5 l-14 0 q-10 7 -131 109 q-80 67 -176 132 q0 -276 5 -539 q-5 -16 -5 -33 q0 -28 -30 -28 Z" /><glyph glyph-name="uni4E0D" unicode="&#x4e0d;" d="M883 211 l-17 11 q-55 53 -113 102 q-60 47 -126 90 q-36 8 -36 35 q0 7 5.5 13 q5.5 6 7.5 7 l17 0 q143 -93 241 -181 q10 -12 25 -23.5 q15 -11.5 21 -23.5 l0 -13 q-4 -13 -25 -17 ZM472 -64 q-10 3 -15 15 l-1 73 l1 457 q-65 -68 -124 -127 q-81 -82 -152 -112 q-32 -11 -81 -35 l-17 8 q-4 9 -4 19 l1 2 q6 16 22 22 q117 36 238 164 q87 83 153 215 l-18 2 q-90 -12 -179 -22.5 q-89 -10.5 -173 -28.5 l-19 11 q-5 6 -5 19 q6 13 15 14 q156 25 760 99 q12 -6 14 -15 q0 -15 -5 -22 q-13 -9 -167 -25 q-80 -10 -161 -23 q-15 -21 -29 -47 q-14 -26 -32 -50 q11 -9 11 -16 l0 -21 l-4 -10 l0 -477 q-2 -13 -2 -27 l1 -23 q0 -20 -8 -34 q-8 -5 -20 -5 Z" /><glyph glyph-name="uni4E0E" unicode="&#x4e0e;" d="M97 145 l-15 18 l0 13 q1 3 5 8 q4 5 8 6 q144 9 285 29 q115 17 156 19 l114 3 q10 -4 15 -15 l0 -13 q-3 -9 -16 -15 l-129 -6 q-303 -37 -423 -47 ZM667 -73 q-9 0 -67 29 q-24 13 -48 24 q-110 53 -110 82 q1 3 6 8 q5 5 8 6 l17 0 q45 -29 95 -52 q49 -25 105 -48 q46 93 73.5 205 q27.5 112 36.5 150 q2 10 11 83 l-166 -11 q-101 -6 -147 -14 q-100 -19 -198 -35 q-13 4 -16 30 l3 14 q26 163 73 379 q3 2 19 2 q3 -1 8 -5.5 q5 -4.5 6 -8.5 l0 -15 q-7 -29 -11 -61 q-4 -32 -10 -70 q23 0 123 17 q178 30 319 43 q11 -5 15 -14 l0 -14 q-1 -3 -7 -8 q-6 -5 -208 -32 q-183 -29 -250 -43 q-9 -42 -18.5 -79.5 q-9.5 -37.5 -13.5 -82.5 l9 -4 q129 31 285 43 q156 12 219 17 q5 -1 8 -5.5 q3 -4.5 5.5 -8 q2.5 -3.5 2.5 -4.5 q0 -9 -15 -100 q-7 -43 -17 -86 q-53 -230 -120 -324 q-7 -7 -25 -7 Z" /><glyph glyph-name="uni4E13" unicode="&#x4e13;" d="M615 -99 l-19 10 q-28 50 -68 95 q-21 24 -41 49 l-39 41 q-26 22 -52 40 q-26 18 -45 39 q0 24 15 27 l11 0 q85 -56 143 -117 q78 40 129 98 l85 94 l-28 3 q-87 -11 -186 -15.5 q-99 -4.5 -208 -27.5 l-16 12 l-5 16 l57 164 q-162 -6 -250 -21 q-9 6 -13 14 q0 1 -1.5 4 q-1.5 3 -1.5 6 q0 4 6 16 q93 18 193 23 l82 3 q33 78 49 121 q-98 -13 -194 -28 l-18 10 q-4 6 -4 20 q3 8 15 14 q68 11 219 33 l20 54 q19 59 48 109 l9 2 q14 0 15 -1 q9 -10 10 -13 l-1 -16 q-28 -58 -45 -113 l-11 -15 q139 18 285 31 q10 -4 14 -14 l0 -14 q-4 -10 -14 -14 q-220 -22 -299 -37 q-13 -33 -26 -72 q-12 -34 -28 -54 q236 16 497 16 q13 -4 14 -13 l0 -15 q-1 -3 -5 -8 q-4 -5 -11 -6.5 q-7 -1.5 -86 -1.5 l-251 -6 q-119 -9 -169 -11 q-10 -24 -15 -43 l-34 -94 l17 0 q294 20 424 35 q12 -4 20 -22 l4 -7 l0 -11 q-62 -58 -121 -125.5 q-59 -67.5 -142 -114.5 q35 -46 57 -68 q26 -29 33 -65 q-5 -13 -24 -16 Z" /><glyph glyph-name="uni4E14" unicode="&#x4e14;" d="M362 467 q69 11 140 18 q71 7 144 15 q0 132 -1 189 l-12 0 q-68 -15 -289 -46 q0 -88 2 -176 l16 0 ZM338 232 l152 14 q73 5 150 15 l5 78 l0 116 l-22 0 q-69 -8 -138 -14.5 q-69 -6.5 -141 -21.5 l-3 -57 q0 -111 -3 -130 ZM390 4 q58 4 118 6.5 q60 2.5 123 7.5 l3 115 q4 18 4 37 q0 19 3 43 q-35 0 -161 -11 q-66 -6 -139 -17 l-2 -117 l8 -64 l43 0 ZM91 -65 q-7 1 -12 14 l0 13 l15 18 q51 9 126 15 q40 2 84 8 q-3 19 -6 32.5 q-3 13.5 -3 212.5 q2 114 6 176 q0 145 -4 253 q2 13 26 13 l8 -4 l353 51 q11 -4 15 -14 l0 -13 q-10 -13 -10 -32 l1 -182 l-1 -157 q-4 -50 -5 -103 q-1 -53 -7 -102 q0 -103 -4 -116 q18 0 148 8 l76 0 q13 -5 14 -14 l0 -15 q-1 -9 -14 -14 l-206 -10 q-103 0 -339 -13 q-132 -6 -261 -25 Z" /><glyph glyph-name="uni4E16" unicode="&#x4e16;" d="M585 251 q27 3 54.5 4.5 q27.5 1.5 56.5 7.5 q11 59 15.5 112.5 q4.5 53.5 11.5 124.5 q-98 -9 -188 -21 q0 -197 1 -228 l49 0 ZM265 -53 q-12 4 -15 15 q-1 35 -7 71 q-6 41 -19 413 q-71 -8 -132 -18 l-17 10 q-4 7 -4 20 q1 3 6 8.5 q5 5.5 8 5.5 l136 19 l1 16 l-4 26 q-4 84 -15 194 q1 3 5.5 7.5 q4.5 4.5 7.5 5.5 l13 0 l15 -14 q8 -52 12 -107 q3 -47 11 -125 q97 11 218 22 l3 41 l-17 212 q4 13 13 14 l14 0 q6 -3 10 -6.5 q4 -3.5 7 -10.5 l17 -243 q97 14 185 21 l11 2 q8 157 23 225 q5 3 18 3 q4 -1 8.5 -6.5 q4.5 -5.5 5.5 -8.5 l0 -74 l-13 -136 l36 1 l0 1 l11 1 l14 0 l2 1 q34 0 41 3 l18 1 q8 -5 11.5 -7.5 q3.5 -2.5 4.5 -6.5 l0 -14 q-6 -17 -141 -25 l-1 -16 q-8 -68 -14 -138 q-4 -69 -21 -129 q-2 -1 -9 -2 q-1 -2 -9 -2 l-13 3 q-44 -9 -80.5 -10 q-36.5 -1 -81.5 -3 q0 -9 -7 -23 q-7 -3 -22 -3 q-9 1 -13 15 l-5 38 l3 14 q-4 34 -8 224 q-33 0 -220 -22 l5 -93 l0 -86 q10 -167 17 -222 q32 0 74 6 q82 0 117 3 q86 0 307 8 q12 -1 42 -1 q30 0 30 -30 q-5 -14 -26 -17 q-22 4 -89 4 q-178 -8 -264 -8 l-35 -4 l-82 0 l-70 -5 l1 -37 q0 -21 -28 -21 Z" /><glyph glyph-name="uni4E1A" unicode="&#x4e1a;" d="M265 247 l-12 0 l-15 12 q-8 57 -35 110 q-27 53 -44 107 l10 18 q5 4 19 4 q5 -1 12 -9 l51 -117 q23 -54 28 -111 q-4 -10 -14 -14 ZM730 207 q-13 2 -17 24 q33 69 65 142.5 q32 73.5 43 147.5 q5 4 19 4 q9 -4 14 -14 q0 -84 -38 -166 q-11 -25 -67 -135 q-6 -3 -19 -3 ZM109 -69 l-18 10 q-4 6 -4 19 q4 12 14 15 q137 23 279 23 q0 86 -2 165 l10 164 l0 296 l9 108 q5 12 15 15 l12 0 l15 -14 l-7 -109 l0 -296 l-9 -164 q0 -141 3 -161 q85 0 159 9 q-10 16 -10 29 q6 16 6 41 l-4 112 l2 194 q9 340 11 355 q0 36 31 36 q13 -7 14 -14 l0 -18 q-3 -17 -9 -357 q-2 -194 -5 -245 l5 -87 l-14 -47 l287 -2 q13 -6 14 -14 l0 -14 q-2 -13 -23 -17 l-326 0 q-114 -5 -229.5 -9 q-115.5 -4 -225.5 -23 Z" /><glyph glyph-name="uni4E1C" unicode="&#x4e1c;" d="M124 -25 l-19 12 q-5 7 -5 18 q3 7 22 18 q26 9 46 34 q29 34 62.5 68 q33.5 34 54.5 74 q6 4 20 4 q12 -4 13 -13 l0 -18 q-23 -43 -60.5 -82 q-37.5 -39 -74.5 -79 q-16 -11 -30.5 -22.5 q-14.5 -11.5 -28.5 -13.5 ZM485 -88 q-38 13 -79 23 q-38 11 -72 33 q-4 6 -4 21 q1 3 6 7.5 q5 4.5 8 5.5 l17 0 q70 -32 124 -42 q3 24 3 168 l4 173 q-32 0 -59 -2 q-148 -7 -241 -18 l-13 -1 q-12 0 -16 4 l-4 10 q1 8 9.5 17.5 q8.5 9.5 17.5 20.5 q83 112 129 202 q25 43 51 93 q-125 -10 -232 -21 q-19 15 -20 20 q0 15 8 20 q11 11 265 24 q21 45 45 119 q4 3 19 4 q11 0 24 -24 q-14 -42 -37 -94 l99 9 l13 -1 q198 14 256 14 l35 -1 q12 -6 13 -16 q-1 -6 -2.5 -14.5 q-1.5 -8.5 -16.5 -12.5 q-134 0 -316 -14 q-59 -3 -96 -8 l-6 0 q-58 -120 -110.5 -200 q-52.5 -80 -76.5 -104 q103 13 260 19 l1 161 l11 20 q6 4 19 4 q11 -4 15 -14 q2 -55 2 -168 q98 6 157 14 l58 0 q9 3 39 3 q3 -1 8 -5 q5 -4 6 -7 l0 -16 q-1 -3 -6 -7.5 q-5 -4.5 -45 -11.5 l-60 0 l-156 -15 l-6 -176 l0 -144 q0 -42 -25 -65 q-8 -7 -23 -7 ZM886 -8 l-12 0 q-122 115 -217 184 l0 11 q6 14 27 14 q102 -56 217 -183 l0 -12 q-7 -12 -15 -14 Z" /><glyph glyph-name="uni4E1D" unicode="&#x4e1d;" d="M103 -30 l-10 6 q-7 8 -7 22 l7 11 q94 19 192.5 22.5 q98.5 3.5 197.5 10.5 l236 11 q95 2 190 2 q10 -5 15 -15 l0 -15 q-4 -7 -16 -14 q-7 -1 -87 -1 q-252 -6 -338 -12 q-94 -9 -190.5 -11 q-96.5 -2 -189.5 -17 ZM171 149 l-16 11 l-5 14 q19 36 48 70 q55 86 79 126 l35 50 q-75 -17 -87 -21 q-25 -7 -54 -9 l-16 10 l-5 14 q19 36 48 71 q36 71 76 143 q32 56 55 112 q5 3 20 3 l15 -15 l1 -22 q-25 -52 -66 -125 q-27 -48 -38 -75.5 q-11 -27.5 -30 -53.5 l31 0 l84 20 q31 50 76 142 q4 4 7 4 l16 0 q12 -5 14 -14 l0 -14 q-45 -92 -102 -179 q-36 -53 -97 -156 l-28 -44 q43 0 146 26 l52 13 q8 -1 10.5 -4.5 q2.5 -3.5 5.5 -9 q3 -5.5 3 -10.5 l-2 -8 l-10 -11 l-40 -9 l1 -2 l-42 -9 q-95 -17 -131 -28 q-25 -7 -54 -10 ZM526 140 l-15 10 l-4 13 q19 37 47 71 q56 88 79 127 l28 39 q-68 -15 -80 -19 q-24 -7 -54 -9 l-16 10 l-4 13 q19 37 47 72 q21 35 34 66.5 q13 31.5 42 84.5 q32 56 55 112 q5 4 20 4 l15 -15 l2 -23 q-26 -52 -67 -124 q-28 -52 -38.5 -82 q-10.5 -30 -29.5 -56 l32 0 l77 19 q35 54 82 151 q3 4 23 4 q12 -4 14 -14 l0 -14 q-35 -75 -76 -138 q-76 -117 -151 -240 q49 0 92 12 q23 6 145 33 q7 -1 10 -4.5 q3 -3.5 5.5 -8.5 q2.5 -5 2.5 -11 q-1 -6 -12 -19 l-40 -9 l1 -2 q-185 -36 -210 -43 q-25 -7 -56 -10 Z" /><glyph glyph-name="uni4E22" unicode="&#x4e22;" d="M858 -47 l-5 1 l-10 7 q-35 61 -83 117 l-13 3 q-145 -41 -290 -67.5 q-145 -26.5 -289 -56.5 q-13 7 -17 23 l7 15 q30 9 63 16 q33 7 69 16 q27 51 113 240 q-65 0 -97 -6 q-24 -3 -58 -5 q-60 -6 -115 -21 q-1 0 -4.5 2 q-3.5 2 -6.5 5.5 q-3 3.5 -6 14.5 l1 4 l7 11 q76 26 163 31.5 q87 5.5 175 20.5 l4 64 l0 81 q-79 0 -240 -32 q-7 3 -12 7 q-5 4 -5 20 l7 9 q56 21 118.5 28.5 q62.5 7.5 131.5 11.5 l5 138 q-141 -29 -285 -49 q-4 0 -7 1.5 q-3 1.5 -7 2 q-4 0.5 -9 7.5 q-5 7 -5 21 q1 3 6.5 7.5 q5.5 4.5 8.5 5.5 q310 35 625 136 q3 -1 8 -5.5 q5 -4.5 5 -7.5 l0 -14 q-2 -12 -26 -21 q-126 -41 -270 -73 q0 -35 -2 -50 l-1 -38 l1 -53 q56 0 132 13 q60 11 128 13 q2 -1 5 -3 q3 -2 7 -5.5 q4 -3.5 6 -14.5 l-1 -5 l-6 -9 q-154 -26 -273 -34 q0 -99 -2 -146 l24 0 q224 28 333 29 q13 -3 17 -22 l-1 -4 l-6 -10 q-99 -11 -204 -21.5 q-105 -10.5 -210 -23.5 q-38 -72 -110 -236 q20 0 78 13 q165 32 286 61 q-31 28 -53.5 47.5 q-22.5 19.5 -38.5 41.5 l-2 16 q9 14 23 18 l5 -1 q15 -9 26 -23 q27 -30 53 -47 q29 -20 43 -35 q35 -35 101 -132 q7 -12 7 -26 q0 -2 -2.5 -6.5 q-2.5 -4.5 -4 -8 q-1.5 -3.5 -15.5 -7.5 Z" /><glyph glyph-name="uni4E24" unicode="&#x4e24;" d="M431 543 l87 3 q10 0 91 9 q4 85 11 153 l-183 -19 l3 -26 q-3 -76 -9 -120 ZM193 -60 l-15 0 q-9 0 -13 14 q-12 130 -27 260 q-15 130 -27 259 q0 9 12 21 q98 29 262 43 q5 35 7 67 q2 39 9 84 q-63 -6 -117 -9 q-89 -5 -177 -21 q-9 3 -14 15 l0 12 l17 17 q412 45 771 68 q12 -5 15 -14 l0 -14 q-1 -3 -6 -8 q-10 -9 -191 -21 l-38 -4 l-9 -150 l116 12 q87 0 120 2 q12 -4 15 -14 q3 -10 3 -154 q-5 -114 -15.5 -226.5 q-10.5 -112.5 -36.5 -217.5 l-15 -6 q-38 11 -74.5 29.5 q-36.5 18.5 -71.5 37.5 l-6 15 q5 9 10 15.5 q5 6.5 19 6.5 q24 -12 49 -24 q25 -12 57 -30 q8 37 10.5 66.5 q2.5 29.5 8.5 58.5 l2 46 q8 56 10.5 114 q2.5 58 9.5 115 l0 122 l-95 0 l-120 -14 q-6 -56 -9 -109 q29 -41 68 -72 q39 -31 53 -73 q-2 -13 -11 -18 l-13 -3 q-15 4 -28 25 q-17 21 -35 39 q-21 18 -47 48 q-16 -112 -81 -234 l-13 -10 l-19 7 l-6 14 q27 63 52 132 q37 90 37 208 l7 42 q-74 -8 -140 -10 q-21 0 -37 -1 l-9 -50 q29 -37 56 -69.5 q27 -32.5 45 -70.5 q-1 -4 -14 -15 l-7 -2 l-19 8 q-17 18 -31 40 q-17 24 -42 50 q-27 -69 -50 -129 q-23 -60 -57 -113 q-6 -5 -20 -7 q-10 1 -17 21 q50 113 65 144 q35 71 54 190 q-101 -11 -223 -35 l0 -30 q11 -72 16.5 -143.5 q5.5 -71.5 15.5 -147.5 q10 -76 12 -113.5 q2 -37.5 8 -69.5 q-6 -11 -16 -16 Z" /><glyph glyph-name="uni4E25" unicode="&#x4e25;" d="M687 447 q-12 6 -16 15 l0 17 q25 70 51 118 q24 42 47 78 q7 4 21 4 q2 0 7.5 -5 q5.5 -5 6.5 -9 l0 -14 l-45 -81 q-29 -69 -46 -100 l-8 -18 q-6 -5 -18 -5 ZM58 -104 q-12 2 -16 21 q87 137 109 242 q22 105 27 175 l-4 12 l8 17 q75 12 109.5 16.5 q34.5 4.5 84.5 4.5 l-4 324 l-25 0 q-83 -13 -167 -22 q-31 -3 -59 -7 q-16 11 -16 30 q8 24 384 57 q187 13 371 27 q14 -5 14 -28 q-4 -10 -14 -14 l-144 -13 q-50 -3 -104 -9 l-3 -335 q16 0 211 22 l57 2 q12 -3 15 -15 l0 -14 q-4 -9 -15 -13 q-76 -6 -151 -14 q-79 -11 -152 -14 q-32 -1 -65 -4 q-141 0 -162 -1 q-34 -2 -126 -15 q-5 -73 -27.5 -183 q-22.5 -110 -116.5 -246 q-4 -3 -19 -3 ZM297 443 l-13 0 l-10 7 q-18 38 -47 95 q-17 31 -28 62 l10 18 q6 4 20 4 q9 -3 13 -14 q15 -33 32 -64 q31 -61 38 -93 q-5 -10 -15 -15 ZM509 388 l56 4 l-2 307 l3 27 q-24 0 -150 -13 l4 -325 l89 0 Z" /><glyph glyph-name="uni4E26" unicode="&#x4e26;" d="M387 609 l-18 10 q-15 29 -30 58.5 q-15 29.5 -40 53.5 l-13 16 l0 12 q5 12 14 15 l17 0 q47 -35 88 -126 l3 -23 q-1 -3 -5 -8 q-4 -5 -8.5 -6 q-4.5 -1 -7.5 -2 ZM273 156 l-12 0 l-15 11 q-9 57 -36 110.5 q-27 53.5 -44 106.5 l10 18 q5 4 20 4 q2 0 8 -6 q3 0 53 -119 q24 -54 30 -112 l-2 -2 q-7 -10 -12 -11 ZM716 130 q-14 5 -17 25 q33 68 65 141.5 q32 73.5 43 149.5 q4 3 19 3 q9 -4 14 -14 q0 -85 -38 -165 q-32 -69 -68 -136 q-5 -4 -18 -4 ZM459 16 q75 2 124 9 q-10 16 -10 29 q6 15 6 41 l-4 112 q1 135 4 270 l-4 45 l3 19 l-155 -18 q0 -20 7 -76 l0 -106 l-9 -165 q0 -140 3 -160 l35 0 ZM107 -55 l-18 10 q-4 6 -4 19 q4 13 14 15 q137 23 279 23 l-2 164 l10 165 l0 106 l-9 74 l-15 0 q-58 -8 -117.5 -13.5 q-59.5 -5.5 -114.5 -14.5 q-3 1 -8 7 q-5 4 -6 7 l0 13 l12 16 q109 17 221.5 25.5 q112.5 8.5 228.5 27.5 l-5 25 q43 81 80 194 q9 5 21 5 q8 -4 13 -15 q0 -53 -74 -207 q23 0 51 4 q139 0 193 11 q4 -1 8.5 -6 q4.5 -5 4.5 -7 l0 -16 q-5 -12 -16 -15 q-46 -10 -190 -10 l-39 -5 l-6 -42 q5 -26 5 -50 q-2 -246 -5 -298 l5 -86 l-14 -47 l287 -2 q13 -6 14 -14 l0 -14 q-1 -3 -6 -8.5 q-5 -5.5 -9 -6.5 q-8 -2 -334 -2 q-114 -6 -229.5 -10 q-115.5 -4 -225.5 -22 Z" /><glyph glyph-name="uni4E2A" unicode="&#x4e2a;" d="M111 397 q-11 4 -15 14 l0 13 l7 11 q39 24 80 46 q75 42 118 86 q50 50 99.5 101.5 q49.5 51.5 86.5 105.5 l13 0 q15 -6 15 -30 q58 -64 118 -126 q60 -62 140 -95 q24 -12 48 -21 q80 -31 80 -58 q-6 -11 -15 -14 l-17 0 q-67 30 -138 64 q-71 34 -127 86 q-21 22 -111 127 q-67 -79 -135 -146.5 q-68 -67.5 -147 -116.5 q-29 -7 -52 -25.5 q-23 -18.5 -48 -21.5 ZM473 -40 q-11 3 -15 14 l-2 58 q4 299 8 339 q0 93 3 108 q2 22 31 22 q12 -5 15 -15 q0 -13 -4 -28 l0 -87 l-5 -40 q0 -149 -2 -296 q-3 -12 -3 -26 l1 -19 q0 -30 -27 -30 Z" /><glyph glyph-name="uni4E2D" unicode="&#x4e2d;" d="M514 306 l123 2 q60 0 136 14 q20 144 52 248 l-24 3 q-111 -13 -279 -23 l-8 -244 ZM235 278 q62 10 118.5 14 q56.5 4 116.5 12 q0 39 9 244 q-78 0 -220 -21 l-67 -9 l0 -12 q12 -56 19.5 -111.5 q7.5 -55.5 23.5 -116.5 ZM499 -98 l-15 0 q-3 1 -16 20 l-1 8 q0 110 1 140 l-1 186 l-37 0 q-92 -10 -101 -10 q-51 -3 -97 -15 l-32 15 q-19 73 -31 150.5 q-12 77.5 -25 153.5 q4 24 31 24 q14 -12 25 -12 l4 1 q151 24 279 28 q2 30 2 123 l-6 78 q4 11 14 14 l13 0 q6 -3 9.5 -7 q3.5 -4 6.5 -9 l-1 -16 q0 -12 1.5 -22 q1.5 -10 3 -20 q1.5 -10 3.5 -19 q0 -96 -4 -120 q36 0 172 14 q99 8 149 14 q22 -9 26 -21 l0 -14 q-23 -82 -37.5 -164 q-14.5 -82 -33.5 -158 l-14 -5 l-16 9 l-3 9 q-98 -14 -131 -14 q-97 0 -125 -3 q0 -188 1 -222 l-1 -99 l1 -23 q-1 -9 -14 -14 Z" /><glyph glyph-name="uni4E3A" unicode="&#x4e3a;" d="M350 547 l-12 0 l-11 7 q-15 32 -31 63.5 q-16 31.5 -27 62.5 l9 18 q7 3 21 3 q9 -2 13 -14 l24 -51 q20 -29 29 -75 q-4 -10 -15 -14 ZM657 172 l-19 6 q-27 50 -74 91 q-42 40 -77 84 l3 20 q2 3 7 5 q8 5 11 5 q2 0 7 -2 q5 0 32 -28 q41 -44 63 -65 q40 -42 66 -94 q0 -9 -8 -17 l-11 -5 ZM708 -65 q-47 22 -89 60 q-42 38 -84 75 l-6 16 q2 5 4 10.5 q2 5.5 5.5 9 q3.5 3.5 18.5 3.5 q34 -30 68.5 -61 q34.5 -31 80.5 -64 q80 123 98 261 q18 138 38 278 l-16 3 q-85 -14 -170 -23 q-85 -9 -171 -25 q-34 -155 -120.5 -280 q-86.5 -125 -190.5 -235 q-11 -11 -20.5 -19 q-9.5 -8 -20.5 -8 q-2 1 -6.5 2 q-4.5 1 -10 6 q-5.5 5 -7.5 15 l10 19 q87 73 153 165 q66 92 121 192 l45 135 q-74 0 -130 -11 q-64 -9 -128 -16 l-17 19 l0 13 q5 12 14 15 q55 0 100 9 q32 5 173 17 q27 161 56 256 q6 4 19 4 q11 -5 15 -15 q0 -42 -15 -90 q-18 -67 -29 -145 l14 0 q89 15 178 24 q89 9 176 27 q9 -6 18 -8.5 q9 -2.5 9 -26.5 q-25 -155 -46 -314.5 q-21 -159.5 -118 -285.5 l-19 -7 Z" /><glyph glyph-name="uni4E3B" unicode="&#x4e3b;" d="M544 616 l-12 0 q-74 84 -154 142 l0 11 q7 13 15 14 l13 0 q86 -44 152 -139 l0 -14 q-4 -11 -14 -14 ZM108 -64 l-16 18 l0 13 q1 3 7 9 q6 6 185 16 q88 4 183 10 l0 99 l7 75 l0 87 l-17 0 q-57 -6 -116.5 -7.5 q-59.5 -1.5 -116.5 -10.5 l-9 2 q-18 3 -18 29 q3 6 9 11 q6 5 134 13 q65 3 136 8 q0 163 3 224 l-24 0 q-61 -7 -119 -12 q-98 -8 -195 -20 l-17 10 q-5 6 -5 19 q5 12 14 15 l364 36 q182 15 362 35 q12 -4 13 -14 l0 -16 q-1 -10 -13 -14 l-336 -34 l-4 -66 l0 -159 q69 0 156 9 l110 8 q9 -4 16 -17 l0 -13 q-8 -24 -284 -31 l0 -92 l-5 -75 l0 -95 q31 0 108 6 q232 0 279 2 q12 -4 14 -14 l0 -14 q-2 -13 -14 -14 q-44 -3 -279 -3 q-130 -9 -257 -16.5 q-127 -7.5 -255 -16.5 Z" /><glyph glyph-name="uni4E3D" unicode="&#x4e3d;" d="M763 197 l-17 11 q-13 55 -43 106.5 q-30 51.5 -51 104.5 l7 17 q7 6 20 6 q6 -1 13 -9 l58 -112 q27 -51 37 -109 l-1 0 q-7 -11 -13 -14 l-10 -1 ZM332 185 l-16 10 q-12 55 -42.5 107 q-30.5 52 -51.5 105 l8 17 q6 5 20 5 q5 0 14 -9 l29 -58 l28 -53 q26 -51 37 -110 l-1 -1 q-8 -9 -13 -12 l-12 -1 ZM150 -60 l-16 0 q-4 0 -7.5 4.5 q-3.5 4.5 -4.5 8.5 l1 103 q0 78 -2 156 q-2 179 -2 308 q1 8 16 22 q71 19 280 37 l33 2 q11 -4 14.5 -14 q3.5 -10 3.5 -154 l-16 -246 q-11 -112 -36 -217 l-15 -6 q-38 10 -74 27 l-72 40 l-6 15 l10 17 q5 5 18 5 q25 -13 50 -24.5 q25 -11.5 57 -31.5 q8 39 10 68.5 q2 29.5 9 58.5 q2 47 22 294 l0 122 q-177 -13 -255 -27 l-4 -31 q4 -50 4 -100 l-2 -130 q0 -61 2 -107 q2 -46 2 -78 l-2 -72 q0 -18 1 -33 q-8 -11 -19 -17 ZM835 -54 q-38 10 -74 27 l-72 40 l-6 15 l11 17 q4 4 18 4 q24 -12 49 -24 q25 -12 57 -30 q8 38 10 67.5 q2 29.5 9 58.5 l2 46 q8 57 10 161 q3 57 10 115 l0 123 q-176 -21 -254 -35 l-4 -31 q4 -50 4 -101 l-2 -102 q0 -51 2 -110.5 q2 -59.5 2 -97.5 l-2 -76 q0 -18 1 -33 q-8 -12 -19 -17 l-16 0 q-4 0 -7.5 4.5 q-3.5 4.5 -4.5 8.5 l1 103 q0 78 -2 156 q-2 179 -2 308 q1 8 16 21 q71 19 280 45 l32 2 q11 -4 14.5 -14 q3.5 -10 3.5 -154 q-6 -114 -16 -274 q-11 -113 -36 -217 l-15 -6 ZM112 658 q-8 3 -14 15 l0 12 l17 17 q412 45 771 68 q12 -5 15 -14 l0 -14 q-1 -3 -6 -8 q-10 -9 -190 -21 q-89 -6 -282 -25 q-79 -6 -133 -9 q-90 -5 -178 -21 Z" /><glyph glyph-name="uni4E45" unicode="&#x4e45;" d="M148 -42 l-13 0 q-3 1 -8.5 7.5 q-5.5 6.5 -7.5 15.5 l9 18 q147 99 240 190 q86 93 140 204 q54 111 107 232 q-56 0 -149 -21 l-119 -25 l-14 4 q-27 -80 -74.5 -144.5 q-47.5 -64.5 -101.5 -123.5 q-8 -5 -20 -5 q-13 6 -16 22 l8 20 q98 99 147 209 q44 96 90 227 q3 3 19 3 q10 -1 13 -14 l0 -16 l-43 -136 q180 37 277 48 q27 -17 32 -26 l0 -25 q-57 -136 -106 -228 l20 -20 q30 -65 82 -119.5 q52 -54.5 102 -109.5 q41 -27 78 -58.5 q37 -31.5 81 -51.5 q4 -4 4 -8 l0 -14 q-5 -10 -14 -14 l-13 0 q-116 62 -229 178 q-31 41 -67.5 79 q-36.5 38 -64.5 92 q-73 -130 -174 -222.5 q-101 -92.5 -215 -167.5 Z" /><glyph glyph-name="uni4E48" unicode="&#x4e48;" d="M156 359 l-11 6 q-7 9 -7 17 q0 2 7 15 l25 13 q30 17 58 35 q43 26 79 66 q22 29 84 118 q40 57 82 112 l15 2 l10 -7 q7 -9 8 -16 l-1 -4 q-43 -65 -94 -139 q-48 -70 -105 -131 q-36 -27 -73.5 -51.5 q-37.5 -24.5 -76.5 -35.5 ZM874 -33 l-4 1 l-12 6 q-17 32 -40 62 q-36 47 -69 78 q-279 -107 -623 -107 l-18 9 q-6 9 -6 15 q0 22 33 22 l27 -2 l87 4 q0 13 2 17 q4 13 94 97 q45 43 89 89 q147 191 258 358 q10 6 18 6 q2 0 15 -7 q5 -5 5 -25 q-97 -143 -263 -365 q-37 -40 -77.5 -77 q-40.5 -37 -83.5 -87 l23 0 q175 16 389 87 q-21 28 -42 40 l-47 32 q-8 11 -8 16 q1 4 8 17 q10 6 16 6 l5 -1 q51 -25 91 -64 q97 -98 145 -174 q4 -11 8 -18 q4 -7 4 -12 l-1 -4 l-7 -12 q-10 -7 -16 -7 Z" /><glyph glyph-name="uni4E49" unicode="&#x4e49;" d="M535 542 l-18 5 q-28 51 -75 91 q-41 40 -76 85 l2 20 q2 2 8.5 6 q6.5 4 9.5 4 q3 0 7.5 -1 q4.5 -1 32.5 -29 q41 -44 63 -65 q39 -42 65 -95 l1 -3 q0 -5 -8 -14 l-12 -4 ZM875 -43 l-11 0 q-192 103 -372 272 q-113 -143 -257 -216 l-39 -22 q-31 -21 -63 -33 q-15 8 -15.5 8.5 q-0.5 0.5 -2.5 6.5 q-2 6 -4 10 l8 17 q71 39 142 77.5 q71 38.5 127 99.5 l76 88 q-158 186 -206 387 q4 9 15 13 l15 0 q11 -2 15 -15 q47 -176 191 -353 q62 99 105 198 q36 78 86 207 q4 3 19 3 q9 -3 14 -14 l0 -16 q-67 -217 -195 -414 q109 -109 299 -230 l68 -46 q0 -24 -15 -28 Z" /><glyph glyph-name="uni4E4B" unicode="&#x4e4b;" d="M873 -15 l-93 3 q-294 4 -575 147 q-36 -27 -116 -107 l-7 -2 l-18 10 l-5 14 q8 19 25.5 37 q17.5 18 34.5 34 q25 17 48 40 q20 21 48 26 l70 -40 q89 42 160.5 104.5 q71.5 62.5 140.5 128.5 q33 42 69 82.5 q36 40.5 77 90.5 l-41 3 q-122 -20 -243 -46 q-65 -14 -241 -49 l-18 10 q-4 6 -4 21 q1 8 15 13 q182 32 300 64 q-21 50 -41 93.5 q-20 43.5 -32 87.5 l11 18 q5 4 18 4 q4 -1 9 -6.5 q5 -5.5 6 -8.5 q14 -46 34.5 -89.5 q20.5 -43.5 37.5 -91.5 l16 0 q92 22 209 28 q22 -11 25 -20 l0 -13 q-107 -156 -245 -291 q-50 -37 -96.5 -78.5 q-46.5 -41.5 -106.5 -80.5 q235 -89 435 -89 l95 0 q12 -2 25 -2 q19 0 19 -28 q-4 -13 -13 -14 l-33 -3 Z" /><glyph glyph-name="uni4E4E" unicode="&#x4e4e;" d="M324 356 l-12 0 q-8 4 -12 10 q-4 6 -9 14 q-11 48 -32.5 94 q-21.5 46 -38.5 86 q4 13 13 14 l13 0 q18 -10 28 -26 q8 -19 18 -36 q14 -35 27.5 -70 q13.5 -35 19.5 -72 q-3 -9 -15 -14 ZM663 395 q-2 1 -8 8 q-6 3 -6.5 7 q-0.5 4 -1.5 7 q34 46 58 102 q50 112 70 112 q4 0 9 -0.5 q5 -0.5 8.5 -6.5 q3.5 -6 4.5 -8 l0 -13 q-27 -50 -50.5 -106.5 q-23.5 -56.5 -63.5 -96.5 q-8 -5 -20 -5 ZM515 -80 l-18 0 q-214 91 -214 124 q0 20 28 20 q39 -26 83.5 -45.5 q44.5 -19.5 94.5 -49.5 l7 99 q0 89 2 184 q-57 0 -217 -18 q-95 -13 -190 -23 l-18 11 q-4 6 -4 19 q1 3 6 8.5 q5 5.5 9 6.5 q101 8 204 21 q103 13 210 19 q0 68 -3 130 q0 122 -5 231 l-12 0 q-146 -32 -333 -54 q-4 1 -8.5 6.5 q-4.5 5.5 -5.5 8.5 l0 14 q6 12 19 18 q329 33 671 139 q9 -4 13 -14 l0 -14 q0 -2 -5 -7.5 q-5 -5.5 -10 -6.5 q-66 -29 -137 -44 q-71 -15 -147 -32 l0 -93 l4 -67 q0 -101 3 -208 q35 0 244 19 q110 0 132 3 q13 -8 15 -14 l0 -14 q-1 -4 -6.5 -8.5 q-5.5 -4.5 -8.5 -5.5 q-19 -4 -132 -4 q-61 -5 -119.5 -12.5 q-58.5 -7.5 -124.5 -8.5 l-1 -190 q-2 -36 -2 -75.5 q0 -39.5 -16 -68.5 q-3 -4 -8 -4 Z" /><glyph glyph-name="uni4E50" unicode="&#x4e50;" d="M892 24 l-10 0 q-104 105 -261 196 l-1 8 q0 23 17 23 l18 -4 q169 -92 252 -192 q2 -4 2 -9 q0 -11 -7 -16.5 q-7 -5.5 -10 -5.5 ZM515 -80 l-18 0 q-214 91 -214 124 q0 20 28 20 q39 -26 83.5 -45.5 q44.5 -19.5 94.5 -49.5 l7 99 q0 56 3 287 q-59 -1 -156 -11 q-48 -2 -117 -9 q-11 -6 -18 -6 q-2 0 -14 7 l-7 19 q13 59 31 196 q6 48 19 97 q-1 2 -1 17 q6 12 19 18 q224 20 506 111 q9 -4 13 -14 l0 -14 q0 -2 -5 -7.5 q-5 -5.5 -10 -6.5 q-66 -29 -137 -44 l-82 -16 q-143 -38 -259 -52 l-10 -55 q-15 -70 -19.5 -108.5 q-4.5 -38.5 -14.5 -98.5 l11 6 l75 2 q73 7 172 12 q0 124 -6 171 q8 13 14 15 q16 0 23 -7 q13 -16 13 -173 l11 1 l0 -2 l11 3 q27 0 276 20 l21 3 q13 -8 15 -14 l0 -14 q-1 -4 -6.5 -8.5 q-5.5 -4.5 -8.5 -5.5 q-19 -4 -180 -17 q-58 -8 -118 -9 l-18 -1 l-1 -292 q-2 -36 -2 -75.5 q0 -39.5 -16 -68.5 q-3 -4 -8 -4 ZM118 28 l-16 7 q-5 8 -7 18 l11 17 q58 27 106.5 70 q48.5 43 96.5 85 q5 9 10.5 18.5 q5.5 9.5 12.5 12.5 l14 1 q4 0 9 -3.5 q5 -3.5 7 -22.5 q-36 -53 -88.5 -97 q-52.5 -44 -106.5 -84 l-49 -22 Z" /><glyph glyph-name="uni4E54" unicode="&#x4e54;" d="M666 -102 l-13 0 q-4 2 -15 16 q-1 3 -1 8 q-18 120 -19 194 l-6 56 q-3 192 -4 210 l9 0 l-38 43 q-23 25 -34 58 l-23 1 q-18 0 -105 -11 q-27 -57 -62 -106 l-8 -88 q-43 -162 -58 -208 q-46 -89 -115 -163 l-12 0 q-11 4 -15 22 q123 148 158 373 q-83 -88 -174 -130 q-14 -2 -25.5 -9 q-11.5 -7 -23.5 -7 q-3 0 -4 2 q-9 4 -12 12 l0 15 q7 14 25 21 q83 34 168 110 q58 61 102 153 q-77 -9 -140 -18 q-63 -9 -125 -15 l-18 10 q-4 7 -4 21 q0 1 2.5 4 q2.5 3 4.5 6 q2 3 7 4 q76 7 304 36 q29 65 56 169 q-25 0 -139 -23 q-62 -13 -124 -24 l-19 10 q-4 8 -4 20 q4 10 15 14 q302 45 549 128 q11 -3 13 -15 l0 -13 l-5 -9 q-10 -8 -99 -35.5 q-89 -27.5 -129 -37.5 q-21 -45 -33 -88 q-9 -37 -30 -93 q94 9 127 14 q53 8 108 9 l112 0 l104 5 q11 -4 13 -14 l0 -15 q0 -2 -5 -6 q-10 -13 -85 -13 q-27 -2 -139 -2 l-87 -5 l0 -15 l58 -69 q48 -59 280 -157 q5 -5 5 -19 q-6 -12 -15 -15 l-14 0 q-36 15 -73.5 27.5 q-37.5 12.5 -70.5 37.5 q-28 13 -53 24 q-25 11 -54 40 q0 -42 2 -64 q0 -147 1 -150 q19 -189 24 -222 q-5 -11 -15 -14 Z" /><glyph glyph-name="uni4E5D" unicode="&#x4e5d;" d="M882 -42 l-76 0 q-114 9 -183 86 q-25 26 -29 69 l0 77 q11 82 19 165 q8 83 25 173 l-17 0 q-46 -7 -91.5 -11.5 q-45.5 -4.5 -93.5 -15.5 q-72 -309 -237 -484 q-20 -14 -38 -34 q-18 -16 -37 -21 l-18 9 l-7 17 l10 17 q24 12 45.5 32 q21.5 20 43.5 41 q131 170 189 411 q-46 0 -102 -17 q-38 -13 -80 -19 l-17 11 q-4 5 -4 19 q1 3 6 8 q5 5 9 6 q133 31 199 40 q12 67 16 132 q4 65 17 125 q5 3 18 3 q4 -1 9 -6 q5 -5 6 -8 l0 -54 l-19 -179 l18 0 q53 9 106 14.5 q53 5.5 106 14.5 q10 -6 13 -15 l0 -21 q-37 -167 -51 -422 q0 -33 43 -73 q86 -48 154 -48 q15 0 36 3 l13 125 l0 97 l17 17 l16 0 q10 -5 14 -14 q0 -50 -2 -99 q-9 -40 -10.5 -84 q-1.5 -44 -11.5 -79 q-5 -3 -11 -4.5 q-6 -1.5 -13 -3.5 Z" /><glyph glyph-name="uni4E5F" unicode="&#x4e5f;" d="M793 -72 q-139 4 -276.5 29.5 q-137.5 25.5 -253.5 99.5 q-13 22 -13 50.5 q0 28.5 -2 56.5 l0 89 q-2 21 -2 45.5 q0 24.5 -5 50.5 q-34 0 -135 -50 l-17 9 q-4 9 -4 19 q11 29 157 73 q0 57 -7 171 l0 89 l12 19 q3 4 18 4 q4 -1 7.5 -5 q3.5 -4 4.5 -6 l2 -2 q0 -123 6 -254 q68 18 195 72 l3 10 q0 127 4 170 q3 36 3 70 q0 17 -2 33 l10 17 q9 5 21 5 l8 -6 q5 -5 6 -8 l2 -89 q-9 -63 -9 -183 q91 29 170 61.5 q79 32.5 159 42.5 q4 -1 8.5 -6 q4.5 -5 5.5 -8 l0 -18 q-26 -96 -30 -196.5 q-4 -100.5 -55 -182.5 l-15 -7 q-76 34 -149 81 q-4 6 -4 19 q5 14 14 15 l16 0 q27 -17 55 -31 q28 -14 62 -33 q27 80 33 156.5 q6 76.5 21 160.5 q-81 -25 -150 -51.5 q-69 -26.5 -144 -52.5 q0 -98 -2 -190 q-4 -19 -4 -38 l1 -20 q0 -24 -8 -42 q-14 -4 -20 -4 q-12 4 -14 14 l-2 44 l4 45 q0 103 1 174 q-55 -26 -99 -39 l-93 -33 l-2 -38 q4 -16 4 -36.5 q0 -20.5 2 -40.5 q0 -89 2 -117 q0 -33 14 -60 q213 -105 509 -105 l12 7 q9 34 15 66 q16 77 28 117 q4 4 22 4 q4 -1 9 -6 q5 -5 6 -8 l0 -16 q-13 -50 -23 -102.5 q-10 -52.5 -24 -97.5 q-13 -5 -31.5 -5 q-18.5 0 -36.5 -2 Z" /><glyph glyph-name="uni4E60" unicode="&#x4e60;" d="M211 101 q-9 3 -12 4 q-3 1 -7 10 q-3 5 -3 9 q0 16 11 19 q186 103 390 166 q13 -2 18 -10 l3 -14 q-2 -11 -12 -17 q-158 -50 -388 -167 ZM504 432 q-130 53 -253 90 q-3 4 -3 19 q2 10 14 14 l15 0 q133 -28 244 -87 q4 -8 4 -20 q-4 -12 -21 -16 ZM795 -51 l-9 1 q-46 13 -94 21.5 q-48 8.5 -88 34.5 q-4 6 -4 20 q5 10 13 14 l16 0 q36 -19 76.5 -27 q40.5 -8 87.5 -16 l6 100 q0 396 -2 569 l3 49 l-58 2 q-158 -17 -219 -21 l-90 0 q-95 -6 -256 -26 q-5 3 -10 5.5 q-5 2.5 -7.5 4.5 q-2.5 2 -4 8.5 q-1.5 6.5 -1.5 11.5 l7 9 q14 12 272 31 q120 0 221 11 q65 8 131 10 q17 0 30 -7.5 q13 -7.5 26 -16.5 q5 -6 5 -26 l-5 -45 l2 -569 q-4 -38 -5 -73.5 q-1 -35.5 -15 -64.5 q-13 -8 -28 -10 Z" /><glyph glyph-name="uni4E66" unicode="&#x4e66;" d="M498 347 l162 14 l39 265 l-38 0 q-77 -21 -162 -29 l-1 -250 ZM887 586 l-19 6 q-27 50 -74 91 q-42 40 -77 85 l3 19 q2 3 8.5 7 q6.5 4 9.5 4 q3 0 7 -2 q5 0 32 -29 q41 -43 63 -64 q40 -42 66 -95 l1 -3 q0 -10 -20 -19 ZM478 -110 q-6 1 -11.5 2 q-5.5 1 -10 7 q-4.5 6 -5.5 10 l3 391 q-123 -11 -340 -33 l-17 9 q-4 8 -4 21 q4 9 16 13 q36 8 345 34 q1 62 1 251 q-120 -11 -237 -32 l-17 9 q-4 8 -4 21 q4 9 15 13 l44 8 q52 5 199 23 q-1 86 -4 164 l11 17 q4 1 21 1 q8 -5 12 -17 l3 -160 q65 8 90 14 q71 14 144 14 q10 -4 13 -14 l-41 -292 q88 9 166 19 q2 -1 7.5 -6 q5.5 -5 6.5 -9 l0 -43 q-13 -100 -26 -164 q-13 -64 -48 -126 q-4 -2 -10 -3 q-6 -1 -14 -4 q-40 7 -81.5 12 q-41.5 5 -78.5 21 q-3 6 -3 19 q1 3 5.5 9.5 q4.5 6.5 24.5 6.5 l131 -23 q26 64 37 129.5 q11 65.5 20 133.5 l-13 0 q-91 -12 -331 -31 l-4 -403 q-5 -11 -15 -12 Z" /><glyph glyph-name="uni4E70" unicode="&#x4e70;" d="M334 329 l-12 0 q-124 65 -161 78 q-4 6 -4 18 l17 18 l16 0 q26 -10 62 -26 q97 -45 97 -60 l0 -14 q-5 -11 -15 -14 ZM404 447 l-12 0 q-123 65 -161 78 q-4 6 -4 18 l17 18 l16 0 q27 -10 63 -26 q96 -46 96 -61 l0 -13 q-5 -11 -15 -14 ZM136 -43 l-18 9 q-4 6 -4 19 l19 19 q14 0 24 -2 q218 39 294 212 q-83 -7 -154 -16 q-58 -9 -140 -12 l-31 3 l-22 8 q-3 5 -3 20 q0 3 5 8 q5 5 9 6 l40 1 l46 -1 q64 10 264 30 q30 98 42 278 q1 21 12 38 q7 4 19 4 q13 -7 17 -16 q0 -60 -16 -159 q-15 -94 -29 -140 l35 -3 q87 10 171.5 15.5 q84.5 5.5 167.5 14.5 q14 -6 14 -28 q-6 -12 -16 -17 l-51 -4 q-55 -3 -109 -8 q-80 -7 -163 -13 l-62 -11 q-31 -92 -127 -173 q-107 -73 -234 -82 ZM720 459 q-2 1 -3.5 1.5 q-1.5 0.5 -4.5 3 q-3 2.5 -7 6.5 q-4 4 -4 11 q0 8 2 10 l27 34 l67 108 l-3 0 q9 24 31 74 l-13 4 q-155 -17 -234 -31 q-44 -4 -309 -37 q-58 -10 -110 -10 l-17 10 q-1 2 -1 5 q0 25 18 31 q364 39 479 56 q115 17 230 25 q7 -4 12 -17 l-4 -18 q-16 -32 -40 -106 l-73 -127 l-21 -21 l-22 -12 ZM852 -50 l-11 0 q-59 34 -146 75 q-98 50 -135 62 q-4 6 -4 18 l17 18 l16 0 q44 -16 146 -67 q132 -64 132 -78 l0 -13 q-6 -12 -15 -15 Z" /><glyph glyph-name="uni4E71" unicode="&#x4e71;" d="M239 4 q107 26 205 26 q7 57 15.5 105.5 q8.5 48.5 17.5 105.5 q-144 -16 -298 -43 q17 -53 23.5 -98.5 q6.5 -45.5 14.5 -95.5 l22 0 ZM926 -55 l-4 2 l-37 -2 q-55 10 -110.5 27 q-55.5 17 -99.5 52 q-20 22 -24 61 l0 217 l4 53 l0 107 l5 56 l0 87 l-5 74 q2 22 3.5 43 q1.5 21 12.5 35 q6 4 20 4 q3 -1 8.5 -5 q5.5 -4 6.5 -8 l0 -16 q-6 -35 -6 -94 l4 -33 l0 -87 l-4 -56 l0 -107 l-4 -53 l0 -205 q3 -36 22 -54 q108 -48 196 -54 q12 49 13 96.5 q1 47.5 16 86.5 q5 4 18 4 q14 -5 15 -14 q0 -39 -9 -125 q-5 -49 -21 -88 q-6 -4 -20 -4 ZM201 -67 l-17 17 l-11 61 q-19 126 -43 203 l16 20 q36 7 75.5 13.5 q39.5 6.5 81.5 15.5 q0 103 2 179 q-27 0 -121 -18 q-55 -12 -108 -21 q-14 4 -14 27 l13 16 q114 22 235 43 l0 162 l-7 23 q-47 -20 -92.5 -27 q-45.5 -7 -88.5 -14 l-20 10 q-4 4 -4 22 l20 18 q13 0 27 -2 q89 11 176 44 q87 33 165 70 q11 -4 14 -14 l0 -14 l-20 -19 q-61 -36 -130 -59 q0 -24 4 -40 l0 -154 q44 0 121 11 q47 5 94 6 q3 -1 8.5 -5.5 q5.5 -4.5 6.5 -8.5 l0 -14 q-4 -9 -15 -14 l-217 -19 l-4 -85 l0 -97 q17 0 90 11 q36 4 74 6 q4 -1 8 -6 q4 -5 5 -8 l0 -21 q-21 -92 -38 -231 l2 -16 q-4 -11 -31 -19 l-15 3 q-111 -6 -215 -29 q0 -9 -8 -23 q-6 -3 -19 -3 Z" /><glyph glyph-name="uni4E73" unicode="&#x4e73;" d="M98 619 q-13 2 -13 27 l5 10 q108 23 217.5 49 q109.5 26 212.5 62 q1 0 6.5 -5.5 q5.5 -5.5 6.5 -8.5 l0 -14 q-1 -8 -19 -15 q-167 -67 -416 -105 ZM354 484 l-14 0 l-18 16 q-6 24 -19 47.5 q-13 23.5 -21 45.5 l10 18 q6 4 20 4 q14 -6 22 -29 q8 -23 20 -43.5 q12 -20.5 12 -44.5 q-4 -13 -12 -14 ZM195 469 l-14 0 l-18 17 q-6 26 -25 47 q-16 21 -22 44 q1 8 14 14 l15 0 q35 -28 56 -78 q2 -8 5 -13.5 q3 -5.5 3 -9.5 q0 -3 -1 -7 q-1 -4 -5.5 -8.5 q-4.5 -4.5 -7.5 -5.5 ZM465 472 q-5 0 -10 4 q-5 4 -10 20 l3 12 q48 55 61 127 l13 43 q5 6 18 9 q14 -2 17 -11.5 q3 -9.5 5 -18.5 q-24 -103 -76 -177 q-3 -4 -21 -8 ZM888 -47 q-62 9 -122.5 26 q-60.5 17 -110.5 58 q-14 13 -14 40 q2 212 4 270 q-1 72 -4 145 l6 90 l0 159 l11 19 q7 4 19 4 q12 -8 17 -17 l-2 -165 l-8 -131 q1 -80 4 -161 l-2 -221 q44 -33 94 -47 q50 -14 105 -25 q15 58 22 108.5 q7 50.5 18 98.5 q5 4 19 4 q13 -6 14 -14 l0 -36 q-7 -38 -11 -76 q-10 -75 -26 -124 q-7 -5 -33 -5 ZM296 -87 q-80 39 -160 101 q-4 7 -4 21 q3 14 29 14 q51 -38 135 -88 q59 82 59 163 l-1 28 l-14 6 q-156 -52 -261 -75 l-19 9 q-3 5 -3 21 q1 9 15 13 q111 27 265 77 q-14 32 -35 51.5 q-21 19.5 -36 37.5 l0 14 q2 9 14 13 l17 0 q9 -3 16.5 -13 q7.5 -10 21.5 -22 q35 30 67 53 q32 23 65 65 l-28 3 q-197 -29 -311 -52 q-15 3 -20 10 q-5 7 -5 21 q4 13 14 14 q102 16 204.5 33.5 q102.5 17.5 204.5 21.5 q12 -6 21 -19 q0 -13 2 -13 q-112 -117 -191 -168 l29 -35 q39 18 74 32.5 q35 14.5 68 18.5 q4 -1 8.5 -5.5 q4.5 -4.5 5.5 -8.5 l0 -13 l-15 -16 q-31 -9 -63 -23.5 q-32 -14.5 -67 -27.5 l-2 -25 l2 -49 q-9 -113 -83 -182 l-19 -6 Z" /><glyph glyph-name="uni4E86" unicode="&#x4e86;" d="M479 -53 q-57 34 -112 74 q-55 40 -113 74 q-5 9 -5 25 q1 3 6 7.5 q5 4.5 8 5.5 l13 0 q52 -29 100 -64 q49 -37 105 -73 q74 105 74 249 l0 15 q0 127 -71 224 q-15 18 -32 33 q-17 10 -27 27 l0 12 q1 4 6 8.5 q5 4.5 8 5.5 l16 0 q17 -10 32.5 -26 q15.5 -16 32.5 -33 q120 56 242 173 l-34 3 q-510 -78 -577 -90 q-13 5 -14 13 l0 13 l13 16 q264 52 666 98 q6 -4 15 -8 q4 -4 7 -11 l0 -21 q-63 -62 -133.5 -121.5 q-70.5 -59.5 -158.5 -101.5 q52 -92 52 -247 q-2 -177 -100 -275 q-7 -5 -19 -5 Z" /><glyph glyph-name="uni4E89" unicode="&#x4e89;" d="M541 381 l46 6 q71 12 124 12 l30 -1 q0 17 18 114 l-29 3 l-89 -10 l5 0 q-7 0 -123 -12 q-6 -28 -6 -54.5 q0 -26.5 -2 -57.5 l26 0 ZM570 203 q50 10 152 10 l0 17 q6 29 9 58.5 q3 29.5 8 65.5 l-58 0 l-169 -18 l0 -133 l58 0 ZM467 -85 q-35 19 -73 33.5 q-38 14.5 -73 37.5 l-9 20 l9 18 q6 4 18 4 q37 -28 117 -54 q7 47 8 89 q1 42 3 92 q-143 -20 -234 -28 q-3 0 -7.5 5 q-4.5 5 -5.5 8 l0 14 q9 14 20 18 q54 5 110 12 q56 7 117 14 l0 135 q-73 0 -198 -23 q-88 -16 -176 -25 q-2 0 -5 6 q-6 5 -7 8 l0 16 l18 16 q91 10 182 26.5 q91 16.5 190 20.5 l6 109 q-39 0 -114 -14 q-46 -9 -90 -10 l-19 9 q-4 9 -4 21 q4 10 15 14 q61 1 120.5 11.5 q59.5 10.5 121.5 17.5 q54 69 101 152 l-15 5 q-28 -6 -135 -25 q-66 -15 -132 -27 l-16 7 q-36 -63 -75 -116.5 q-39 -53.5 -93 -87.5 q-23 0 -27 14 l0 13 l7 10 q62 46 101 111 q79 128 98 177 q8 24 22 44 q4 2 20 2 q10 -5 15 -15 l0 -14 l-42 -96 l20 0 q188 45 299 50 q8 -1 14 -14 l0 -18 q-51 -96 -99 -161 l25 -3 q16 0 83 10 q37 5 79 5 q13 -5 26 -6 q21 -3 21 -19 q0 -21 -11 -71 q-5 -27 -7 -61 l11 0 q39 6 104 6 q10 -4 14 -14 q0 -26 -14 -28 l-119 -7 q-1 -32 -16 -146 q11 -11 11 -20 q0 -15 -16 -20 l-23 -5 q-104 0 -148 -5 q-25 -4 -51 -4 l-27 1 q-4 -67 -4 -128.5 q0 -61.5 -26 -110.5 l-15 -6 Z" /><glyph glyph-name="uni4E8B" unicode="&#x4e8b;" d="M527 481 l46 5 l91 0 l52 8 l16 56 l-114 -8 q-51 -3 -106 -9 l0 -52 l15 0 ZM303 465 q77 12 164 14 l0 51 q-44 0 -199 -14 q0 -16 11 -51 l24 0 ZM541 244 q170 12 228 21 l16 76 l-23 0 q-59 -8 -247 -23 l-1 -56 l1 -18 l26 0 ZM527 115 q51 7 103 8.5 q52 1.5 110 7.5 l0 9 q11 23 17 75 l-14 0 q-113 -12 -228 -14 l0 -86 l12 0 ZM492 -102 l-14 0 q-40 18 -82 31 q-42 13 -76 38 l-6 16 q12 21 17 21 l12 0 q26 -18 58 -29 q32 -11 73 -22 l-3 110 l-33 0 q-62 -9 -125.5 -11.5 q-63.5 -2.5 -126.5 -7.5 q-12 4 -14 14 l0 12 l12 15 q68 8 138.5 12 q70.5 4 148.5 10 l0 87 l-35 0 q-89 -6 -180 -10.5 q-91 -4.5 -179 -16.5 q-2 0 -7.5 6 q-5.5 6 -6.5 8 l0 13 l13 15 q94 13 192 18 q98 5 203 11 q0 25 -2 44 l2 33 l-18 0 q-63 -7 -122 -12 q-74 -6 -145 -15 l-18 10 q-4 9 -4 21 l6 8 q10 10 151 21 q72 4 150 10 q0 39 -2 78 q-57 -3 -108 -7.5 q-51 -4.5 -93 -20.5 l-17 8 q-28 80 -31 96 l-15 16 l0 12 l12 14 l249 22 q5 18 5 74 q-100 -6 -193 -13.5 q-93 -7.5 -179 -23.5 q-14 6 -14 27 l8 11 q10 15 191 29 l187 14 l0 93 l13 23 q4 5 19 5 q3 -1 8 -6.5 q5 -5.5 6 -8.5 l-2 -106 q46 0 194 12 l180 12 q14 -7 15 -14 l0 -15 q-1 -3 -6 -7.5 q-5 -4.5 -9 -5.5 q-229 -20 -374 -26 l-1 -71 l16 0 q59 7 117 9.5 q58 2.5 114 8.5 q10 -4 21 -24 l0 -15 q-7 -25 -14 -50.5 q-7 -25.5 -22 -47.5 q-32 -15 -82 -18 l-91 0 l-59 -4 l1 -77 q43 0 163 14 q64 7 131 12 q8 -2 17.5 -4 q9.5 -2 9.5 -27 q-8 -20 -10.5 -41.5 q-2.5 -21.5 -10.5 -49.5 q25 0 98 6 q12 -4 14 -15 l0 -12 l-14 -15 l-111 -13 l-15 -89 q4 -7 4 -24 q0 -10 -14 -14 q-194 -12 -262 -20 q0 -78 2 -113 q-1 -15 -3 -29 q-2 -14 -12 -25 q-5 -4 -10 -4 Z" /><glyph glyph-name="uni4E8E" unicode="&#x4e8e;" d="M482 -69 q-43 23 -87 42 q-45 22 -81 47 q-7 12 -7 23 q7 14 15 15 l14 0 q32 -20 142 -73 q8 27 9 70 q0 158 2 301 q-87 0 -389 -50 l-19 11 q-3 3 -3 21 l17 16 q98 10 195.5 25.5 q97.5 15.5 200.5 20.5 q1 77 1 178 l-3 58 l3 28 l-17 0 q-70 -12 -141.5 -15 q-71.5 -3 -140.5 -14 l-19 10 q-4 6 -4 20 q4 10 14 14 q155 11 309 31.5 q154 20.5 306 26.5 q11 -5 15 -14 l0 -14 q-1 -3 -7.5 -9.5 q-6.5 -6.5 -136.5 -15.5 q-66 -4 -134 -11 l-2 -70 l3 -25 q0 -101 -1 -172 l62 4 l81 0 l119 10 l103 0 q13 -2 13 -28 q-4 -12 -13.5 -14.5 q-9.5 -2.5 -102.5 -2.5 l-119 -9 l-81 0 l-64 -5 l0 -200 q-2 -80 -6 -160 q-3 -36 -16 -65 q-8 -5 -30 -5 Z" /><glyph glyph-name="uni4E91" unicode="&#x4e91;" d="M277 635 q-6 3 -14 4 q-14 3 -14 28 q1 3 6 8 q5 5 9 6 q88 0 466 54 q11 -4 14 -15 q0 -24 -15 -27 q-291 -44 -452 -58 ZM877 -51 l-16 9 q-26 50 -51.5 101.5 q-25.5 51.5 -72.5 93.5 q-141 -65 -290 -97 q-149 -32 -298 -51 q-8 1 -16 2 q-8 1 -16 22 q13 22 18 22 l48 -2 l88 16 q77 108 169 319 q-56 0 -180 -25 q-80 -16 -158 -28 l-15 18 l0 11 q8 14 15 16 q189 37 380 57 q191 20 381 34 q10 -4 13 -15 q0 -26 -13 -28 l-374 -33 q-52 -146 -153 -306 l16 -4 q190 35 352 99 q-28 27 -48.5 47 q-20.5 20 -35.5 39 l0 12 q3 9 15 14 l11 0 q142 -112 209 -216 q11 -29 24 -56.5 q13 -27.5 22 -54.5 q-7 -13 -24 -16 Z" /><glyph glyph-name="uni4E92" unicode="&#x4e92;" d="M308 240 q92 14 182 31 l185 31 q7 53 10.5 98 q3.5 45 13.5 95 q-49 0 -187 -34 q-84 -21 -172 -40 q-14 -44 -23 -86.5 q-9 -42.5 -21 -90.5 l12 -4 ZM78 -59 q-14 5 -15 13 l0 13 l13 16 q132 20 269 25.5 q137 5.5 279 15.5 q17 71 42 236 q-107 -23 -200 -38 q-130 -21 -186 -32 l-18 -17 l-13 0 q-13 5 -14 13 l0 18 q33 110 59 223 q26 113 55 232 l-30 0 q-47 -9 -95 -14 q-48 -5 -93 -18 l-18 11 q-4 4 -4 19 q1 5 7.5 9 q6.5 4 11.5 7 q404 63 751 83 q12 -4 14 -14 l0 -14 q-2 -10 -14 -14 q-121 -4 -240.5 -19.5 q-119.5 -15.5 -243.5 -26.5 q-8 -51 -20.5 -97 q-12.5 -46 -22.5 -99 q17 0 199 42 q91 21 179 34 q14 -5 15 -14 l0 -16 q-30 -263 -74 -490 q23 0 70 4 q95 0 189 4 q14 -5 14 -28 l-14 -15 q-15 -3 -189 -5 q-166 -13 -332 -21.5 q-166 -8.5 -331 -25.5 Z" /><glyph glyph-name="uni4E94" unicode="&#x4e94;" d="M401 42 q63 5 125.5 11 q62.5 6 131.5 7 q31 139 45 328 q-16 0 -269 -36 q-7 -80 -21 -154 q-14 -74 -30 -156 l18 0 ZM106 -33 q-14 2 -14 26 l19 19 q52 4 106.5 11 q54.5 7 113.5 13 q35 122 60 311 q-23 0 -104 -13 q-43 -9 -86 -10 q-14 2 -14 27 l17 16 q63 6 195 27 q11 62 23.5 121 q12.5 59 16.5 126 l-23 0 q-63 -14 -129.5 -21 q-66.5 -7 -129.5 -20 l-18 10 q-4 7 -4 22 q1 7 15 12 q172 25 343.5 49 q171.5 24 344.5 34 q9 -4 14 -14 l0 -14 q-3 -9 -14 -14 q-251 -20 -355 -36 q-5 -67 -15.5 -125.5 q-10.5 -58.5 -22.5 -125.5 l15 0 q107 23 261 35 q32 0 32 -18 q0 -12 -20 -180 q-10 -85 -29 -175 q28 0 47 4 l93 0 l46 5 q12 -7 15 -15 l0 -13 q-1 -4 -6.5 -9 q-5.5 -5 -8.5 -6 l-46 -6 q-320 0 -738 -53 Z" /><glyph glyph-name="uni4E9B" unicode="&#x4e9b;" d="M855 308 q-65 10 -130.5 24.5 q-65.5 14.5 -120.5 54.5 q-15 16 -19 49 l0 220 l5 33 l0 80 l10 18 q5 4 19 4 q3 -1 8.5 -5.5 q5.5 -4.5 5.5 -7.5 q0 -89 -3 -175 q68 27 121 58.5 q53 31.5 109 49.5 q11 -2 12 -13 l0 -14 q-3 -10 -14 -15.5 q-11 -5.5 -21 -13.5 q-51 -23 -99 -52.5 q-48 -29.5 -108 -45.5 q0 -107 2 -129 q1 -14 15 -21 q105 -42 218 -54 q8 37 14.5 68.5 q6.5 31.5 21.5 57.5 q5 4 19 4 q11 -5 15 -13 l0 -16 q-8 -25 -18.5 -69 q-10.5 -44 -19.5 -67 q-18 -10 -42 -10 ZM94 258 l-17 10 q-4 7 -4 20 q1 3 6 8.5 q5 5.5 8 6.5 q15 1 29.5 5.5 q14.5 4.5 37.5 7.5 q-16 92 -23 179 q-6 81 -14 161 l-1 12 l11 18 q3 4 19 4 q11 -5 14 -14 q7 -123 34 -349 q49 17 123 32 l4 92 q0 145 -2 181 l2 81 q3 14 3 29 l-1 21 q0 32 30 32 q8 -3 13 -14 q0 -74 -2 -155 q24 0 82 11 q32 7 62 10 q9 -1 13 -13 l0 -13 q-11 -15 -17 -18 l-140 -25 l0 -127 l-4 -77 q38 0 87 15 q34 9 70 15 q11 -6 14 -14 l0 -14 q-4 -7 -9 -10 q-12 -5 -15 -8 q-103 -23 -206.5 -50 q-103.5 -27 -206.5 -50 ZM227 117 q-8 1 -14 14 l0 13 l17 17 q138 13 276 31 q138 18 275 25 q11 -4 14 -15 q0 -23 -14 -27 q-139 -10 -277 -27.5 q-138 -17.5 -277 -30.5 ZM105 -69 l-18 11 q-4 6 -4 20 q5 10 14 14 q72 5 212 24 l77 0 q91 12 182.5 15.5 q91.5 3.5 185.5 10.5 l143 0 q13 -4 14 -14 l0 -15 q-1 -3 -5.5 -8 q-4.5 -5 -11 -6.5 q-6.5 -1.5 -140.5 -1.5 q-94 -5 -186.5 -9 q-92.5 -4 -181.5 -16 l-77 0 q-50 -5 -102 -13 q-52 -8 -102 -12 Z" /><glyph glyph-name="uni4EA1" unicode="&#x4ea1;" d="M602 26 l-105 2 q-46 8 -94.5 10.5 q-48.5 2.5 -88.5 26.5 q-21 99 -26 206 q-7 107 -20 216 q-52 0 -154 -20 l-18 11 q-4 3 -4 19 q2 8 16 15 q105 17 212.5 24.5 q107.5 7.5 231.5 19.5 l-22 15 q-19 44 -48.5 87 q-29.5 43 -42.5 87 q1 3 6 6 q5 6 8 7 l13 0 q23 -23 40.5 -54.5 q17.5 -31.5 38.5 -60.5 q4 -16 13 -31.5 q9 -15.5 9 -31.5 l-13 -19 l19 -4 q83 10 166 16 q83 6 163 15 q4 -1 8 -6.5 q4 -5.5 5 -7.5 l0 -16 q-5 -11 -14 -14 q-147 -12 -292.5 -27 q-145.5 -15 -295.5 -26 l0 -16 q11 -95 17 -189.5 q6 -94.5 16 -189.5 q39 -15 77.5 -16.5 q38.5 -1.5 76.5 -6.5 q104 0 122 -2 q50 1 99.5 3.5 q49.5 2.5 99.5 2.5 q8 -1 8 -6 q4 -5 5 -8 l0 -14 q-5 -18 -53 -18 l-34 2 q-23 0 -43 -5 q-76 0 -102 -2 Z" /><glyph glyph-name="uni4EA4" unicode="&#x4ea4;" d="M122 577 q-14 2 -14 26 l13 16 q85 12 172 26 q69 12 139 12 l46 -1 q-12 46 -27.5 79 q-15.5 33 -22.5 64 l16 16 l11 0 l12 -7 q7 -12 33 -75 q13 -31 18 -71 q32 0 218 15 l85 0 l40 4 q8 -3 13 -14 l0 -15 q-4 -10 -13 -13 l-40 -6 l-85 0 q-152 -13 -308 -20 q-156 -7 -306 -36 ZM842 370 l-12 0 q-46 51 -107 85 q-61 34 -109 80 q0 22 15 26 l14 0 q53 -39 112.5 -73.5 q59.5 -34.5 100.5 -88.5 q0 -27 -14 -29 ZM169 308 l-12 0 q-3 1 -8.5 6 q-5.5 5 -6.5 8 l0 12 q57 47 107 107.5 q50 60.5 99 112.5 q14 0 18 -2 q7 -5 12 -14 l0 -12 q-50 -55 -97.5 -116 q-47.5 -61 -111.5 -102 ZM861 -51 q-156 53 -363 207 q-193 -160 -383 -198 q-9 4 -13 14 l0 13 l6 11 q197 56 356 189 q-20 22 -37 39 q-86 91 -120 137 l0 11 q4 15 26 15 l26 -25 q27 -27 53 -56 q38 -43 84 -86 q44 49 80 96 q36 47 53 103 q10 8 18 8 q14 0 22 -16 l0 -19 q-21 -55 -60 -103 q-30 -39 -81 -100 q85 -64 173 -115 q88 -54 180 -90 q4 -4 4 -19 q-4 -13 -24 -16 Z" /><glyph glyph-name="uni4EA7" unicode="&#x4ea7;" d="M128 -75 q-16 8 -17 22 q69 103 94.5 225.5 q25.5 122.5 50.5 237.5 q10 4 20 4 l8 -4 q34 10 67 12 q28 2 61 9 l0 11 q-10 22 -21 40 q-17 29 -25 58 q9 17 13 19.5 q4 2.5 17 2.5 q9 -3 15 -14 q7 -25 22 -48 q18 -28 21 -67 q18 0 132 11 q17 41 35 74 q23 41 41 92 l-20 3 l-484 -59 l-14 16 q0 23 13 27 l367 46 l-29 66 q-13 26 -21 54 q3 7 6 14.5 q3 7.5 23 7.5 q12 -3 15 -16 q7 -19 16 -38 q17 -34 26 -82 l10 -5 q98 18 193 22 q55 4 110 10 q13 -7 16 -16 l0 -14 q-3 -15 -100 -22 l-73 -5 q-17 -36 -31 -72 q-21 -52 -52 -98 l21 0 q137 14 214 26 q14 -2 14 -29 l-15 -15 q-128 -20 -264 -29 q-151 -10 -312 -37 q-27 -116 -51 -229 q-24 -113 -93 -206 q-9 -5 -19 -5 Z" /><glyph glyph-name="uni4EAB" unicode="&#x4eab;" d="M136 641 l-18 10 q-4 5 -4 20 q1 4 6.5 8 q5.5 4 7.5 5 q88 8 173 20.5 q85 12.5 180 21.5 q-13 29 -23 50 q-10 21 -11 43 q1 2 5.5 6.5 q4.5 4.5 7.5 5.5 l15 0 q7 -3 13 -11 q11 -20 39 -88 l18 -3 q82 7 161 13.5 q79 6.5 161 6.5 q10 -4 14 -15 l0 -14 q-1 -5 -19 -16 q-350 -11 -726 -63 ZM341 460 q92 17 310 46 l33 82 l-22 0 q-88 -16 -174 -27 q-87 -15 -178 -36 l-3 -12 l17 -53 l17 0 ZM301 410 q-3 1 -7 4.5 q-4 3.5 -21 64.5 q-14 41 -18 72 l10 18 q7 3 20 3 l14 -3 q108 21 215 40.5 q107 19.5 214 24.5 l5 -4 q8 -4 9 -10 l0 -19 q-17 -29 -30 -63.5 q-13 -34.5 -32 -64.5 q-91 -22 -188 -31 q-96 -12 -191 -32 ZM481 -108 q-47 14 -92.5 35.5 q-45.5 21.5 -91.5 44.5 q-3 6 -3 21 q1 3 5.5 7.5 q4.5 4.5 8.5 5.5 l17 0 q40 -16 79 -35.5 q39 -19.5 81 -32.5 q27 18 44 45 l17 28 q19 38 29 100 q-127 0 -256 -23 l-193 -32 l-18 10 q-3 7 -3 21 q1 3 5 8 q9 8 155 30 q174 26 291 30 q-20 44 -47.5 62.5 q-27.5 18.5 -46.5 41.5 l0 13 q1 3 6 8 q5 5 8 6 l19 0 l46 -39 q37 27 77 43.5 q40 16.5 86 50.5 l-27 4 q-255 -22 -443 -52 l-15 18 l0 11 q1 3 5.5 8.5 q4.5 5.5 8.5 6.5 q287 44 549 58 q13 -6 21 -21 l0 -13 q-28 -35 -71 -59 q-43 -24 -84 -49 l-74 -33 l35 -64 q200 0 286 2 q2 -1 6 -2.5 q4 -1.5 8 -4.5 q4 -3 4 -22 q-2 -13 -24 -16 l-78 2 l-192 -2 q-14 -125 -86 -195 q-29 -26 -52 -26 Z" /><glyph glyph-name="uni4EAE" unicode="&#x4eae;" d="M140 -92 l-21 11 q-3 3 -3 16 q13 21 31 25 q130 86 197 235 l11 11 q58 9 96 12 q103 10 149 18 q4 0 10.5 -4 q6.5 -4 18.5 -4.5 q12 -0.5 17 -8.5 q3 -10 3 -22 q-11 -81 -11 -154 l25 -45 q92 -34 191 -38 q6 38 6 71 l-1 25 q0 63 34 63 q8 -2 14 -13 q0 -121 -16 -182 q-10 -7 -31 -7 l-46 0 q-52 7 -105 17 q-53 12 -94 56 q-22 28 -22 90 l1 21 q6 34 6 90 l-14 0 q-78 -16 -127.5 -19 q-49.5 -3 -76.5 -8 l0 -12 q-54 -109 -165 -198 q-36 -26 -77 -46 ZM130 605 q-2 1 -7.5 6 q-5.5 5 -6.5 8 l0 14 q8 12 19 19 q86 19 176 28.5 q90 9.5 189 19.5 q-39 51 -46 90 l10 18 q6 5 19 5 q10 -3 15 -16 q6 -25 21 -47 q15 -22 26 -48 l28 0 q154 21 298 29 q2 0 7.5 -5 q5.5 -5 6.5 -10 l0 -15 q-1 -3 -7 -8 q-5 -9 -379 -37 q-187 -16 -369 -51 ZM366 418 q141 16 281 43 l0 11 l42 82 l-17 4 q-87 -7 -172.5 -22.5 q-85.5 -15.5 -177.5 -31.5 l30 -86 l14 0 ZM334 368 q-9 1 -13 16 q-33 66 -50 152 q1 10 14 14 q113 11 223.5 29 q110.5 18 220.5 27 q13 -5 15 -14 l0 -16 q-13 -40 -33.5 -77 q-20.5 -37 -35.5 -74 q-83 -20 -168.5 -32 q-85.5 -12 -172.5 -25 ZM141 106 l-12 0 l-11 6 q-6 8 -7 16 l1 6 q15 37 23.5 76.5 q8.5 39.5 24.5 73.5 q175 47 358.5 60 q183.5 13 365.5 32 q9 -3 14 -15 l0 -12 q-26 -30 -45 -63.5 q-19 -33.5 -47 -61.5 l-5 -1 l-18 11 q-4 5 -4 17 l45 70 l-24 3 q-151 -11 -303 -25 q-152 -14 -305 -46 q-18 -91 -44 -144 q-3 -2 -7 -3 Z" /><glyph glyph-name="uni4EBF" unicode="&#x4ebf;" d="M219 -69 l-13 0 q-11 4 -14 15 q-3 7 -3 97 l4 36 l0 275 l-8 92 l-34 -62 q-33 -49 -55 -70 l-13 0 q-10 1 -14 14 l0 17 q132 175 190 431 q4 3 20 3 q10 -4 14 -14 q0 -27 -28 -131 q-16 -57 -42 -118 q9 -8 11 -12 q2 -4 3 -7 l-2 -7 q-5 -12 -5 -23 q4 -67 8 -113 l0 -275 l-5 -36 l0 -98 q-5 -11 -14 -14 ZM727 -32 l-90 0 q-68 5 -135.5 20 q-67.5 15 -123.5 68 q-5 11 -10 20.5 q-5 9.5 -5 20.5 q12 67 47 125 l61 85 q125 177 270 343 l-18 5 q-95 -27 -188 -50 q-84 -21 -169 -45 l-14 21 l0 11 q5 11 13 14 q74 17 147 37 q128 38 271 62 l24 -18 q2 -1 2 -16 q-201 -237 -383 -504 l-20 -69 q6 -17 14 -22 q44 -39 114 -50 q48 -9 100 -13 l92 0 q33 2 63.5 7.5 q30.5 5.5 57.5 7.5 q16 47 26.5 92.5 q10.5 45.5 22.5 88.5 q6 5 21 5 q11 -4 13 -14 q0 -39 -16 -88 q-15 -72 -39 -122 q-8 -6 -14 -6 q-13 0 -54.5 -6 q-41.5 -6 -79.5 -10 Z" /><glyph glyph-name="uni4EC0" unicode="&#x4ec0;" d="M223 -64 q-4 1 -8.5 6.5 q-4.5 5.5 -5.5 10 q-1 4.5 -2 8.5 l3 55 l-3 15 q0 217 -2 352 l-10 30 q-29 -46 -49.5 -84 q-20.5 -38 -48.5 -66 l-6 -2 l-17 11 l-6 16 q168 253 209 497 q6 4 19 4 q10 -4 17 -17 l0 -25 q-27 -139 -85 -270 q9 -3 11.5 -4.5 q2.5 -1.5 3.5 -2.5 q4 -5 5 -8 l0 -16 q-4 -10 -4 -50 q4 -15 7 -363 q4 -11 4 -46 q-2 -14 -2 -25.5 q0 -11.5 -9 -18.5 q-9 -7 -21 -7 ZM605 -96 q-12 5 -15 27 q6 17 6 37 q0 258 14 450 l-17 0 q-65 -10 -128.5 -16.5 q-63.5 -6.5 -123.5 -20.5 l-18 11 q-4 6 -4 19 q1 4 7 9 q7 12 145 27 q69 8 144 19 q3 58 3 170 l-8 141 l10 18 q6 3 20 3 q3 -1 8.5 -5.5 q5.5 -4.5 6.5 -8.5 l7 -148 q0 -112 -1 -165 q38 0 132 12 q55 7 113 7 q7 -2 13 -14 l0 -14 q-1 -4 -5.5 -9.5 q-4.5 -5.5 -7.5 -5.5 q-62 -2 -123 -9.5 q-61 -7.5 -128 -11.5 q-12 -159 -14 -305 q0 -88 -3 -169 q-1 -25 -12 -44 q-8 -4 -21 -4 Z" /><glyph glyph-name="uni4EC5" unicode="&#x4ec5;" d="M239 -63 q-13 4 -16 25 l2 35 l-2 161 q2 98 2 141 q0 43 5 173 l-44 -67 q-34 -59 -80 -103 q-21 0 -27 14 l0 13 q133 169 218 440 q4 3 20 3 q12 -7 18 -18 l0 -12 q-20 -46 -34 -92 q-16 -54 -41 -108 l9 -7 q13 -8 14 -14 l0 -12 q-9 -8 -10 -33 q-1 -132 -4 -274 l-2 -204 l1 -40 q-5 -11 -9 -16 q-4 -5 -20 -5 ZM623 268 q99 192 165 395 l-23 0 q-80 -21 -153.5 -33.5 q-73.5 -12.5 -161.5 -35.5 q66 -205 154 -326 l19 0 ZM381 -40 l-13 0 q-4 1 -8.5 6 q-4.5 5 -5.5 8 l0 16 l6 12 q64 40 128 89 q63 52 100 126 q-105 121 -177 365 q-21 0 -25 -1.5 q-4 -1.5 -14 -3.5 l-19 9 q-4 6 -4 22 q1 6 6 10 q5 4 8 4 q191 50 442 89 q14 -8 18 -18 q5 -6 10 -27 l-2 -13 q-68 -218 -184 -432 q55 -77 133.5 -124 q78.5 -47 140.5 -102 l0 -13 q-1 -7 -6 -11 q-5 -4 -8.5 -4 q-3.5 0 -6.5 -1 q-163 97 -240 166 l-40 50 q-48 -85 -110 -132 q-63 -52 -129 -90 Z" /><glyph glyph-name="uni4ECA" unicode="&#x4eca;" d="M648 430 q-75 23 -155.5 28 q-80.5 5 -155.5 25 q-3 5 -3 19 q3 10 14 14 l25 0 q76 -13 152.5 -19 q76.5 -6 145.5 -31 q4 -9 4 -20 q-4 -13 -27 -16 ZM87 406 l-17 9 q-3 5 -3 19 q7 12 21 20 q87 38 161 99 q126 103 194 191 q23 32 47 56 l16 0 q10 -2 14 -15 q6 -21 18.5 -36.5 q12.5 -15.5 23.5 -33.5 q92 -72 178 -152 q86 -80 199 -119 q3 -4 3 -7 q0 -26 -14 -28 l-13 0 q-118 40 -208 124.5 q-90 84.5 -184 160.5 l-26 42 q-180 -214 -371 -317 l-39 -13 ZM439 -92 l-19 10 q-3 6 -4 18 q81 67 143 153 q97 134 122 197 l-15 0 q-251 -18 -460 -65 l-18 10 q-3 6 -3 20 q1 3 6 8 q5 5 9 6 q305 58 531 68 l12 -7 l6 -10 l0 -14 q-56 -92 -116.5 -183 q-60.5 -91 -134.5 -170 q-17 -14 -31 -25.5 q-14 -11.5 -28 -15.5 Z" /><glyph glyph-name="uni4ECD" unicode="&#x4ecd;" d="M798 -57 l-12 0 q-116 64 -180 125 q-6 10 -6 17 q0 22 28 22 q89 -81 165 -112 q37 107 46 215 q6 104 23 218 q-57 -13 -100 -27 q-43 -17 -87 -37 l-20 -17 l-6 -2 l-17 10 q-5 7 -5 19 q33 117 63 307 q-19 0 -139 -20 q-41 -392 -218 -695 l-15 -7 l-18 10 q-3 3 -3 18 q166 296 208 659 q-29 0 -85 -15 l-66 -18 q-13 6 -17 24 l10 18 q228 62 387 78 q12 -4 15 -15 l0 -12 q-25 -69 -34.5 -137 q-9.5 -68 -28.5 -148 q138 49 207 62 q11 -5 15 -13 l0 -38 q-20 -122 -28 -251 q-8 -129 -75 -234 q-3 -4 -7 -4 ZM241 -64 l-13 0 q-7 2 -15 16 l-5 101 q0 300 -2 430 q-37 -54 -59 -96.5 q-22 -42.5 -48 -78.5 q-5 -4 -20 -4 q-3 1 -8 7 q-5 4 -6 7 l0 13 q69 108 116.5 229 q47.5 121 91.5 239 q5 3 18 3 q12 -6 17 -16 l0 -18 q-20 -54 -42 -109 q-25 -56 -40 -118 l22 -12 q5 -9 5 -20 l-3 -154 q2 -302 6 -404 q-5 -11 -15 -15 Z" /><glyph glyph-name="uni4ECE" unicode="&#x4ece;" d="M96 24 q-3 1 -7.5 6 q-4.5 5 -5.5 9 l0 16 q93 158 134 334.5 q41 176.5 57 353.5 q5 4 17 4 l11 -6 l7 -12 l0 -21 q-8 -53 -11.5 -109.5 q-3.5 -56.5 -16.5 -112.5 q54 -76 97 -156 q43 -80 58 -168 q-5 -12 -14 -15 l-13 0 l-17 17 q-12 66 -45 129 l-76 134 q-47 -225 -153 -398 q-9 -5 -22 -5 ZM509 1 l-14 0 q-11 5 -14 14 l0 13 q171 288 171 697 l-2 8 q1 3 2 7 q1 4 1.5 6.5 q0.5 2.5 8 7 q7.5 4.5 20.5 4.5 q14 -5 15 -13 l0 -75 l-12 -142 l17 -18 q33 -129 104.5 -245 q71.5 -116 141.5 -224 q0 -2 -5.5 -7 q-5.5 -5 -8.5 -6 l-13 0 q-25 19 -47 48.5 q-22 29.5 -42 54.5 l-78 140 q-43 67 -81 157 q-26 -126 -59.5 -230 q-33.5 -104 -97.5 -194 q-2 -3 -7 -3 Z" /><glyph glyph-name="uni4ED6" unicode="&#x4ed6;" d="M827 -44 q-198 0 -380 81 q-35 70 -36 154 q-1 84 -9 175 q-33 -14 -52.5 -24.5 q-19.5 -10.5 -39.5 -10.5 q-3 1 -8 6 q-5 5 -6 8 l0 13 l17 19 q19 6 40 16.5 q21 10.5 46 20.5 q4 27 4 258 q4 13 12 14 l14 0 l16 -15 l1 -2 l0 -233 q38 14 157 63 l2 277 l6 11 q11 6 20 6 q5 0 8 -2.5 q3 -2.5 6 -5.5 q3 -3 4 -6 l0 -266 q153 58 229 75 q12 -5 25 -27 q0 -15 -29 -200 q-14 -92 -60 -170 l-21 -7 q-24 6 -47 17 q-25 8 -45 22 q-4 7 -4 20 q5 10 15 15 l15 0 l62 -26 q31 76 44 150 q7 40 22 154 q-60 -16 -108.5 -34 q-48.5 -18 -97.5 -37 l-4 -45 q0 -125 4 -249 q-1 -11 -22 -15 l-20 8 q-6 5 -6 27 q5 7 5 17 l-5 212 l3 27 q-45 -13 -80.5 -29 q-35.5 -16 -77.5 -30 l0 -47 q6 -68 9 -138 q3 -70 24 -138 q208 -65 343 -65 q18 0 47 7 q8 41 13 76 q3 36 18 67 q5 3 17 3 l12 -7 q3 -3 6 -9 q0 -10 -13 -92 q-7 -40 -18 -74 q-21 -10 -77 -15 ZM227 -67 l-14 0 q-4 1 -8 6 q-4 5 -5.5 10.5 q-1.5 5.5 -1.5 111.5 l5 48 q0 273 -6 351 l-30 -45 q-44 -72 -86 -113 l-13 0 q-9 4 -15 16 l0 11 q82 99 127.5 217.5 q45.5 118.5 81.5 236.5 q6 4 20 4 q10 -5 13 -14 l0 -23 q-15 -59 -36 -117 q-21 -58 -42 -121 l25 -14 q3 -3 3 -7 q0 -14 -4 -46 l4 -48 q0 -144 2 -288 l-6 -48 l0 -113 q-1 -3 -6 -8.5 q-5 -5.5 -8 -6.5 Z" /><glyph glyph-name="uni4ED8" unicode="&#x4ed8;" d="M549 170 l-11 0 q-21 28 -130 160 l0 18 q1 11 14 13 l12 0 q87 -91 130 -160 l0 -16 q-3 -8 -15 -15 ZM249 -49 l-15 0 q-3 1 -8 5.5 q-5 4.5 -6 8.5 l-2 28 l2 50 q-3 44 -3 236 q3 28 3 182 q-38 -44 -65 -77.5 q-27 -33.5 -45 -68.5 l-17 -6 q-22 13 -22 19 l0 13 q142 165 225 419 q6 4 20 4 l8 -7 q5 -4 6 -7 l0 -22 q-14 -53 -37.5 -104 q-23.5 -51 -46.5 -109 l26 -13 q5 -7 5 -19 l-13 -15 q0 -161 -3 -189 q0 -192 3 -284 l-1 -8 l1 -18 q-3 -5 -7 -11 q-4 -6 -8 -7 ZM716 -51 q-45 17 -88 41 q-43 24 -86 44 l-8 19 l10 18 q6 4 18 4 q30 -20 64 -33 q34 -13 72 -39 q12 127 12 252 l3 37 q0 92 6 189 q-63 0 -355 -53 q-13 5 -14 13 l0 14 l16 18 q144 29 355 52 q2 66 2 224 q3 16 10 20.5 q7 4.5 22 4.5 q11 -4 14 -15 q0 -113 -4 -229 l22 0 q62 14 121 14 q8 -3 13 -15 q0 -25 -13 -27 l-145 -17 l-6 -116 q0 -77 -4 -114 l0 -93 q-3 -53 -4.5 -107 q-1.5 -54 -13.5 -103 q-6 -3 -19 -3 Z" /><glyph glyph-name="uni4EE3" unicode="&#x4ee3;" d="M815 609 l-18 11 q-24 26 -51 52 q-20 15 -50 45 l0 14 q1 3 6 8 q5 5 8 6 l17 0 q29 -24 60 -50 q31 -26 52 -57 l0 -12 q-5 -14 -24 -17 ZM244 -51 q-13 3 -16 30 l2 37 q-5 253 -5 442 q-36 -51 -65 -84 q-29 -33 -57 -65 l-5 -1 l-18 11 q-5 6 -5 18 q157 171 218 421 q5 3 20 3 q10 -2 14 -13 q0 -71 -80 -246 l18 -9 l4 -8 q0 -333 3 -368 q0 -92 2 -143 l-10 -22 q-6 -3 -20 -3 ZM878 -80 q-8 2 -17 11 q-9 9 -20 17 q-211 207 -264 496 q-72 0 -229 -51 q-13 5 -16 24 l10 17 q84 35 223 53 l0 11 q-8 62 -11 125.5 q-3 63.5 -10 125.5 q1 3 5.5 7 q4.5 4 7.5 5 l13 0 q14 -8 18 -17 q8 -60 10.5 -122 q2.5 -62 9.5 -131 q76 22 144 32 q68 10 135 23 q9 -3 14 -15 l0 -12 q-1 -6 -7 -10 q-6 -4 -11 -7 q-63 -13 -126 -22 q-64 -12 -131 -30 l-3 -18 q63 -263 228 -429 l15 -5 q31 165 43 213 q5 4 24 4 q8 -2 15 -15 l0 -17 q-46 -214 -54 -257 l-16 -6 Z" /><glyph glyph-name="uni4EE5" unicode="&#x4ee5;" d="M540 491 l-20 13 q-65 86 -139 149 l0 12 q1 3 5.5 8 q4.5 5 8.5 6 l14 0 q79 -51 152 -159 l0 -13 q-2 -12 -21 -16 ZM136 9 l-14 0 q-14 0 -14 26 q28 24 62 45.5 q34 21.5 70 47.5 q-9 25 -9 50 q0 25 -5 48 l0 78 q-15 98 -17 195 q-2 97 -14 192 q5 14 12 15 l15 0 l15 -15 q14 -94 17 -192 q3 -98 16 -195 l0 -80 q4 -17 8 -74 q194 141 259 197 l16 0 q14 -6 14 -26 q-185 -170 -431 -312 ZM383 -66 l-18 9 q-3 7 -3 19 q7 14 21 22 q127 51 194 113 q116 128 142.5 297 q26.5 169 49.5 326 q6 3 21 3 q8 -1 13 -14 l0 -49 q-24 -232 -82 -428 q54 -54 109.5 -101 q55.5 -47 102.5 -101 l0 -13 q-4 -11 -23 -16 q-12 2 -21 13 q-43 46 -89.5 86 q-46.5 40 -95.5 87 q-88 -140 -208 -203 q-29 -11 -57.5 -26 q-28.5 -15 -55.5 -24 Z" /><glyph glyph-name="uni4EEC" unicode="&#x4eec;" d="M493 585 q-15 0 -47 60 q-16 31 -36 55 l-1 12 q0 6 4 9.5 q4 3.5 6 6.5 q2 3 11 3 q11 -1 20 -5 q21 -23 35.5 -53.5 q14.5 -30.5 29.5 -55.5 q2 -6 2 -12 q0 -7 -7.5 -13.5 q-7.5 -6.5 -16.5 -6.5 ZM240 -70 l-14 0 q-9 3 -14 16 l-4 33 q0 120 2 241 q-2 79 -6 110 l0 171 q-32 -54 -51 -92 q-19 -38 -41 -68 q-9 -4 -20 -5 q-12 4 -17 22 q59 99 102 207.5 q43 108.5 83 214.5 q6 4 19 4 q10 -4 14 -14 l0 -16 q-15 -49 -34 -98 q-19 -49 -36 -104 l22 -12 l4 -6 q0 -204 4 -235 q0 -94 2 -187 l-2 -133 l2 -34 q-4 -11 -15 -15 ZM880 -75 q-104 37 -177 100 l-5 14 l10 18 q5 4 18 4 q30 -28 65.5 -46 q35.5 -18 82.5 -39 q5 33 5 60 l-8 614 l5 25 q-23 0 -34 -1 q-69 -13 -183 -24 q-62 -11 -78 -16 l-13 0 q-9 2 -16 13 l-1 11 q0 13 15 18 q28 5 34 9 q251 32 298 35 q19 -7 26 -23 l0 -16 q-5 -11 -5 -81 l1 -69 l-3 -181 l7 -342 q-4 -20 -6 -41 q-5 -42 -38 -42 ZM385 -70 q-12 5 -16 28 l3 15 q0 328 4 377 q-1 166 -5 181 q1 6 2 11.5 q1 5.5 6.5 10.5 q5.5 5 8.5 6 q24 0 28 -18 q0 -18 3 -27 q-3 -262 -3 -539 q-3 -10 -3 -25 q0 -20 -28 -20 Z" /><glyph glyph-name="uni4EF6" unicode="&#x4ef6;" d="M634 -72 l-18 8 l-8 19 l2 87 l-4 35 l0 162 q-52 0 -145 -13 l-124 -19 l-18 11 q-3 6 -3 20 q1 3 6 7.5 q5 4.5 8 5.5 q68 9 136 20 q69 9 141 12 l3 26 q0 105 4.5 132.5 q4.5 27.5 6.5 63.5 q-12 0 -98 -9 q-41 -5 -79 -12 l-17 9 l-8 23 q4 134 19 204 q6 3 18 3 l16 -14 l2 -49 l-8 -126 q15 0 160 18 q0 187 -3 221 l10 17 q9 4 20 5 q10 -4 14 -14 l4 -42 l0 -181 l157 23 q4 -1 8.5 -6.5 q4.5 -5.5 5.5 -8.5 l0 -12 l-14 -16 q-36 -7 -77 -11 q-41 -4 -83 -13 q-13 -98 -13 -129 q0 -76 -3 -101 l17 0 q60 6 121 7.5 q61 1.5 117 11.5 l18 -13 q5 -7 5 -19 q-1 -4 -6.5 -9.5 q-5.5 -5.5 -7.5 -5.5 q-63 -6 -128.5 -7.5 q-65.5 -1.5 -136.5 -9.5 l0 -162 l4 -35 l0 -99 q-1 -3 -6 -8 q-5 -5 -9 -5.5 q-4 -0.5 -6 -1.5 ZM206 -74 l-17 16 l2 251 l-4 49 l0 183 q-34 -54 -55 -91 q-21 -37 -50 -66 l-14 0 q-7 2 -15 14 l0 16 q149 211 211 497 q6 3 19 3 q8 -1 15 -14 q0 -47 -31 -145 l-46 -133 q24 -13 24 -19 l0 -13 q-7 -16 -13 -68 l0 -164 q4 -49 4 -291 l-11 -22 q-6 -3 -19 -3 Z" /><glyph glyph-name="uni4EF7" unicode="&#x4ef7;" d="M340 416 l-18 11 q-4 4 -4 21 q83 67 149.5 153.5 q66.5 86.5 126.5 172.5 l11 0 q19 -9 31.5 -26.5 q12.5 -17.5 24.5 -36.5 q15 -28 37 -52 q67 -78 136 -125 q47 -34 88 -71 q0 -20 -13 -25 l-17 0 q-180 115 -273 252 l-9 20 l-14 4 q-35 -65 -80 -120.5 q-45 -55.5 -90 -109.5 q-52 -41 -80 -66 l-6 -2 ZM723 -59 q-2 0 -3 2 q-9 6 -10.5 14.5 q-1.5 8.5 -2.5 17.5 l2 22 l-2 31 l2 252 l-2 92 q4 20 4 40.5 q0 20.5 10 33.5 q8 5 21 5 q5 -1 14 -15 q0 -16 -5 -63 l1 -343 l-1 -31 l1 -22 q-1 -10 -1 -18.5 q0 -8.5 -8 -13 q-8 -4.5 -20 -4.5 ZM235 -70 l-14 0 l-15 12 q-3 25 -3 104 q4 50 5 99 q1 49 5 97 l0 168 l-7 46 l-36 -49 q-20 -32 -40 -56 q-5 -6 -9 -11.5 q-4 -5.5 -10 -8.5 q-6 -3 -11 -3 q-19 0 -19 29 q11 15 24 30 q120 159 189 387 q5 4 19 4 q13 -4 14 -14 q0 -46 -36 -128 q-23 -56 -49 -114 q17 -10 17 -25 l-1 -6 q-5 -12 -5 -25 q0 -29 5 -57 l0 -167 q-4 -48 -6 -96 q-2 -48 -6 -96 q0 -83 2 -106 q-1 -4 -6 -9 q-5 -5 -7 -5 ZM364 -82 l-17 11 q-4 4 -4 17 q80 109 103.5 238.5 q23.5 129.5 36.5 253.5 q2 3 16 3 l15 -14 l2 -28 q-4 -127 -31.5 -251 q-27.5 -124 -104.5 -223 l-16 -7 Z" /><glyph glyph-name="uni4EFB" unicode="&#x4efb;" d="M367 -25 l-18 12 q-4 5 -4 18 q4 13 14 14 q38 0 73.5 6.5 q35.5 6.5 71.5 8.5 l91 0 l8 104 q0 156 3 182 q-34 0 -145 -16 q-60 -10 -117 -23 l-18 11 q-4 5 -4 19 q2 4 6 7 q4 3 7.5 5.5 q3.5 2.5 5.5 3.5 q63 13 127 23 l135 14 q0 213 -4 275 q-27 0 -117 -28 q-48 -16 -97 -20 q-14 5 -15 12 l0 14 l17 18 q106 27 216 52 q110 25 213 63 q2 -1 6.5 -6 q4.5 -5 5.5 -8 l0 -15 l-15 -16 q-50 -20 -169 -54 l-2 -44 l5 -238 q38 0 125 13 q54 9 112 9 q11 -5 14 -14 l0 -14 q-5 -13 -14 -14 q-59 -5 -116 -12.5 q-57 -7.5 -119 -10.5 q-2 -32 -2 -187 q-5 -24 -6 -49.5 q-1 -25.5 -4 -55.5 q20 0 32 3 l122 0 q18 -5 40 -5 q22 0 38 -11 q2 -3 3 -20 q-2 -13 -26 -16 l-54 8 l-125 0 q-15 -3 -163 -3 l-137 -15 ZM224 -55 q-12 5 -15 14 l-1 18 l1 93 l-2 196 l1 192 q-36 -51 -62 -88 q-26 -37 -55 -66 l-12 0 q-2 0 -7 7 q-7 5 -7 7 l0 17 q83 95 131.5 211 q48.5 116 84.5 232 q5 3 19 3 q4 -1 8.5 -5.5 q4.5 -4.5 5.5 -8.5 l0 -15 q-35 -124 -80 -236 l16 -11 q5 -9 5 -22 q-1 -17 -4 -314 l3 -190 l-2 -18 q-3 -15 -28 -16 Z" /><glyph glyph-name="uni4EFD" unicode="&#x4efd;" d="M880 412 l-6 0 q-11 5 -23 14 q-12 7 -22 16 q-55 55 -86 127 q-31 72 -62 147 q-22 0 -59 -12 q-16 -6 -38 -6 l-13 6 q-6 12 -6 17 q1 4 6 15 q71 23 123 28 l11 -6 q39 -72 71.5 -152.5 q32.5 -80.5 96.5 -142.5 q18 -8 27 -18 l2 -16 l-7 -11 q-9 -6 -15 -6 ZM329 410 l-10 6 q-7 11 -7 17 l1 3 q55 60 89.5 134.5 q34.5 74.5 70.5 146.5 q8 7 15 7 l4 -1 q6 -3 12 -8 q6 -5 6 -24 q-25 -49 -58 -118 q-29 -62 -64 -116 l-44 -45 l-15 -2 ZM667 -47 q-65 13 -120 61 q-10 10 -10 22 q1 4 8 15 q10 6 16 6 q7 -2 51 -33 q23 -17 56 -25 q33 100 59.5 198 q26.5 98 37.5 206 l-22 0 q-88 -11 -138 -28 l3 -18 q-43 -198 -198 -376 q-30 -27 -51 -27 q-18 11 -18 22 q0 4 7 17 q47 34 81.5 85 q34.5 51 65.5 101 q58 116 68 194 q-45 -6 -78.5 -16 q-33.5 -10 -64.5 -10 l-11 5 q-5 10 -5 18 q0 3 5 14 q170 47 377 69 q10 -6 19 -13.5 q9 -7.5 9 -21.5 l-1 -11 q-32 -247 -117 -449 q-8 -5 -29 -5 ZM236 -54 l-5 1 l-11 5 l-9 18 l0 149 l5 56 q0 196 5 292 l-115 -118 l-16 -2 l-9 5 q-7 13 -7 17 q0 3 12 24 q37 43 78 83 q55 60 117 202 l44 107 q7 6 20 6 l12 -6 q5 -10 5 -22 q-29 -88 -110 -246 l12 -13 l2 -51 l-4 -49 q0 -214 -6 -297 q0 -125 2 -143 l-6 -12 q-11 -6 -16 -6 Z" /><glyph glyph-name="uni4F0A" unicode="&#x4f0a;" d="M625 492 l57 5 q83 7 137 16 q0 11 8 83 l0 92 q-56 -5 -101.5 -13.5 q-45.5 -8.5 -96.5 -16.5 l-2 -31 q0 -101 -2 -135 ZM630 273 q78 7 158 18 q12 47 16 87.5 q4 40.5 11 89.5 q-56 -7 -101.5 -11 q-45.5 -4 -94.5 -10 l1 -32 q0 -28 -4 -54 q-7 -41 -9 -88 l23 0 ZM224 -67 l-16 0 q-9 8 -11 15 l-2 76 q2 110 5 133 q0 154 7 312 q-38 -54 -58 -93 q-41 -76 -71 -76 q-4 1 -9 6.5 q-5 5.5 -6 8.5 l0 16 q152 209 213 450 q4 2 20 2 q14 -2 14 -27 q-18 -57 -33 -113.5 q-15 -56.5 -44 -114.5 q11 -8 12.5 -17 q1.5 -9 4.5 -18 l0 -85 l-5 -33 q-1 -217 -5 -240 q0 -189 -6.5 -195 q-6.5 -6 -9.5 -7 ZM400 -77 l-18 9 q-5 7 -5 18 q8 12 42 48 q45 49 65 84 l17 38 q22 41 39 95 l-20 5 q-27 -9 -57 -10.5 q-30 -1.5 -58 -7.5 q-11 6 -14 14 l0 13 l16 18 q44 2 152 23 q16 97 16 175 q-35 -1 -253 -38 q-3 1 -7.5 5.5 q-4.5 4.5 -5.5 7.5 l0 14 l12 15 l126 23 l133 19 l2 35 q0 108 4 124 l-171 -32 l-18 10 q-4 5 -4 19 q5 11 15 15 q109 18 216.5 38.5 q107.5 20.5 213.5 36.5 l5 -4 l19 2 q10 -3 13 -15 q0 -18 -5 -38 l0 -86 l-5 -78 q37 0 67 4 q10 -4 15 -14 l0 -13 q-5 -12 -15 -14 l-73 -10 q-3 -40 -25 -186 l1 -17 q-4 -21 -125 -30 q-58 -5 -121 -14 q-48 -180 -171 -295 l-18 -6 Z" /><glyph glyph-name="uni4F18" unicode="&#x4f18;" d="M823 578 l-12 0 q-43 45 -81 75 q-27 22 -48 42 l0 11 q0 10 13 14 l18 0 q79 -49 124 -112 l0 -17 q-4 -9 -14 -13 ZM327 -43 q-13 3 -13 26 q41 32 82 71.5 q41 39.5 65 91.5 q31 64 54 129.5 q23 65.5 27 140.5 q-52 -3 -201 -30 q-12 5 -15 14 l0 13 l14 16 q83 23 208 32 l7 115 q0 142 -3 170 l10 19 q5 3 20 3 q9 -3 13 -14 l4 -36 l0 -142 l-8 -108 l23 0 q66 12 134 18 q58 5 115 12 l19 1 q13 -1 13 -28 q-1 -2 -6 -7 q-9 -10 -142 -22 l-77 -8 l-1 -63 l2 -58 l-2 -120 q-3 -15 -3 -38 l1 -83 l-1 -8 l25 -27 q39 -20 79 -32 l72 -2 q8 51 23.5 96 q15.5 45 26.5 89 l15 7 q22 0 22 -33 q-8 -43 -22.5 -86 q-14.5 -43 -22.5 -85 l2 -16 l-5 -9 l-11 -6 l-108 -2 q-61 20 -129 72 q-15 13 -15 42 q0 11 5 30 l-2 81 l4 20 q0 119 2 154 l-1 74 l-38 -5 q0 -11 -10 -93 q-54 -213 -162 -320 q-21 -16 -41.5 -35 q-20.5 -19 -47.5 -21 ZM228 -60 l-14 0 q-11 3 -16 21 q0 132 -2 264 l4 51 q0 80 -5 154 q-29 -51 -49.5 -81 q-20.5 -30 -40.5 -62 q-5 -4 -19 -4 q-11 4 -15 22 q72 103 120 222.5 q48 119.5 85 239.5 q6 3 19 3 q11 -4 15 -14 l0 -15 q-40 -137 -91 -272 q24 -13 24 -18 q0 -46 -2 -93 l2 -82 l-4 -51 q0 -137 2 -271 q-3 -13 -13 -14 Z" /><glyph glyph-name="uni4F1A" unicode="&#x4f1a;" d="M660 440 q-51 0 -139 21 q-60 13 -124 13 l-17 -2 l-22 13 q-5 6 -5 19 q2 4 6 8 l3 3 q3 3 83 3 q57 -11 115.5 -19.5 q58.5 -8.5 110.5 -25.5 q3 -3 3 -20 q-1 -8 -14 -13 ZM80 420 q-3 1 -8 7 q-5 4 -6 7 l0 13 l5 10 q93 35 169.5 101 q76.5 66 147.5 134 q28 29 50.5 60 q22.5 31 44.5 59 l12 0 l21 -14 q42 -90 84 -128 q64 -68 146 -108.5 q82 -40.5 164 -73.5 q3 -9 3 -20 q-2 -13 -24 -16 q-205 63 -334 201 q-36 40 -65 94 q-148 -184 -337 -301 q-21 -5 -38.5 -15 q-17.5 -10 -34.5 -10 ZM858 -84 l-19 10 q-49 85 -127 163 q-133 -67 -276.5 -94 q-143.5 -27 -283.5 -54 l-19 11 q-3 3 -3 19 q0 4 4.5 8.5 q4.5 4.5 8.5 5.5 q37 0 73 9.5 q36 9.5 74 18.5 q27 55 58.5 109 q31.5 54 56.5 122 l-19 2 q-57 -9 -114.5 -16.5 q-57.5 -7.5 -113.5 -20.5 q-2 0 -7 7 q-8 6 -8 16 l10 18 q168 35 344 48 q176 13 349 43 q14 -5 14 -27 l-15 -16 q-93 -11 -189.5 -26.5 q-96.5 -15.5 -196.5 -23.5 q-27 -55 -50.5 -109 q-23.5 -54 -62.5 -108 l17 -5 q179 28 320 94 q-35 28 -82 46 q-3 3 -3 21 l16 16 l17 0 q29 -10 55 -29 q51 -37 132 -139 q39 -49 60 -104 q-8 -15 -20 -15 Z" /><glyph glyph-name="uni4F20" unicode="&#x4f20;" d="M227 -65 l-14 0 q-13 4 -16 22 l1 193 l-5 92 l0 147 l-10 130 l-11 -31 q-43 -89 -81 -126 q-22 0 -28 14 l0 13 q50 75 86 153 q36 78 105 254 q5 4 19 4 q10 -3 15 -14 l0 -16 l-78 -206 l15 -8 l6 -9 l0 -81 l6 -77 l0 -147 l6 -92 l-1 -201 q-5 -11 -15 -14 ZM692 -100 l-18 13 q-21 49 -52.5 94 q-31.5 45 -63.5 91 q-20 21 -40.5 38.5 q-20.5 17.5 -35.5 40.5 q0 21 15 25 l14 0 q69 -58 109 -114 q55 35 96 94 l69 96 l-20 2 q-66 -11 -144 -15.5 q-78 -4.5 -167 -27.5 l-16 13 l-3 15 l45 164 q-43 -2 -166 -22 q-9 10 -13 16 l-2 8 q0 3 5 16 l128 24 l60 3 q26 76 37 121 l-149 -29 l-16 12 q-4 7 -4 18 q4 9 13 14 q88 19 170 33 l4 7 q27 104 51 156 l10 3 l16 0 l9 -15 l-1 -15 q-30 -84 -39 -126 q99 16 217 29 q9 -4 14 -15 l0 -12 q-5 -10 -14 -15 q-161 -20 -233 -36 q-28 -103 -42 -127 q151 16 388 16 q11 -4 14 -14 q0 -23 -13 -28 q-9 -2 -71 -2 l-197 -6 q-95 -9 -129 -11 q-12 -34 -39 -138 q236 21 344 36 q10 -5 18 -21 q1 -6 3 -9 l0 -9 q-48 -57 -96 -128 q-44 -66 -112 -112 q27 -43 47.5 -71 q20.5 -28 25.5 -63 q-3 -11 -26 -17 Z" /><glyph glyph-name="uni4F24" unicode="&#x4f24;" d="M409 510 q-11 5 -14.5 7 q-3.5 2 -5 6.5 q-1.5 4.5 -6.5 13.5 q21 65 33.5 131.5 q12.5 66.5 41.5 124.5 q0 1 17 1 l5 -4 q5 -4 7 -8 l0 -16 q-30 -94 -50 -198 l25 0 q111 20 223.5 34.5 q112.5 14.5 216.5 31.5 q10 -5 11 -12 l0 -17 q-1 -3 -7 -8 l-7 -4 q-124 -23 -247 -38 q-129 -13 -243 -45 ZM762 -80 q-99 70 -134 99 l0 13 q6 15 24 15 l115 -76 q45 86 69 163 q22 72 54 215 l-20 6 q-117 -27 -241 -41 q-75 -247 -242 -388 l-15 -5 l-15 7 q-4 5 -4 20 q164 144 225 352 q-64 -9 -100 -18 q-36 -9 -66 -13 q-6 0 -11 12 l0 15 l21 19 q66 18 173 35 q15 46 23 88 q6 42 23 78 q6 2 17 3 q9 -3 13 -12 l0 -22 q-7 -24 -10 -46 l-20 -81 q91 14 152.5 25 q61.5 11 121.5 21 l18 -8 q3 -1 8 -9 l0 -16 q-30 -116 -58 -234 q-28 -118 -108 -214 q-2 -1 -13 -3 ZM221 -84 l-5 3 q-7 6 -8 10 l-3 32 l6 30 l0 79 l-5 71 l10 151 l0 105 l-7 97 l-74 -83 q-21 -25 -47 -43 l-12 0 l-3 2 q-2 3 -4 4 q-2 1 -9 16 q95 88 154 191 q63 102 94 209 q10 3 17 3 q7 -3 13 -13 l0 -20 q-38 -134 -102 -232 l24 -20 q0 -18 -5 -41 l5 -70 l0 -105 l-11 -173 l5 -49 l0 -79 q-4 -14 -4 -28 l1 -14 q0 -26 -14 -31 q-1 0 -2.5 -1 q-1.5 -1 -13.5 -1 Z" /><glyph glyph-name="uni4F2A" unicode="&#x4f2a;" d="M777 -66 q-90 37 -151 108 l-11 23 l4 6 q6 11 9 13.5 q3 2.5 15 2.5 l30 -29 q41 -47 99 -74 q68 122 86 254 q18 132 32 269 l-21 3 q-67 -12 -273 -41 q-52 -291 -247 -517 l-17 -6 q-13 5 -17 8.5 q-4 3.5 -4 20.5 q178 201 240 487 l-183 -24 q-5 3 -11 5.5 q-6 2.5 -8.5 7.5 q-2.5 5 -2.5 17 q5 12 14 15 l197 25 l13 83 q11 94 29 182 q6 3 21 3 q9 -4 13 -14 q0 -56 -9 -103 l-21 -145 q86 13 157.5 21.5 q71.5 8.5 134.5 20.5 l13 -8 l17 2 q9 -3 15 -14 l0 -17 q-22 -147 -42.5 -301 q-20.5 -154 -105.5 -277 l-15 -7 ZM229 -66 l-14 0 q-13 4 -14 14 l-6 67 l0 89 l6 77 l0 188 l-7 85 q-35 -46 -58 -81 q-23 -35 -49 -62 q-22 0 -27 14 l0 13 q153 191 223 431 q5 3 20 3 q3 -1 7.5 -5.5 q4.5 -4.5 5.5 -8.5 q0 -33 -37 -127 q-20 -56 -48 -114 q17 -12 17 -24 l-1 -4 q-7 -12 -7 -29 q0 -46 5 -91 l0 -187 q-5 -17 -5 -38 q0 -21 -1 -40 q0 -89 4 -156 q-6 -11 -14 -14 ZM484 551 l-11 0 l-19 18 q-46 115 -51 147 q1 6 15 13 l12 0 l16 -14 q5 -20 20 -49 q29 -74 33 -101 q-3 -11 -15 -14 ZM739 198 l-20 10 q-16 32 -38 60 q-28 32 -40 51 q-17 27 -17 34 q0 6 9 17 q1 2 5 2 q4 0 7 1 l20 -11 l63 -81 q21 -28 31 -61 q0 -17 -20 -22 Z" /><glyph glyph-name="uni4F3A" unicode="&#x4f3a;" d="M338 460 l-15 17 l0 12 q1 4 5 8 q9 9 207 37 l198 27 q12 -5 15 -14 l0 -13 l-15 -15 q-99 -16 -198.5 -29 q-99.5 -13 -196.5 -30 ZM471 161 q36 11 102 17 l38 5 q14 49 17 94 q3 45 11 96 l-21 0 q-127 -18 -184 -31 q3 -49 10 -91.5 q7 -42.5 12 -89.5 l15 0 ZM451 63 l-14 0 q-3 1 -8 5 q-10 10 -24 156 l-19 144 q1 4 7.5 10.5 q6.5 6.5 122.5 23.5 q81 12 147 18 l21 -13 q3 -3 3 -21 q-13 -62 -17 -126 q-4 -64 -34 -118 q-4 -4 -19 -5 q-100 -6 -150 -24 l-3 -16 l2 -19 q-1 -5 -6.5 -9.5 q-5.5 -4.5 -8.5 -5.5 ZM207 -59 q-13 5 -16 30 q4 33 5 69 q1 36 5 71 q0 291 6 350 q-40 -48 -65 -86 q-25 -38 -58 -65 l-11 0 q-13 6 -17 22 l8 20 q151 168 219 441 q6 4 19 4 q4 -1 8.5 -6 q4.5 -5 5.5 -8 q0 -38 -33 -138 q-19 -62 -48 -123 q18 -12 18 -24 q0 -23 -7 -76 q0 -156 -2 -311 q-5 -37 -5 -74 q0 -61 -13 -92 q-6 -4 -19 -4 ZM843 -70 q-42 22 -86 41 q-85 35 -85 68 q5 10 14 14 l15 0 q42 -32 120 -62 l6 22 q0 353 -2 426 l4 57 l0 88 q5 28 6 112 l-15 0 q-110 -23 -221.5 -33.5 q-111.5 -10.5 -219.5 -29.5 l-17 10 q-4 6 -4 20 q1 3 5 8 q4 5 8 6 q124 17 248 31.5 q124 14.5 246 34.5 q9 -4 14 -15 l0 -95 l-7 -48 q0 -109 -3 -218 l1 -398 q0 -20 -11 -34 l-16 -5 Z" /><glyph glyph-name="uni4F3C" unicode="&#x4f3c;" d="M656 468 l-18 11 q-29 48 -61 99 q-32 51 -56 99 q4 10 13 13 l15 0 q36 -36 63.5 -83 q27.5 -47 58.5 -91 q1 -9 4.5 -15.5 q3.5 -6.5 3.5 -10.5 q0 -5 -6.5 -12.5 q-6.5 -7.5 -16.5 -9.5 ZM311 90 q-11 4 -14 14 l0 16 q20 23 46.5 36.5 q26.5 13.5 53.5 35.5 l6 12 q-7 40 -8 79 q-1 39 -5 77 l0 79 q-11 118 -19 229 q0 2 1.5 5 q1.5 3 2 7.5 q0.5 4.5 7 8 q6.5 3.5 20.5 3.5 q14 -5 15 -13 q0 -17 18 -240 l0 -79 l12 -145 q53 29 96 54 q43 25 88 43 q12 -5 12 -31 q-5 -9 -13.5 -14.5 q-8.5 -5.5 -14 -9.5 q-5.5 -4 -9.5 -6 q-76 -40 -150 -81.5 q-74 -41.5 -145 -79.5 ZM457 -53 q-8 0 -13.5 5 q-5.5 5 -6.5 9 l0 12 l6 12 q118 65 191 143 q101 136 131.5 299.5 q30.5 163.5 49.5 321.5 q7 3 18 3 q1 -1 4.5 -2.5 q3.5 -1.5 12.5 -14.5 q0 -91 -35 -280 q-23 -124 -74 -243 q152 -109 217 -204 l0 -12 q-5 -12 -14 -15 l-13 0 l-11 7 q-75 102 -201 181 q-86 -127 -225 -208 q-14 -6 -21.5 -10 q-7.5 -4 -15.5 -4 ZM237 -59 l-14 0 q-3 1 -8.5 5.5 q-5.5 4.5 -6 9 q-0.5 4.5 -1.5 8.5 q0 309 -2 488 q-35 -39 -56.5 -70 q-21.5 -31 -48.5 -55 l-13 0 q-12 3 -16 24 q87 93 133.5 210.5 q46.5 117.5 80.5 233.5 q5 3 21 3 q12 -2 12 -30 q-18 -57 -34.5 -115.5 q-16.5 -58.5 -41.5 -118.5 q14 -10 14 -23 l-1 -6 q-5 -12 -5 -33 q0 -21 -2 -32 q0 -244 3 -485 q-5 -10 -14 -14 Z" /><glyph glyph-name="uni4F46" unicode="&#x4f46;" d="M521 439 q54 10 106 15.5 q52 5.5 103 12.5 l11 -9 l8 8 q0 185 -5 229 l-11 0 q-56 -16 -112 -24.5 q-56 -8.5 -117 -25.5 l-2 -203 l19 -3 ZM507 181 q141 25 230 34 l4 -4 l8 7 l3 137 l-6 77 q-61 -16 -121 -21.5 q-60 -5.5 -123 -16.5 q0 -32 8 -102 q0 -85 -3 -111 ZM786 123 l-14 0 l-11 6 q-5 7 -5 18 l0 31 q-77 -16 -146.5 -24.5 q-69.5 -8.5 -133.5 -26.5 q-12 0 -15 29 l4 51 l0 85 l-7 70 l0 306 l9 18 q8 4 23 4 q75 14 145.5 28.5 q70.5 14.5 140.5 26.5 q3 -1 8 -6 q5 -5 6 -9 l3 -79 q0 -294 2 -415 l-2 -34 q6 -22 6 -65 q-4 -13 -13 -14 ZM330 -55 l-2 2 q-10 7 -11 12 l0 12 l12 17 q124 23 252 35 q200 19 341 19 q11 -3 15 -13 l0 -16 q-4 -11 -24 -16 l-79 2 q-309 -17 -504 -54 ZM233 -72 l-15 0 q-9 1 -15 21 q0 169 -2 338 q8 77 8 152 l-8 28 l-51 -76 q-22 -31 -48 -58 l-13 0 q-7 1 -14 15 l0 16 q77 92 121.5 205 q44.5 113 74.5 226 q5 3 19 3 q3 -1 8.5 -5.5 q5.5 -4.5 6.5 -8.5 q0 -23 -26 -111 q-20 -78 -55 -155 q13 0 21 -5 q3 -2 6.5 -4.5 q3.5 -2.5 3.5 -24.5 l-7 -22 q5 -21 5 -91 l-9 -84 q0 -239 2 -345 q-4 -13 -13 -14 Z" /><glyph glyph-name="uni4F48" unicode="&#x4f48;" d="M235 -42 l-4 1 l-11 6 q-11 46 -11 98.5 q0 52.5 -7 104.5 q0 94 2 187 l-2 95 q-34 -37 -53 -66.5 q-19 -29.5 -41 -53.5 l-16 -1 q-4 3 -7.5 5.5 q-3.5 2.5 -6 7.5 q-2.5 5 -2.5 8 q0 3 56 89 l6 2 q83 132 144 341 q11 6 21 6 l10 -6 q7 -12 7 -15 l-1 -6 q-32 -126 -84 -242 q9 -8 9.5 -16 q0.5 -8 0.5 -18 l-2 -23 l4 -209 l-2 -73 q7 -54 13 -204 q-11 -18 -23 -18 ZM635 -76 l-2 0 l-11 6 l-6 11 q0 163 -2 251 l2 182 q-81 -15 -144 -30 l-25 -5 l0 -12 q29 -106 52 -228 l-7 -14 q-1 0 -4.5 -2 q-3.5 -2 -6.5 -3.5 q-3 -1.5 -6 -1.5 q-3 0 -15 6 l-34 137 l-29 139 l7 10 q47 18 99.5 27.5 q52.5 9.5 112.5 22.5 l0 75 l-7 80 l-10 7 l-75 -17 q-36 -75 -88.5 -134.5 q-52.5 -59.5 -107.5 -114.5 l-15 -2 l-11 6 q-6 12 -6 22 q17 27 91 104 q46 45 80 111 q-27 0 -69 -12 q-25 -8 -51 -9 q-17 9 -17 22 q1 4 7 15 q37 12 76 22 q21 4 41 9 q20 5 44 10 q27 58 81 186 q12 6 20 6 l12 -7 q6 -9 6 -21 q-13 -36 -26 -73 q-13 -37 -42 -84 q101 14 187.5 30.5 q86.5 16.5 171.5 18.5 l10 -6 q7 -12 7 -21 l-6 -9 q-65 -7 -272 -44 q9 -45 11 -81 q0 -20 3 -83 q168 28 215 34 l4 1 l22 -10 q6 -10 6 -30 q-17 -112 -23 -157 q-13 -79 -45 -150 q-12 -11 -23 -11 l-6 1 q-53 17 -75 35 q-7 14 -7 16 q0 3 7 16 q9 8 16 8 q3 0 60 -25 q20 67 28.5 128 q8.5 61 21.5 129 l-18 0 q-45 -9 -90 -15 q-45 -6 -94 -16 q0 -196 -2 -263 l2 -175 l-6 -11 q-13 -7 -19 -7 Z" /><glyph glyph-name="uni4F4D" unicode="&#x4f4d;" d="M356 477 q-12 5 -15 13 l0 13 l17 17 q67 14 268 44 q-24 66 -86 194 l9 18 q6 3 20 3 q10 -1 14 -16 q61 -102 85 -196 q35 0 101 10 l79 10 q4 -1 9 -6.5 q5 -5.5 6 -8.5 l0 -13 q-6 -11 -18 -17 q-122 -13 -246 -27.5 q-124 -14.5 -243 -37.5 ZM508 128 l-12 0 l-11 6 q-23 140 -78 280 q5 11 15 14 l12 0 l16 -16 q33 -61 48 -130 q15 -69 24 -141 q-2 -9 -14 -13 ZM311 -46 q-3 1 -8 6 q-5 5 -6 8 l0 14 l17 16 q186 29 329 36 l-4 10 q49 102 81 212.5 q32 110.5 63 219.5 q5 3 19 3 q11 -2 15 -14 l0 -15 q-43 -188 -129 -411 l23 -2 q49 7 99 11.5 q50 4.5 99 9.5 q7 -2 14 -15 l0 -12 q-6 -11 -17 -17 q-148 -18 -298 -26.5 q-150 -8.5 -297 -33.5 ZM227 -65 l-15 0 q-10 1 -15 22 q0 129 2 258 l-2 267 q-38 -52 -62.5 -92 q-24.5 -40 -53.5 -70 q-24 0 -27 14 l0 12 q161 235 217 435 q5 4 19 4 q12 -5 15 -14 q0 -56 -82 -236 q8 -4 11 -7 q3 -3 7 -5.5 q4 -2.5 5 -5.5 l0 -14 l-6 -9 q0 -277 2 -452 l-2 -93 q-1 -2 -5 -7.5 q-4 -5.5 -8 -6.5 Z" /><glyph glyph-name="uni4F4E" unicode="&#x4f4e;" d="M672 2 l-13 0 l-11 6 l-41 115 q-17 33 -20 68 q3 11 13 14 l13 0 q12 -7 17 -18 q10 -31 25 -61 q15 -30 31 -110 q-5 -10 -14 -14 ZM474 428 q39 13 166 35 l0 46 l-6 43 l2 118 l-14 0 q-43 -18 -156 -63 l-3 -18 q0 -78 -2 -161 l13 0 ZM867 -38 q-41 25 -82 81 q-96 151 -142 373 l-8 4 q-44 -10 -87.5 -19 q-43.5 -9 -86.5 -24 q0 -251 -3 -264 l4 -26 q45 16 59.5 24.5 q14.5 8.5 45.5 16.5 q12 -4 14 -14 l0 -13 q-14 -19 -35 -28 q-124 -63 -207 -85 q-2 1 -7.5 6.5 q-5.5 5.5 -5.5 8.5 l0 12 l12 17 q17 3 76 32 l2 46 l-2 13 q2 457 6 477 q-4 7 -4 31 l13 15 l56 20 q179 62 325 123 q13 -4 14 -13 l0 -15 q-3 -7 -10 -12 q-7 -5 -140 -67 l5 -17 q0 -111 -2 -132 q6 -19 7 -37 l-1 -21 q34 0 92 18 q36 12 73 16 q11 -4 15 -14 l0 -14 q-4 -12 -28 -17 q-101 -28 -150 -35 q52 -252 172 -405 q20 48 28 93 q7 39 23 75 q6 3 20 3 q14 0 14 -30 q-33 -141 -57 -198 q-5 -5 -18 -5 ZM231 -65 l-13 0 q-12 2 -15 30 q3 10 3.5 23.5 q0.5 13.5 1.5 25.5 q1 290 3 389 l-4 79 q-34 -57 -60 -93 q-26 -36 -46 -71 q-6 -3 -20 -3 q-13 2 -16 26 q148 195 200 454 q6 3 19 3 q3 -1 8.5 -5.5 q5.5 -4.5 6.5 -8.5 q0 -47 -39 -165 l-19 -64 l19 -19 l0 -16 q-6 -39 -6 -116 l2 -97 q-3 -147 -4 -293 l-2 -41 q-3 -33 -19 -38 Z" /><glyph glyph-name="uni4F4F" unicode="&#x4f4f;" d="M642 618 l-13 0 q-7 3 -12 9 l-4 5 q-3 5 -8 9 q-18 42 -54.5 73 q-36.5 31 -48.5 71 q4 12 14 13 l12 0 q34 -28 66 -62 q29 -36 55 -72 q1 -8 4.5 -14.5 q3.5 -6.5 3.5 -10.5 q0 -9 -6 -14.5 q-6 -5.5 -9 -6.5 ZM341 -64 l-18 11 q-4 6 -4 19 q5 14 14 15 q66 6 132.5 11.5 q66.5 5.5 137.5 14.5 l3 114 q-3 52 -3 138 q-60 -7 -111 -15.5 q-51 -8.5 -102 -12.5 q-3 1 -8 6 q-5 5 -6 8 l0 13 l19 18 q50 3 100 11.5 q50 8.5 106 17.5 q0 114 -2 229 q-33 0 -128 -16 q-51 -11 -102 -18 l-18 10 q-4 5 -4 19 q5 10 16 15 q164 30 509 67 q14 -5 14 -27 l-14 -15 l-230 -28 q0 -159 2 -231 q29 0 102 15 q42 7 86 12 q9 -4 14 -15 q0 -24 -14 -27 l-185 -30 q0 -97 4 -188 l-4 -65 l26 0 q25 5 54.5 6.5 q29.5 1.5 54.5 5.5 q94 0 119 2 q11 -3 14 -15 l0 -13 q-3 -12 -13.5 -14.5 q-10.5 -2.5 -20.5 -4.5 l-99 0 q-71 -6 -441 -43 ZM235 -72 l-15 0 q-3 1 -8 5.5 q-5 4.5 -6 10 q-1 5.5 -1 99.5 q4 19 4 38 l-2 124 l2 75 l-4 63 l2 98 l-6 58 l-59 -96 q-26 -40 -60 -70 l-6 -2 l-18 11 q-5 7 -5 18 q149 184 216 425 q6 4 19 4 q12 -5 17 -16 l0 -23 q-19 -46 -31 -92 q-16 -46 -38 -97 q8 -6 12.5 -9 q4.5 -3 4.5 -7 l0 -14 q-7 -14 -7 -44 l5 -46 q0 -96 -3 -125 l5 -109 l-2 -86 l2 -58 l-5 -18 l0 -103 q-4 -12 -13 -14 Z" /><glyph glyph-name="uni4F53" unicode="&#x4f53;" d="M233 -72 l-13 0 l-15 12 l-6 68 q0 302 -2 386 l-10 49 q-23 -49 -85 -146 q-7 -4 -20 -4 q-3 1 -8.5 5.5 q-5.5 4.5 -6.5 9.5 l0 11 q73 107 117 226.5 q44 119.5 78 241.5 q6 4 20 4 q2 0 7 -5.5 q5 -5.5 6 -8.5 l0 -23 q-21 -61 -36.5 -123 q-15.5 -62 -39.5 -128 q21 -14 22 -21 l0 -15 q-4 -12 -4 -54 l4 -21 q1 -384 5 -451 q-1 -3 -5 -7.5 q-4 -4.5 -8 -5.5 ZM598 -78 q-3 1 -8 7 q-6 3 -7 7 l-2 29 q4 16 4 156 q-46 0 -75.5 -5.5 q-29.5 -5.5 -56.5 -9.5 l-18 10 q-4 6 -4 19 q5 12 14 15 q18 3 34.5 5 q16.5 2 32.5 5 q31 5 71 7 l-2 110 l4 60 q0 85 6 149 q-57 -119 -115 -198.5 q-58 -79.5 -120 -155.5 l-30 -25 l-10 -1 l-19 10 q-4 6 -4 17 q127 125 212 288 l54 112 q-65 -8 -116 -18.5 q-51 -10.5 -100 -16.5 l-18 8 q-6 10 -6 20 q0 4 7 12 q3 5 7 6 q64 5 127 17.5 q63 12.5 130 21.5 l5 9 l-1 187 l8 18 q7 6 18 6 q14 0 19 -15 q0 -52 -2 -105 l2 -95 q32 0 143 14 q62 6 127 7 q7 -1 12 -14 l0 -14 q-4 -11 -13 -15 q-77 -4 -253 -21 q39 -116 105.5 -206.5 q66.5 -90.5 137.5 -176.5 q18 -8 25 -22 l0 -15 q-5 -10 -13 -14 l-14 0 q-38 23 -90 88 q-40 62 -86.5 121.5 q-46.5 59.5 -83.5 147.5 q-6 -50 -6 -135 l-4 -60 l0 -99 q14 -6 36 -6 q15 1 32 1 q18 5 49 5 q13 -2 13 -30 q-8 -20 -93 -20 l-33 1 l0 -149 q-3 -10 -3 -29 q0 -25 -29 -25 Z" /><glyph glyph-name="uni4F55" unicode="&#x4f55;" d="M442 197 q40 13 127 25 q9 48 20 92 q11 44 11 96 l-37 0 l-135 -23 l-4 -25 q4 -39 6.5 -79 q2.5 -40 11.5 -86 ZM429 91 l-15 0 q-6 3 -14 16 q-1 79 -11 159 q-10 80 -12 160 l11 19 q5 4 18 4 q16 -15 24 -19 q77 13 103 19 q41 7 101 7 q8 -1 14 -15 q0 -54 -15 -137 l-29 -118 q-34 -14 -76 -15.5 q-42 -1.5 -84 -18.5 l-3 -13 l2 -33 q-5 -11 -14 -15 ZM199 -59 l-19 11 q-4 5 -4 19 l2 204 l-4 32 l0 249 q-31 -48 -49 -80.5 q-18 -32.5 -42 -57.5 l-13 0 q-11 5 -14 14 l0 16 q129 202 207 436 l21 3 q9 -3 14 -14 l0 -17 q-24 -63 -48 -127 q-24 -64 -56 -130 q12 -3 24.5 -6 q12.5 -3 12.5 -25 l-13 -21 l0 -240 l4 -32 l0 -218 q-4 -12 -23 -16 ZM773 -110 q-45 9 -88 29.5 q-43 20.5 -84 38.5 l-6 17 l10 18 q3 4 18 4 l21 -9 q79 -39 127 -53 q0 108 5 400 q0 245 -2 294 q-237 -14 -429 -43 q-14 10 -18 18 l0 15 q1 3 8 10 q14 13 498 52 l81 0 q10 -5 14 -14 l0 -15 q-3 -8 -15 -13 l-96 -6 q3 -53 3 -217 l4 0 l-4 -50 q0 -430 -7.5 -453 q-7.5 -23 -39.5 -23 Z" /><glyph glyph-name="uni4F5C" unicode="&#x4f5c;" d="M252 -65 l-12 0 l-16 15 l-6 94 q0 195 -2 220 l4 32 q0 82 -2 120 l5 33 q-45 -50 -71 -87.5 q-26 -37.5 -58 -66.5 l-12 0 q-15 3 -15 26 q156 170 235 452 q4 3 13 3 q18 0 24 -15 l0 -14 q-23 -60 -43 -125 q-20 -65 -51 -127 l19 -20 l2 -28 l-4 -67 l2 -84 l-4 -56 q2 -196 6 -291 q-5 -13 -14 -14 ZM606 -90 l-14 0 l-11 6 l-6 11 q0 158 4 184 q0 81 4 162 l0 143 l-4 83 l2 35 l-15 0 q-23 -8 -47 -11 q-26 -6 -50 -8 l-17 10 q-5 4 -6 12 q-4 7 -4 12 q48 200 65 255 q5 4 19 4 q12 -5 15 -14 l0 -19 q-15 -50 -25.5 -103 q-10.5 -53 -25.5 -109 l19 0 q96 27 196 37.5 q100 10.5 201 25.5 q13 -6 13 -29 q-1 -3 -5.5 -8.5 q-4.5 -5.5 -7.5 -6.5 q-69 -9 -137.5 -17.5 q-68.5 -8.5 -140.5 -19.5 l-4 -94 l4 -82 l20 0 q136 22 240 31 l10 -5 l6 -12 l0 -13 q-1 -7 -16 -14 q-64 -5 -128.5 -14.5 q-64.5 -9.5 -131.5 -16.5 l-4 -143 l14 0 q87 13 270 13 l16 -10 q5 -5 5 -20 q-1 -1 -6.5 -6.5 q-5.5 -5.5 -9.5 -6.5 q-4 -1 -7 -3 l-56 3 q-56 -3 -111.5 -4.5 q-55.5 -1.5 -113.5 -12.5 l-6 -50 l0 -161 q-1 -3 -5.5 -8 q-4.5 -5 -7.5 -6 Z" /><glyph glyph-name="uni4F60" unicode="&#x4f60;" d="M332 137 l-4 1 l-10 6 q-7 10 -7 15 l1 6 q43 53 75 115.5 q32 62.5 61 125.5 q7 6 20 6 q6 -3 11.5 -8 q5.5 -5 5.5 -23 q-13 -30 -28 -60.5 q-15 -30.5 -30 -62.5 q-29 -63 -77 -114 q-10 -7 -18 -7 ZM897 133 l-4 1 l-11 6 q-28 70 -71.5 133 q-43.5 63 -80.5 122 l5 9 q11 7 17 7 l3 -1 l28 -21 q73 -100 91 -130 q12 -28 27.5 -54.5 q15.5 -26.5 17.5 -53.5 l-6 -11 q-8 -7 -16 -7 ZM218 -34 l-5 1 l-11 5 q-6 8 -6 31 l2 31 l-2 112 l4 61 q-11 124 -11 182 l2 31 l-5 60 q-34 -45 -57.5 -77.5 q-23.5 -32.5 -49.5 -59.5 l-16 -2 l-10 6 q-7 13 -7 16 l1 3 q78 94 128 204.5 q50 110.5 89 222.5 q9 6 16 6 q3 0 15 -7 q7 -8 7 -21 q-15 -56 -38.5 -109 q-23.5 -53 -47.5 -114 l11 -3 q8 -7 8 -19 l-3 -30 l4 -116 l-2 -43 q9 -144 9 -180 l-4 -22 q0 -89 2 -148 l-8 -16 q-8 -5 -15 -5 ZM616 -46 l-4 0 q-44 15 -86 45 q-66 46 -81 55 q-6 12 -6 23 q6 11 10 12.5 q4 1.5 7 3 q3 1.5 7 1.5 q10 0 65 -40 q32 -24 74 -46 l4 118 l-4 79 q0 335 4 361 q-55 -11 -101 -22 q-9 -3 -20 -5 q-56 -14 -104 -38 l-10 5 q-5 6 -5 18 q40 124 82 290 q7 5 16 5 q4 -1 14 -6 l8 -16 q0 -3 -13 -59 q-14 -64 -46 -162 l16 -4 q118 29 230 63 q112 34 229 48 l10 -6 q1 -1 3 -4 q2 -3 3.5 -7 q1.5 -4 1.5 -8 l-1 -6 q-23 -45 -46.5 -91.5 q-23.5 -46.5 -54.5 -88.5 l-24 -21 l-16 -3 l-11 7 q-5 9 -5 19 q0 7 13 22 q9 8 15 16 q2 3 9 5 l58 117 q-65 -16 -116 -25.5 q-51 -9.5 -109 -33.5 q13 -12 17 -18 q1 -4 1 -12 q-1 -166 -5 -328 l6 -142 q-3 -30 -4.5 -60 q-1.5 -30 -13.5 -55 q-7 -6 -17 -6 Z" /><glyph glyph-name="uni4F73" unicode="&#x4f73;" d="M324 351 l-19 11 q-3 4 -3 19 q1 3 6 8 q5 5 9 6 q60 7 121 16 q69 11 144 20 l0 161 q-187 -29 -212 -32 l-18 10 q-4 6 -4 20 q1 4 8.5 8 q7.5 4 11.5 8 q53 4 105 13.5 q52 9.5 109 15.5 l0 150 q1 3 6 7.5 q5 4.5 8 5.5 l13 0 l17 -15 l1 -2 l0 -143 l14 0 q53 7 104 12.5 q51 5.5 99 13.5 q11 -5 15 -15 l0 -13 q-6 -23 -120 -31 q-55 -4 -112 -11 l0 -161 q31 0 146 17 q65 10 131 17 q6 -2 14 -16 q0 -25 -14 -27 q-145 -24 -291 -37.5 q-146 -13.5 -289 -35.5 ZM315 -62 q-14 7 -15 15 l0 12 l13 16 q64 8 127.5 15.5 q63.5 7.5 135.5 9.5 q0 94 -2 118 l2 60 q-25 0 -215 -30 l-19 10 q-3 5 -3 20 q1 3 5 8 q14 13 232 37 q1 38 1 69 q0 31 12 53 q2 1 5.5 2 q3.5 1 6 2 q2.5 1 6.5 1 q7 0 13 -5.5 q6 -5.5 7 -8.5 l0 -14 q-7 -37 -7 -92 q39 0 246 22 q6 -3 14 -16 l0 -12 q-7 -14 -14 -15 q-179 -21 -246 -23 l-2 -91 l2 -95 q59 0 151 8 q68 5 137 8 q12 -6 13 -14 l0 -14 q-1 -3 -5 -8.5 q-4 -5.5 -8 -6.5 q-192 -17 -361 -17 q-61 -4 -118 -10 q-28 -4 -57 -7 q-29 -3 -57 -7 ZM218 -69 l-14 0 q-3 1 -8.5 6 q-5.5 5 -6.5 10.5 q-1 5.5 -1 521.5 q-35 -48 -58.5 -81.5 q-23.5 -33.5 -51.5 -60.5 l-14 0 q-3 1 -7.5 6 q-4.5 5 -5.5 8 l0 17 q161 194 212 436 q5 3 19 3 q11 -4 13 -14 l0 -26 q-24 -112 -72 -216 l10 -13 l0 -582 q-1 -4 -6.5 -9 q-5.5 -5 -8.5 -6 Z" /></font>
</defs>
</svg>
